<?xml version="1.0" encoding="UTF-8"?>
<svg id="Calque_2" data-name="Calque 2" xmlns="http://www.w3.org/2000/svg" viewBox="0 0 22.96 76.84">
  <defs>
    <style>
      .cls-1 {
        fill: #8a7895;
      }
    </style>
  </defs>
  <g id="Calque_1-2" data-name="Calque 1">
    <g>
      <g>
        <path class="cls-1" d="m10.76,39.67c.29-1.69.62-3.46,1.53-4.94.23-.37.49-.72.8-1.03.09-.09.16-.13.25-.02.07.08.12.19.16.29.08.2.11.4.11.61,0,.91-.5,1.8-.96,2.57-.55.93-1.22,1.76-1.99,2.52l.21.06c-.43-1.83-.84-3.74-1.95-5.29-.23-.31-.49-.69-.9-.76-.16-.03-.33.01-.44.14-.14.17-.14.45-.15.67-.04.98.28,1.95.77,2.78.58.99,1.39,1.82,2.19,2.63.06-.06.12-.12.18-.18-.76-.63-1.53-1.25-2.29-1.87-.39-.32-.77-.63-1.16-.95-.19-.16-.39-.31-.58-.47-.16-.13-.32-.28-.5-.39-.27-.16-.69-.19-.87.13-.18.32.13.75.31,1,.44.6,1.08,1,1.73,1.34.93.49,1.88.92,2.82,1.37,0-.07.02-.14.03-.2-1.62.33-3.37-.08-4.9.68-.17.08-.33.18-.48.29-.13.1-.28.2-.33.37-.1.32.23.55.5.63.81.22,1.7-.07,2.45-.36.96-.37,1.92-.75,2.87-1.14.13-.05.07-.27-.06-.22-.77.32-1.55.63-2.33.93-.73.29-1.49.62-2.29.64-.18,0-.37-.01-.55-.05-.13-.03-.34-.11-.38-.26-.04-.16.19-.3.31-.38.15-.1.3-.19.47-.27.64-.3,1.37-.4,2.07-.44.91-.05,1.82-.01,2.71-.19.09-.02.11-.16.03-.2-.8-.38-1.59-.76-2.39-1.15-.61-.3-1.22-.61-1.72-1.08-.25-.24-.47-.51-.62-.83-.07-.15-.13-.35.05-.44.18-.09.37,0,.53.11.35.25.68.55,1.01.83.34.28.68.56,1.03.84.78.64,1.57,1.29,2.35,1.93.12.1.3-.06.18-.18-1.28-1.29-2.68-2.73-2.89-4.63-.02-.22-.03-.45-.02-.67.01-.17,0-.5.23-.51.38-.02.67.46.86.73.49.71.85,1.5,1.12,2.31.32.93.53,1.89.74,2.85.02.1.15.12.21.06.75-.71,1.4-1.52,1.94-2.4.27-.44.52-.9.72-1.37.19-.43.34-.89.36-1.37.02-.42-.06-.97-.38-1.27-.39-.36-.81.28-1.02.55-.57.73-.96,1.57-1.23,2.45-.33,1.03-.49,2.11-.65,3.18-.02.12.16.17.18.05h0Z"/>
        <path class="cls-1" d="m10.63,39.97c.58-.23,1.14-.51,1.66-.85.26-.18.52-.36.76-.57.23-.19.44-.39.67-.57.23-.18.49-.35.78-.4.08-.01.18-.03.19.07,0,.06-.02.13-.05.18-.06.12-.15.24-.24.34-.37.41-.9.64-1.41.82-.36.13-.72.25-1.09.37-.37.12-.76.2-1.12.33-.13.05-.08.23.06.2.38-.06.76-.2,1.13-.32.36-.11.73-.24,1.09-.37.56-.21,1.14-.46,1.54-.92.16-.18.37-.46.32-.72-.07-.33-.47-.24-.7-.16-.61.23-1.05.78-1.55,1.17-.64.5-1.34.91-2.08,1.24-.07.03-.02.16.05.13h0Z"/>
        <path class="cls-1" d="m10.36,40.09c-.71.2-1.3.56-1.87,1.02-.06.05-.02.15.04.17.6.15,1.24.08,1.8-.18-.05-.05-.09-.09-.14-.14-.1.2-.37.21-.52.35-.12.11-.2.32-.12.47.09.17.31.16.43.04.09-.09.14-.2.19-.31.08-.15.16-.3.23-.45-.05,0-.11-.01-.16-.02.04.22.16.53.45.47.11-.02.17-.11.22-.21.07-.17.12-.34.19-.51-.05,0-.1.01-.16.02.18.26.41.54.76.53.29-.01.47-.26.42-.54-.06-.33-.36-.5-.66-.58-.42-.11-.87-.19-1.3-.26-.14-.02-.21.19-.06.22.31.06.62.11.93.17.26.05.58.06.78.25.18.16.22.52-.08.56-.29.04-.49-.23-.64-.44-.04-.06-.13-.05-.16.02-.03.09-.06.17-.09.26-.03.08-.05.21-.1.28-.08.11-.19.06-.25-.04-.04-.07-.06-.17-.07-.25-.01-.07-.13-.08-.16-.02-.1.19-.2.38-.3.57-.03.06-.1.19-.18.18-.07,0-.05-.09-.04-.15.05-.14.2-.19.32-.25.13-.06.25-.14.31-.27.05-.1-.05-.18-.14-.14-.52.24-1.09.29-1.65.17.01.06.03.11.04.17.49-.47,1.13-.81,1.76-1.04.08-.03.05-.15-.03-.12h0Z"/>
        <path class="cls-1" d="m11.49,39.85c.09.06.15.16.18.26.03.1.03.21,0,.32-.01.04.02.08.05.1.04.01.08-.01.1-.05.09-.27-.03-.58-.27-.72-.03-.02-.07,0-.09.02-.02.03,0,.07.02.09h0Z"/>
        <path class="cls-1" d="m11.72,39.71s.06.06.09.1c.01.02.02.03.02.06,0,.01,0,.02,0,.03,0,0,0,.01,0,.02,0,.01,0,0,0,0,0,.02,0,.05,0,.07,0,0,0,.01,0,.02,0,.02,0-.01,0,0,0,.01,0,.02,0,.03,0,.01,0,.02-.01.03,0-.01,0,0,0,0,0,0,0,0-.01.01.01-.02-.01.01-.01.02,0,0,0,.01,0,.02,0-.01,0-.01,0,0,0,.01,0,.03-.01.04-.01.06.05.12.11.09.02,0,.03-.02.04-.03.02-.02.03-.05.04-.08,0,.02,0,0,0,0,0,0,0-.01,0-.02,0-.01,0-.03,0-.04.01-.07.01-.13,0-.2-.03-.12-.1-.23-.2-.3-.03-.02-.07,0-.08.02-.02.03,0,.07.02.08h0Z"/>
        <path class="cls-1" d="m6.18,37.74c-.66-.34-1.38-.7-2.15-.61-.58.07-1.19.41-1.36,1-.1.35.14.62.4.82.26.2.57.33.89.4.41.09.83.09,1.24.1.44,0,.87.03,1.31.07.99.09,1.97.27,2.96.41.12.02.18-.16.05-.19-.76-.15-1.53-.26-2.3-.36-.77-.1-1.53-.14-2.31-.16-.66-.02-1.42-.1-1.89-.63-.12-.14-.18-.26-.12-.45.05-.14.13-.27.24-.37.2-.2.45-.33.72-.39.76-.18,1.54.18,2.22.5.1.05.18-.1.09-.15h0Z"/>
        <path class="cls-1" d="m3.66,37.72c-.21-.01-.38.16-.44.35-.06.22,0,.44.2.57.2.13.48.12.68,0,.11-.06.21-.15.27-.26.07-.13.06-.28-.02-.41-.08-.14-.23-.23-.39-.26-.09-.02-.18-.02-.27,0-.1.01-.21.02-.3.07-.04.03-.07.08-.05.13.01.05.06.08.11.09.07,0,.14-.02.2-.03.06-.01.13-.02.19-.01.1,0,.19.04.25.09.06.05.11.12.09.2-.02.09-.09.16-.15.21-.07.04-.15.07-.22.08-.04,0-.09,0-.13,0-.03,0-.08-.02-.11-.03-.15-.06-.21-.18-.19-.33.02-.14.12-.29.27-.28.11,0,.11-.17,0-.17h0Z"/>
        <path class="cls-1" d="m3.6,38.19s0,.1.02.15c.01.02.03.04.06.06.02.01.05.02.07.02.02,0,.05-.02.05-.04,0-.02,0-.05-.03-.06,0,0,0,0-.01,0,0,0,0,0,.01,0,0,0-.01-.01-.02-.02,0,0,0,0,.01,0,0,0-.01-.01-.02-.02,0,0,0,0,.01.01-.01-.01-.02-.03-.03-.05,0,0,0,.01,0,.02,0-.01,0-.02,0-.03,0,0,0,.01,0,.02,0-.01,0-.02,0-.03,0,0,0,.01,0,.02,0,0,0-.01,0-.02,0-.02,0-.04,0-.05,0-.01-.03-.03-.04-.03-.04,0-.07.01-.09.05h0Z"/>
        <path class="cls-1" d="m8.3,34.84s0,.08,0,.12c0,.01,0,.02,0,.03,0,.02,0,.03,0,.05,0,.02.02.05.03.07.02.04.08.04.1,0,.01-.02.02-.04.03-.06,0-.02,0-.03,0-.05,0-.01,0-.02,0-.03,0-.04,0-.08,0-.12,0-.05-.04-.09-.09-.09-.05,0-.09.04-.09.09h0Z"/>
        <path class="cls-1" d="m10.28,41.5c.13,1.2.24,2.4.26,3.61.02,1.22-.04,2.44-.15,3.66-.22,2.45-.63,4.88-1.07,7.29-.4,2.25-.8,4.49-1.27,6.73-.46,2.23-.99,4.45-1.64,6.63-.65,2.18-1.43,4.33-2.4,6.39-.12.26-.24.51-.37.76-.04.08,0,.17.08.2.45.17.95-.02,1.29-.34.4-.37.61-.9.84-1.38.52-1.14,1-2.29,1.41-3.48.81-2.32,1.4-4.71,1.87-7.12.48-2.43.84-4.88,1.2-7.32.37-2.53.75-5.07,1-7.62.25-2.57.38-5.15.26-7.73-.02-.32-.04-.64-.06-.95-.01-.16-.26-.16-.24,0,.18,2.5.11,5.02-.1,7.52-.21,2.52-.55,5.03-.92,7.53-.35,2.4-.69,4.8-1.12,7.18-.43,2.36-.94,4.71-1.65,7.01-.36,1.16-.77,2.31-1.23,3.43-.24.58-.49,1.15-.76,1.71-.22.47-.47,1-.96,1.25-.24.12-.5.14-.75.05.03.07.05.13.08.2,1.02-2.04,1.84-4.18,2.53-6.35.69-2.19,1.25-4.43,1.73-6.67.48-2.24.89-4.5,1.3-6.76.43-2.41.88-4.83,1.13-7.27.25-2.42.32-4.88,0-7.3-.04-.3-.11-.59-.17-.89-.01-.06-.12-.05-.11.01h0Z"/>
        <path class="cls-1" d="m9.86,36.34c-.08-.56-.06-1.14.06-1.69.06-.25.13-.52.25-.75.09-.17.31-.46.51-.26.15.16.14.47.15.67.02.29.03.58.03.87,0,.61-.04,1.22-.12,1.82-.08.61-.26,1.28-.08,1.89.04.13.21.07.2-.05-.05-.34-.06-.67-.02-1.02.04-.33.1-.65.14-.98.08-.68.11-1.36.09-2.04-.01-.31-.02-.63-.07-.93-.04-.19-.12-.39-.31-.47-.54-.23-.8.59-.91.96-.18.66-.21,1.36-.08,2.03.02.1.17.06.15-.04h0Z"/>
        <path class="cls-1" d="m9,36.7c.25.39.48.79.7,1.19.11.2.22.4.32.6.11.21.2.43.33.62.02.04.09.02.07-.03-.07-.22-.19-.42-.29-.63-.11-.2-.22-.4-.33-.6-.23-.41-.48-.8-.75-1.19-.03-.04-.09,0-.06.04h0Z"/>
        <path class="cls-1" d="m10.24,35.4c.02.37.03.73.05,1.1.01.36,0,.72.06,1.07,0,.06.09.04.1-.01.02-.36-.02-.72-.04-1.08-.02-.36-.04-.72-.06-1.08,0-.07-.11-.07-.11,0h0Z"/>
        <path class="cls-1" d="m11.85,36.48c-.2.43-.41.87-.61,1.3-.1.21-.2.43-.3.64-.05.11-.1.21-.15.32-.05.1-.11.21-.13.32,0,.05.05.1.09.05.07-.08.11-.18.15-.28.05-.11.1-.21.15-.32.1-.22.21-.44.31-.67.2-.44.4-.87.61-1.31.03-.07-.07-.14-.11-.06h0Z"/>
        <path class="cls-1" d="m12.44,36.67c-.18.46-.38.9-.61,1.33-.23.42-.5.81-.74,1.23-.03.05.04.1.08.06.31-.38.55-.82.77-1.25.23-.44.42-.89.58-1.35.02-.05-.06-.07-.08-.02h0Z"/>
        <path class="cls-1" d="m6.78,37.65c.38.3.77.58,1.19.82.41.25.84.49,1.29.66.05.02.08-.06.04-.09-.42-.22-.86-.43-1.27-.67-.41-.24-.82-.5-1.21-.77-.03-.02-.06.02-.03.04h0Z"/>
        <path class="cls-1" d="m5.49,38.46c.62.29,1.26.54,1.92.74.33.1.66.18.99.25.18.04.35.07.53.1.16.02.34.07.5.05.05,0,.06-.07.01-.09-.16-.06-.34-.07-.5-.1-.17-.03-.33-.06-.5-.1-.33-.07-.65-.15-.97-.24-.66-.19-1.3-.43-1.92-.71-.07-.03-.13.07-.06.1h0Z"/>
        <path class="cls-1" d="m6.8,40.63c.46-.12.91-.23,1.37-.34.45-.11.93-.18,1.37-.33.06-.02.06-.13-.02-.13-.46.04-.92.18-1.37.29-.46.11-.93.24-1.39.38-.08.02-.05.15.03.13h0Z"/>
        <path class="cls-1" d="m9.31,35.15c-.41-2.31-.91-4.61-1.39-6.91-.06-.28-.12-.56-.18-.85-.03-.12-.07-.3.03-.41.11-.13.19,0,.24.1.23.48.42.99.57,1.5.31,1.04.47,2.11.59,3.18.07.63.11,1.26.16,1.89.04.66.06,1.33.13,1.98.01.12.19.12.19,0,0-.62-.05-1.25-.09-1.87-.04-.63-.09-1.25-.15-1.88-.12-1.13-.29-2.27-.61-3.36-.16-.55-.35-1.09-.61-1.6-.09-.18-.26-.28-.46-.19-.22.11-.26.35-.23.57.04.31.12.61.19.91.06.31.13.62.19.93.13.62.26,1.24.39,1.85.3,1.4.59,2.8.93,4.19.02.08.14.05.13-.04h0Z"/>
        <path class="cls-1" d="m9.12,29.47c.04-1.08.15-2.18.39-3.24.02-.11.06-.24.15-.3.09-.06.21-.06.32-.06.19,0,.37,0,.53-.09.31-.17.45-.54.5-.87.07-.4.05-.87-.22-1.2-.13-.15-.3-.26-.49-.29-.19-.03-.36.03-.53.11-.17.08-.35.2-.54.21-.25.02-.38-.24-.48-.42-.2-.39-.37-.83-.79-1.03-.48-.22-.9.11-1.24.42-.37.34-.67.76-.87,1.21-.04.09.04.19.14.14.24-.13.15-.46-.05-.59-.28-.19-.58.06-.72.29-.39.61-.61,1.57-.03,2.13.27.26.65.32,1,.21.39-.11.7-.38,1.01-.62.31-.24.66-.47,1.07-.44.16.01.33.07.44.2.15.16.17.4.16.61,0,.53-.04,1.07-.07,1.6-.02.56-.03,1.12-.04,1.68,0,.08.12.08.13,0,.05-.86.11-1.73.15-2.59.02-.37.1-.81-.03-1.17-.09-.26-.32-.44-.59-.5-.7-.15-1.21.38-1.73.75-.3.22-.71.42-1.09.3-.32-.1-.51-.42-.56-.74-.07-.42.1-.88.31-1.25.08-.13.21-.34.39-.33.1,0,.27.2.14.27.05.05.09.09.14.14.17-.39.41-.74.71-1.05.28-.28.71-.72,1.14-.5.41.2.54.68.76,1.05.09.16.21.32.39.39.15.06.32.04.47-.02.34-.13.7-.44,1.05-.16.35.27.36.82.28,1.22-.07.34-.26.7-.65.72-.18,0-.36-.02-.53.05-.17.07-.25.23-.3.41-.28,1.08-.37,2.22-.39,3.33,0,.11.17.11.17,0h0Z"/>
        <path class="cls-1" d="m6.61,25.78c.33-.05.65.16.85.4.11.13.19.29.26.45.04.08.07.16.1.24.03.08.05.17.1.25.04.05.14.04.13-.04,0-.1-.05-.2-.09-.29-.03-.09-.07-.17-.11-.26-.08-.18-.18-.35-.32-.49-.24-.27-.59-.43-.96-.37-.07.01-.04.12.03.11h0Z"/>
        <path class="cls-1" d="m5.94,23.51c-.31-.77-.53-1.6-.6-2.44-.02-.19,0-.39.1-.55.09-.14.24-.23.4-.27.35-.08.68.19.74.53.02.1.17.09.2,0,.09-.35.22-.68.37-1,.14-.29.3-.61.52-.86.23-.27.55-.27.81-.03.25.23.31.61.37.93.01.07.12.1.17.04.45-.57,1.19-1.41,2.01-1.05.89.39.85,1.55.75,2.35-.07.57-.21,1.13-.39,1.68-.03.08.06.15.13.13.29-.09.61-.18.91-.12.34.07.49.38.4.7-.19.7-1.06.96-1.7.78-.13-.04-.19.16-.06.21.76.26,1.82-.15,1.98-1,.07-.38-.11-.74-.48-.87-.36-.13-.78-.02-1.13.09.04.04.09.09.13.13.17-.53.3-1.08.37-1.63.07-.52.12-1.07-.02-1.58-.11-.41-.37-.8-.75-1.01-.38-.2-.81-.17-1.19.01-.46.23-.82.64-1.14,1.03.06.01.11.03.17.04-.07-.37-.15-.79-.45-1.04-.25-.21-.61-.29-.89-.1-.3.21-.49.61-.65.92-.2.38-.35.78-.46,1.19h.2c-.06-.37-.38-.67-.75-.7-.38-.04-.76.22-.88.58-.08.23-.04.49-.01.72.03.25.07.5.12.74.11.51.26,1.01.46,1.5.05.13.27.07.22-.06h0Z"/>
        <path class="cls-1" d="m10,20.64c-.16.51-.33,1.02-.51,1.53-.09.25-.19.5-.29.75-.05.12-.09.23-.14.35-.05.12-.13.24-.12.37,0,.06.06.08.11.04.1-.07.12-.21.17-.32.05-.12.09-.23.13-.35.1-.26.19-.52.28-.78.18-.52.34-1.04.48-1.57.02-.07-.09-.1-.11-.03h0Z"/>
        <path class="cls-1" d="m8.98,21.61c-.03.17-.06.34-.1.51-.02.08-.03.16-.05.24-.02.08-.04.17-.01.25.01.03.06.03.08,0,.06-.06.06-.15.07-.22.02-.08.03-.17.05-.25.03-.17.06-.33.09-.5.01-.08-.11-.12-.13-.04h0Z"/>
        <path class="cls-1" d="m8.58,21.29c-.03.16-.07.32-.1.48,0,.03,0,.07.04.08.03,0,.07,0,.08-.04.02-.16.05-.32.07-.48,0-.03,0-.05-.03-.06-.02,0-.05,0-.06.03h0Z"/>
        <path class="cls-1" d="m8.26,21.09c-.05.05-.08.11-.1.18,0,.03-.01.07-.01.1,0,.02,0,.04,0,.06,0,.02.02.04.03.05.03.04.09.02.09-.02,0,0,0-.01,0-.02,0,0,0,0,0,0,0,0,0-.02,0-.02,0-.01,0-.03,0-.04,0-.01,0-.03,0-.04,0,0,0,0,0,0,0,0,0,.01,0,0,0,0,0-.01,0-.02,0-.01,0-.03.01-.04,0,0,0,0,0,0,0,0,0-.01,0,0,0,0,0,0,0,0,0,0,0,0,0,0,0-.01.01-.02.02-.03,0,0,0,0,0-.01,0,0,0,0,0,0,0,0,0-.01.01-.02.02-.03.03-.07,0-.09-.02-.02-.07-.03-.09,0h0Z"/>
        <path class="cls-1" d="m7.77,21.22c0,.05,0,.11,0,.16,0,.03,0,.05,0,.08,0,.02,0,.03,0,.05,0,.01,0,.03.01.04.01.04.07.04.09,0,0-.01.01-.03.01-.04,0-.02,0-.03,0-.05,0-.03,0-.05,0-.08,0-.05,0-.11,0-.16,0-.03-.03-.07-.07-.07-.04,0-.06.03-.07.07h0Z"/>
        <path class="cls-1" d="m6.02,21.96c.01.06.03.11.04.17,0,.03.01.05.02.08,0,.01,0,.03.01.04,0,.02.02.03.03.05.02.03.08.01.09-.02,0-.02,0-.04,0-.06,0-.01,0-.03-.01-.04,0-.03-.01-.05-.02-.08-.01-.06-.03-.11-.04-.17,0-.03-.05-.06-.08-.05-.03.01-.05.04-.05.08h0Z"/>
        <path class="cls-1" d="m10.58,21.83c-.26.35-.5.73-.63,1.14-.01.04.05.07.08.03.2-.38.4-.76.66-1.11.05-.07-.06-.13-.11-.06h0Z"/>
        <path class="cls-1" d="m10.72,22.64c-.01.06-.03.11-.04.17,0,.03-.01.05-.02.08,0,.02,0,.04,0,.06,0,.02,0,.03,0,.05,0,.03.06.05.08.02.01-.01.02-.02.03-.04,0-.01.01-.03.02-.05,0-.03.01-.05.02-.08.01-.06.03-.11.04-.17,0-.04-.01-.08-.05-.09-.04,0-.08.01-.09.05h0Z"/>
        <path class="cls-1" d="m7.23,23.69c.05.04.11.08.16.12.03.02.05.04.08.06.03.02.06.03.09.05.03.01.06,0,.07-.01.02-.02.02-.05,0-.07-.02-.02-.05-.05-.07-.07-.03-.03-.06-.05-.09-.07-.05-.04-.11-.08-.16-.12-.01-.01-.04-.01-.06,0-.02,0-.04.02-.04.03-.02.04,0,.08.03.1h0Z"/>
        <path class="cls-1" d="m7.91,23.98c.14,0,.14-.22,0-.22s-.14.22,0,.22h0Z"/>
        <path class="cls-1" d="m7.79,25.33c.1.2.18.41.23.62.05.21.05.43.08.65,0,.05.09.05.1,0,.05-.22,0-.47-.06-.68-.06-.23-.15-.44-.26-.64-.04-.06-.13,0-.1.06h0Z"/>
        <path class="cls-1" d="m8.37,25.88c.06.12.11.24.13.38,0,.07,0,.13,0,.2,0,.07-.01.14-.02.21,0,.06.08.08.11.03.04-.07.06-.14.06-.22,0-.08,0-.16-.01-.24-.02-.15-.09-.3-.19-.42-.04-.05-.1.01-.08.06h0Z"/>
        <path class="cls-1" d="m7.58,26.67c-.87-.82-2.2-1.06-3.34-.83-.3.06-1.51.34-1.18.86.07.12.21.18.34.23.17.07.34.12.52.15.36.05.69,0,1.04-.07.46-.09.87.02,1.32.11.21.05.42.09.63.14.2.04.42.12.62.09.07-.01.06-.1.02-.13-.13-.09-.29-.11-.44-.14-.18-.04-.36-.08-.54-.13-.32-.07-.64-.16-.97-.21-.33-.04-.63.03-.95.08-.32.06-.63.05-.94-.04-.13-.04-.3-.08-.4-.18-.13-.12.12-.22.21-.27.25-.12.51-.2.77-.26.52-.11,1.06-.11,1.59-.01.6.12,1.14.37,1.64.7.06.04.12-.05.07-.09h0Z"/>
        <path class="cls-1" d="m4.97,25.49c-.2-.42-.46-.8-.77-1.15-.15-.17-.31-.33-.48-.48-.16-.14-.34-.31-.54-.39-.19-.09-.4-.02-.52.14-.14.17-.14.4-.07.6.14.39.46.74.78.99.19.14.39.26.61.35.2.08.46.19.68.15.07-.01.08-.12.02-.15-.15-.08-.34-.1-.5-.16-.17-.06-.32-.14-.47-.23-.3-.19-.57-.44-.76-.74-.1-.16-.22-.36-.17-.56.02-.08.07-.15.14-.19.09-.05.18,0,.26.05.32.21.62.48.87.77.3.33.55.7.75,1.1.06.11.23.01.17-.1h0Z"/>
        <path class="cls-1" d="m4.85,25.35c-.27-.59-.48-1.21-.64-1.84-.13-.54-.25-1.17.08-1.66h-.18c.29.51.51,1.06.64,1.63.07.29.11.57.13.87.02.29,0,.59.03.88,0,.08.13.11.15.02.07-.29.05-.6.03-.9-.02-.3-.07-.6-.13-.9-.13-.6-.36-1.17-.66-1.71-.04-.07-.14-.06-.18,0-.35.51-.26,1.15-.13,1.72.17.68.41,1.34.71,1.98.05.1.19.01.15-.09h0Z"/>
        <path class="cls-1" d="m6.47,20.38c0-.1.02-.2,0-.29-.02-.09-.03-.18-.05-.27-.04-.2-.08-.4-.13-.6-.09-.4-.18-.8-.27-1.2-.18-.78-.36-1.56-.55-2.33-.37-1.57-.75-3.14-1.12-4.71-.09-.39-.19-.79-.28-1.18-.05-.21-.17-.7.17-.75.36-.05.51.38.59.64.11.36.18.73.23,1.1.11.77.14,1.55.25,2.32.1.72.26,1.43.44,2.13.42,1.61.97,3.2,1.05,4.88,0,.15.24.15.24,0-.06-1.56-.52-3.05-.93-4.55-.21-.75-.4-1.51-.52-2.28-.12-.8-.16-1.61-.27-2.42-.05-.39-.12-.78-.23-1.16-.08-.3-.19-.64-.47-.81-.25-.15-.6-.13-.76.14-.16.25-.09.57-.03.84.39,1.66.79,3.32,1.18,4.98.22.94.45,1.88.67,2.82.11.47.23.94.35,1.41.06.23.12.47.18.7.03.11.06.22.09.32.03.12.09.21.14.31,0,.02.03,0,.03,0h0Z"/>
        <path class="cls-1" d="m3.84,9.07c-.17-.3-.36-.6-.52-.92-.05-.09-.02-.14.08-.17.12-.03.24-.02.36,0,.17.01.34.03.52.04.13,0,.31-.02.38.11.15.29.15.63.2.95.02.1.19.1.2,0,.04-.3-.04-.63-.14-.91-.05-.13-.1-.26-.23-.32-.13-.06-.31-.05-.45-.06-.16-.01-.32-.02-.48-.04-.12,0-.24-.02-.36,0-.23.04-.41.22-.31.46.07.17.18.32.27.47.1.17.2.33.3.5.07.12.25.01.18-.11h0Z"/>
        <path class="cls-1" d="m4.89,9.14c.91-1.5,1.82-3.06,2.06-4.83.05-.35.14-.8-.02-1.13-.05-.11-.2-.29-.34-.24-.15.05-.3.22-.4.34-.48.54-.69,1.26-.84,1.95-.23,1.02-.46,2.03-.77,3.02.08.01.17.02.25.03.02-.86,0-1.72-.06-2.58-.03-.42-.07-.84-.12-1.26-.02-.19-.05-.38-.07-.58-.02-.18-.04-.36-.1-.53-.08-.23-.25-.51-.54-.48-.3.03-.39.35-.44.6-.13.76-.17,1.53-.09,2.3.04.43.11.86.21,1.28.1.43.22.88.42,1.28.05.1.22.05.21-.06,0-.14-.02-.28-.02-.42,0-.1-.15-.1-.16,0-.01.14-.03.28-.04.42.07,0,.15-.02.22-.03-.11-.34-.24-.66-.34-1.01-.09-.33-.16-.67-.21-1.02-.1-.7-.11-1.41-.04-2.11.02-.17.04-.35.07-.52.02-.13.04-.29.12-.39.2-.26.39.16.43.32.09.36.11.74.15,1.1.04.36.07.73.1,1.09.06.86.08,1.72.06,2.58,0,.15.21.17.25.03.32-1,.55-2.01.77-3.02.17-.78.41-1.65,1.1-2.13h-.13c.15.07.18.25.18.4,0,.2-.02.39-.04.59-.05.43-.14.85-.27,1.26-.25.81-.61,1.59-1.01,2.34-.23.43-.47.86-.71,1.29-.06.1.1.19.16.09h0Z"/>
        <path class="cls-1" d="m3.99,7.55c-.46-.75-.79-1.54-1.03-2.39-.18-.62-.37-1.33-.87-1.78-.18-.16-.59-.48-.74-.13-.07.15-.05.36-.05.52,0,.19,0,.39.02.58.07.78.3,1.53.66,2.22.2.38.45.74.73,1.07.26.3.6.72,1.04.71.13,0,.12-.18,0-.19-.38-.03-.66-.4-.89-.67-.23-.27-.42-.55-.6-.86-.34-.6-.57-1.26-.68-1.95-.06-.36-.08-.72-.06-1.08,0-.07,0-.15.01-.22.02-.12.09-.08.17-.04.13.08.25.18.35.29.41.45.56,1.07.74,1.64.25.83.59,1.61,1.06,2.34.06.09.2,0,.14-.08h0Z"/>
        <path class="cls-1" d="m3.69,8.07c-.05.16-.05.33-.01.49.02.08.05.15.09.22.04.07.09.15.17.18.03.01.07-.03.06-.06-.02-.07-.07-.12-.11-.18-.04-.06-.06-.13-.08-.19-.04-.14-.03-.28,0-.41.03-.08-.1-.12-.13-.04h0Z"/>
        <path class="cls-1" d="m4.06,7.98c-.08.2-.08.41-.04.62.01.06.11.07.13.02.07-.15.14-.31.21-.46-.05-.01-.1-.03-.15-.04,0,.14.02.29.03.43,0,.1.15.12.18.02.01-.04.04-.08.07-.11.04-.04.06-.06.12-.08-.05-.04-.1-.07-.15-.11-.03.1-.02.21.02.3.02.04.05.08.08.12.05.05.1.08.17.06.06-.01.07-.08.05-.12,0-.02-.02-.04-.04-.05,0,0-.04-.03-.02-.02,0,0-.01,0-.02-.02,0,0-.01-.01-.02-.02,0,0,0,.01,0,0,0-.02-.02-.03-.03-.05,0-.02,0,.01,0,0,0,0,0-.01,0-.02,0,0,0-.01,0-.02,0-.02,0,.01,0,0,0-.02,0-.04,0-.05,0,.02,0,0,0,0,0,0,0-.02,0-.03.01-.04,0-.08-.04-.1-.03-.02-.07-.03-.11,0-.13.06-.22.18-.26.32.06,0,.12.02.18.02-.01-.14-.03-.29-.04-.43,0-.1-.13-.11-.16-.02-.06.16-.13.31-.19.47h.14c-.05-.18-.04-.37,0-.55.02-.07-.08-.09-.1-.03h0Z"/>
        <path class="cls-1" d="m3.14,7.89c-.46-.46-.93-.92-1.41-1.37-.4-.38-.84-.73-1.38-.88-.06-.02-.12.02-.14.08-.11.33.04.64.24.9.21.27.47.51.73.73.52.45,1.11.76,1.8.9.12.02.17-.16.05-.19-.46-.11-.93-.2-1.4-.27-.15-.03-.34-.05-.41.13-.06.14.02.29.12.39.25.24.65.3.98.27.37-.03.76-.14,1.1-.31.1-.05.03-.2-.07-.17-.53.13-1.11.42-1.66.16-.06-.03-.12-.06-.17-.1-.02-.02-.11-.12-.08-.15.03-.04.18.01.22.02.09.02.18.03.27.05.35.06.7.13,1.06.18,0-.06.02-.13.03-.19-.61-.07-1.15-.44-1.61-.82-.23-.19-.44-.4-.64-.61-.2-.23-.42-.52-.32-.84-.05.03-.09.05-.14.08.53.14.95.51,1.35.88.46.43.91.85,1.37,1.27.08.08.21-.04.13-.13h0Z"/>
        <path class="cls-1" d="m5.36,8.38c.42-.68.99-1.26,1.67-1.67.05-.03.17-.13.21-.04.03.06,0,.15-.03.2-.07.15-.19.3-.3.42-.24.26-.53.46-.84.62-.18.1-.37.18-.56.26-.19.08-.39.13-.56.24-.09.06-.03.17.07.16.21-.03.4-.13.59-.21.2-.08.39-.18.58-.28.36-.2.7-.44.96-.77.11-.14.23-.3.27-.47.03-.14.02-.32-.13-.38-.19-.08-.41.12-.55.22-.18.13-.36.26-.52.41-.39.35-.72.76-.98,1.21-.05.08.07.15.12.07h0Z"/>
        <path class="cls-1" d="m4.72,4.47c.05-.47.1-.95.26-1.41.07-.22.17-.43.31-.62.09-.13.42-.57.59-.39.15.15.11.5.1.69-.02.25-.07.5-.13.74-.13.49-.33.97-.5,1.45-.18.51-.39,1.08-.32,1.63,0,.05.08.07.09.01.05-.29.09-.57.16-.86.07-.27.17-.54.27-.8.21-.54.44-1.07.56-1.63.06-.27.09-.55.08-.82,0-.21-.03-.49-.23-.61-.23-.14-.48.08-.63.24-.18.18-.31.4-.41.64-.24.55-.29,1.15-.34,1.74,0,.1.14.1.15,0h0Z"/>
        <path class="cls-1" d="m3.61,4c0-.72-.06-1.49-.44-2.13-.11-.19-.45-.73-.72-.51-.13.1-.2.31-.24.47-.05.19-.06.39-.05.59.03.51.2,1,.28,1.5.01.08.14.06.14-.02-.06-.49-.24-.97-.26-1.47-.01-.22,0-.44.08-.65.03-.07.08-.24.15-.29.11-.07.24.12.3.19.54.62.6,1.52.66,2.31,0,.07.11.07.11,0h0Z"/>
        <path class="cls-1" d="m1.44,3.89c-.17-.36-.36-.72-.65-1-.12-.12-.29-.27-.46-.31-.18-.04-.26.11-.29.26-.19.9.34,1.75.81,2.46.29.43.59.88.75,1.38,0,.02.04.01.03,0-.05-.24-.11-.47-.22-.69-.11-.22-.23-.42-.35-.63-.25-.43-.55-.84-.72-1.31-.09-.24-.15-.48-.16-.74,0-.14,0-.28.03-.41.02-.08.04-.12.14-.11.04,0,.11.07.14.09.38.27.61.7.81,1.11.05.09.19.01.14-.08h0Z"/>
        <path class="cls-1" d="m.87,4.34c.22.39.43.79.63,1.19.2.4.4.8.63,1.19.02.03.07,0,.05-.02-.32-.84-.8-1.62-1.26-2.39-.02-.04-.09,0-.06.04h0Z"/>
        <path class="cls-1" d="m2.25,5.88c.11.35.25.7.41,1.04.08.17.17.34.26.5.09.16.18.32.3.45.03.03.07,0,.05-.04-.07-.16-.17-.31-.26-.46-.09-.16-.18-.32-.26-.49-.16-.33-.3-.67-.41-1.02-.02-.06-.12-.04-.1.03h0Z"/>
        <path class="cls-1" d="m2.67,6.01c.21.33.4.68.6,1.03.09.17.19.34.28.51.09.17.16.36.29.51.03.03.07,0,.07-.04-.04-.19-.16-.36-.25-.53-.09-.17-.19-.34-.29-.5-.2-.34-.43-.67-.65-1-.01-.02-.04,0-.03.02h0Z"/>
        <path class="cls-1" d="m3.86,5.98c.11.7.19,1.4.34,2.09,0,.04.08.03.08-.01-.06-.71-.19-1.41-.29-2.12-.01-.08-.13-.05-.12.03h0Z"/>
        <path class="cls-1" d="m5.68,5.9c-.09.33-.18.65-.3.98-.06.16-.12.31-.18.47-.06.16-.14.32-.18.48,0,.04.04.05.06.02.1-.14.16-.3.23-.46.06-.15.12-.31.18-.47.12-.33.22-.66.31-.99.02-.07-.1-.11-.11-.03h0Z"/>
        <path class="cls-1" d="m5.18,3.34c-.05.35-.1.7-.17,1.05-.06.34-.16.67-.21,1.02,0,.06.08.06.09.01.12-.33.17-.69.24-1.04.06-.34.12-.68.16-1.03,0-.06-.1-.08-.11-.02h0Z"/>
        <path class="cls-1" d="m5.31,3.9c-.02.05-.04.11-.05.16-.01.06-.03.11-.03.17,0,.02,0,.04.03.05.02,0,.05,0,.06-.02.02-.05.05-.11.07-.17.02-.05.04-.11.05-.17,0-.03-.01-.07-.04-.08-.03,0-.07,0-.08.04h0Z"/>
        <path class="cls-1" d="m1.44,3.13c-.36-.81-.49-1.71-.39-2.58.01-.09.02-.18.05-.26.06-.15.18-.08.29-.01.16.09.3.22.42.36.12.14.22.31.29.49.07.17.08.34.12.52.02.09.15.06.16-.02.03-.32-.14-.69-.32-.95C1.9.41,1.63.13,1.32.02c-.38-.14-.44.35-.46.6-.04.41-.03.83.03,1.24.07.47.21.92.41,1.35.05.1.19.01.15-.09h0Z"/>
        <path class="cls-1" d="m1.58,1.32c.07.27.13.54.2.81.03.13.07.27.1.4.03.13.06.27.12.39.02.05.1.02.09-.03,0-.13-.05-.26-.08-.38-.04-.14-.07-.27-.11-.41-.07-.27-.14-.54-.22-.81-.02-.07-.12-.04-.11.03h0Z"/>
        <path class="cls-1" d="m1.4,1.49c.02.17.05.34.09.51.04.17.08.34.17.49.02.04.08.01.07-.03-.03-.16-.1-.32-.15-.48-.05-.16-.08-.33-.11-.49,0-.04-.08-.03-.07,0h0Z"/>
        <path class="cls-1" d="m2.76,2.7c-.01.13,0,.26.02.39.02.13.05.27.12.38.03.04.09.02.08-.03-.03-.12-.09-.24-.11-.36-.03-.12-.04-.25-.04-.38,0-.04-.06-.04-.07,0h0Z"/>
        <path class="cls-1" d="m2.56,2.99s.03.09.05.14c.02.05.04.1.06.14,0,.02.03.02.05.01.02,0,.02-.02.02-.04,0-.05-.02-.1-.03-.14-.01-.05-.03-.09-.04-.14,0-.03-.04-.05-.07-.04-.03,0-.05.04-.04.07h0Z"/>
      </g>
      <path class="cls-1" d="m5.02,23.5c-.23-.48-.38-.99-.46-1.51-.08-.53-.06-1.04-.02-1.57-.06.03-.13.05-.19.08.42.34.64.86.76,1.38.13.57.2,1.16.33,1.73.03.12.22.09.21-.03-.04-.3-.11-.61-.16-.91-.06-.31-.11-.62-.19-.92-.07-.27-.16-.53-.29-.78-.13-.24-.31-.43-.49-.63-.06-.06-.17-.03-.19.05-.19,1.07.07,2.24.57,3.19.05.09.18.01.14-.08h0Z"/>
      <path class="cls-1" d="m4.81,22.43c.06.23.13.46.19.69.03.11.06.22.09.34.03.11.05.24.11.34.04.07.15.04.15-.04,0-.11-.06-.23-.09-.33-.04-.12-.07-.23-.11-.35-.07-.23-.14-.45-.21-.68-.03-.09-.16-.05-.14.04h0Z"/>
      <path class="cls-1" d="m5.06,22.64c.01.13.02.27.04.4.01.13.02.26.05.39.01.05.08.03.08-.01,0-.07,0-.13,0-.2,0-.06-.01-.13-.02-.19-.02-.13-.03-.26-.05-.39,0-.06-.1-.06-.1,0h0Z"/>
      <path class="cls-1" d="m4.74,25.83s.05.05.08.08c0,0,.01.01.02.02.01.01.02.02.03.03.02.01.03.02.05.03.01,0,.02,0,.04,0,.01,0,.02,0,.03-.02,0,0,.01-.02.02-.03,0-.02,0-.03,0-.05,0-.02-.01-.03-.02-.05,0-.01-.02-.02-.03-.03,0,0-.01-.01-.02-.02-.03-.03-.05-.05-.08-.08-.01-.01-.03-.02-.05-.02s-.04,0-.05.02c-.01.01-.02.03-.02.05,0,.02,0,.04.02.05h0Z"/>
      <path class="cls-1" d="m5.4,25.16c.06.15.17.28.31.36.13.07.33.14.46.05.04-.03.03-.09-.01-.1-.01,0-.03-.01-.04-.02-.02,0-.04,0-.06,0,0,0,0,0,0,0,0,0,0,0,0,0,0,0-.01,0-.02,0,0,0-.02,0-.02,0,0,0,0,0,0,0,0,0-.01,0-.02,0-.07-.01-.12-.03-.17-.06-.01,0-.03-.02-.04-.02,0,0-.01,0-.02-.01-.02-.02.01,0-.01,0-.02-.02-.05-.04-.07-.07,0,0-.01-.01-.01-.02,0,0-.02-.02,0-.01,0-.01-.02-.02-.03-.04,0-.01-.02-.03-.02-.04,0,0,0-.02-.01-.02,0-.02,0,0,0-.01-.02-.05-.06-.08-.11-.06-.04.01-.08.07-.06.11h0Z"/>
      <path class="cls-1" d="m5.73,24.92c.08.09.17.17.28.23.11.06.23.11.35.11.07,0,.09-.11.02-.13-.1-.03-.21-.06-.3-.11-.1-.05-.18-.12-.25-.2-.02-.03-.07-.03-.1,0-.03.03-.02.07,0,.1h0Z"/>
      <path class="cls-1" d="m6.25,24.75l.2.09s.07.03.11.05c.02,0,.03.01.05.02.03,0,.05,0,.08,0,.03,0,.05-.05.03-.08-.01-.02-.02-.04-.05-.05-.02,0-.03-.02-.05-.03-.04-.02-.07-.03-.11-.05-.07-.03-.14-.06-.2-.09-.03-.01-.08.01-.09.04-.01.03,0,.08.03.09h0Z"/>
      <path class="cls-1" d="m6.81,24.7s.07.07.1.1c.02.02.03.03.05.05.02.02.05.04.07.05,0,0,.01,0,.02,0,.01,0,.02,0,.03,0,.02,0,.03,0,.04-.02,0,0,.02-.02.02-.03,0-.02,0-.04,0-.06-.02-.02-.03-.05-.05-.07-.02-.02-.03-.03-.05-.05-.03-.03-.07-.07-.1-.1-.02-.02-.04-.03-.06-.03s-.05,0-.06.03c-.02.02-.03.04-.03.06,0,.02,0,.05.03.06h0Z"/>
      <path class="cls-1" d="m7.57,19.55c0,.06,0,.11,0,.17,0,.03,0,.07,0,.1,0,.01,0,.03,0,.04,0,.02.02.04.04.05.02.02.07.02.09,0,.01-.02.03-.03.04-.05,0-.01,0-.02,0-.04,0-.03,0-.07,0-.1,0-.06,0-.11,0-.17,0-.05-.04-.1-.09-.09-.05,0-.09.04-.09.09h0Z"/>
      <path class="cls-1" d="m7.99,19.38c-.01.07-.02.15-.03.22,0,.04-.01.08-.02.12,0,.02,0,.04,0,.05,0,.02,0,.05,0,.07,0,.03.04.05.06.05.03,0,.05-.02.06-.05,0-.02.02-.04.02-.06,0-.02,0-.03,0-.05,0-.04,0-.08.01-.12,0-.07.01-.15.02-.22,0-.03-.03-.06-.06-.07-.03,0-.07.02-.07.05h0Z"/>
      <path class="cls-1" d="m8.52,19.77s.02-.04,0-.04-.02.04,0,.04h0Z"/>
      <path class="cls-1" d="m7.01,19.59c.1-.82.42-1.63.94-2.28.12-.15.25-.31.39-.43.06-.05.13-.11.18-.02.02.04.02.1.03.14.03.12.05.24.07.37.04.24.05.47.05.71,0,.12,0,.25-.01.37,0,.12-.04.25-.03.37.01.12.16.14.2.03.08-.2.07-.45.07-.66,0-.23,0-.46-.03-.69-.03-.22-.06-.44-.12-.66-.04-.15-.14-.27-.31-.25-.17.02-.3.16-.41.27-.13.14-.25.29-.36.44-.23.31-.42.65-.55,1.02-.16.41-.25.84-.28,1.28,0,.11.15.1.16,0h0Z"/>
      <path class="cls-1" d="m8.84,18.87c.1-.29.24-.56.41-.8.08-.12.18-.24.28-.34.03-.03.11-.11.16-.06.03.03.01.1,0,.13-.03.14-.11.27-.17.4-.07.15-.14.3-.21.45-.15.31-.31.61-.45.92-.06.12.12.23.19.11.21-.36.38-.76.55-1.14.09-.19.17-.38.25-.57.05-.12.09-.27.02-.39-.07-.14-.23-.17-.36-.11-.15.07-.26.24-.36.37-.22.3-.38.63-.48.99-.03.1.12.14.15.04h0Z"/>
      <path class="cls-1" d="m9.22,19.48c.32-.68.81-1.28,1.42-1.72.15-.11.31-.21.48-.3.1-.05.53-.31.49-.05-.02.11-.12.21-.18.29-.07.09-.14.17-.21.26-.15.19-.31.36-.45.55-.07.09.05.21.12.12.14-.17.27-.35.41-.53.12-.16.27-.31.38-.48.07-.11.13-.27.05-.39-.08-.13-.24-.11-.37-.06-.65.25-1.22.71-1.65,1.25-.24.31-.44.64-.59,1.01-.03.07.08.11.11.05h0Z"/>
      <path class="cls-1" d="m9.12,29.81c.88-1.49,2.12-2.72,3.62-3.6-.05-.03-.1-.06-.15-.08.03.86-.69,1.47-1.31,1.95-.73.57-1.46,1.14-2.19,1.71.05.04.1.08.15.11.55-.72,1.46-1.1,2.36-1.04-.02-.05-.04-.11-.07-.16-.6.72-1.46,1.19-2.39,1.32-.12.02-.07.19.05.18.96-.13,1.85-.63,2.47-1.37.05-.06.02-.15-.07-.16-.96-.07-1.92.36-2.51,1.12-.08.1.04.21.13.13.77-.6,1.54-1.2,2.31-1.8.63-.5,1.26-1.12,1.26-1.98,0-.08-.08-.12-.15-.08-1.54.84-2.82,2.15-3.65,3.69-.05.09.08.16.13.08h0Z"/>
      <path class="cls-1" d="m11.29,27.47c-.3.43-.69.78-1.08,1.12-.19.17-.39.33-.59.49-.11.09-.22.18-.32.27-.1.08-.25.16-.3.28-.02.05.01.1.07.09.12-.03.22-.15.31-.23.11-.09.23-.19.34-.28.21-.17.42-.34.62-.52.4-.34.77-.72,1.07-1.15.05-.07-.06-.13-.11-.06h0Z"/>
      <path class="cls-1" d="m10.48,29.16c-.29.15-.57.3-.84.48-.27.17-.54.34-.77.57-.05.05.01.13.07.1.27-.16.52-.36.78-.54.26-.17.54-.34.82-.49.07-.04,0-.15-.07-.11h0Z"/>
      <path class="cls-1" d="m7.89,26.93c.03.11.02.23,0,.34-.03.11-.09.21-.15.32-.02.04.02.09.06.06.12-.08.18-.21.22-.34.04-.13.04-.28,0-.41-.02-.08-.15-.05-.13.04h0Z"/>
      <path class="cls-1" d="m8.1,27.2c-.01.15-.04.29-.09.43-.02.07-.05.13-.08.2-.01.03-.03.06-.04.09-.02.04-.03.07-.03.11,0,.03.04.06.07.04.03-.03.06-.05.07-.09.02-.04.03-.07.05-.11.03-.07.05-.14.07-.21.04-.15.06-.3.06-.46,0-.05-.08-.05-.08,0h0Z"/>
      <path class="cls-1" d="m8.26,27.81c-.03.09-.06.18-.11.27-.02.04-.05.09-.07.13-.01.02-.03.04-.04.06-.01.02-.02.05-.03.07,0,.02,0,.05.02.06.02.01.05,0,.06,0,.02-.02.04-.04.06-.06.01-.02.03-.04.04-.07.03-.05.05-.09.07-.14.04-.1.07-.19.09-.29.01-.06-.07-.08-.09-.03h0Z"/>
      <path class="cls-1" d="m8.43,28.18s-.03.1-.05.15c-.02.05-.03.1-.03.16,0,.05.06.07.09.02.03-.05.04-.1.05-.15l.03-.15s0-.05-.03-.06c-.03,0-.05,0-.06.03h0Z"/>
      <path class="cls-1" d="m8.86,29.91c-.03.14-.07.28-.12.41-.02.06-.05.12-.08.18-.02.03-.03.06-.05.09,0,.02-.02.04-.03.06,0,.02,0,.04,0,.06,0,.05.06.09.1.06.02-.01.03-.02.05-.03.01-.01.02-.04.04-.05.02-.03.04-.06.05-.1.03-.07.06-.14.09-.21.05-.14.09-.28.11-.43,0-.04-.01-.08-.05-.1-.04-.01-.09.01-.1.05h0Z"/>
      <path class="cls-1" d="m9.06,30.12c-.09.17-.17.34-.26.51-.05.09-.09.17-.13.26-.03.06-.11.19-.03.23.09.05.14-.1.16-.16.04-.09.08-.18.12-.27.08-.18.15-.35.23-.53.03-.06-.06-.11-.09-.05h0Z"/>
      <path class="cls-1" d="m8.95,31.09c-.04.07-.09.14-.13.21-.02.03-.04.07-.06.1-.01.02-.02.03-.03.05,0,.01-.01.03-.02.04,0,.01,0,.03,0,.04,0,.05.06.08.09.05.01,0,.02-.01.03-.02,0,0,.02-.02.03-.03.01-.02.02-.03.03-.05.02-.04.04-.07.06-.11.04-.07.08-.14.12-.22.02-.03,0-.08-.02-.09-.03-.02-.07,0-.09.02h0Z"/>
      <path class="cls-1" d="m8.98,31.73s-.03.07-.04.1c0,.02-.01.03-.02.05,0,0,0,.02,0,.03,0,0,0,.02,0,.03,0,.01,0,.03,0,.04,0,.01.02.02.03.02.03.01.05,0,.07-.02,0,0,.01-.02.02-.02,0-.01.01-.02.02-.04,0-.02.01-.03.02-.05.01-.04.03-.07.04-.11,0-.01,0-.04,0-.05,0-.01-.02-.03-.04-.03-.02,0-.04,0-.05,0-.01,0-.02.02-.03.04h0Z"/>
      <path class="cls-1" d="m9.17,32.42s-.03.04-.04.06c0,.01-.02.03-.02.04,0,.01,0,.02,0,.04,0,.02,0,.04.02.05,0,0,.01,0,.02,0,.01,0,.02,0,.03-.01l.03-.02s.02-.02.03-.04c.01-.02.03-.04.04-.06,0-.01.01-.03,0-.05,0-.01-.01-.03-.03-.04-.03-.02-.07,0-.08.02h0Z"/>
      <path class="cls-1" d="m10.56,55.26c1.46-3.3,2.8-6.65,4.17-9.99.67-1.62,1.33-3.25,2-4.87.55-1.31,1.12-2.62,1.85-3.85.71-1.2,1.57-2.31,2.66-3.19.26-.21.56-.47.89-.57.12-.04.26-.06.37.02.14.11.13.31.1.46-.07.39-.23.77-.38,1.13-.16.4-.35.8-.55,1.19-.77,1.53-1.59,3.03-2.43,4.52-.83,1.5-1.69,2.99-2.56,4.46-1.76,2.96-3.63,5.86-5.48,8.77-.23.36-.47.71-.7,1.06-.06.09.08.17.14.08.51-.73,1.03-1.44,1.53-2.17.5-.73.99-1.47,1.47-2.21.96-1.48,1.9-2.98,2.81-4.5,1.82-3.03,3.56-6.11,5.2-9.24.4-.76.79-1.54,1.08-2.35.12-.34.28-.74.2-1.1-.08-.35-.41-.53-.75-.49-.34.05-.62.25-.89.45-.29.22-.56.45-.83.69-.52.49-.99,1.04-1.41,1.62-.86,1.18-1.52,2.5-2.11,3.83-.67,1.52-1.28,3.08-1.91,4.62-1.4,3.43-2.81,6.86-4.16,10.31-.16.41-.32.83-.48,1.24-.03.09.12.16.16.07h0Z"/>
      <path class="cls-1" d="m21.07,34.63c-.74,1.24-1.48,2.47-2.21,3.71-.7,1.18-1.39,2.37-2.02,3.6-1.18,2.32-2.2,4.72-3.38,7.05-.33.64-.66,1.28-1.02,1.91-.36.64-.78,1.25-1.14,1.9-.05.08.07.19.14.11.4-.5.72-1.07,1.04-1.63.33-.57.64-1.14.94-1.72.6-1.16,1.15-2.33,1.7-3.52.55-1.18,1.09-2.37,1.67-3.54.61-1.23,1.26-2.43,1.94-3.62.8-1.4,1.59-2.81,2.39-4.21.02-.04-.04-.07-.06-.03h0Z"/>
      <path class="cls-1" d="m19.8,37.72l-.51.45c-.17.15-.34.29-.49.46-.03.03,0,.09.05.06.19-.13.35-.28.52-.43l.51-.46c.06-.05-.03-.13-.08-.08h0Z"/>
      <path class="cls-1" d="m19.67,38.46c-.22.16-.44.33-.64.51-.1.09-.2.18-.29.28-.05.05-.1.1-.15.15-.05.05-.1.1-.14.16-.02.03.02.08.05.05.05-.03.09-.08.13-.13.05-.05.1-.1.14-.15.09-.1.19-.19.29-.28.2-.18.41-.36.63-.52.04-.03,0-.1-.04-.07h0Z"/>
      <path class="cls-1" d="m19.14,39.42c-.19.16-.38.32-.57.48-.09.08-.19.16-.28.24-.05.04-.09.08-.14.11-.05.04-.1.08-.14.13-.03.04.02.07.06.06.05-.03.1-.07.14-.11.04-.04.09-.08.13-.12.09-.08.19-.16.28-.24.19-.16.37-.32.56-.48.04-.04-.02-.1-.06-.06h0Z"/>
      <path class="cls-1" d="m18.74,40.11c-.17.17-.34.33-.52.49-.09.08-.18.15-.28.22-.05.04-.1.07-.15.11-.04.03-.09.06-.12.11-.02.03.01.06.04.06.05-.01.1-.05.14-.09.05-.04.09-.07.14-.11.09-.08.19-.16.28-.24.18-.16.35-.33.51-.51.02-.02-.01-.06-.04-.04h0Z"/>
      <path class="cls-1" d="m18.2,41.1c-.19.15-.38.29-.57.44-.02.02-.04.03-.07.05-.02.02-.05.04-.04.07,0,.02.03.03.05.03.03,0,.06-.03.08-.05.1-.07.19-.15.28-.22.11-.08.21-.17.32-.25.04-.03-.01-.11-.06-.07h0Z"/>
      <path class="cls-1" d="m17.61,41.84s-.1.07-.15.11c-.02.02-.05.04-.07.06-.01.01-.03.02-.04.03-.01.01-.02.02-.03.03-.02.03,0,.06.04.05.01,0,.03-.01.04-.02.01,0,.02-.02.04-.03.02-.02.05-.04.07-.05.05-.04.1-.07.15-.11.02-.01.03-.03.01-.05,0-.02-.04-.03-.05-.01h0Z"/>
      <path class="cls-1" d="m17.45,42.2c-.08.08-.16.17-.24.25-.03.03-.06.07-.04.11,0,.01.02.02.03.02.03,0,.05,0,.07-.03.04-.04.08-.09.12-.13.05-.05.09-.1.14-.15.02-.02.02-.06,0-.08-.02-.02-.06-.02-.08,0h0Z"/>
      <path class="cls-1" d="m18.07,37.37c-.05.28-.09.56-.12.84-.01.14-.02.28-.02.42,0,.07,0,.15,0,.22,0,.06,0,.12.03.18.02.03.06.03.08,0,.06-.1.03-.25.03-.37,0-.14,0-.28.02-.42.02-.28.05-.56.1-.84.01-.07-.1-.11-.11-.03h0Z"/>
      <path class="cls-1" d="m18.28,37.39c-.05.32-.08.64-.12.96,0,.07.11.07.11,0,.02-.32.04-.64.06-.95,0-.03-.04-.03-.05,0h0Z"/>
      <path class="cls-1" d="m18.54,37.24c0,.1,0,.2,0,.29,0,.05,0,.09,0,.14,0,.05,0,.11,0,.16.01.05.09.05.1,0,0-.05,0-.1,0-.15,0-.05,0-.1,0-.15,0-.1,0-.2,0-.29,0-.07-.11-.07-.11,0h0Z"/>
      <path class="cls-1" d="m18.86,37.02s-.03.1-.04.15c-.01.05-.03.1-.04.15,0,.02.01.04.03.04.02,0,.04,0,.05-.02.02-.05.03-.1.04-.15.01-.05.02-.1.04-.15.01-.05-.06-.07-.07-.02h0Z"/>
      <path class="cls-1" d="m19.06,36.51s0,.07,0,.11c0,.02,0,.04,0,.06,0,.02,0,.04,0,.06,0,.03.06.03.07,0,0-.02,0-.04,0-.06,0-.02,0-.04,0-.06,0-.04,0-.07,0-.11,0-.02-.02-.04-.04-.04-.02,0-.04.02-.04.04h0Z"/>
      <path class="cls-1" d="m7.72,65.09c.33-2.86-.82-5.59-1.77-8.22-.5-1.39-.93-2.8-1.27-4.24-.34-1.45-.61-2.93-.83-4.4-.11-.74-.21-1.49-.3-2.24-.04-.34-.1-.69-.12-1.04-.02-.24-.01-.49.06-.73.06-.21.2-.39.43-.41.23-.03.42.14.54.32.15.22.24.47.3.72.09.36.15.72.22,1.09.6,3,1.21,6.01,1.72,9.03.26,1.52.49,3.04.67,4.57.18,1.51.27,3.03.36,4.55.02.38.04.76.05,1.15,0,.1.16.1.16,0-.02-3.14-.37-6.28-.84-9.38-.47-3.11-1.1-6.19-1.72-9.27-.08-.4-.16-.8-.24-1.2-.06-.31-.11-.63-.23-.94-.16-.43-.49-.97-1.03-.91-.53.06-.72.6-.75,1.06-.02.29.03.58.06.86.05.39.09.78.14,1.17.39,3.03.92,6.05,1.86,8.96.9,2.77,2.25,5.49,2.32,8.45,0,.35,0,.7-.03,1.05-.01.14.2.14.22,0h0Z"/>
      <path class="cls-1" d="m4.55,47.99c.44,2.14.93,4.27,1.4,6.4.47,2.1,1,4.19,1.42,6.3.11.58.22,1.15.31,1.73.09.6.14,1.2.23,1.8.01.08.14.06.14-.02,0-.53-.07-1.06-.14-1.59-.07-.52-.14-1.04-.24-1.55-.19-1.05-.42-2.09-.66-3.13-.49-2.12-.99-4.24-1.5-6.36-.29-1.2-.58-2.4-.89-3.6-.01-.04-.08-.03-.07.02h0Z"/>
      <path class="cls-1" d="m8.31,64.62c-.1.07-.19.13-.29.2-.1.07-.21.13-.27.23-.03.04.02.09.06.08.11-.02.21-.1.31-.16.1-.06.19-.13.29-.19.04-.03.06-.08.03-.13-.03-.04-.08-.06-.13-.03h0Z"/>
      <path class="cls-1" d="m8.05,65.25s-.01.01-.02.02c0,0,0,0-.01,0-.02.01,0,0,0,0-.01.01-.03.02-.04.03-.02.01-.03.02-.05.03,0,0-.02,0-.02.01,0,0,0,0-.01,0,.01,0,0,0,0,0-.03.01-.07.02-.11.03-.02,0-.03,0-.05.01-.02,0-.03,0-.04.02,0,0-.01,0-.01.01,0,0,0,.01,0,0,0,0,0,0,0,0-.02.02-.02.06,0,.08,0,0,.01.01.02.02.02.01.04.02.06.02.03,0,.05,0,.08,0,.04,0,.08-.02.12-.04.09-.04.16-.08.23-.15.03-.03.03-.09,0-.12-.03-.03-.08-.03-.12,0h0Z"/>
      <path class="cls-1" d="m7.99,65.69c-.06.08-.14.16-.21.23-.04.03-.08.07-.12.1-.01,0-.02.02-.03.03,0,0,0,0,0,0,0,0,0,0,0,0,0,0-.02.01-.02.02-.02.02-.04.04-.05.06-.03.04,0,.1.05.09.03,0,.06-.02.08-.03.02-.01.05-.03.07-.05.05-.04.09-.07.13-.12.08-.08.14-.18.2-.28.01-.02,0-.06-.02-.07-.03-.02-.05,0-.07.02h0Z"/>
      <path class="cls-1" d="m7.6,66.64s-.02.06-.03.08c0,0,0,.01,0,.02,0,0,0,.01,0,.02,0,0,.01.02.02.02,0,0,.02,0,.03,0,.01,0,.02-.01.03-.02.02-.03.03-.05.05-.08,0-.01,0-.03,0-.04,0,0,0-.02-.01-.02,0,0-.01,0-.02-.01,0,0-.01,0-.02,0,0,0-.01,0-.02,0,0,0-.01,0-.02.01,0,0-.01.01-.01.02h0Z"/>
      <path class="cls-1" d="m7.37,67.28s.01-.02,0-.02-.01.02,0,.02h0Z"/>
      <path class="cls-1" d="m5.32,47.82c-.08.25-.15.5-.21.76-.06.25-.12.51-.13.76,0,.06.1.08.11.02.06-.25.1-.51.16-.76.06-.25.12-.5.2-.75.02-.08-.1-.12-.13-.04h0Z"/>
      <path class="cls-1" d="m5.47,48.45c-.02.27-.07.53-.14.78-.04.12-.08.25-.12.36-.02.06-.05.13-.08.19-.02.05-.06.11-.06.17,0,.03.04.07.07.04.09-.07.13-.22.17-.33.05-.13.09-.27.13-.41.07-.27.1-.54.12-.81,0-.05-.08-.05-.08,0h0Z"/>
      <path class="cls-1" d="m5.61,49.12c-.05.25-.1.49-.16.74-.03.12-.06.24-.09.36-.03.12-.07.25-.09.37,0,.06.08.12.11.05.1-.23.15-.49.2-.73.06-.25.11-.5.15-.75.01-.08-.11-.12-.13-.04h0Z"/>
      <path class="cls-1" d="m5.71,50.3c-.04.12-.07.25-.11.37-.02.06-.04.12-.05.18-.02.06-.05.13-.04.19,0,.04.05.07.08.03.04-.05.06-.12.07-.19.02-.06.03-.12.05-.18.04-.13.07-.25.11-.38.02-.07-.09-.1-.11-.03h0Z"/>
      <path class="cls-1" d="m5.83,50.99s-.04.1-.05.15c0,.02-.02.05-.03.07,0,.03-.01.05-.02.08,0,.03,0,.06.04.07.03.01.06,0,.08-.03.01-.03.03-.05.04-.08,0-.02.02-.05.03-.07l.06-.15s-.01-.08-.05-.09c-.04,0-.07.01-.09.05h0Z"/>
      <path class="cls-1" d="m4.33,51.91c.14.22.29.43.45.63.16.2.33.39.55.53.03.02.08-.02.05-.05-.15-.2-.33-.37-.49-.56-.16-.19-.32-.4-.45-.61-.04-.07-.15,0-.11.06h0Z"/>
      <path class="cls-1" d="m4.7,53.16c.16.18.32.37.47.56.15.19.29.38.46.56.03.03.07,0,.05-.04-.12-.21-.27-.4-.43-.59-.16-.19-.33-.37-.5-.54-.03-.03-.08.02-.05.05h0Z"/>
      <path class="cls-1" d="m5.13,54.27c.09.17.2.33.32.49.06.08.12.15.18.23.06.08.13.15.21.2.04.03.1-.03.07-.07-.05-.08-.12-.14-.18-.21-.06-.07-.13-.14-.19-.22-.12-.15-.23-.31-.33-.47-.03-.05-.11,0-.08.05h0Z"/>
      <path class="cls-1" d="m5.8,55.49s.09.07.13.11c.02.02.04.04.06.05.02.01.04.03.06.04.02,0,.04,0,.06,0,.03,0,.04-.03.04-.05,0-.02,0-.04-.01-.05,0-.02-.02-.03-.04-.05-.02-.02-.04-.04-.06-.05-.04-.04-.09-.07-.13-.11-.02-.01-.03-.02-.06-.02-.02,0-.04,0-.06.02-.03.03-.03.09,0,.11h0Z"/>
      <path class="cls-1" d="m9.36,19.76c-.01.13-.03.26-.06.39-.01.06-.03.13-.05.19-.02.07-.04.13-.02.2,0,.04.06.04.08.02.05-.05.07-.12.09-.18.02-.07.03-.14.05-.21.03-.14.05-.28.06-.42,0-.04-.04-.07-.07-.07-.04,0-.07.03-.07.07h0Z"/>
      <path class="cls-1" d="m9.7,19.96c-.02.11-.05.21-.08.32-.02.05-.03.1-.05.15-.02.05-.06.11-.05.16,0,.06.07.09.11.05.04-.04.05-.11.07-.16.02-.06.03-.11.05-.17.03-.11.04-.22.06-.34,0-.05-.08-.07-.09-.01h0Z"/>
      <path class="cls-1" d="m10.11,19.83c-.03.05-.05.11-.07.17,0,.03-.01.06-.02.08,0,.02,0,.04,0,.05,0,.02,0,.04.01.06,0,.02.02.04.05.04.02,0,.05,0,.06-.03,0-.01.02-.03.02-.04,0-.02,0-.04,0-.05,0,.02,0,0,0,0,0,0,0-.01,0-.02,0-.01,0-.03,0-.04,0-.03.01-.05.02-.08,0-.01,0-.02.01-.04,0,0,0,0,0,0,0,0,0,0,0-.01,0,0,0-.01,0-.02.02-.03.01-.08-.03-.1-.03-.02-.08,0-.1.03h0Z"/>
      <path class="cls-1" d="m10.66,19.89s-.02.05-.04.07c0,.02-.02.03-.02.05,0,.02,0,.03,0,.05,0,.02,0,.03.02.04.01,0,.03,0,.05,0,.01,0,.03-.02.04-.03.01-.01.02-.03.03-.05.01-.02.03-.05.04-.07,0-.02.01-.04,0-.06,0-.02-.02-.03-.03-.04-.02,0-.04-.01-.06,0-.02,0-.03.02-.04.03h0Z"/>
      <path class="cls-1" d="m11.29,21.05c-.06.12-.13.23-.2.34-.07.11-.16.21-.21.33-.03.08.05.15.12.09.1-.09.17-.22.24-.33.07-.11.13-.23.19-.35.02-.04.01-.09-.03-.11-.04-.02-.09,0-.11.03h0Z"/>
      <path class="cls-1" d="m11.62,23.39c-.05.04-.11.08-.16.13-.03.02-.05.04-.08.06-.01.01-.03.02-.04.03-.02.01-.03.03-.04.05-.01.02-.01.05,0,.07.02.02.04.03.07.02.02,0,.04-.01.06-.02.02-.01.04-.03.05-.04.03-.02.05-.04.08-.06l.16-.13s.02-.04.02-.06c0-.02,0-.04-.02-.06-.02-.01-.03-.02-.06-.02-.02,0-.04,0-.06.02h0Z"/>
      <path class="cls-1" d="m11.89,23.59c-.06.07-.12.14-.2.2,0,0-.02.01-.03.02,0,0,0,0-.01.01-.02.01.01,0,0,0-.02.01-.04.03-.06.04-.02.02-.05.03-.07.05,0,0,0,0-.01.01,0,0,0,0,0,0-.02.02-.03.03-.04.06-.01.05.02.08.07.09.06,0,.11-.05.16-.09.04-.03.07-.07.1-.1.07-.07.13-.15.18-.24.01-.02,0-.05-.01-.06-.02-.01-.05-.02-.06,0h0Z"/>
      <path class="cls-1" d="m12.06,23.8s-.03.06-.05.08c0,0,0,0,0,0,0,0,.01-.02,0,0,0,0,0,.01-.01.02-.01.01-.02.02-.03.03,0,0-.01.01-.02.01,0,0-.02.01,0,0,0,0,0,0,0,0-.01,0-.03.02-.04.03-.03.02-.05.03-.08.05-.01,0-.03.03-.03.04,0,.02,0,.03,0,.05.01.03.05.05.08.04.04,0,.08-.02.11-.04.03-.02.07-.04.09-.07.05-.05.1-.11.13-.17,0-.02.01-.04,0-.06,0-.02-.02-.04-.04-.05-.02,0-.04-.01-.06,0-.02,0-.04.02-.05.04h0Z"/>
      <path class="cls-1" d="m10.28,24.15c.09.12.1.27.07.42-.04.17-.13.31-.2.46-.03.08.06.14.12.07.21-.28.36-.72.12-1.03-.05-.06-.15.02-.11.08h0Z"/>
      <path class="cls-1" d="m9.89,24.51c0,.08,0,.15-.03.23-.01.03-.03.06-.05.1,0,0,0,.02-.02.02,0,0,0,0,0,.01,0,0,0,0,0,0-.02.02-.02.03-.04.05-.02.02-.04.04-.04.07,0,.03,0,.05.03.07.05.02.1-.01.13-.05.06-.06.1-.14.12-.23.03-.09.03-.19.02-.28,0-.03-.04-.05-.07-.04-.03,0-.05.03-.05.06h0Z"/>
      <path class="cls-1" d="m9.54,24.65s0,.07,0,.1c0,0,0,0,0,.01,0,0,0,0,0,0,0,0,0,.02,0,.03,0,.02,0,.03-.01.05-.01.04-.02.05-.03.08,0,.02-.02.03-.03.05-.01.02-.02.04-.02.07,0,.02.01.04.03.05.02.01.04,0,.06,0,.02-.01.04-.03.05-.05,0-.01.02-.03.02-.05.02-.04.03-.07.04-.11.02-.07.02-.15.02-.23,0-.03-.03-.06-.06-.06-.03,0-.06.03-.06.06h0Z"/>
      <path class="cls-1" d="m8.83,24.45s.02.05.03.07c0,.01.01.03.02.04,0,0,.02.01.03.02.01,0,.03,0,.04,0,.01,0,.02-.01.03-.02,0-.01.01-.02.01-.03,0-.02,0-.04,0-.06,0-.02-.01-.04-.02-.06,0-.02-.02-.03-.03-.04,0,0-.02,0-.03,0,0,0-.02,0-.03,0-.02,0-.04.02-.04.03,0,.02-.01.04,0,.06h0Z"/>
      <path class="cls-1" d="m7.09,24.31c.11.09.22.17.35.24.06.03.12.06.18.09.03.01.07.03.1.04.04.01.07.02.11.02.03,0,.06,0,.07-.03.01-.03,0-.06-.02-.07-.12-.06-.24-.11-.36-.17-.12-.06-.23-.13-.33-.21-.03-.02-.07-.03-.1,0-.02.02-.03.07,0,.1h0Z"/>
      <path class="cls-1" d="m6.59,21.87c-.01.15,0,.31.02.46.01.07.03.15.05.22.02.05.04.18.11.17.09,0,.04-.13.03-.18-.02-.07-.04-.14-.05-.22-.03-.15-.04-.3-.03-.46,0-.08-.12-.08-.12,0h0Z"/>
      <path class="cls-1" d="m6.92,21.59c-.02.16-.02.31-.01.47,0,.08.01.16.03.23.01.07.01.17.06.22.03.04.09.02.1-.03.01-.04,0-.08-.01-.12,0-.04-.02-.08-.02-.11-.01-.07-.02-.14-.03-.21-.02-.15-.03-.3-.02-.45,0-.06-.08-.05-.09,0h0Z"/>
      <path class="cls-1" d="m7.16,21.76c0,.11,0,.22.01.33,0,.05.02.11.03.16,0,.02.01.05.02.07.01.03.02.07.05.08.03.02.07,0,.08-.03.01-.05-.02-.11-.04-.15-.02-.05-.03-.1-.04-.15-.02-.1-.03-.2-.03-.31,0-.06-.09-.06-.09,0h0Z"/>
      <path class="cls-1" d="m7.52,21.93c-.01.06-.02.12-.02.19,0,.06,0,.13.03.19.01.03.04.05.07.04.03-.01.05-.04.04-.07,0-.03-.01-.06-.02-.08,0-.01,0-.03,0-.04,0-.02,0-.02,0-.03,0-.06,0-.11,0-.17,0-.02-.02-.05-.04-.05-.02,0-.05.01-.05.03h0Z"/>
      <path class="cls-1" d="m7.77,22.2s0,.03,0,.04c0,0,0-.01,0-.02,0,.03,0,.07,0,.1,0,0,0-.01,0-.02,0,.02,0,.04-.01.06,0,0,0,.02,0,.03,0,0,0,.02,0,.03,0,.03,0,.06.03.07.02.01.06.01.08,0,0-.01.02-.02.03-.04,0-.01.01-.03.02-.04,0-.03.01-.05.02-.08,0-.05,0-.1,0-.15,0-.04-.05-.06-.09-.05-.04.01-.06.05-.05.09h0Z"/>
      <path class="cls-1" d="m3.61,24.52c.2.25.41.49.63.73.1.12.21.23.32.34.06.06.11.12.17.18.06.06.11.12.18.16.07.04.16-.04.11-.11-.04-.06-.1-.11-.16-.16-.06-.06-.12-.11-.18-.17-.11-.11-.23-.22-.34-.34-.22-.23-.43-.47-.64-.71-.05-.07-.15.03-.09.09h0Z"/>
      <path class="cls-1" d="m4.49,23.78c.08.27.15.54.21.82.03.13.06.27.08.4.01.07.03.14.04.22.01.06.02.14.06.19.02.03.07.03.08-.01.02-.06,0-.12,0-.18-.01-.07-.02-.14-.04-.22-.03-.14-.06-.28-.09-.41-.07-.28-.15-.56-.23-.83-.02-.07-.13-.04-.11.03h0Z"/>
      <path class="cls-1" d="m4.62,26.52c1.02-.16,2.04.26,2.89.78.08.05.15-.08.07-.12-.88-.54-1.94-.97-2.99-.77-.07.01-.04.12.03.11h0Z"/>
      <path class="cls-1" d="m6.86,26.57s.08.05.13.07c.02.01.04.02.06.03.01,0,.02.01.03.02.01,0,.03.01.05.02.03,0,.06,0,.07-.03.01-.03,0-.05-.02-.07,0,0-.02-.01-.03-.02,0,0-.02-.01-.03-.02-.02-.01-.04-.02-.06-.03-.04-.02-.08-.04-.13-.07-.03-.01-.06,0-.08.02-.01.03,0,.06.02.08h0Z"/>
      <path class="cls-1" d="m7.81,17.8c-.06.17-.11.34-.15.51-.02.09-.04.17-.06.26-.02.07-.06.19,0,.25.01.02.04.03.06.02.07-.05.07-.15.09-.22.02-.09.04-.18.06-.27.04-.17.09-.35.14-.52.03-.08-.11-.12-.13-.04h0Z"/>
      <path class="cls-1" d="m8.06,17.92c-.02.12-.05.24-.08.36-.01.06-.02.12-.03.18-.01.07-.03.13,0,.2.02.03.06.03.08.01.05-.05.05-.12.06-.19,0-.06.01-.12.02-.18,0-.12.02-.25.03-.37,0-.05-.07-.06-.08-.01h0Z"/>
      <path class="cls-1" d="m8.24,18.21c0,.09-.02.17-.03.26,0,.04,0,.08-.01.12,0,.04-.01.09-.01.13,0,.04.03.07.07.08.04,0,.08-.02.08-.06.02-.09.01-.18.02-.27,0-.09,0-.18.01-.26,0-.04-.03-.07-.07-.07-.04,0-.06.03-.07.07h0Z"/>
      <path class="cls-1" d="m10.62,18.07c-.12.11-.24.22-.36.33-.06.05-.12.11-.18.16-.06.06-.13.11-.17.18-.02.04.02.08.06.06.07-.04.13-.1.19-.15.06-.06.12-.11.18-.17.12-.11.24-.23.35-.34.05-.05-.03-.12-.08-.08h0Z"/>
      <path class="cls-1" d="m10.63,18.35s-.04.07-.05.11c0,.02-.02.04-.02.05,0,0,0,.02-.01.03,0,0,0,.02,0,.03,0,.01,0,.02,0,.03,0,.02.02.04.03.05.02,0,.04,0,.06-.01.02-.02.03-.03.05-.05.01-.02.02-.04.03-.05.02-.04.04-.07.05-.11,0-.02.01-.04,0-.06,0-.02-.02-.03-.03-.04-.03-.02-.08-.01-.1.03h0Z"/>
      <path class="cls-1" d="m5.77,21.7c.08.29.17.58.28.87.05.14.11.27.16.4.03.07.06.14.09.21.03.06.05.13.11.17.04.02.07,0,.08-.04,0-.07-.04-.13-.07-.2-.03-.06-.06-.13-.09-.19-.06-.14-.12-.27-.18-.41-.11-.27-.21-.55-.3-.83-.02-.05-.1-.03-.09.02h0Z"/>
      <path class="cls-1" d="m6.3,22.55c.03.07.06.14.1.21.02.03.03.06.05.09.01.02.02.04.04.06.01.02.03.03.05.04.02,0,.04.01.06,0,.02,0,.03-.03.03-.05,0-.02,0-.05-.02-.07,0-.02-.02-.03-.03-.04-.02-.03-.04-.06-.06-.09-.04-.06-.07-.12-.1-.19-.01-.03-.06-.04-.09-.03-.03.01-.06.05-.04.08h0Z"/>
      <path class="cls-1" d="m5.91,20.65s.02.05.02.08c0,0,0,.02,0,.02,0,0,0,.02,0,0,0,.01,0,.03,0,.04,0,.03,0,.05,0,.08,0,.01,0,.03,0,.04,0,.02,0,.04.02.06.02.04.07.04.09.01.02-.02.03-.03.04-.06,0-.01,0-.03,0-.04,0-.03,0-.07,0-.1,0-.06-.02-.12-.04-.18-.01-.04-.05-.07-.1-.05-.04.01-.07.05-.05.1h0Z"/>
      <path class="cls-1" d="m5.61,20.79s.02.09.03.13c.01.05.02.1.05.14.03.03.08.02.09-.02.01-.05-.01-.1-.03-.15l-.04-.13s-.04-.04-.06-.04c-.03,0-.04.04-.04.06h0Z"/>
      <path class="cls-1" d="m7.35,20.67s-.05.07-.07.1c0,.02-.01.03-.01.05,0,0,0,0,0,.01,0,.01,0,.02,0,.03,0,0,0,.02,0,.02,0,.02.02.03.04.03.02,0,.03-.01.04-.03,0,0,0,0,0-.01,0,0,0,0,0,0,0,0,0,0,0,0,0-.01,0-.02.01-.03,0-.01,0-.03.01-.04,0,0,0,.01,0,0,0,0,0,0,0,0,0,0,0,0,0-.01,0,0,0-.01.01-.02,0,0,0,0,0,0,0,0,0,0,0,0,0,0,0,0,0,0,0,0,.01-.01.02-.02.02-.02.02-.05,0-.07-.02-.02-.05-.02-.07,0h0Z"/>
      <path class="cls-1" d="m7.19,20.36s-.01.03-.02.04c0,.01,0,.03-.01.04,0,0,0,0,0,.01,0,0,0,.01,0,.02,0,0,0,0,0,.01,0,0,0,.01.02.01,0,0,0,0,.01,0,0,0,0,0,.01,0,0,0,.01,0,.02,0,0,0,.01,0,.02-.01,0,0,0,0,.01-.01,0,0,0,0,0,0,0,0,.01-.01.02-.02,0-.01.01-.02.02-.04,0,0,0-.02,0-.02,0,0,0-.02,0-.03,0,0,0-.02-.01-.02,0,0-.01-.01-.02-.02-.01,0-.03-.01-.05,0,0,0-.01,0-.02,0,0,0-.02.01-.02.02h0Z"/>
      <path class="cls-1" d="m10.86,20.52c-.03.05-.06.1-.09.15,0,0,0,.01-.01.02.02-.02,0,0,0,0-.01.01-.02.03-.03.04,0,0-.01.02-.02.02,0,0,0,0,0,0,0,0,0,.01,0,0,0-.01,0,0,0,0,0,0,0,0,0,0,0,0-.01.01-.02.02-.02.03-.03.07,0,.1.02.03.07.04.1.02.03-.02.06-.04.08-.07.02-.02.04-.05.06-.08.04-.05.07-.1.1-.16.02-.04.01-.1-.03-.12-.04-.02-.1-.01-.12.03h0Z"/>
      <path class="cls-1" d="m11.26,19.69s-.03.03-.04.05c0,0-.01.02-.02.03,0,0,0,0,0,.01,0,0,0,.02-.01.03,0,0,0,.01,0,.02,0,0,0,.02,0,.02,0,.01.01.02.02.03,0,0,.02,0,.03,0,.02,0,.03,0,.04-.02,0,0,0,0,.01-.01,0,0,0,0,.01-.01,0,0,.01-.02.02-.02.02-.02.03-.04.05-.06,0,0,0-.02,0-.02,0,0,0-.02,0-.03,0-.02-.02-.03-.03-.04-.02,0-.03-.01-.05,0,0,0-.01,0-.02,0,0,0-.02.01-.02.02h0Z"/>
      <path class="cls-1" d="m10.66,19.23s-.01.02-.02.04c0,0,0,.01,0,.02,0,0,0,.01,0,.02,0,0,0,0,0,0,0,0,0,.01,0,.02,0,0,0,.01,0,.02,0,0,0,0,0,.01,0,0,0,0,0,.01,0,0,.01,0,.02.01,0,0,0,0,.01,0,0,0,.01,0,.02,0,0,0,.01,0,.01,0,0,0,.01,0,.02-.01,0,0,0,0,.01-.01,0,0,0,0,0,0,0,0,.01-.01.02-.02,0-.01.01-.02.02-.03,0,0,0-.02,0-.03,0,0,0-.02,0-.03,0,0,0-.02-.01-.03,0,0-.01-.01-.02-.02,0,0-.01,0-.02,0-.01,0-.03,0-.04,0,0,0-.01,0-.02,0-.01,0-.02.02-.03.03h0Z"/>
      <path class="cls-1" d="m9.7,22.76c-.08.17-.15.34-.22.52-.03.09-.06.17-.09.26-.03.09-.06.18-.07.28,0,.06.09.09.12.03.04-.08.06-.18.08-.26.03-.09.05-.18.08-.27.06-.18.12-.35.2-.52.02-.06-.07-.1-.1-.04h0Z"/>
      <path class="cls-1" d="m10.12,23.08c-.01.06-.03.13-.05.19-.02.06-.05.12-.06.19,0,.02.02.05.04.06.02,0,.05,0,.07-.01.05-.05.07-.13.1-.19.02-.06.04-.13.05-.19,0-.04-.01-.08-.05-.09-.04,0-.08.01-.09.05h0Z"/>
      <path class="cls-1" d="m10.6,23.31s0,0,0,0c0,0,0-.01,0-.02,0,.02,0,.04-.02.06,0,0,0,0,0-.01,0,.02-.02.04-.03.06,0,0,0,0,0-.01,0,.01-.02.02-.03.03,0,0-.01,0-.02.01-.01.01-.02.04-.02.06,0,.02.03.04.05.04.02,0,.03-.01.05-.02,0,0,.02-.02.03-.03.04-.04.07-.1.08-.16,0-.02,0-.03,0-.05,0-.02-.03-.03-.04-.03-.02,0-.03,0-.04.01,0,0-.01,0-.02.02,0,0,0,.02,0,.03h0Z"/>
      <path class="cls-1" d="m10.97,23.32c-.04.08-.08.15-.13.22,0,.01-.02.03-.03.04-.01.02-.03.03-.04.05-.01.02-.03.03-.04.05,0,.01-.02.02-.03.03,0,.01,0,.03-.01.04,0,.04.02.06.06.06.03,0,.05-.01.07-.04.02-.02.03-.03.05-.05.03-.04.06-.08.08-.12.05-.08.08-.16.11-.25.02-.05-.06-.09-.09-.04h0Z"/>
      <path class="cls-1" d="m8.86,22.97c-.03.06-.06.12-.09.18-.01.03-.03.06-.04.09,0,.02-.02.03-.02.05,0,.02,0,.04,0,.06,0,.03.03.05.06.03.02-.01.03-.02.04-.04,0-.01.02-.03.02-.05.01-.03.03-.06.04-.09.03-.06.06-.12.09-.18.01-.02,0-.06-.02-.07-.02-.01-.06,0-.07.02h0Z"/>
      <path class="cls-1" d="m4.73,37.99c.02.13,0,.27-.06.38-.03.06-.06.11-.1.16-.05.05-.1.1-.15.15-.03.04,0,.11.06.1.15-.05.26-.21.32-.35.06-.15.09-.31.06-.47,0-.03-.05-.05-.08-.04-.04,0-.05.04-.04.08h0Z"/>
      <path class="cls-1" d="m4.98,38.52s0,.04,0,.06c0,0,0,.02,0,.03,0,0,0,.01,0,0,0,0,0,0,0,0,0,.04-.02.08-.03.12,0,0,0,.01,0,0,0,0,0,0,0,0,0,0,0,.02-.01.03,0,.02-.02.04-.03.05-.01.02-.02.03-.03.05,0,.01-.01.03-.02.04,0,0,0,.02,0,.02,0,.01,0-.02,0,0,0,.04.02.07.06.06.03,0,.05-.02.07-.03.02-.02.03-.04.05-.06.03-.04.05-.09.06-.13.03-.09.04-.18.03-.27,0-.04-.03-.07-.07-.07-.04,0-.07.03-.07.07h0Z"/>
      <path class="cls-1" d="m5.36,38.71c0,.07-.03.13-.05.19,0,0,0,0,0,0,0,0,0,0,0,0,0,0,0,.02-.01.02,0,.02-.02.03-.02.04,0,0,0,.01-.01.02,0,0-.02.04-.01.02,0,.02-.01.03-.01.05,0,0,0,.01,0,.02,0,.04.04.06.08.04.02,0,.03-.02.05-.03.01-.02.02-.04.03-.06.02-.03.03-.07.04-.11.02-.07.04-.14.04-.21,0-.03-.02-.05-.05-.06-.03,0-.06.01-.06.04h0Z"/>
      <path class="cls-1" d="m5.69,38.89s-.02.05-.02.07c0,.01,0,.02-.01.04,0,.01,0,.02,0,.04,0,0,0,.01,0,.02,0,.01.03.02.04.01,0,0,0,0,.01,0,.01,0,.02-.02.02-.03,0,0,0,0,0,0,0-.01,0-.02.01-.04,0-.02.01-.05.02-.07,0-.02,0-.05-.03-.05-.02,0-.04,0-.05.03h0Z"/>
      <path class="cls-1" d="m5.62,41.24s.02.03.03.05c0,0,0-.01,0-.02,0,.02.02.04.02.07,0,0,0-.01,0-.02,0,.01,0,.03,0,.04,0,.02,0,.05.02.07.01.01.02.03.04.03.02,0,.04,0,.05,0,.06-.04.05-.12.04-.18,0-.04-.03-.08-.05-.12-.01-.02-.03-.03-.05-.04-.02,0-.05,0-.06,0-.02.01-.03.03-.04.05,0,.02,0,.05,0,.06h0Z"/>
      <path class="cls-1" d="m5.94,41.06s.02.06.04.09c0,.02.01.03.02.05.01.03.02.06.05.08.02.01.04.01.06,0,.02,0,.03-.02.04-.05.01-.03,0-.05-.01-.08,0-.01-.01-.03-.02-.04-.01-.03-.02-.06-.03-.09,0-.02-.02-.04-.04-.05-.02,0-.04-.01-.06,0-.02,0-.04.02-.05.04,0,.02-.02.04,0,.06h0Z"/>
      <path class="cls-1" d="m6.34,41.06s.02.07.02.1c0,.02,0,.03.01.05,0,.01,0,.03.01.04.02.03.05.05.08.04.03,0,.05-.04.05-.07,0-.01,0-.03,0-.04,0-.02-.01-.03-.02-.05-.01-.03-.02-.06-.03-.1,0-.02-.01-.03-.03-.04-.01,0-.03-.01-.05,0-.03.01-.05.04-.05.08h0Z"/>
      <path class="cls-1" d="m6.71,41.15s.02.05.03.07c0,.01.01.02.02.03.01.02.02.03.04.04,0,0,.01,0,.02,0,0,0,.01,0,.02,0,0,0,.02,0,.02,0,.01,0,.02-.01.03-.02,0,0,0-.02.01-.03,0-.02,0-.04,0-.05,0-.02-.01-.03-.02-.05-.01-.02-.02-.05-.03-.07,0-.02-.03-.03-.05-.04-.02,0-.04,0-.06,0-.02.01-.03.03-.04.05,0,0,0,.01,0,.02,0,.01,0,.03.01.04h0Z"/>
      <path class="cls-1" d="m7.12,40.97s0,0,0,0c0,0,0,0,0-.01,0,.01.02.03.02.04,0,0,0,0,0-.01,0,.02.01.03.01.05,0,0,0-.01,0-.02,0,0,0,.02,0,.03,0,0,0,0,0,.01,0,0,0,.02,0,.03,0,0,0-.01,0-.02,0,0,0,0,0,.01,0,.03.02.05.04.06.01,0,.02,0,.03,0,.01,0,.03-.02.04-.03,0-.01,0-.02.01-.03,0-.01,0-.02,0-.04,0-.02,0-.04-.01-.06-.01-.04-.03-.07-.06-.1-.02-.02-.06-.02-.09,0-.01.01-.02.03-.02.04,0,.02,0,.03.02.04h0Z"/>
      <path class="cls-1" d="m7.53,40.56s.01.06.02.09c0,.03,0,.07,0,.1,0,.03,0,.05-.01.09,0,.04-.03.08-.03.12,0,.03.01.05.04.06.03.01.05,0,.08-.01.03-.03.04-.08.05-.13,0-.04.02-.08.02-.13,0-.08,0-.16-.02-.24,0-.04-.05-.06-.09-.05-.04.01-.06.05-.05.09h0Z"/>
      <path class="cls-1" d="m8,40.36s0,.07,0,.11c0,.02,0,.03,0,.05,0,0,0,0,0,.01,0,0,0,0,0,0,0,0,0,.01,0,.02,0,.03-.01.06-.02.09-.01.04-.03.08-.03.11,0,.03.02.06.05.07.03.01.06,0,.08-.02.04-.03.05-.08.06-.12,0-.04.01-.08.02-.12,0-.08,0-.15,0-.23,0-.04-.05-.06-.08-.05-.03,0-.07.04-.06.07h0Z"/>
      <path class="cls-1" d="m8.32,40.34s.01.04.01.06c0,0,0,.01,0,0,0,0,0,.01,0,.02,0,0,0,.02,0,.03,0,0,0,.02,0,.03,0,0,0,0,0,.01,0,0,0,0,0,0,0,0,0,.01,0,.02h0s0,.01,0,.02c0,0,0,.02,0,.03,0,.02,0,.04,0,.06,0,.03.04.06.07.06s.06-.02.07-.05c0-.02,0-.03,0-.05,0-.05,0-.09-.03-.13-.02-.05-.04-.09-.07-.13-.02-.03-.06,0-.05.03h0Z"/>
      <path class="cls-1" d="m8.74,40.29s0,.01,0,.02c0,0,0-.01,0-.02,0,.02.01.03.01.05v-.02s0,.04,0,.06c0,0,0-.01,0-.02,0,.02,0,.04-.01.05,0,0,0-.01,0-.02,0,.02-.01.03-.02.05,0,.01-.02.04-.02.05,0,0,0,.01,0,.02,0,.03.03.05.05.05.02,0,.04,0,.06-.01.02-.01.04-.03.05-.05.02-.03.03-.06.03-.09.01-.07,0-.14-.03-.2-.02-.04-.07-.05-.11-.03-.04.02-.05.07-.03.11h0Z"/>
      <path class="cls-1" d="m6.3,36.67s0,.09,0,.14c0,.02,0,.04,0,.07,0,.01,0,.02,0,.03,0,.01,0,.02,0,.04,0,.03.02.05.04.05.03,0,.05-.01.06-.04.01-.05.02-.1.02-.15,0-.05,0-.09.01-.14,0-.03-.03-.06-.06-.06-.03,0-.06.03-.06.06h0Z"/>
      <path class="cls-1" d="m6.57,36.89c.01.07.03.14.05.21.01.04.03.07.04.1.02.04.03.07.06.09.03.03.08,0,.07-.04-.01-.04-.03-.06-.05-.1-.02-.03-.03-.06-.05-.09-.03-.06-.06-.13-.08-.19-.01-.04-.06-.02-.05.01h0Z"/>
      <path class="cls-1" d="m6.94,37.19c.01.06.02.12.04.18.01.06.02.13.05.18,0,.02.03.03.05.02.02,0,.03-.02.03-.04,0-.07,0-.13-.02-.19-.01-.06-.02-.12-.04-.19,0-.03-.05-.05-.08-.04-.03.01-.05.04-.04.08h0Z"/>
      <path class="cls-1" d="m7.25,37.49c0,.05,0,.11.01.16,0,.03,0,.05.02.08,0,.03.02.05.04.07.02.03.06.02.06-.02,0-.03,0-.05,0-.08,0-.03,0-.05-.01-.08,0,0,0,0,0,0,0,0,0-.01,0-.02,0-.01,0-.02,0-.04,0-.03,0-.05,0-.08,0-.03-.02-.05-.05-.05-.03,0-.05.02-.05.05h0Z"/>
      <path class="cls-1" d="m7.63,37.84c-.01.09,0,.18.03.27.02.04.04.08.06.12.02.02.03.04.05.05.02.01.03.02.05.03.01,0,.03,0,.04,0,.02,0,.04-.03.03-.04,0,0,0-.02,0-.02,0-.02-.01-.03-.02-.05,0,0,0,0,0-.01,0,0,0,.01,0,0,0-.01-.02-.02-.02-.03,0,0,0,0,0-.01,0,0,0,0,0,0,0,0-.01-.01-.02-.02-.01-.02-.02-.03-.03-.05,0,0,0,0,0-.01,0-.01,0,0,0,0,0,0,0-.02,0-.03,0-.02-.01-.04-.01-.05,0,0,0,0,0-.01,0,0,0-.02,0,0,0,0,0-.02,0-.03,0-.02,0-.04,0-.06,0-.03-.02-.06-.05-.06-.03,0-.06.01-.07.04h0Z"/>
      <path class="cls-1" d="m8.16,38.15c-.01.1,0,.21.04.31.04.1.11.23.23.25.04,0,.07-.04.05-.07,0-.03-.03-.05-.04-.07,0,0-.02-.02-.02-.03,0,0,0,0-.01-.01,0,.01,0-.01,0-.01,0,0,0,0-.01-.01,0,0,0-.01,0,0,0,0,0,0,0-.01,0,0,0,0,0-.01-.01-.02-.03-.04-.04-.06-.04-.07-.06-.16-.06-.25,0-.03-.03-.06-.06-.06-.03,0-.05.03-.06.06h0Z"/>
      <path class="cls-1" d="m8.68,38.51c-.03.08-.04.17-.03.25,0,.04.02.09.04.13.02.04.05.09.09.1.04.02.07-.02.05-.05-.01-.03-.04-.06-.06-.09-.02-.03-.03-.06-.05-.1-.02-.07-.02-.15,0-.22,0-.03-.03-.04-.04-.02h0Z"/>
      <path class="cls-1" d="m8.97,38.76c-.03.1-.03.21,0,.3.01.05.03.1.06.14.03.05.08.1.13.1.03,0,.05-.03.04-.06,0-.04-.04-.08-.07-.11-.02-.04-.04-.07-.06-.11-.03-.08-.03-.16,0-.24.02-.07-.08-.1-.11-.03h0Z"/>
      <path class="cls-1" d="m9.26,39c-.02.1-.02.2,0,.29.01.05.03.09.05.14.01.02.03.05.04.07.02.03.05.04.08.04.03,0,.05-.03.06-.06,0-.03,0-.05-.02-.07-.01-.02-.02-.04-.03-.05-.02-.04-.04-.07-.05-.1,0-.02-.01-.04-.02-.06,0,0,0-.02,0-.03,0,0,0,0,0-.01,0,0,0,0,0,0,0-.04,0-.08,0-.13,0-.03-.03-.06-.05-.06-.03,0-.06.01-.07.04h0Z"/>
      <path class="cls-1" d="m9.55,39.22c0,.08,0,.15.02.23,0,.03.02.07.03.1.01.04.03.09.08.11.02,0,.05,0,.05-.02.01-.03.01-.04,0-.07,0,0,0-.01,0-.02,0,0,0-.01,0-.02,0,0,0,0,0,0-.01-.03-.02-.06-.03-.1-.02-.07-.03-.13-.03-.2,0-.07-.1-.07-.11,0h0Z"/>
      <path class="cls-1" d="m8.38,36.73c.12.1.25.19.37.28.13.09.25.18.4.23.04.01.07-.04.04-.07-.11-.1-.25-.17-.38-.25-.13-.08-.26-.17-.38-.25-.04-.03-.1.04-.05.07h0Z"/>
      <path class="cls-1" d="m8.73,37.23c.1.09.21.17.32.24.11.07.23.15.36.19.05.01.08-.06.04-.09-.11-.07-.22-.12-.33-.19-.11-.06-.22-.14-.32-.22-.04-.03-.11.02-.06.06h0Z"/>
      <path class="cls-1" d="m8.99,37.76c.08.05.15.1.23.14.08.05.15.1.24.13.04.02.08-.05.04-.08-.07-.06-.15-.1-.23-.15-.08-.04-.16-.09-.23-.13-.05-.03-.1.05-.05.08h0Z"/>
      <path class="cls-1" d="m9.34,38.32s.1.04.15.05l.07.03s.03.01.04.01c.02,0,.03,0,.05,0,.02,0,.05-.02.05-.04,0-.02,0-.05-.02-.06-.01,0-.02-.01-.03-.02-.02,0-.03-.01-.05-.02-.02,0-.05-.02-.07-.02-.05-.02-.1-.03-.15-.05-.03,0-.07.01-.07.04,0,.03,0,.06.04.07h0Z"/>
      <path class="cls-1" d="m9.81,37s-.03.08-.04.13c0,.02,0,.05,0,.07,0,.03,0,.05,0,.07,0,.02.02.03.04.03.02,0,.03-.02.03-.04,0-.02,0-.04,0-.06,0-.01,0-.02,0-.03,0,0,0,0,0,0,0,0,0-.01,0-.02,0-.04.02-.08.04-.12,0-.02,0-.05-.03-.05-.03,0-.04,0-.05.03h0Z"/>
      <path class="cls-1" d="m9.94,37.49s0,.01,0,.02c0,0,0-.01,0-.02,0,.04,0,.07,0,.11,0,0,0-.01,0-.02,0,.02,0,.03,0,.05,0,0,0-.01,0-.02,0,0,0,.01,0,.02,0,.02,0,.03,0,.04,0,0,0-.01,0-.02,0,0,0,.02,0,.03,0,.02.01.04.03.05.02,0,.04,0,.06-.01,0,0,.01-.01.02-.02,0,0,.01-.01.01-.02,0,0,0-.02.01-.03,0-.02,0-.05.01-.07,0-.04,0-.08,0-.13,0-.02-.02-.03-.03-.04-.01,0-.04-.01-.05,0-.02,0-.03.02-.04.03,0,.02,0,.03,0,.05h0Z"/>
      <path class="cls-1" d="m10.76,35.21s-.03.03-.04.05c0,0-.02.02-.02.03,0,0-.01.02-.02.03,0,.01,0,.02,0,.03,0,0,.02.01.03,0,0,0,.02-.01.03-.02.01,0,.02-.02.03-.03.02-.01.03-.03.05-.04,0,0,.01-.02.01-.03s0-.02-.01-.03c0,0-.02-.01-.03-.01-.01,0-.02,0-.03.01h0Z"/>
      <path class="cls-1" d="m10.79,35.43s-.05.05-.07.08c-.01.01-.02.03-.04.04-.01.02-.03.03-.04.05-.01.02,0,.05.01.07.02.02.05.01.07,0,.01-.01.03-.02.04-.03.01-.01.02-.03.03-.04.02-.03.04-.05.07-.08,0-.01.02-.02.02-.04,0-.01,0-.03-.02-.04-.02-.02-.05-.02-.07,0h0Z"/>
      <path class="cls-1" d="m13.52,35.09c-.36.19-.74.39-1.03.68-.03.03,0,.08.04.06.18-.09.35-.21.52-.32.17-.11.35-.22.53-.32.07-.04,0-.14-.06-.11h0Z"/>
      <path class="cls-1" d="m13.43,35.42c-.14.09-.28.19-.41.29-.07.05-.14.1-.2.15-.07.05-.13.11-.19.17-.03.03,0,.08.04.06.07-.04.14-.08.21-.14.07-.05.13-.1.2-.15.13-.1.26-.21.39-.32.03-.02,0-.07-.04-.05h0Z"/>
      <path class="cls-1" d="m13.17,35.97c-.09.04-.18.09-.27.14-.09.05-.18.1-.25.18-.04.04.01.11.06.08.09-.05.17-.11.25-.16.08-.05.17-.1.26-.15.03-.01.03-.05.02-.07-.02-.03-.05-.03-.07-.02h0Z"/>
      <path class="cls-1" d="m12.86,36.46s-.04.04-.06.06c0,0-.01.01-.02.02,0,0,0,.01-.01.02,0,.01-.01.02-.02.03,0,.01,0,.03,0,.04.01.01.03.01.04,0,.01,0,.02-.01.03-.02,0,0,.01,0,.02-.01,0,0,.02-.01.02-.02.02-.02.04-.04.06-.06,0,0,.02-.02.02-.04s0-.03-.02-.04c0,0-.02-.02-.04-.02-.01,0-.03,0-.04.02h0Z"/>
      <path class="cls-1" d="m13.98,38.27s-.03.02-.05.02c-.02,0-.04.02-.05.03-.02,0-.03.02-.05.03-.02.01-.04.03-.05.04-.02.01-.02.04,0,.06.01.02.03.03.06.02.02,0,.04,0,.05-.01.02,0,.04-.01.06-.02.04-.02.07-.03.11-.05.02,0,.03-.03.03-.04,0-.02,0-.04,0-.06,0-.02-.02-.03-.04-.03-.02,0-.04,0-.06,0h0Z"/>
      <path class="cls-1" d="m12.14,38.42c.4-.53.91-.98,1.49-1.3-.04-.02-.08-.05-.12-.07.01.6-.5.98-.93,1.31-.23.18-.43.4-.66.58-.11.09-.24.17-.37.25-.13.07-.27.12-.39.21-.07.05-.03.17.06.14.15-.04.29-.13.42-.2.13-.07.25-.15.37-.25.13-.11.25-.23.38-.35.12-.11.24-.2.36-.3.44-.35.93-.78.92-1.4,0-.06-.07-.1-.12-.07-.6.34-1.1.81-1.48,1.39-.03.05.04.09.08.04h0Z"/>
    </g>
  </g>
</svg>