<?xml version="1.0" encoding="UTF-8"?>
<svg id="Calque_2" data-name="Calque 2" xmlns="http://www.w3.org/2000/svg" viewBox="0 0 16.07 78.6">
  <defs>
    <style>
      .cls-1 {
        fill: #8a7895;
      }
    </style>
  </defs>
  <g id="Calque_1-2" data-name="Calque 1">
    <g>
      <g>
        <path class="cls-1" d="m6.27,20.95c.43,7.55.99,15.1,1.31,22.66.32,7.55.44,15.11.16,22.67-.08,2.1-.19,4.19-.33,6.28-.07,1.07-.16,2.13-.25,3.2-.08.91-.3,1.9.1,2.76.05.11.24.08.26-.03.29-1.88.62-3.76.95-5.64.31-1.82.67-3.65.82-5.49.15-1.87-.03-3.73-.24-5.58-.22-1.87-.41-3.73-.43-5.62-.04-3.8.35-7.58.37-11.38.02-3.81-.19-7.63-.51-11.43-.36-4.23-.8-8.47-1.39-12.68,0-.05-.07-.09-.12-.09-.26.01-.51.04-.77.04-.13,0-.13.21,0,.21.26,0,.51,0,.77-.01-.04-.04-.08-.08-.12-.12.38,3.8.88,7.59,1.23,11.39.34,3.76.58,7.53.62,11.31.02,1.9-.03,3.81-.12,5.71-.09,1.86-.21,3.71-.24,5.57-.03,1.89.04,3.77.25,5.65.2,1.82.47,3.63.48,5.47.01,2.13-.38,4.22-.73,6.31-.36,2.1-.7,4.21-1.09,6.31h.28c-.35-.82-.13-1.8-.05-2.65.08-.95.16-1.9.23-2.85.13-1.86.24-3.73.32-5.6.16-3.73.22-7.47.2-11.21-.04-7.49-.38-14.97-.83-22.45-.26-4.24-.55-8.47-.9-12.7-.01-.12-.2-.13-.2,0h0Z"/>
        <path class="cls-1" d="m8.1,74.44c.59-2.51,1.24-5.03,2.06-7.48.74-2.23,1.7-4.42,3.17-6.27.76-.96,1.66-1.84,2.69-2.53-.06-.04-.11-.09-.17-.13-.18,1.29-.84,2.42-1.53,3.49-.35.54-.71,1.08-1.04,1.63-.36.61-.67,1.24-.94,1.89-.28.68-.54,1.36-.83,2.04-.27.64-.59,1.25-.92,1.86-.65,1.17-1.36,2.3-1.89,3.53-.29.68-.53,1.38-.66,2.11-.13.78-.18,1.56-.52,2.28-.02.05.04.09.07.04.36-.58.43-1.28.55-1.95.12-.66.3-1.31.55-1.94.49-1.26,1.21-2.41,1.87-3.58.33-.58.65-1.17.94-1.78.31-.67.57-1.36.85-2.04.27-.69.56-1.37.92-2.01.32-.57.68-1.12,1.03-1.66.77-1.19,1.56-2.44,1.77-3.87.01-.09-.08-.19-.17-.13-1.87,1.22-3.29,2.98-4.33,4.93-1.2,2.23-1.93,4.68-2.58,7.12-.39,1.45-.73,2.91-1.03,4.37-.02.09.12.13.14.04h0Z"/>
        <path class="cls-1" d="m13.76,60.96c-.85,1.48-1.66,2.99-2.41,4.52-.75,1.53-1.44,3.08-2.1,4.64-.18.44-.36.88-.54,1.32-.18.46-.37.91-.49,1.39-.02.07.09.12.12.05.38-.76.65-1.58.96-2.37.32-.79.65-1.58.99-2.36.68-1.55,1.41-3.07,2.17-4.59.43-.87.87-1.73,1.33-2.58.01-.03-.03-.05-.04-.02h0Z"/>
        <path class="cls-1" d="m7.59,74.25c-.66-2.33-1.33-4.66-2.01-6.99-.34-1.16-.68-2.33-1.02-3.49-.31-1.06-.61-2.13-.75-3.22-.16-1.2-.11-2.44.36-3.57-.05.01-.11.03-.16.04.7.64.79,1.65.88,2.53.11,1.12.34,2.21.63,3.3.3,1.13.64,2.25.91,3.39.28,1.16.46,2.33.63,3.51.1.67.17,1.35.23,2.02.06.66.1,1.33.2,1.99,0,.06.1.04.1-.01-.01-.61-.07-1.23-.12-1.84-.05-.59-.1-1.19-.17-1.78-.12-1.19-.3-2.38-.57-3.55-.53-2.3-1.39-4.52-1.63-6.88-.1-.98-.17-2.11-.95-2.82-.06-.05-.13-.02-.16.04-.86,2.05-.33,4.34.25,6.39.66,2.33,1.36,4.65,2.04,6.98.39,1.33.79,2.66,1.19,3.99.02.08.14.04.12-.03h0Z"/>
        <path class="cls-1" d="m4.23,59.9c.41,1.81.83,3.62,1.26,5.43.43,1.82.87,3.63,1.31,5.44.12.51.25,1.01.37,1.52.12.51.24,1.03.4,1.54.03.08.15.05.13-.04-.15-.91-.41-1.81-.63-2.71-.22-.9-.44-1.8-.66-2.71-.44-1.81-.89-3.62-1.35-5.43-.26-1.02-.52-2.03-.78-3.05,0-.03-.05-.02-.05.01h0Z"/>
        <path class="cls-1" d="m9.41,64.41c.1-1.94.19-3.9.49-5.83.3-1.93.85-3.81,1.77-5.54.23-.43.48-.85.74-1.27.13-.21.27-.42.4-.63.12-.19.24-.41.43-.55.18-.13.37-.07.4.16.03.2-.04.42-.08.61-.11.46-.24.9-.4,1.34-.64,1.76-1.61,3.38-2.24,5.14-.35.96-.58,1.95-.81,2.94-.23,1.03-.47,2.07-.7,3.1-.06.26-.12.52-.17.79-.02.09.11.13.14.04.27-1.07.52-2.15.78-3.23.25-1.04.48-2.09.81-3.1.61-1.88,1.64-3.59,2.33-5.43.17-.45.32-.91.43-1.39.08-.32.26-.83,0-1.13-.3-.34-.71,0-.91.26-.3.41-.57.85-.83,1.28-.53.88-1,1.79-1.37,2.75-.36.94-.61,1.91-.81,2.9-.38,1.99-.49,4.01-.55,6.03,0,.25,0,.51-.01.76,0,.09.14.09.14,0h0Z"/>
        <path class="cls-1" d="m12.28,52.48c-.44,1.05-.86,2.12-1.25,3.19-.19.53-.38,1.07-.56,1.61-.18.54-.39,1.09-.5,1.65-.01.06.07.1.1.04.22-.52.37-1.06.54-1.6.18-.55.37-1.09.56-1.63.38-1.08.78-2.16,1.21-3.23.02-.06-.07-.09-.1-.03h0Z"/>
        <path class="cls-1" d="m8,57.71c-.12-1.81-.94-3.43-1.6-5.08-.69-1.73-1.13-3.55-1.28-5.41-.09-1.05-.06-2.09,0-3.14-.07,0-.14.02-.21.03.24.8.43,1.62.65,2.42.21.8.42,1.6.63,2.4.42,1.61.85,3.22,1.27,4.82.24.9.46,1.8.71,2.69.03.12.21.07.18-.05-.4-1.61-.84-3.22-1.27-4.83-.42-1.61-.85-3.22-1.27-4.83-.24-.9-.49-1.79-.7-2.7-.03-.13-.2-.08-.21.03-.11.92-.09,1.86-.04,2.78.06.92.18,1.84.37,2.74.19.91.45,1.8.78,2.67.32.84.7,1.67,1.03,2.5.37.95.71,1.92.81,2.94,0,.09.14.09.14,0h0Z"/>
        <path class="cls-1" d="m5.75,48.99c.09,1,.34,1.96.73,2.88.2.47.41.93.57,1.42.14.45.25.92.38,1.37.14.47.29,1,.61,1.38.03.04.11,0,.09-.05-.08-.2-.18-.38-.26-.58-.09-.22-.17-.45-.24-.67-.13-.44-.24-.88-.38-1.32-.29-.94-.78-1.79-1.06-2.73-.17-.55-.28-1.11-.34-1.69,0-.06-.1-.06-.09,0h0Z"/>
        <path class="cls-1" d="m7.73,46.02c-.54-1.18-1.33-2.2-2.06-3.27-.75-1.1-1.38-2.29-1.82-3.55-.21-.59-.4-1.31-.01-1.87-.05.01-.1.03-.15.04.99.51,1.33,1.7,1.75,2.65.57,1.27,1.38,2.43,1.88,3.73.13.35.24.71.32,1.08.08.39.09.78.13,1.18,0,.08.14.12.16.02.06-.34.02-.68-.03-1.01-.06-.35-.15-.7-.26-1.04-.23-.68-.55-1.31-.89-1.94-.35-.64-.71-1.26-1.02-1.92-.25-.54-.45-1.1-.72-1.62-.28-.54-.65-1.04-1.2-1.32-.06-.03-.12-.01-.15.04-.34.49-.28,1.12-.13,1.66.17.63.44,1.24.72,1.83.59,1.24,1.38,2.33,2.16,3.45.43.62.86,1.26,1.2,1.94.04.09.17.01.13-.08h0Z"/>
        <path class="cls-1" d="m8.91,45.89c.77-2.45.71-5.31,2.46-7.36.42-.49.92-.9,1.51-1.17-.05-.03-.09-.05-.14-.08.03,2.51-1.25,4.79-2.67,6.76-.41.57-.84,1.13-1.26,1.69-.07.09.09.22.16.13,1.54-1.97,3.1-4.05,3.71-6.52.17-.68.25-1.37.24-2.06,0-.08-.08-.11-.14-.08-1.07.47-1.85,1.37-2.38,2.39-.62,1.19-.88,2.51-1.11,3.82-.14.82-.27,1.64-.48,2.45-.02.06.07.08.09.03h0Z"/>
        <path class="cls-1" d="m11.29,40.02c-.49.87-.94,1.76-1.34,2.67-.2.45-.38.9-.54,1.37-.08.23-.16.45-.24.68-.04.11-.08.23-.11.34-.03.11-.06.27-.18.32-.07.03-.07.12,0,.14.2.08.29-.17.34-.31.08-.25.16-.49.24-.74.17-.5.36-1,.56-1.5.4-1,.86-1.98,1.38-2.92.04-.07-.06-.13-.1-.06h0Z"/>
        <path class="cls-1" d="m4.7,40c.39.86.78,1.7,1.27,2.51.45.73.93,1.46,1.27,2.25.2.45.31.92.43,1.4.02.06.12.05.12-.02-.01-.84-.44-1.67-.85-2.37-.45-.77-.97-1.5-1.4-2.29-.27-.5-.51-1.02-.75-1.53-.03-.06-.11,0-.08.05h0Z"/>
        <path class="cls-1" d="m6.15,20.71c-.04-.13-.1-.26-.17-.38-.04-.06-.08-.11-.12-.17-.05-.06-.09-.12-.17-.14-.15-.05-.28.11-.27.26.01.15.13.26.23.36.1.1.21.19.32.27.06.04.14.12.22.09.04-.01.07-.05.07-.09,0-.06-.05-.09-.09-.12-.11-.07-.22-.15-.31-.24-.05-.05-.1-.1-.14-.15-.03-.04-.08-.09-.08-.14,0,0,0-.03,0-.02,0-.01,0-.02.01-.03,0,0,0,0,.01,0,.01,0,0,0,0,0,.06.04.1.1.15.15.09.11.17.24.23.38.01.03.05.06.08.05.03,0,.06-.05.05-.08h0Z"/>
        <path class="cls-1" d="m6.3,20.81c-.12-.36-.18-.8.05-1.13.05-.08.13-.16.23-.17.09-.01.17.05.22.12.12.2,0,.43-.09.61-.05.1.1.19.15.09.07-.14.15-.28.23-.41.07-.12.14-.26.24-.34.05-.04.11-.07.14.01.02.05.01.13,0,.19-.01.15-.06.29-.14.42-.05.08.07.18.14.11.08-.09.15-.19.23-.28.04-.05.08-.09.11-.14.03-.04.06-.09.11-.11.13-.05.12.15.09.21-.04.1-.11.18-.18.26-.13.15-.27.29-.43.41-.16.12-.35.2-.52.31-.08.05-.03.17.06.15.25-.06.49-.24.69-.41.19-.16.38-.37.51-.59.06-.11.09-.23.05-.35-.04-.1-.13-.18-.24-.18-.13,0-.21.11-.29.2-.11.13-.21.26-.32.39l.14.11c.1-.17.16-.36.16-.55,0-.15-.04-.36-.23-.37-.17,0-.29.16-.38.29-.12.19-.24.39-.34.59.05.03.1.06.15.09.12-.24.24-.51.1-.77-.12-.22-.38-.3-.58-.15-.44.32-.37.99-.2,1.43.03.08.16.05.13-.04h0Z"/>
        <path class="cls-1" d="m7.47,20.89c.71-.6,1.31-1.34,1.75-2.17.22-.41.41-.84.54-1.28.06-.19-.15-.27-.31-.21-.2.07-.33.28-.45.45-.36.48-.7.98-1,1.5.06.04.12.07.19.11.18-.37.3-.76.35-1.16.02-.21.03-.42.02-.63,0-.12-.03-.28-.15-.34-.14-.07-.27.03-.35.14-.12.17-.22.37-.32.56-.19.38-.34.79-.44,1.2.06.02.13.04.19.05.15-.86.29-1.86-.29-2.59-.11-.14-.25-.3-.44-.31-.16,0-.28.12-.34.25-.09.2-.13.43-.17.64-.04.23-.07.46-.08.69-.03.55.03,1.1.17,1.64.06-.03.13-.05.19-.08-.46-.85-.31-2.01-1.08-2.7-.07-.06-.17-.02-.17.07-.06.98.04,1.97.29,2.93.03.1.2.09.19-.03-.02-.42-.14-.84-.34-1.21-.1-.18-.21-.35-.34-.51-.1-.12-.24-.31-.42-.3-.34.01-.3.49-.27.72.08.49.21.98.39,1.44.06-.02.11-.05.17-.07-.25-.47-.54-.92-.88-1.33-.15-.18-.32-.42-.55-.5-.17-.06-.35,0-.42.17-.08.18-.02.4.03.59.07.23.16.45.27.66.25.45.61.75,1.06.98.6.3,1.21.58,1.82.88.1.05.19-.1.09-.16-.45-.22-.9-.44-1.36-.65-.41-.2-.85-.38-1.16-.73-.29-.31-.46-.72-.57-1.12-.04-.13-.11-.52.15-.46.2.04.37.31.49.45.34.4.63.85.87,1.31.05.09.2.03.17-.07-.14-.35-.25-.72-.33-1.09-.04-.18-.08-.37-.09-.55,0-.09.02-.35.17-.27.14.07.26.27.35.39.09.14.18.28.25.43.14.31.23.65.24,1,.06,0,.13-.02.19-.03-.25-.94-.34-1.91-.27-2.87-.06.02-.12.05-.17.07.37.33.51.8.62,1.27.11.47.19.96.43,1.39.06.11.22.03.19-.08-.13-.51-.19-1.03-.17-1.56,0-.25.04-.5.08-.74.02-.14.05-.27.09-.4.02-.08.05-.19.12-.24.2-.16.47.28.54.42.1.19.17.4.2.61.09.53-.02,1.07-.11,1.59-.02.13.16.18.19.05.09-.32.19-.64.32-.95.04-.09.39-.88.5-.82.08.04.04.36.04.43,0,.16-.02.32-.04.48-.06.33-.16.64-.32.94-.06.12.11.23.19.11.21-.35.42-.69.66-1.02.07-.11.63-.96.75-.82,0-.04-.02-.07-.03-.11-.41,1.32-1.18,2.52-2.18,3.46-.06.06.03.14.09.09h0Z"/>
        <path class="cls-1" d="m6.1,17.65c-.01-.46-.04-.91-.1-1.36-.03-.23-.07-.46-.11-.69-.02-.11-.04-.23-.07-.34-.02-.09-.02-.18-.11-.23-.03-.01-.07-.02-.09.01-.06.08-.05.14-.03.23.02.11.05.23.07.34.04.22.08.44.11.66.07.46.14.92.18,1.38,0,.09.15.1.15,0h0Z"/>
        <path class="cls-1" d="m6.16,14.97c.09.62.12,1.25.15,1.87,0,.12.19.12.19,0,.02-.64-.06-1.28-.2-1.91-.02-.09-.15-.05-.14.04h0Z"/>
        <path class="cls-1" d="m5.51,14.96c-.72-.36-1.59-.78-1.72-1.67-.02.04-.04.09-.05.13.08-.06.18.05.24.11.09.08.17.16.25.25.16.16.33.31.49.47.09.08.23-.02.17-.13-.16-.26-.28-.55-.36-.84-.04-.16-.16-.61.11-.65.27-.04.48.46.57.65.14.3.25.61.36.92.03.1.21.09.2-.03-.1-.94-.15-2.1.86-2.58-.05-.03-.1-.06-.16-.09-.01.57-.07,1.15-.17,1.71-.02.13.16.19.2.06.19-.68.42-1.44,1.06-1.83-.05-.01-.1-.03-.14-.04.35.69-.31,1.43-.46,2.08-.03.13.16.18.2.06.15-.44.42-.84.77-1.15.02-.02.1-.11.13-.08.01.01.01.13.01.15,0,.13-.02.25-.05.37-.06.22-.16.43-.29.62-.25.38-.55.77-.88,1.08-.34.32-.81.56-1.28.38-.13-.05-.19.16-.06.22.92.35,1.65-.55,2.14-1.19.27-.36.54-.75.61-1.21.03-.16.07-.42-.04-.56-.13-.17-.33-.03-.45.07-.38.33-.66.76-.83,1.24.07.02.14.04.2.06.18-.74.84-1.46.44-2.25-.03-.05-.1-.07-.14-.04-.68.42-.95,1.22-1.15,1.96.07.02.13.04.2.06.1-.58.16-1.17.18-1.77,0-.08-.09-.12-.16-.09-.47.22-.8.65-.93,1.15-.14.52-.08,1.07-.02,1.6.07,0,.13-.02.2-.03-.14-.39-.28-.78-.47-1.14-.14-.26-.38-.67-.74-.55-.27.09-.3.43-.26.67.06.39.23.77.43,1.11.06-.04.11-.09.17-.13-.23-.22-.45-.44-.68-.67-.14-.14-.36-.36-.57-.21-.03.02-.06.06-.06.1.11.99,1.07,1.46,1.89,1.78.08.03.13-.1.06-.14h0Z"/>
        <path class="cls-1" d="m3.7,13.6c-.14-.1-.31-.16-.48-.11-.12.04-.22.14-.24.27-.03.34.39.61.64.76.31.19.66.31,1.01.39.35.08.74.14,1.11.13.1,0,.1-.14,0-.16-.28-.04-.57-.04-.86-.09-.27-.05-.54-.12-.8-.22-.26-.1-.5-.25-.71-.43-.11-.1-.29-.26-.22-.43.09-.21.35-.12.49-.03.06.04.11-.05.05-.09h0Z"/>
        <path class="cls-1" d="m5.09,12.59c-.07-.14-.05-.3.02-.43.04-.07.08-.12.13-.18.05-.06.11-.12.18-.17.01,0,.02-.01.03-.01.02,0,.04.05.04.06.03.07.04.15.05.23.01.09.01.18,0,.27,0,.09-.04.17,0,.26.01.02.05.04.07.02.08-.06.09-.14.1-.23,0-.09,0-.17,0-.26,0-.09-.02-.17-.04-.25-.02-.07-.05-.15-.1-.2-.05-.06-.13-.08-.2-.06-.07.02-.13.09-.19.14-.12.11-.22.24-.28.39-.06.17-.06.36.03.51.05.09.18,0,.13-.08h0Z"/>
        <path class="cls-1" d="m5.04,12.06c0-.1,0-.19-.02-.29,0-.04-.02-.09-.04-.13-.02-.05-.05-.13-.1-.15-.06-.03-.13,0-.13.08,0,.05.04.11.06.15,0,0,0,.02.01.02,0,0,.01.03,0,.02,0,.02.02.04.02.06.03.08.04.16.05.24,0,.04.03.07.07.07s.07-.03.07-.07h0Z"/>
        <path class="cls-1" d="m5.4,11.21c.01.11.03.21.06.31.02.05.03.1.05.15.02.05.05.12.1.15.05.03.12-.01.12-.07,0-.05-.03-.11-.05-.15,0-.02-.01-.03-.02-.05,0-.02-.02-.05-.02-.07-.03-.09-.05-.19-.06-.26,0-.05-.04-.09-.09-.09-.04,0-.09.04-.09.09h0Z"/>
        <path class="cls-1" d="m4.7,11.48c-.35.18-.75.26-1.15.22-.33-.03-.72-.16-.91-.44-.04-.05-.08-.12-.08-.19,0-.1.11-.06.18-.05.21.03.41.06.61.11.4.1.78.24,1.15.43.12.06.22-.11.11-.18-.32-.2-.6-.45-.84-.75-.11-.15-.21-.3-.3-.46-.05-.08-.09-.17-.13-.25-.03-.07-.13-.23-.09-.31.04-.08.15-.06.22-.03.08.04.15.13.2.21.12.18.24.36.35.54.24.38.45.78.66,1.18.05.09.21.05.2-.05-.05-.39-.13-.79-.14-1.19-.01-.38.09-.74.43-.95.03-.02.08-.06.11-.06.06,0,.05.02.06.07.01.09.02.18.02.27,0,.2,0,.4-.04.59-.06.37-.19.72-.38,1.04l.18.08c.36-.95.75-1.97,1.58-2.61-.04,0-.08-.01-.12-.02.2.18.16.47.05.69-.13.25-.3.48-.45.72-.15.23-.28.46-.45.67-.14.18-.31.35-.55.36-.15,0-.15.23,0,.23.28,0,.49-.17.66-.38.21-.25.37-.55.55-.82.27-.42.86-1.15.33-1.61-.03-.03-.09-.04-.12-.02-.88.67-1.3,1.73-1.67,2.73-.04.11.13.17.18.08.23-.4.38-.85.43-1.31.02-.24.02-.48-.01-.71-.02-.16-.08-.32-.28-.27-.38.1-.65.52-.7.88-.04.24,0,.49.02.73.03.26.06.52.1.79l.2-.05c-.2-.39-.42-.77-.66-1.14-.11-.18-.23-.37-.35-.54-.09-.13-.18-.26-.33-.32-.12-.05-.27-.05-.38.03-.14.1-.14.27-.09.41.12.33.31.65.53.93.25.32.56.6.92.8.04-.06.07-.12.11-.18-.48-.23-.97-.4-1.49-.52-.13-.03-.26-.05-.39-.07-.09-.01-.19-.03-.28.02-.15.09-.15.29-.09.43.16.4.61.6,1.01.65.48.07.97-.04,1.4-.28.08-.05,0-.18-.08-.13h0Z"/>
        <path class="cls-1" d="m6.49,10.07c.1-.08.21-.15.33-.2.06-.03.22-.11.28-.05.07.06-.1.25-.14.3-.07.08-.16.15-.25.22-.19.15-.39.3-.6.44-.21.14-.44.22-.65.35-.04.02-.03.1.03.09.12,0,.22-.03.33-.08.11-.05.22-.11.32-.17.21-.13.4-.28.59-.43.17-.14.36-.28.47-.48.05-.09.1-.2.05-.29-.04-.08-.12-.11-.2-.11-.11,0-.22.05-.32.1-.12.06-.23.14-.33.23-.06.05.03.14.09.09h0Z"/>
        <path class="cls-1" d="m2.47,10.74c-.15-.15-.33-.26-.53-.33-.09-.03-.22-.08-.31-.03-.09.05-.09.16-.09.25,0,.42.32.77.68.94.11.05.22.09.34.12.11.03.25.08.36.05.06-.02.07-.1.02-.13-.09-.06-.23-.07-.33-.1-.1-.03-.21-.06-.3-.11-.19-.09-.36-.22-.47-.4-.05-.09-.09-.18-.11-.28,0-.04,0-.09,0-.13,0-.02,0-.05,0-.07-.02.01-.01.02,0,.02.01,0,.03,0,.04,0,.21.05.4.16.56.31.08.08.21-.05.13-.13h0Z"/>
        <path class="cls-1" d="m2.3,10.54c-.16-.21-.29-.49-.29-.76,0-.05,0-.12.04-.16.05-.06.13-.02.19,0,.12.06.23.15.34.23.23.16.45.34.66.53.21.19.4.4.63.57.04.03.09-.03.06-.06-.18-.3-.47-.53-.73-.75-.26-.22-.54-.43-.83-.61-.12-.07-.26-.14-.39-.06-.1.06-.14.19-.14.3,0,.31.16.63.35.87.06.07.15-.03.09-.09h0Z"/>
        <path class="cls-1" d="m3.9,9.62c-.01-.24.08-.47.26-.63.04-.04.09-.07.14-.1.05-.03.1-.06.16-.06.06,0,.06.05.07.1.02.08.04.16.06.25.02.09.04.18.06.28.01.04.02.09.03.13.02.05.04.09.08.12.02.02.06,0,.08-.02.05-.09.01-.19,0-.28-.02-.1-.05-.2-.07-.3-.02-.09-.04-.18-.06-.27-.03-.08-.08-.16-.16-.19-.15-.05-.32.05-.43.14-.12.09-.22.21-.28.34-.07.15-.11.32-.1.49,0,.11.18.11.17,0h0Z"/>
        <path class="cls-1" d="m5.37,9.03c.06-.14.14-.27.24-.39.07-.08.19-.24.32-.2.09.03.13.16.13.24,0,.08,0,.16,0,.24,0,.09,0,.18.06.25.05.06.13,0,.14-.06,0-.04,0-.07-.01-.1,0-.04,0-.07,0-.11,0-.07,0-.14,0-.22,0-.12-.04-.24-.12-.33-.08-.09-.22-.13-.33-.09-.13.05-.23.15-.31.26-.1.13-.18.26-.25.41-.02.04-.01.09.03.12.04.02.1.01.12-.03h0Z"/>
        <path class="cls-1" d="m3.66,8.09c.06.12.12.24.18.36.03.06.06.12.08.18.03.06.05.13.1.18.04.04.13.01.12-.05,0-.07-.04-.14-.07-.2-.03-.06-.06-.12-.09-.18-.06-.12-.13-.24-.2-.35-.05-.07-.16,0-.12.07h0Z"/>
        <path class="cls-1" d="m4.41,7.9c.09.24.17.49.24.73.03.12.07.24.1.37.03.12.04.27.09.38.03.08.17.08.17-.02,0-.12-.05-.26-.08-.38-.03-.13-.07-.26-.11-.39-.08-.25-.18-.5-.28-.74-.03-.07-.15-.02-.12.05h0Z"/>
        <path class="cls-1" d="m3.47,8.08c-.35.09-.72.1-1.07.03-.33-.07-.7-.21-.95-.45-.13-.12-.14-.28,0-.39.14-.11.31-.09.47-.03.18.07.34.2.51.31.18.12.36.24.55.37.09.06.19-.07.11-.15-.17-.16-.34-.34-.46-.54-.05-.08-.1-.18-.09-.27.02-.17.21-.12.3-.04.17.15.29.38.41.57.13.21.24.42.35.64.05.1.22.03.18-.08-.09-.3.16-.61.48-.52.06.02.14.05.16.12.04.12-.11.11-.19.12-.17.02-.35.04-.52.06-.11.02-.09.21.03.2.16-.02.33-.04.49-.07.12-.02.27-.02.35-.12.14-.17-.01-.41-.18-.49-.48-.22-.98.26-.81.74.06-.03.12-.05.18-.08-.16-.32-.33-.62-.53-.91-.14-.2-.32-.5-.61-.46-.26.03-.31.3-.23.51.1.29.35.53.56.74.04-.05.07-.1.11-.15-.24-.17-.47-.34-.71-.51-.18-.13-.37-.25-.6-.27-.35-.04-.77.26-.63.64.07.19.25.31.41.4.2.12.42.21.64.26.44.11.9.09,1.32-.05.09-.03.06-.18-.04-.15h0Z"/>
        <path class="cls-1" d="m4.65,7.77c.59-.37,1.08-.9,1.38-1.53.06-.13.12-.26.1-.41-.02-.13-.12-.24-.26-.24-.17,0-.3.13-.39.25-.11.13-.2.28-.28.43-.2.35-.36.72-.63,1.01l.18.14c.26-.38.47-.81.53-1.27.04-.31.06-.95-.39-.97-.43-.02-.65.53-.75.87-.12.42-.12.88,0,1.3.04.12.24.1.22-.03-.03-.39-.11-.77-.26-1.13-.07-.17-.34-.69-.59-.45-.1.1-.16.29-.19.42-.03.16-.04.32-.03.48.04.37.18.73.34,1.07.05.1.22.03.18-.08-.19-.5-.46-1.05-.23-1.59.01-.03.02-.05.04-.08.02-.04.01-.06.06-.03.05.03.09.1.12.15.07.11.11.24.15.36.09.29.15.58.18.88.07-.01.15-.02.22-.03-.1-.34-.12-.69-.04-1.04.04-.17.1-.34.18-.5.07-.13.17-.33.35-.34.34-.01.21.71.17.89-.09.36-.26.7-.47,1-.07.11.09.23.18.14.25-.26.41-.58.58-.9.09-.16.17-.32.28-.47.04-.06.35-.43.33-.16-.01.16-.12.33-.2.46-.1.17-.21.33-.33.48-.23.29-.5.55-.81.77-.08.06,0,.19.08.14h0Z"/>
        <path class="cls-1" d="m3.26,7.08c.08-.22,0-.44-.09-.64-.09-.22-.19-.44-.28-.67-.09-.22-.17-.45-.24-.68-.07-.21-.1-.49-.25-.66-.03-.04-.1-.02-.11.03-.05.21.06.45.12.65.07.21.14.43.23.64.08.2.17.4.27.6.11.22.29.46.25.71-.01.07.08.09.1.03h0Z"/>
        <path class="cls-1" d="m3.72,5.86c-.12-.24-.23-.49-.34-.73-.05-.12-.1-.24-.14-.37-.05-.12-.07-.28-.16-.37-.06-.07-.16,0-.17.07,0,.08.02.14.05.21.02.06.04.12.07.18.05.13.11.25.16.38.11.25.25.48.4.71.06.09.19.01.14-.08h0Z"/>
        <path class="cls-1" d="m3.1,4.44c.38-.15.75-.41.88-.82.12-.37,0-.79-.31-1.02-.04-.03-.11-.02-.14.02-.24.25-.36.59-.33.94.02.15.22.15.24,0,.04-.43-.02-.87-.16-1.27-.06-.16-.12-.38-.28-.48-.13-.08-.29-.06-.43.01-.32.17-.45.57-.46.91-.01.41.16.8.34,1.16.07-.04.14-.08.21-.12-.22-.31-.49-.58-.81-.79-.27-.18-.72-.47-1.04-.27-.27.16-.28.55-.12.79.22.34.64.42.94.66.02-.07.04-.13.05-.2-.27.04-.52-.18-.78-.22-.2-.03-.42,0-.53.19-.11.18-.06.4.07.56.16.19.4.24.64.23.3,0,.59-.06.89-.06.16,0,.32,0,.48,0,.15,0,.3.03.44,0,.21-.04.4-.22.36-.45-.03-.19-.22-.3-.39-.35-.24-.06-.56-.05-.77.09-.21.13-.3.4-.19.62.07.14.27.02.2-.12-.11-.25.24-.37.42-.38.13,0,.43,0,.49.16.04.11-.09.18-.18.2-.14.03-.29,0-.43,0-.26-.01-.52,0-.78.01-.23.02-.48.07-.72.04-.16-.02-.45-.2-.34-.41.1-.19.41-.07.55,0,.21.09.4.17.63.14.09-.01.12-.15.05-.2-.24-.19-.53-.27-.76-.47-.16-.13-.36-.5-.07-.62.14-.06.33.05.45.11.13.07.26.14.38.23.25.18.47.4.65.65.09.12.28.02.21-.12-.14-.28-.28-.58-.3-.9-.02-.27.04-.62.27-.8.12-.09.24-.1.32.04.08.14.13.31.17.46.09.33.11.66.09.99h.24c-.03-.29.05-.56.25-.77-.05,0-.09.01-.14.02.25.18.3.54.19.82-.12.32-.41.53-.71.68-.08.04-.02.18.06.15h0Z"/>
        <path class="cls-1" d="m2.67,1.89c-.15-.65-.41-1.28-.78-1.84-.04-.07-.14-.07-.18,0-.24.41-.14.96-.09,1.42.06.54.15,1.08.27,1.61.07-.02.14-.04.21-.06-.19-.5-.39-1.01-.62-1.5-.1-.21-.21-.41-.39-.56-.17-.14-.36-.24-.57-.32-.14-.06-.4-.2-.49,0-.07.15-.01.39.02.54.07.4.24.78.48,1.1.27.35.64.66,1.06.81.09.03.16-.12.07-.16C.87,2.54.28,1.79.23.89c0-.02-.02-.12,0-.14,0,0,.09.04.11.05.12.05.23.09.34.15.24.12.41.3.53.53.27.51.46,1.07.67,1.6.05.13.24.08.21-.06-.11-.49-.2-.99-.26-1.5-.03-.24-.05-.48-.06-.71,0-.22,0-.45.11-.65h-.18c.36.55.63,1.14.8,1.78.03.1.18.06.16-.04h0Z"/>
        <path class="cls-1" d="m2.47,1.51c.01-.24.05-.47.15-.69.04-.09.09-.2.17-.27.03-.03.08-.07.12-.03.03.03.04.08.04.12.05.25.1.5.14.75.02.13.05.26.07.38.02.11.03.25.11.34.03.03.08.01.09-.03.05-.13-.02-.32-.05-.46-.03-.15-.06-.3-.09-.45-.03-.16-.07-.32-.1-.48-.02-.11-.04-.23-.12-.31-.22-.19-.43.15-.5.32-.11.25-.17.53-.15.8,0,.07.11.07.11,0h0Z"/>
      </g>
      <path class="cls-1" d="m.7,1.35c.04.21.08.42.13.62.04.16.05.39.19.5.04.03.08,0,.06-.05-.07-.17-.11-.34-.16-.51-.05-.2-.1-.39-.16-.58-.01-.04-.07-.02-.07.02h0Z"/>
      <path class="cls-1" d="m1.09,1.49c.04.25.08.51.13.76.02.13.04.25.06.38.02.13.03.25.08.37.02.04.07.03.07,0,0-.12-.02-.24-.04-.37-.02-.13-.05-.26-.08-.39-.05-.26-.11-.51-.17-.76,0-.04-.06-.02-.05.01h0Z"/>
      <path class="cls-1" d="m1.42,1.92c.04.21.07.41.1.62.01.1.02.2.03.3.01.1,0,.21.05.3.02.04.09.03.1-.01.03-.1,0-.22-.02-.32-.01-.1-.03-.2-.04-.3-.04-.21-.08-.41-.13-.62-.01-.06-.11-.04-.09.03h0Z"/>
      <path class="cls-1" d="m2.02,1.18c.04.23.08.45.13.68.03.11.05.22.08.33.03.11.05.22.11.32.02.03.08.02.07-.02-.01-.11-.05-.22-.09-.32-.03-.11-.07-.22-.1-.32-.06-.22-.11-.44-.16-.67,0-.04-.06-.02-.06.02h0Z"/>
      <path class="cls-1" d="m2.76,1.14c0,.15.01.29.02.44,0,.07.01.14.02.21,0,.07.01.14.04.2.01.02.05.02.06,0,.01-.07,0-.14-.01-.2,0-.07-.02-.14-.02-.21-.01-.14-.02-.28-.02-.43,0-.06-.09-.06-.09,0h0Z"/>
      <path class="cls-1" d="m3.12,1.5c.02.13.03.27.02.4,0,.07,0,.13-.02.2-.01.07-.04.14-.02.2.01.06.09.06.12.02.04-.06.04-.15.04-.22,0-.07,0-.14,0-.21,0-.14-.02-.28-.04-.42-.01-.07-.11-.04-.1.03h0Z"/>
      <path class="cls-1" d="m3.32,1.95c0,.14,0,.28-.02.41-.01.07-.03.13-.05.2-.02.07-.06.14-.01.21.01.02.03.03.06.02.08-.02.1-.11.11-.18.02-.08.03-.15.04-.23.02-.15.01-.3,0-.45,0-.07-.13-.05-.12.02h0Z"/>
      <path class="cls-1" d="m3.39,2.55c.01-.26.04-.52.09-.77.02-.13.04-.25.07-.37,0-.02.02-.11.05-.11.02,0,.06.13.06.15.06.22.04.45-.03.66-.04.12-.08.23-.14.34-.05.09-.13.2-.14.31,0,.06.07.08.11.05.04-.03.06-.08.08-.13.03-.05.05-.11.08-.16.05-.1.09-.21.13-.32.07-.2.1-.42.07-.63-.02-.13-.09-.46-.28-.39-.08.03-.11.12-.13.19-.03.12-.05.24-.07.36-.04.28-.07.56-.07.84,0,.07.11.07.11,0h0Z"/>
      <path class="cls-1" d="m2.65,2.96c.04.18.09.35.14.52.03.08.05.17.08.25.01.04.03.08.04.13.01.04.02.07.05.09.01,0,.03,0,.03-.01.01-.04,0-.07-.02-.11-.01-.04-.03-.08-.04-.13-.03-.08-.06-.17-.08-.25-.05-.17-.1-.34-.15-.51,0-.03-.06-.02-.05.01h0Z"/>
      <path class="cls-1" d="m3.05,3.15c.02.15.04.31.07.46.01.08.03.15.05.23,0,.04.02.07.03.11,0,.03.01.07.05.09.02,0,.03,0,.04-.01.02-.03,0-.06,0-.09-.01-.04-.02-.07-.03-.11-.02-.07-.04-.14-.05-.22-.03-.15-.06-.3-.08-.45,0-.05-.08-.05-.07,0h0Z"/>
      <path class="cls-1" d="m3.6,3.32c0,.11.01.22,0,.33,0,.05,0,.11-.01.16,0,.05-.01.11,0,.16,0,.03.05.04.06,0,.02-.05.03-.1.03-.16,0-.06,0-.11,0-.17,0-.11,0-.22-.02-.33,0-.04-.07-.04-.07,0h0Z"/>
      <path class="cls-1" d="m1.29,3.6c.11.13.24.25.37.36.13.11.27.21.43.27.03.01.05-.03.03-.05-.12-.11-.26-.2-.39-.31-.13-.11-.25-.22-.36-.34-.05-.05-.12.02-.08.08h0Z"/>
      <path class="cls-1" d="m1.45,3.29c.11.15.24.29.38.42.07.06.14.12.22.17.04.03.08.05.12.08.04.02.08.05.13.03,0,0,.02-.02.02-.03,0-.05-.04-.07-.08-.09-.04-.02-.08-.05-.12-.07-.08-.05-.15-.1-.23-.16-.15-.11-.28-.24-.4-.38-.02-.02-.05,0-.04.03h0Z"/>
      <path class="cls-1" d="m1.6,3.14c.11.16.22.32.36.46.07.07.13.14.21.2.08.07.15.12.24.17.04.02.09-.03.05-.07-.07-.07-.13-.13-.21-.19-.07-.06-.14-.13-.21-.19-.13-.14-.25-.28-.36-.44-.04-.05-.12,0-.09.05h0Z"/>
      <path class="cls-1" d="m1.34,4.3c.15.04.29.07.44.09.07.01.15.02.22.03.08,0,.15,0,.23,0,.05,0,.06-.07.01-.08-.07-.01-.14-.03-.22-.04-.07-.01-.15-.02-.22-.03-.15-.02-.29-.05-.44-.08-.07-.01-.09.08-.03.1h0Z"/>
      <path class="cls-1" d="m3.73,6.86c.01.12.03.23.06.35.01.06.03.11.04.17.02.06.03.12.06.17.02.03.08.02.08-.02,0-.06-.02-.11-.04-.16-.02-.06-.03-.11-.04-.17-.03-.11-.04-.22-.06-.33,0-.03-.02-.05-.05-.05-.02,0-.05.02-.05.05h0Z"/>
      <path class="cls-1" d="m4.47,6.39c-.03.2-.06.41-.08.61-.01.1-.02.21-.03.31,0,.05,0,.1-.01.16,0,.04,0,.07.04.1,0,0,.03,0,.04,0,.04-.02.04-.06.04-.1,0-.05,0-.1,0-.16,0-.1,0-.2.01-.3.01-.21.03-.41.05-.61,0-.04-.06-.05-.07,0h0Z"/>
      <path class="cls-1" d="m5.26,6.58c-.07.15-.16.3-.26.43-.05.06-.1.13-.15.19-.06.07-.11.13-.16.21-.03.04.03.1.07.07.07-.05.14-.1.2-.17.06-.07.11-.14.16-.21.1-.14.19-.29.26-.45.02-.03,0-.07-.02-.09-.03-.02-.08,0-.09.02h0Z"/>
      <path class="cls-1" d="m2.39,7.89c.25.12.52.21.79.28.12.03.24.06.36.06.12,0,.2-.03.27-.13.02-.03-.02-.06-.04-.04-.08.05-.2.05-.29.04-.12-.01-.24-.04-.35-.06-.24-.05-.48-.11-.71-.19-.03,0-.05.03-.02.05h0Z"/>
      <path class="cls-1" d="m2.95,7.45c.08.15.18.29.3.41.06.06.12.12.19.17.07.05.14.11.22.15.07.04.14-.07.07-.11-.07-.04-.14-.08-.2-.13-.07-.05-.13-.1-.19-.15-.12-.11-.22-.24-.3-.38-.03-.05-.1,0-.07.04h0Z"/>
      <path class="cls-1" d="m4.53,10.07c.14,0,.14-.22,0-.22s-.14.22,0,.22h0Z"/>
      <path class="cls-1" d="m4.29,9.59c.02.22.06.45.11.66.03.11.06.22.1.32.04.1.07.21.14.29.02.03.08,0,.07-.03,0-.1-.06-.2-.09-.3-.04-.1-.07-.2-.1-.31-.06-.21-.1-.43-.13-.64,0-.07-.11-.07-.11,0h0Z"/>
      <path class="cls-1" d="m4.99,9.9c-.03.32-.05.65-.03.98,0,.05.08.05.08,0,.01-.33.01-.65.04-.98,0-.06-.09-.06-.1,0h0Z"/>
      <path class="cls-1" d="m5.86,9.86l-.39.68c-.06.11-.13.21-.19.32-.04.08-.11.22-.02.3.02.02.06.02.07,0,.03-.04.03-.09.04-.14.01-.06.04-.11.07-.16.05-.1.11-.21.16-.31.11-.21.22-.43.33-.64.02-.04-.04-.08-.07-.04h0Z"/>
      <path class="cls-1" d="m6.49,10.15c-.07.15-.16.29-.26.41-.05.06-.11.12-.17.17-.03.03-.06.05-.09.07-.02.01-.04.03-.05.04,0,0-.02.01-.02.02,0,0,0,0,0,0-.01,0,0,0,0,0-.03,0-.06.02-.05.05.02.05.07.06.11.05.04-.02.08-.05.12-.08.08-.06.15-.13.21-.2.13-.15.23-.32.3-.5.02-.05-.07-.09-.09-.04h0Z"/>
      <path class="cls-1" d="m5.87,10.28c-.09.11-.19.22-.29.32-.05.05-.1.1-.14.16-.05.06-.09.12-.13.18-.03.04.03.09.07.05.05-.05.11-.09.16-.14.05-.05.1-.11.14-.16.09-.11.19-.22.28-.32.02-.03.03-.06,0-.09-.02-.02-.07-.03-.09,0h0Z"/>
      <path class="cls-1" d="m4.94,10.49c.01.12.02.24,0,.35-.01.12-.05.23-.08.34,0,.03,0,.06.02.07,0,0,0,0,0,0,.01.02.04.02.06.01h.01s.05-.03.05-.06c.04-.12.05-.25.05-.37,0-.13,0-.25-.03-.37-.01-.05-.1-.04-.1.01h0Z"/>
      <path class="cls-1" d="m3.3,11.46c.41.17.93.26,1.35.08.04-.02.04-.08-.01-.08-.22.02-.44.05-.66.05-.22,0-.45-.04-.66-.1-.03,0-.04.03-.02.04h0Z"/>
      <path class="cls-1" d="m5.03,11.34c-.04.07-.07.14-.11.2-.02.03-.04.07-.05.1-.02.04-.04.07-.03.12,0,.02.03.03.05.02.04-.02.05-.06.07-.09.02-.03.03-.07.05-.1.03-.07.07-.13.1-.2.01-.03,0-.06-.02-.07-.02-.01-.06,0-.07.02h0Z"/>
      <path class="cls-1" d="m5.27,11.34c-.05.11-.12.22-.18.33-.03.05-.06.11-.09.16-.03.06-.07.11-.09.17-.01.05.06.08.08.03,0-.01.02-.03.02-.04.01-.03-.02-.06-.04-.04-.01,0-.03.02-.04.03.02.02.04.05.05.07.04-.05.06-.11.09-.17.03-.06.05-.11.07-.17.05-.12.09-.24.15-.35.01-.02-.02-.04-.03-.02h0Z"/>
      <path class="cls-1" d="m5.41,11.31c0,.07,0,.14-.02.21,0,.03-.01.07-.02.1,0,.04-.03.07-.03.11,0,.05.07.07.09.03.02-.04.02-.08.03-.12,0-.04,0-.07,0-.11,0-.07,0-.15-.02-.22,0-.03-.04-.02-.04,0h0Z"/>
      <path class="cls-1" d="m5.57,11.52c.05.11.07.23.09.35,0,.06.01.11.02.17,0,.03,0,.06,0,.09,0,.04-.01.08,0,.11.03.07.11.09.16.02.02-.04.02-.08.02-.12,0-.03,0-.07,0-.1,0-.07-.02-.14-.04-.2-.03-.13-.1-.25-.19-.35-.02-.03-.08,0-.07.04h0Z"/>
      <path class="cls-1" d="m5.19,12.26c-.01-.07,0-.15.01-.22,0,0,0,0,0,0-.02.07-.03.15-.02.23,0,.01.02.01.02,0h0Z"/>
      <path class="cls-1" d="m5.22,11.91c-.03.18-.06.36-.08.55-.02.18-.04.37-.01.55,0,.03.05.03.05,0,.03-.17.03-.35.05-.53.02-.18.04-.37.07-.55,0-.05-.07-.07-.08-.02h0Z"/>
      <path class="cls-1" d="m5.48,11.72c-.06.26-.11.52-.16.78-.02.12-.04.24-.05.36-.01.13-.03.26-.01.39,0,.04.07.03.08,0,.04-.12.04-.24.06-.36.01-.13.03-.26.05-.39.03-.25.08-.5.13-.75.01-.06-.08-.09-.09-.03h0Z"/>
      <path class="cls-1" d="m5.53,12.38c-.05.17-.09.33-.11.51-.02.17-.04.35,0,.51.01.04.07.03.07,0,.02-.16.01-.33.03-.49.02-.17.05-.33.1-.49.02-.06-.07-.08-.09-.02h0Z"/>
      <path class="cls-1" d="m4.84,13.57c.12.25.24.49.37.74.07.12.13.23.2.35.07.11.13.24.23.32.04.03.08-.02.07-.05-.03-.13-.13-.24-.2-.35-.07-.11-.14-.22-.2-.34-.14-.23-.27-.47-.39-.71-.03-.05-.11,0-.08.05h0Z"/>
      <path class="cls-1" d="m5.61,14.37c.04.12.1.25.16.36.03.06.06.11.1.16.04.06.07.12.13.15.03.02.07-.01.06-.05-.02-.06-.06-.11-.09-.16-.04-.05-.07-.11-.1-.16-.06-.11-.12-.22-.16-.34-.02-.06-.12-.03-.1.03h0Z"/>
      <path class="cls-1" d="m6.19,13.87c-.01.18-.03.36-.04.54,0,.09-.01.17-.02.26,0,.05,0,.09-.01.14,0,.04,0,.07.02.11.01.02.04.01.05,0,.03-.03.03-.07.03-.11,0-.05,0-.09,0-.14,0-.09,0-.17.01-.26.01-.18.02-.36.03-.54,0-.06-.08-.06-.09,0h0Z"/>
      <path class="cls-1" d="m6.71,13.82c-.05.21-.12.42-.2.62-.04.1-.09.2-.13.3-.02.05-.04.09-.07.14-.02.05-.06.09-.04.14,0,.02.03.04.06.03.05-.02.07-.06.09-.11.02-.05.05-.11.07-.16.04-.1.08-.2.12-.3.08-.21.14-.43.18-.65.01-.06-.07-.08-.09-.02h0Z"/>
      <path class="cls-1" d="m6.92,14.19c-.03.07-.07.14-.11.2-.02.03-.04.06-.06.09-.01.02-.02.03-.03.05-.01.02-.01.04-.02.06-.01.04.03.07.07.05.02-.01.04-.02.05-.04.02-.02.03-.03.04-.05.02-.03.04-.07.07-.1.04-.07.08-.14.11-.21.01-.03,0-.07-.02-.08-.03-.01-.07,0-.08.02h0Z"/>
      <path class="cls-1" d="m6.9,12.51s-.02.06-.03.09c0,.01-.01.03-.02.04,0,0,0,.01,0,.02,0,0,0,0,0,.01,0,0,0,0,0,0-.01.03-.03.06-.04.09,0,.03-.02.05-.03.08-.01.04.04.06.06.04.02-.02.04-.05.06-.08.02-.02.03-.05.04-.08.03-.06.05-.12.06-.18,0-.03,0-.06-.04-.07-.03,0-.06,0-.07.04h0Z"/>
      <path class="cls-1" d="m6.77,17.07c-.04.34-.07.68-.04,1.02,0,.05.08.05.08,0,.01-.34.01-.68.04-1.02,0-.06-.08-.05-.09,0h0Z"/>
      <path class="cls-1" d="m6.99,17.37c-.03.16-.05.33-.05.49,0,.16,0,.34.06.48.02.04.08.02.09-.02,0-.08-.01-.15-.02-.23,0-.08-.01-.15-.01-.23,0-.16.01-.31.04-.46.01-.06-.09-.09-.1-.03h0Z"/>
      <path class="cls-1" d="m7.17,17.95c0,.07,0,.13-.01.2,0,.03,0,.07,0,.1,0,.03,0,.07,0,.1,0,.04.07.04.08,0,0-.02.01-.03.01-.05,0-.02,0-.03,0-.05,0-.03,0-.07,0-.1,0-.07,0-.13.01-.2,0-.03-.02-.05-.05-.05-.03,0-.05.02-.05.05h0Z"/>
      <path class="cls-1" d="m8.17,18.4s-.07.06-.09.1c-.02.04-.03.08-.04.12,0,0,0,.02,0,.03,0,0,.01.01.02.02.02,0,.04,0,.05-.02,0-.01.02-.03.03-.04,0,0,0,0,0,.01,0,0,.01-.01.02-.02,0-.01.02-.02.03-.03,0,0,0,0,0,.01.02-.02.04-.04.06-.06,0,0,0,0-.01,0,0,0,.01,0,.02-.01.01,0,.02-.02.03-.04,0-.02,0-.04,0-.05,0-.01-.02-.03-.04-.03-.02,0-.04,0-.05,0h0Z"/>
      <path class="cls-1" d="m4.99,18.78c0,.09.02.18.03.27,0,.05.01.1.02.14,0,.04.02.09.03.13.01.05.09.04.09-.01,0-.04,0-.09,0-.14,0-.04,0-.09,0-.13,0-.09-.02-.18-.03-.27,0-.04-.03-.07-.07-.07-.04,0-.08.03-.07.07h0Z"/>
      <path class="cls-1" d="m3.74,18.92c.06.12.12.23.2.35.04.06.07.11.12.16.04.05.09.1.14.14.03.03.1-.01.07-.05-.04-.05-.07-.11-.11-.16-.04-.05-.08-.11-.11-.16-.07-.11-.14-.22-.2-.34-.01-.03-.05-.04-.08-.02-.03.02-.04.05-.02.08h0Z"/>
      <path class="cls-1" d="m8.4,19.13s-.03.04-.04.06c0,0-.01.02-.02.03,0,.01-.01.02-.02.03,0,0,0,.02,0,.03,0,0,0,.02.01.02.02.01.04.01.05,0,.02-.02.04-.04.06-.06.01-.02.03-.04.04-.06,0-.01,0-.03,0-.04,0-.01-.01-.02-.02-.03-.01,0-.03,0-.04,0-.01,0-.02.01-.03.02h0Z"/>
      <path class="cls-1" d="m6.29,20.86c.09.15.2.3.38.31.09,0,.18-.03.25-.07.04-.03.08-.05.11-.08.04-.04.08-.07.08-.13,0-.04-.03-.07-.07-.07-.05,0-.08.03-.12.06-.03.02-.05.05-.08.07-.05.04-.11.07-.17.07-.13,0-.21-.12-.27-.22-.05-.07-.16,0-.12.07h0Z"/>
      <path class="cls-1" d="m6.55,20.8s.02.1.02.14c0,.02,0,.05.01.07,0,.01,0,.02,0,.03,0,0,0,.01,0,.02,0,.01.01.02.02.04.01.02.04.02.06.02.02,0,.03-.02.04-.04.01-.03,0-.06,0-.1,0-.02,0-.05-.01-.07,0-.05-.02-.1-.03-.14,0-.03-.05-.05-.08-.04-.03.01-.05.04-.04.08h0Z"/>
      <path class="cls-1" d="m6.75,20.73s.01.06.02.09c0,.01,0,.03,0,.04,0,.01,0,.02.01.04,0,0,0,0,0,0,.01.02.02.03.04.03,0,0,.01,0,.02,0,0,0,.02,0,.03,0,.01,0,.02-.01.03-.03,0-.02.01-.03,0-.05,0,0,0,0,0,0,0-.01-.01-.02-.02-.03,0-.01-.01-.02-.02-.04-.02-.02-.03-.05-.05-.07-.01-.02-.03-.03-.05-.02-.02,0-.03.03-.02.05h0Z"/>
      <path class="cls-1" d="m6.95,20.78v.03s-.02.02-.02.03c0,0,0,.01,0,.02,0,0,0,0,0,0,0,0,.02,0,.03,0,0,0,0-.01,0-.02,0,0,0,0,0-.01,0-.01,0-.02.01-.03,0,0,0-.01,0-.02,0,0,0,0-.01-.01-.01,0-.03,0-.03.02h0Z"/>
      <path class="cls-1" d="m6.4,19.62c-.08.23-.13.47-.12.71,0,.12.02.24.05.35.01.05.04.1.1.11.04,0,.07,0,.1-.04.02-.03-.01-.07-.05-.06,0,0,0,0,0,0,0,.01.02.02.02.03-.02-.07-.03-.15-.04-.23,0-.09-.01-.19-.01-.28,0-.19.04-.37.09-.55.03-.09-.11-.13-.15-.04h0Z"/>
      <path class="cls-1" d="m6.71,19.49c-.08.21-.12.43-.15.66-.01.11-.02.22-.02.33,0,.11-.01.23.02.34.02.07.11.07.15.02.04-.05.04-.11,0-.16-.02-.04-.07-.02-.08.02,0,.02,0,.03-.02.02.03.03.07.05.1.08.01-.1,0-.22-.01-.32,0-.11,0-.21,0-.32.01-.22.04-.43.08-.65,0-.05-.06-.07-.08-.02h0Z"/>
      <path class="cls-1" d="m6.89,19.83c-.08.27-.12.54-.12.82,0,.08.1.11.15.06.13-.12.19-.29.25-.45.07-.18.14-.36.22-.53.02-.05.01-.1-.03-.13-.04-.02-.11-.01-.13.03-.15.32-.27.66-.36,1.01-.02.09.1.18.17.1.25-.29.39-.64.54-.99-.07-.02-.13-.04-.2-.06-.07.19-.13.38-.2.56-.03.08-.07.16-.08.25-.01.09.02.19.12.21.05,0,.09,0,.13-.05.1-.13.19-.26.29-.4l-.21-.09c-.04.11-.09.22-.13.33-.04.1.09.18.17.13.14-.08.22-.22.28-.36.03-.07.06-.13.09-.2.02-.03.04-.06.06-.09,0,0,0,0,0,0,0,0,.01-.02.02-.02,0,0,.01-.01.02-.02,0,0,.02-.02.01,0-.05-.05-.11-.11-.16-.16-.06.1-.13.2-.21.29-.04.05-.08.09-.12.14-.04.05-.08.11-.12.16-.06.08.05.18.13.13.06-.04.12-.08.17-.13.04-.05.09-.1.12-.15.08-.11.16-.22.23-.33.03-.04.02-.1-.02-.14-.03-.03-.1-.05-.14-.02-.13.1-.2.23-.27.38-.03.07-.06.13-.1.19-.04.06-.07.1-.13.13.06.04.11.09.17.13.04-.11.08-.22.13-.33.02-.05-.02-.12-.07-.13-.06-.02-.11,0-.14.05-.1.13-.19.26-.28.4.04-.02.08-.03.13-.05.02,0,.04.02.04.04,0,.02,0,.02,0,0,0-.02,0,0,0-.02.01-.04.02-.07.04-.11.02-.07.05-.15.07-.22.05-.15.1-.3.15-.45.02-.05-.02-.11-.07-.13-.06-.02-.11.02-.13.07-.13.31-.26.64-.49.9.06.03.12.07.17.1.08-.34.19-.67.33-.99-.06-.02-.12-.03-.18-.05-.07.17-.14.34-.21.51-.06.14-.1.31-.22.42.05.02.1.04.15.06,0-.26.03-.52.09-.78.02-.09-.12-.13-.15-.04h0Z"/>
      <path class="cls-1" d="m7.29,26.44c-.12.24-.25.48-.34.73-.02.05.05.07.07.03.15-.22.26-.46.38-.7.04-.07-.07-.14-.11-.06h0Z"/>
      <path class="cls-1" d="m7.33,27.24c-.05.08-.1.16-.16.24-.03.04-.05.08-.07.12-.02.04-.04.08-.07.13-.02.04.03.09.06.05.03-.04.06-.07.09-.11.03-.04.06-.08.09-.12.05-.08.11-.16.16-.24.02-.03,0-.07-.02-.08-.03-.02-.07,0-.08.02h0Z"/>
      <path class="cls-1" d="m7.28,27.89c-.04.12-.09.24-.12.36,0,.03.03.04.04.01.05-.12.08-.24.12-.36,0-.03-.04-.04-.05-.01h0Z"/>
      <path class="cls-1" d="m7.34,28.37c0,.06-.02.12-.04.17-.01.03-.02.06-.04.09-.02.03-.03.05-.05.08-.01.01-.01.03,0,.04,0,.01.03.02.04,0,.06-.04.11-.1.14-.17.03-.07.04-.14.04-.21,0-.05-.08-.05-.08,0h0Z"/>
      <path class="cls-1" d="m7.2,29.01s0,.04,0,.06c0,.02,0,.04,0,.06,0,.01,0,.02,0,.03,0,.01.02.02.03.03.01,0,.02,0,.03,0,.01,0,.03,0,.04-.02,0,0,.01-.01.02-.02.01-.01.02-.02.03-.04.01-.02.02-.03.04-.05,0-.02.02-.04.02-.06,0-.02,0-.04-.02-.06-.02-.02-.04-.04-.07-.05-.01,0-.03,0-.04,0-.01,0-.03,0-.04.01-.03.02-.05.06-.05.1h0Z"/>
      <path class="cls-1" d="m10.92,39.53c-.02.17-.04.34-.06.51-.02.17-.03.34-.04.51,0,.05.07.06.08.01.03-.17.06-.34.08-.52.02-.17.04-.35.06-.52,0-.08-.12-.08-.13,0h0Z"/>
      <path class="cls-1" d="m10.66,39.85c.01.22.01.44-.01.66-.01.11-.03.22-.05.33-.02.11-.05.21-.07.32,0,.03.04.04.06.01.1-.19.12-.44.14-.65.02-.23.01-.45-.02-.68,0-.02-.04-.02-.04,0h0Z"/>
      <path class="cls-1" d="m10.42,40.43c-.05.16-.08.32-.1.48-.01.08-.02.16-.02.24,0,.08,0,.17.02.25.01.04.06.04.08,0,.02-.07.02-.15.02-.23,0-.08,0-.16.01-.24.02-.16.04-.32.09-.48.02-.06-.08-.09-.1-.03h0Z"/>
      <path class="cls-1" d="m10.1,41.24v.2c0,.07,0,.14.02.2,0,.03.06.03.07,0,.02-.07.02-.14.02-.2v-.2c0-.07-.1-.07-.1,0h0Z"/>
      <path class="cls-1" d="m11.68,41.21c-.16.08-.31.16-.46.27-.07.05-.14.1-.2.15-.07.05-.14.11-.19.18-.02.03.02.06.04.04.07-.04.13-.11.19-.16.07-.06.13-.11.21-.16.14-.1.29-.19.44-.26.04-.02,0-.08-.03-.06h0Z"/>
      <path class="cls-1" d="m11.2,41.9c-.1.08-.21.15-.31.23-.05.04-.1.07-.15.11-.05.04-.11.08-.13.14,0,.02.01.05.04.05.06,0,.12-.05.17-.08.05-.04.1-.07.15-.11.1-.07.21-.15.31-.22.03-.02.04-.05.02-.08-.02-.03-.06-.04-.08-.02h0Z"/>
      <path class="cls-1" d="m10.82,42.57s-.03.03-.04.04c0,0,0,0,0,0,0,0,0,0,0,.01,0,0-.01.01-.02.02,0,0,0,.01,0,.02,0,0,.01,0,.02,0,0,0,.01-.01.02-.02,0,0,0,0,.01,0,0,0,0,0,.01,0l.04-.04s0-.02,0-.03c0,0-.02,0-.03,0h0Z"/>
      <path class="cls-1" d="m11.07,42.76l-.78.47c-.13.08-.26.16-.39.24-.12.07-.26.14-.36.25-.03.03,0,.08.04.07.14-.04.26-.13.38-.2.13-.08.26-.16.39-.24.26-.16.52-.32.78-.48.07-.04,0-.14-.06-.1h0Z"/>
      <path class="cls-1" d="m10.56,43.45c-.2.13-.4.26-.59.4-.09.07-.19.14-.28.21-.09.07-.19.14-.25.24-.03.04.03.08.06.06.1-.05.19-.12.28-.19.09-.07.19-.15.28-.22.19-.14.37-.27.57-.4.07-.04,0-.15-.06-.11h0Z"/>
      <path class="cls-1" d="m10.06,44.26c-.1.05-.2.1-.3.15-.1.05-.2.11-.29.16-.03.02,0,.06.03.05.1-.05.2-.09.3-.15.1-.05.2-.11.29-.16.03-.02,0-.07-.03-.05h0Z"/>
      <path class="cls-1" d="m5.5,40.52l.04.77c.01.25.02.5.06.75,0,.04.07.03.07,0,0-.25-.02-.5-.03-.75-.02-.25-.03-.5-.05-.75,0-.06-.09-.06-.09,0h0Z"/>
      <path class="cls-1" d="m5.96,41.12c0,.21-.01.41-.01.62,0,.1,0,.2,0,.3,0,.09,0,.2.03.28.01.02.05.02.05,0,.03-.09,0-.2,0-.29,0-.1,0-.2,0-.3,0-.2,0-.4,0-.61,0-.05-.08-.05-.08,0h0Z"/>
      <path class="cls-1" d="m6.33,41.35c-.01.25-.03.5-.04.75-.01.25-.03.5-.01.75,0,.04.05.04.06,0,.03-.25.03-.5.04-.75,0-.25,0-.5.01-.75,0-.03-.05-.03-.05,0h0Z"/>
      <path class="cls-1" d="m4.92,41.58c.33.21.65.44.99.63.03.02.08-.03.04-.05-.31-.24-.66-.44-.99-.65-.05-.03-.1.05-.05.08h0Z"/>
      <path class="cls-1" d="m5.08,41.92c.32.28.67.54,1.07.7.04.02.06-.04.03-.06-.36-.22-.73-.42-1.07-.67-.02-.02-.05.02-.03.04h0Z"/>
      <path class="cls-1" d="m5.38,42.49c.12.11.25.21.39.31.13.09.28.19.43.24.03,0,.06-.03.03-.06-.13-.1-.27-.17-.4-.26-.14-.09-.27-.19-.39-.29-.04-.04-.1.02-.06.06h0Z"/>
      <path class="cls-1" d="m5.9,43.29c.09.06.18.13.27.18.09.06.19.1.3.13.04.01.06-.04.03-.07-.09-.05-.18-.11-.27-.17-.09-.05-.18-.11-.27-.17-.02-.02-.06,0-.07.02-.02.03,0,.05.02.07h0Z"/>
      <path class="cls-1" d="m6.78,42.73c-.05.18-.08.36-.1.54-.02.18-.03.37,0,.55,0,.04.05.02.06,0,.02-.17.02-.35.04-.53.02-.18.05-.35.1-.53.02-.06-.08-.09-.1-.03h0Z"/>
      <path class="cls-1" d="m7.02,42.97c-.02.18-.04.35-.06.53-.02.18-.05.36-.04.54,0,.04.06.05.07,0,.04-.17.04-.35.05-.53.01-.18.02-.36.03-.54,0-.03-.04-.03-.05,0h0Z"/>
      <path class="cls-1" d="m6.57,50.81c-.03.21-.05.42-.08.63,0,.02.03.02.03,0,.03-.21.06-.42.09-.64,0-.03-.04-.03-.04,0h0Z"/>
      <path class="cls-1" d="m6.69,50.81c.02.22.03.45.02.67,0,.22-.03.45-.04.67,0,.04.06.05.07,0,.1-.44.07-.92,0-1.36,0-.03-.06-.02-.05,0h0Z"/>
      <path class="cls-1" d="m6.81,51.48l-.06.59c0,.1-.02.2-.03.29,0,.09-.03.19,0,.28,0,.03.05.04.06,0,.04-.08.04-.18.04-.27,0-.1.02-.2.02-.3.02-.2.03-.4.05-.6,0-.06-.09-.06-.09,0h0Z"/>
      <path class="cls-1" d="m7,52.28c0,.11,0,.21-.02.32,0,.05-.01.1-.02.16,0,.02,0,.05-.01.07,0,.03,0,.06,0,.09,0,.03.05.05.07.02.01-.02.02-.05.03-.08,0-.03.01-.06.02-.08,0-.05.02-.11.02-.16.01-.11.01-.22.01-.33,0-.06-.09-.06-.09,0h0Z"/>
      <path class="cls-1" d="m6.04,52.04c.16.14.32.28.49.42.17.14.33.26.53.36.03.02.07-.03.04-.06-.15-.14-.32-.27-.49-.39-.17-.13-.33-.26-.49-.4-.05-.04-.12.03-.07.07h0Z"/>
      <path class="cls-1" d="m6.33,52.46c.11.14.22.28.33.42.05.07.11.14.16.2.06.07.12.14.19.2.02.01.05,0,.03-.03-.04-.08-.1-.15-.15-.21-.06-.07-.12-.14-.18-.21l-.36-.4s-.04,0-.03.03h0Z"/>
      <path class="cls-1" d="m6.56,53.22c.1.11.21.23.31.34.05.06.1.11.15.17.05.06.11.11.17.16.03.02.08,0,.05-.04-.05-.06-.09-.12-.14-.18-.06-.06-.11-.11-.17-.17-.11-.11-.22-.22-.33-.33-.03-.03-.09.02-.05.05h0Z"/>
      <path class="cls-1" d="m12.51,53.37c-.14.17-.3.32-.46.47-.08.07-.16.14-.24.21-.04.04-.08.07-.13.11-.04.04-.09.07-.13.11-.02.02,0,.07.03.06.1-.04.19-.11.28-.18.09-.07.18-.14.26-.21.17-.15.33-.31.48-.48.06-.06-.04-.16-.09-.09h0Z"/>
      <path class="cls-1" d="m12.51,53.87c-.17.1-.34.22-.5.34-.08.06-.15.13-.23.2-.07.07-.15.14-.2.22-.02.03.02.07.05.05.08-.06.14-.13.21-.19.07-.07.15-.14.22-.2.15-.13.31-.25.48-.36.03-.02,0-.08-.03-.06h0Z"/>
      <path class="cls-1" d="m12.26,54.34c-.15.16-.3.33-.45.49-.07.08-.15.16-.22.24-.07.08-.15.16-.21.25-.02.02.02.06.04.04.09-.07.16-.15.23-.23.08-.08.15-.16.23-.24.15-.16.3-.33.45-.49.04-.04-.02-.1-.06-.06h0Z"/>
      <path class="cls-1" d="m11.73,55.16c-.11.11-.21.23-.32.34-.05.06-.1.11-.16.17-.05.06-.11.12-.15.19-.02.03.02.07.05.05.07-.04.12-.1.17-.15.05-.06.11-.11.16-.17.11-.11.21-.23.32-.34.05-.06-.03-.14-.09-.09h0Z"/>
      <path class="cls-1" d="m11.43,55.94c-.05.08-.1.16-.16.23-.06.07-.13.13-.19.21-.02.03,0,.07.04.05.08-.05.15-.12.21-.2.06-.08.12-.16.17-.24.03-.05-.05-.09-.07-.04h0Z"/>
      <path class="cls-1" d="m11.22,56.49c-.03.07-.06.14-.08.21-.02.07-.05.14-.07.2-.01.04.05.07.07.03.03-.06.06-.13.1-.19.03-.06.06-.13.09-.19.01-.03,0-.06-.02-.08-.02-.01-.07,0-.08.02h0Z"/>
      <path class="cls-1" d="m12.19,62.51c-.05.22-.08.44-.1.66-.02.22-.05.45,0,.67,0,.03.06.03.06,0,.04-.21.03-.43.04-.64.02-.22.05-.44.1-.66.01-.07-.09-.1-.1-.03h0Z"/>
      <path class="cls-1" d="m11.75,62.73c.08.66.06,1.32.02,1.98,0,.04.06.04.06,0,.14-.65.1-1.35-.03-2,0-.03-.05-.02-.05,0h0Z"/>
      <path class="cls-1" d="m11.46,63.67c-.01.25-.01.5-.01.75,0,.24,0,.5.07.73,0,.03.06.03.06,0,.03-.24-.01-.49-.02-.73,0-.25-.01-.5,0-.75,0-.06-.09-.06-.09,0h0Z"/>
      <path class="cls-1" d="m11.16,63.99c-.02.62-.06,1.24,0,1.86,0,.05.07.05.07,0,.05-.62.01-1.24,0-1.86,0-.04-.05-.04-.06,0h0Z"/>
      <path class="cls-1" d="m10.78,64.79c.08.51.1,1.02.12,1.53,0,.05.08.05.08,0,.05-.52,0-1.05-.1-1.56-.01-.07-.11-.04-.1.03h0Z"/>
      <path class="cls-1" d="m4.68,58.32c-.05.09-.07.19-.1.29-.03.11-.06.22-.09.33-.06.22-.11.43-.15.65-.01.07.08.09.1.03.07-.21.12-.42.18-.64.03-.11.05-.21.07-.32.02-.1.05-.21.05-.32,0-.03-.04-.04-.06-.01h0Z"/>
      <path class="cls-1" d="m4.96,58.8c-.08.34-.16.68-.25,1.03-.09.34-.19.68-.26,1.02-.01.06.07.08.09.03.12-.33.19-.68.27-1.02.08-.34.15-.69.21-1.04,0-.04-.05-.06-.06-.02h0Z"/>
      <path class="cls-1" d="m5.07,59.87c-.05.28-.11.56-.16.84-.05.27-.13.55-.16.83,0,.06.09.07.1.01.08-.27.12-.56.17-.84.04-.28.08-.55.11-.83,0-.03-.06-.04-.06,0h0Z"/>
      <path class="cls-1" d="m5.23,61.02c0,.21-.03.43-.07.64-.04.21-.1.41-.15.62-.01.05.07.1.09.04.09-.2.14-.42.18-.64.04-.22.06-.44.07-.66,0-.08-.12-.08-.12,0h0Z"/>
      <path class="cls-1" d="m5.31,62.17c0,.15-.03.31-.06.46-.02.08-.03.15-.05.22-.02.06-.07.15-.02.21,0,.01.03.02.04.02.07-.03.08-.12.1-.19.02-.08.04-.15.05-.23.03-.16.05-.32.06-.48,0-.07-.11-.07-.11,0h0Z"/>
      <path class="cls-1" d="m5.42,62.88c0,.11,0,.21-.03.32-.01.05-.03.1-.05.15-.02.05-.03.1-.05.15-.01.04.04.07.06.04.04-.04.07-.09.1-.14.03-.05.04-.11.06-.17.03-.11.04-.23.03-.35,0-.08-.13-.08-.12,0h0Z"/>
      <path class="cls-1" d="m4.35,63.48c.14.21.31.4.51.56.2.16.41.3.66.35.05.01.09-.06.04-.09-.2-.12-.41-.23-.6-.38-.18-.15-.35-.32-.48-.52-.05-.08-.19,0-.13.08h0Z"/>
      <path class="cls-1" d="m4.8,64.48c.09.07.18.15.26.22.04.04.09.07.14.11.05.03.1.06.15.09.04.02.08-.03.05-.06-.04-.04-.07-.08-.11-.12-.04-.04-.08-.08-.13-.11-.09-.07-.17-.14-.26-.22-.03-.02-.07-.03-.1,0-.02.02-.03.07,0,.1h0Z"/>
      <path class="cls-1" d="m5,65.11s0,0,0,0c0,0,0,0,.01,0,0,0,.01,0,.02,0,.01,0,.02.01.03.02,0,0,.01,0,.02.01,0,0,0,0,0,0,0,0,0,0,0,0,.01,0,.02.02.03.03.04.04.08.07.1.12.02.03.07,0,.06-.02-.02-.06-.05-.12-.09-.16-.04-.04-.1-.08-.15-.11-.03-.01-.06,0-.07.02,0,.01,0,.02,0,.04,0,.01.02.02.03.03h0Z"/>
      <path class="cls-1" d="m5.75,63.64c-.08.17-.16.33-.25.5-.04.08-.08.16-.12.25-.04.08-.08.17-.1.26,0,.04.04.08.07.04.06-.06.1-.15.14-.22.04-.08.08-.17.12-.26.08-.17.16-.34.24-.5.04-.08-.08-.14-.11-.07h0Z"/>
      <path class="cls-1" d="m5.87,64.11c-.05.18-.11.37-.17.55-.03.09-.06.18-.09.27-.03.08-.08.17-.06.26,0,.03.04.03.06.02.06-.06.08-.16.11-.24.03-.09.05-.18.08-.27.05-.18.09-.37.12-.56,0-.03-.04-.05-.05-.01h0Z"/>
      <path class="cls-1" d="m6.12,64.65c-.05.18-.11.36-.17.54-.06.18-.13.35-.17.54,0,.04.05.07.07.03.09-.17.14-.35.2-.53.06-.18.11-.37.15-.55.01-.05-.06-.07-.07-.02h0Z"/>
      <path class="cls-1" d="m6.28,65.33c-.04.19-.08.38-.14.57-.03.09-.06.18-.09.27-.03.09-.08.18-.09.28,0,.04.05.06.07.03.07-.07.09-.17.13-.26.03-.09.06-.18.09-.28.05-.19.09-.39.12-.59,0-.05-.07-.08-.08-.02h0Z"/>
      <path class="cls-1" d="m6.32,66.49s0,.1,0,.15c0,.05-.01.1-.03.15,0,.03.04.05.05.02.03-.05.05-.11.05-.16,0-.06,0-.11,0-.17,0-.02-.02-.04-.05-.04-.03,0-.04.03-.03.05h0Z"/>
      <path class="cls-1" d="m6.49,67.06c-.02.05-.04.11-.05.16-.01.05-.03.11-.04.16,0,.02,0,.04.02.05.02,0,.04,0,.05-.02.02-.05.05-.1.07-.15.02-.06.04-.11.07-.17.01-.03-.01-.07-.04-.08-.03,0-.07.01-.08.04h0Z"/>
      <path class="cls-1" d="m5.59,67.94c.12.07.24.14.35.21.06.04.12.07.18.1.06.03.13.06.19.08.03.01.07-.04.04-.06-.05-.04-.11-.09-.17-.12-.06-.04-.12-.07-.18-.1-.12-.07-.24-.14-.36-.2-.06-.03-.12.06-.06.09h0Z"/>
      <path class="cls-1" d="m5.99,68.49c.06.09.13.17.21.25.04.04.08.07.12.1.04.03.09.06.14.08.02,0,.04,0,.05,0,.01-.01.01-.04,0-.05-.04-.03-.07-.07-.11-.1-.04-.03-.07-.07-.11-.1-.07-.07-.14-.15-.19-.23-.02-.03-.05-.04-.08-.02-.03.01-.04.05-.02.08h0Z"/>
      <path class="cls-1" d="m6.37,69.17c.05.04.11.07.16.11.01,0,.03,0,.04,0,0-.01,0-.03,0-.04-.05-.04-.1-.08-.15-.13-.02-.02-.05-.02-.06,0-.02.02,0,.05.01.06h0Z"/>
      <path class="cls-1" d="m6.85,68.43c-.09.17-.17.35-.24.54-.07.17-.15.38-.14.57,0,.04.06.06.08.02.05-.08.08-.18.1-.27.03-.09.05-.18.08-.26.06-.18.14-.36.22-.53.04-.08-.08-.15-.12-.07h0Z"/>
      <path class="cls-1" d="m6.89,69.04c-.02.15-.05.29-.09.44-.02.07-.04.14-.06.21-.02.07-.05.14-.03.22,0,.04.06.05.09.02.06-.05.08-.13.1-.2.02-.07.04-.15.06-.22.03-.15.06-.3.07-.45,0-.08-.12-.1-.14-.02h0Z"/>
      <path class="cls-1" d="m7,69.79c-.03.14-.06.28-.08.42-.03.14-.07.28-.06.42,0,.04.06.07.08.02.06-.13.08-.27.1-.41.03-.14.05-.28.08-.42.02-.08-.11-.12-.12-.03h0Z"/>
      <path class="cls-1" d="m7.03,70.66c-.01.05-.03.11-.04.16,0,.03-.01.06-.01.1,0,.03,0,.06,0,.08,0,.02.02.05.04.05.02,0,.05,0,.06-.03.02-.05.05-.11.07-.16.01-.05.02-.11.04-.16,0-.04-.01-.09-.06-.1-.04,0-.09.01-.1.06h0Z"/>
      <path class="cls-1" d="m11.68,66.79c-.35.32-.73.6-1.09.9-.05.04.02.13.07.09.42-.23.79-.55,1.13-.88.08-.07-.04-.18-.11-.11h0Z"/>
      <path class="cls-1" d="m10.88,67.89c-.15.12-.3.24-.45.37-.07.06-.15.12-.22.18-.07.06-.14.13-.21.2-.05.05.02.14.08.1.33-.21.62-.48.92-.73.04-.03.03-.09,0-.12-.04-.04-.08-.03-.12,0h0Z"/>
      <path class="cls-1" d="m10.51,68.78c-.12.1-.23.21-.35.31-.06.05-.11.1-.17.15-.06.06-.11.12-.16.17-.02.02-.03.06,0,.09.02.02.06.04.09.02.06-.05.13-.09.19-.14.06-.05.12-.11.18-.16.12-.11.23-.21.35-.32.03-.03.03-.09,0-.12-.03-.03-.09-.03-.12,0h0Z"/>
    </g>
  </g>
</svg>