<?xml version="1.0" encoding="UTF-8"?>
<svg id="Calque_2" data-name="Calque 2" xmlns="http://www.w3.org/2000/svg" viewBox="0 0 14.12 74.14">
  <defs>
    <style>
      .cls-1 {
        fill: #8a7895;
      }
    </style>
  </defs>
  <g id="Calque_1-2" data-name="Calque 1">
    <g>
      <g>
        <path class="cls-1" d="m6.93,12.32c.24-.54.37-1.12.47-1.7.09-.51.23-1.12.02-1.62-.17-.4-.54-.67-.94-.82-.2-.08-.42-.12-.63-.14-.2-.02-.45-.02-.61.13-.18.18-.16.49-.19.73-.03.28-.07.56-.09.85-.04.53-.02,1.09.18,1.59.17.41.46.79.85,1.01.19.11.4.17.61.19.28.02.38-.16.47-.39.26-.62.52-1.24.81-1.85.13-.28.25-.56.4-.83.12-.22.28-.44.52-.54-.06-.03-.11-.06-.17-.1.13.67.21,1.4-.25,1.96-.21.26-.48.47-.73.68-.3.26-.59.51-.89.77-.11.09,0,.3.14.24,1.3-.55,2.48-1.39,3.4-2.46.46-.53.86-1.12,1.19-1.74.08-.15.16-.31.18-.48.02-.13,0-.36-.15-.41-.14-.05-.35,0-.5.01-.18.02-.35.05-.53.1-.73.2-1.38.68-1.78,1.32-.09.14.13.26.22.13.54-.86,1.54-1.37,2.55-1.28-.04-.02-.08-.05-.12-.07.11.19-.06.45-.16.62-.1.19-.21.38-.33.56-.23.37-.49.72-.78,1.05-.57.66-1.23,1.23-1.97,1.69-.42.26-.86.49-1.31.68.05.08.09.16.14.24.32-.27.64-.55.95-.82.28-.24.56-.47.77-.77.44-.63.32-1.39.21-2.1-.01-.07-.11-.12-.17-.1-.38.15-.61.47-.79.83-.23.45-.44.92-.64,1.38-.11.24-.21.48-.31.72-.05.11-.09.22-.14.33-.04.09-.08.31-.19.32-.17.03-.4-.08-.54-.17-.17-.1-.31-.23-.43-.38-.61-.77-.46-1.82-.35-2.72.01-.12.03-.24.05-.36.01-.1.02-.21.13-.24.17-.05.4,0,.56.05.34.08.7.24.91.54.3.44.15,1.06.08,1.54-.09.58-.23,1.15-.33,1.74-.02.1.13.19.18.08h0Z"/>
        <path class="cls-1" d="m9.6,10.72c.59-.26,1.14-.56,1.67-.92.53-.36,1.03-.76,1.5-1.2.23-.22.46-.44.67-.68.21-.22.42-.46.56-.73.12-.23.24-.58-.06-.73-.24-.12-.59-.06-.84-.03-.32.05-.63.15-.91.3-.14.07-.27.16-.4.26-.07.05-.14.11-.2.17-.04.04-.12.15-.18.13-.09-.02-.19.08-.13.17.19.26.43-.01.59-.15.21-.18.45-.33.7-.43.25-.1.52-.17.8-.19.12,0,.26-.02.38,0,.07.01.1.02.09.09-.01.08-.05.17-.09.24-.13.26-.33.48-.52.69-.2.22-.41.44-.63.65-.43.41-.89.78-1.37,1.13-.54.39-1.11.75-1.69,1.07-.09.05-.01.17.08.13h0Z"/>
        <path class="cls-1" d="m8.68,8.99c.32-.62.43-1.31.48-2.01.05-.65.16-1.41-.26-1.96-.36-.48-.98-.52-1.49-.3-.54.24-.9.74-1.12,1.27-.13.32-.21.66-.26,1-.03.17-.05.35-.07.52-.02.17-.05.35-.03.52.02.14.22.19.26.04.08-.26.06-.55.1-.82s.09-.53.16-.79c.14-.49.39-1,.81-1.3.4-.28.98-.42,1.36-.02.42.45.32,1.16.29,1.72-.04.7-.1,1.42-.37,2.07-.03.08.1.14.14.06h0Z"/>
        <path class="cls-1" d="m5.48,8.29c-.5-.67-1.07-1.28-1.69-1.84-.49-.45-1.2-1.15-1.93-.79-.68.34-.48,1.31-.29,1.88.26.75.75,1.36,1.32,1.89.68.63,1.43,1.22,2.23,1.69.16.1.3-.15.15-.25-.64-.43-1.26-.87-1.85-1.37-.53-.46-1.04-.96-1.37-1.59-.17-.32-.28-.67-.35-1.03-.05-.27-.07-.63.13-.86.22-.25.61-.2.88-.06.31.16.57.41.83.64.63.55,1.23,1.15,1.79,1.78.07.07.2-.03.14-.11h0Z"/>
        <path class="cls-1" d="m1.65,5.88c-.19-.24-.4-.49-.7-.58-.27-.08-.56-.01-.73.22C.06,5.76.01,6.08,0,6.36c-.01.3.03.61.12.9.39,1.25,1.46,2.06,2.55,2.69.72.42,1.49.75,2.22,1.15.05.03.1-.05.05-.08-.59-.34-1.15-.7-1.73-1.05-.5-.3-1.01-.58-1.47-.94-.86-.67-1.61-1.68-1.48-2.83.03-.28.11-.66.45-.69.34-.03.6.26.82.49.08.08.19-.04.12-.12h0Z"/>
        <path class="cls-1" d="m2.9,9.97c-.15.08-.07.28-.03.4.06.19.14.36.24.53.2.36.47.68.8.93.7.56,1.61.79,2.5.67.12-.02.1-.24-.03-.22-.77.1-1.56-.08-2.2-.52-.29-.2-.55-.46-.75-.75-.1-.14-.18-.28-.25-.43-.02-.05-.24-.47-.2-.5.08-.05,0-.18-.08-.13h0Z"/>
        <path class="cls-1" d="m7.82,4.77c-.09-.79-.23-1.6-.49-2.35-.09-.27-.22-.54-.46-.71-.27-.19-.61-.15-.88.02-.57.37-.89,1.12-1.04,1.76-.17.71-.21,1.46-.17,2.19.05.88.24,1.77.56,2.59.05.12.24.07.2-.06-.43-1.32-.6-2.76-.39-4.14.09-.62.28-1.25.67-1.75.17-.22.44-.49.75-.42.25.06.38.35.46.57.27.75.44,1.56.57,2.34.02.12.23.09.22-.03h0Z"/>
        <path class="cls-1" d="m6.85,1.75c-.08-.61-.22-1.37-.84-1.65-.6-.28-1.31.05-1.68.56-.46.64-.47,1.49-.47,2.24,0,.86.09,1.71.25,2.55.19.96.48,1.91.85,2.81.05.13.27.07.21-.06-.6-1.46-.94-3.01-1.02-4.58-.04-.71-.08-1.49.12-2.19.17-.6.64-1.19,1.32-1.16.75.03.92.92,1.02,1.51.02.14.26.1.24-.03h0Z"/>
        <path class="cls-1" d="m4.01,2.26c-.14-.38-.5-.74-.94-.66-.45.09-.7.56-.79.97-.11.52-.01,1.06.11,1.57.11.45.24.9.44,1.33.2.43.51.91.96,1.11.06.03.13-.04.07-.09-.13-.13-.27-.24-.39-.39-.12-.15-.23-.32-.33-.49-.19-.34-.32-.71-.42-1.08-.12-.42-.24-.86-.26-1.3-.03-.41.02-.9.32-1.22.36-.4.88-.15,1.07.29.04.1.2.06.16-.04h0Z"/>
        <path class="cls-1" d="m7.84,4.45c.28-.83.76-1.62,1.41-2.22.17-.15.37-.3.6-.35.1-.02.22-.03.32.01.12.05.1.21.09.32-.05.47-.34.89-.59,1.28-.32.5-.65.99-.99,1.47.08.04.15.09.23.13.4-.68.86-1.32,1.41-1.89.25-.26.52-.51.85-.66.28-.13.78-.26.99.04.21.3.06.78-.08,1.07-.16.33-.38.63-.59.93-.44.61-.91,1.2-1.35,1.81-.49.68-.93,1.39-1.23,2.18-.06.14.17.2.23.06.61-1.53,1.74-2.77,2.68-4.1.23-.33.46-.67.58-1.05.11-.33.16-.75-.06-1.05-.22-.3-.64-.31-.97-.23-.36.08-.68.29-.95.53-.35.3-.65.66-.94,1.03-.3.38-.57.78-.81,1.19-.09.15.13.27.23.13.36-.5.7-1.01,1.03-1.53.28-.44.59-.92.59-1.47,0-.6-.68-.58-1.07-.36-.45.24-.8.68-1.09,1.09-.33.48-.57,1-.72,1.57-.03.12.15.17.18.05h0Z"/>
        <path class="cls-1" d="m10.87,5.76c.23-.28.6-.47.97-.48.19,0,.4.06.41.28,0,.17-.08.34-.17.48-.41.62-1.05,1.08-1.71,1.41-.38.19-.78.35-1.18.47-.15.05-.08.27.06.23.85-.27,1.68-.66,2.36-1.25.31-.28.65-.62.8-1.01.15-.38,0-.79-.44-.83-.49-.05-.94.22-1.22.6-.05.07.06.16.12.09h0Z"/>
        <path class="cls-1" d="m6.08,29.21c-.3-.76-.59-1.54-1.03-2.23-.22-.34-.46-.66-.75-.95-.28-.27-.65-.58-1.06-.44-.08.03-.13.11-.11.19.39,1.5,1.5,2.79,2.94,3.37.15.06.25-.19.11-.26-1.35-.7-2.32-1.95-3.67-2.65-.16-.08-.33-.16-.5-.23-.16-.06-.34-.07-.45.07-.2.24-.03.6.1.82.35.59.93,1,1.53,1.3.7.34,1.46.61,2.21.82.43.12.87.2,1.32.19.43-.01.85-.12,1.25-.28.39-.16.76-.37,1.12-.59.35-.21.7-.42,1.03-.65.32-.23.62-.48.88-.78.19-.22.5-.64.15-.87-.23-.15-.57-.03-.78.1-.41.25-.8.53-1.2.79-.81.54-1.63,1.08-2.44,1.61-.2.13-.4.27-.6.4.04.06.09.11.13.17,1.05-.83,1.92-1.87,2.53-3.07.04-.08-.03-.19-.12-.16-1.33.46-2.36,1.62-2.65,2.99.07,0,.14.02.2.03-.11-1.66-.04-3.41.78-4.9.34-.62.83-1.24,1.44-1.61.28-.17.72-.33.98-.04.2.22.16.56.09.83-.1.42-.32.82-.49,1.22-.21.47-.41.94-.62,1.42-.07.15.14.28.23.13.39-.62.86-1.2,1.38-1.72.26-.26.54-.5.83-.72.19-.14.53-.41.78-.27.3.16,0,.74-.1.95-.15.31-.35.59-.57.85-.46.53-1.01.95-1.59,1.34-.7.48-1.41.95-2.04,1.53-.1.09.05.24.15.15.62-.58,1.36-1.01,2.06-1.49.64-.44,1.26-.92,1.74-1.53.22-.28.41-.59.55-.92.13-.3.3-.74.04-1.02-.22-.23-.56-.16-.81-.04-.33.15-.62.43-.89.67-.68.61-1.27,1.31-1.76,2.08.08.04.15.09.23.13.2-.46.4-.93.61-1.39.17-.39.37-.79.49-1.2.09-.31.14-.67,0-.97-.14-.32-.47-.48-.81-.44-.39.05-.73.29-1.02.55-.3.26-.56.57-.79.89-.47.68-.78,1.46-.95,2.27-.23,1.07-.23,2.17-.16,3.25,0,.11.18.15.2.03.28-1.3,1.25-2.4,2.51-2.84-.04-.05-.08-.11-.12-.16-.59,1.17-1.43,2.22-2.47,3.01-.11.08-.01.26.11.19.73-.47,1.46-.95,2.19-1.43.37-.24.75-.49,1.12-.73.17-.11.34-.22.51-.34.17-.11.33-.23.5-.32.1-.05.23-.1.35-.1.2.01.15.21.06.33-.2.31-.49.57-.78.79-.28.22-.59.41-.89.6-.33.21-.67.41-1.01.59-.34.17-.69.32-1.07.4-.4.08-.81.07-1.22,0-.74-.13-1.47-.39-2.16-.67-.59-.23-1.19-.52-1.64-.98-.2-.21-.42-.48-.5-.76-.04-.16-.04-.38.19-.32.17.05.34.14.5.22,1.35.71,2.32,1.97,3.65,2.73l.14-.25c-1.34-.6-2.37-1.76-2.75-3.19-.04.06-.07.13-.11.19.36-.12.7.29.92.52.25.27.47.57.67.88.4.63.72,1.3,1.02,1.98.03.08.17.02.14-.06h0Z"/>
        <path class="cls-1" d="m9.62,24.52c.68-.94,1.69-1.61,2.15-2.71.18-.43.34-1.09-.12-1.41-.41-.29-1-.13-1.39.13-.53.35-.87.94-1.12,1.51-.07.15.14.28.22.13.23-.45.45-.91.83-1.26.31-.28.85-.55,1.26-.33.45.24.18.96.01,1.3-.22.45-.54.84-.87,1.22-.38.44-.78.86-1.09,1.35-.04.07.06.13.11.06h0Z"/>
        <path class="cls-1" d="m6.75,24.2c-.05-.23-.13-.45-.27-.64-.11-.16-.26-.35-.44-.41-.18-.06-.38.01-.51.15-.16.17-.21.41-.24.64-.15,1.03-.11,2.07.1,3.09.12.58.3,1.14.53,1.68.05.13.24.02.19-.11-.35-.82-.57-1.7-.66-2.6-.04-.44-.05-.89-.02-1.33.01-.23.03-.45.07-.67.03-.2.05-.44.21-.57.22-.19.43,0,.58.18.16.19.27.4.33.64.02.09.16.05.14-.04h0Z"/>
        <path class="cls-1" d="m5.9,23.18c-.08-.51-.38-.94-.75-1.29-.18-.17-.38-.35-.6-.46-.21-.1-.53-.19-.69.04-.05.07.02.17.09.16.09,0,.18-.04.28-.03.1.02.2.06.29.12.19.12.35.27.51.43.31.3.57.67.67,1.1.03.14.22.07.2-.06h0Z"/>
        <path class="cls-1" d="m5.4,24.38c-.42-.92-.88-1.83-1.41-2.69-.22-.36-.48-.72-.8-1-.29-.25-.77-.57-1.16-.37-.11.06-.05.23.06.23.11,0,.22-.01.32.01.1.02.18.06.27.11.18.1.33.23.47.37.29.29.51.63.72.98.47.8.9,1.63,1.35,2.46.06.12.24.01.18-.11h0Z"/>
        <path class="cls-1" d="m2.09,20.38c-.32-.24-.76-.04-.94.27-.23.41-.19.98-.13,1.44.14,1.07.7,2.01,1.19,2.95.3.58.6,1.16.91,1.73.08.14.29.02.22-.13-.44-.89-.93-1.76-1.4-2.63-.45-.85-.79-1.73-.74-2.71.01-.23.05-.48.21-.65.15-.16.4-.25.6-.12.09.06.16-.08.08-.14h0Z"/>
        <path class="cls-1" d="m1.25,22.79c-.25-.22-.61-.1-.8.14-.23.28-.27.67-.21,1.02.07.4.28.76.49,1.1.12.2.25.39.38.58.12.18.24.39.4.54.09.09.23-.02.17-.13-.08-.16-.2-.3-.3-.44-.1-.15-.2-.29-.29-.44-.18-.29-.38-.59-.51-.91-.11-.29-.17-.61-.07-.91.07-.23.36-.6.63-.4.08.06.19-.08.11-.15h0Z"/>
        <path class="cls-1" d="m5.38,29.1c.1.39.18.78.23,1.17.02.19.04.39.05.58.01.2,0,.4.02.61,0,.06.04.11.1.13.03,0,.05,0,.07,0,.06-.02.09-.07.1-.13.04-.4-.02-.83-.07-1.23-.06-.41-.14-.81-.25-1.2-.05-.17-.3-.1-.26.07h0Z"/>
        <path class="cls-1" d="m6.44,29.02c-.06.43-.12.86-.2,1.29-.04.21-.07.41-.11.62-.02.1-.04.21-.06.31,0,.05-.02.1-.03.14,0,.06.02.09.04.15.01.05.08.07.12.03.04-.04.07-.06.09-.11.02-.04.02-.1.03-.14.02-.11.04-.22.06-.33.04-.21.08-.43.11-.65.06-.43.1-.87.13-1.31,0-.12-.17-.11-.18,0h0Z"/>
        <path class="cls-1" d="m5.61,29.05c.03.17.15.31.3.38.08.04.16.06.25.07.09,0,.2,0,.26-.08.05-.05.02-.15-.06-.15-.04,0-.08.01-.11.02,0,0-.02,0-.02,0-.02,0,.02,0,0,0-.02,0-.03,0-.05,0-.02,0-.03,0-.05,0,.02,0,0,0,0,0,0,0-.02,0-.02,0-.02,0-.03,0-.05-.01,0,0-.02,0-.02,0-.01,0-.01,0,0,0,0,0,0,0-.01,0-.03-.02-.06-.03-.09-.05,0,0,0,0,0,0,0,0,0,0,0,0,0,0-.01-.01-.02-.02-.01-.01-.02-.02-.03-.04,0,0-.02-.02-.01-.01,0,0,0-.01,0-.01,0-.01-.02-.03-.03-.04,0,0-.01-.02,0-.02,0,0,0-.01,0-.02,0-.02-.01-.03-.01-.05,0-.05-.07-.07-.11-.06-.05.01-.07.06-.06.11h0Z"/>
        <path class="cls-1" d="m6.48,34.05c-.04-.79-.19-1.56-.45-2.31-.13-.37-.28-.73-.46-1.07-.15-.3-.35-.63-.66-.79-.28-.14-.62-.15-.87.06-.23.19-.32.51-.33.81-.02.71.33,1.36.71,1.93.22.34.46.67.66,1.03.23.4.42.83.58,1.27.08-.03.16-.07.25-.1-.31-.62-.67-1.21-1.09-1.76-.32-.43-.78-1.01-1.39-.8-.61.21-.43.95-.14,1.36.36.51.93.78,1.48,1.05.17.08.34.17.5.26.08.04.15.09.22.14.04.03.1.06.15.05.3-.05-.06-.45-.12-.19-.03.13.17.18.2.05,0,0,0,0,0-.01l-.13.07s0,0,0,0c-.02-.02-.04-.03-.06-.05,0-.02,0-.04,0-.06.02-.02.04-.03.07-.05.07-.02.05.03.03-.02,0-.02-.03-.03-.04-.04-.04-.03-.08-.06-.13-.09-.11-.07-.23-.13-.35-.19-.22-.11-.45-.22-.67-.33-.39-.21-.78-.47-1.01-.86-.1-.18-.21-.45-.14-.65.06-.18.28-.24.46-.22.22.03.4.2.54.36.17.18.31.39.46.59.34.48.65.98.9,1.51.07.14.3.04.25-.1-.22-.67-.53-1.28-.91-1.87-.34-.53-.74-1.06-.91-1.67-.08-.28-.12-.59-.04-.87.08-.28.29-.47.59-.39.32.09.5.39.64.67.17.31.31.64.44.97.29.75.47,1.54.57,2.33.01.12.2.12.19,0h0Z"/>
        <path class="cls-1" d="m3.15,32.69c-.42-.2-.94-.41-1.35-.08-.38.3-.33.86-.13,1.25.22.42.62.73,1.02.95.43.24.92.4,1.41.46.54.06,1.15.05,1.67-.12.09-.03.06-.16-.04-.15-.43.08-.84.14-1.28.09-.42-.05-.84-.15-1.23-.32-.38-.16-.75-.38-1.04-.67-.26-.27-.49-.67-.37-1.05.17-.57.89-.34,1.28-.19.1.04.17-.13.07-.17h0Z"/>
        <path class="cls-1" d="m3.33,32.52c-.4-.89-.84-1.81-1.61-2.44-.34-.28-.84-.58-1.2-.16-.35.4-.16,1.03,0,1.47.09.27.21.53.35.78.14.25.31.54.53.73.05.05.12.05.18,0,.08-.07.07-.19-.02-.24-.06-.03-.11,0-.12.07,0-.01.01-.02.02-.03.05.02.09.04.14.06-.13-.19-.28-.36-.4-.55-.12-.2-.23-.4-.32-.62-.08-.2-.15-.41-.21-.63-.06-.23-.12-.5-.03-.73.22-.53.77-.09,1.04.15.31.28.57.61.79.97.26.41.48.85.7,1.28.06.12.23.01.18-.1h0Z"/>
        <path class="cls-1" d="m3.95,30c-.26-.03-.55-.06-.79.09-.21.14-.31.38-.34.63-.07.6.12,1.26.4,1.79.07.13.26.01.19-.11-.25-.47-.39-1.01-.38-1.54,0-.2.05-.44.22-.57.19-.15.47-.13.7-.11.11,0,.11-.16,0-.18h0Z"/>
        <path class="cls-1" d="m5.98,34.97c.07-.23.16-.45.28-.66.05-.1.12-.19.19-.28.11-.12.2-.1.32,0,.36.27.6.66.73,1.08.03.08.14.12.2.05.32-.34.72-.62,1.15-.79-.04-.05-.07-.09-.11-.14-.14.32-.28.65-.43.97-.03.08.04.18.12.12.38-.25.78-.47,1.19-.66-.04-.03-.09-.05-.13-.08.04,1.16-.78,2.23-1.87,2.59-1.14.38-2.41.06-3.27-.77-.23-.22-.42-.46-.59-.73-.17-.27-.29-.56-.44-.84-.05-.1-.19-.03-.17.07.1.6.49,1.16.91,1.59.43.44.96.78,1.55.96,1.23.38,2.64.04,3.44-1,.41-.54.64-1.19.62-1.87,0-.07-.07-.1-.13-.08-.41.19-.81.4-1.19.65.04.04.08.08.12.12.14-.32.29-.65.43-.97.03-.07-.02-.17-.11-.14-.48.18-.91.44-1.27.8.07.02.13.04.2.05-.06-.28-.19-.55-.36-.78-.16-.21-.38-.46-.64-.56-.29-.11-.48.16-.62.38-.16.26-.25.55-.28.86,0,.09.13.1.15.02h0Z"/>
        <path class="cls-1" d="m6.09,31.82c.36-.51.71-1.03,1.06-1.54.14-.21.29-.49.51-.63.26-.16.46.13.57.33.24.45.23,1,.23,1.49,0,.59.03,1.19-.03,1.78-.03.31-.11.61-.26.88-.15.26-.34.43-.59.58-.1.06-.04.22.08.19.54-.17.85-.77.96-1.28.14-.66.09-1.36.09-2.03,0-.58.01-1.2-.27-1.73-.12-.23-.3-.48-.58-.51-.27-.03-.48.16-.64.36-.23.3-.43.63-.65.95-.24.35-.47.7-.7,1.06-.08.13.12.24.2.12h0Z"/>
        <path class="cls-1" d="m8.67,32.64c.62-1.15,1.49-2.24,2.55-3.01.12-.09.27-.18.42-.16.2.02.22.19.22.36-.01.36-.08.72-.18,1.07-.18.68-.48,1.31-.82,1.92-.35.62-.72,1.35-1.37,1.71-.12.07-.01.24.11.18.66-.31,1.03-.99,1.37-1.59.39-.68.74-1.4.95-2.16.1-.37.17-.75.19-1.14.01-.33-.15-.61-.51-.61-.35,0-.65.3-.9.51-.28.24-.55.5-.8.77-.56.61-1.02,1.3-1.38,2.06-.05.1.1.19.15.09h0Z"/>
        <path class="cls-1" d="m9.54,31.32c.15-.46.32-.92.46-1.38.07-.22.13-.45.13-.68,0-.17-.02-.37-.19-.45-.15-.07-.35-.02-.5.03-.17.05-.33.14-.47.25-.14.1-.25.23-.35.37-.07.11-.23.35-.14.47.02.03.06.05.09.04.13-.05.15-.23.21-.34.07-.12.16-.23.26-.32.11-.1.25-.18.39-.24.1-.04.37-.14.45-.04.05.07.04.2.04.28,0,.09-.02.19-.04.28-.04.18-.1.36-.16.54-.12.38-.24.77-.36,1.15-.03.11.13.15.17.05h0Z"/>
        <path class="cls-1" d="m7.04,37.51c-.21,2.4-.33,4.81-.47,7.22-.14,2.38-.28,4.76-.42,7.14-.28,4.76-.56,9.53-.84,14.29-.15,2.61-.29,5.25-.94,7.8.09-.01.18-.02.26-.03-.89-2.07-.64-4.41-.51-6.59.15-2.41.32-4.83.5-7.24.19-2.42.39-4.85.58-7.27.19-2.41.38-4.82.54-7.24.16-2.41.3-4.83.38-7.24.01-.3.02-.6.02-.91,0-.18-.28-.18-.28,0-.08,2.44-.21,4.88-.37,7.32-.16,2.44-.34,4.87-.53,7.31-.19,2.42-.39,4.85-.58,7.27-.19,2.44-.37,4.87-.51,7.31-.07,1.16-.15,2.32-.15,3.48,0,1.08.08,2.17.39,3.22.08.25.16.49.27.73.05.12.23.08.26-.03.58-2.24.76-4.57.9-6.87.14-2.4.28-4.8.42-7.2.28-4.79.56-9.57.85-14.36.16-2.7.36-5.39.43-8.09,0-.13-.19-.13-.2,0h0Z"/>
        <path class="cls-1" d="m5.66,12.2c.16,2.88.31,5.77.34,8.65,0,.41,0,.81,0,1.22,0,.4-.03.82,0,1.22.01.15.21.14.23,0,.05-.37.03-.74.03-1.11,0-.35,0-.7,0-1.06,0-.72,0-1.44-.02-2.17-.02-1.44-.08-2.89-.17-4.33-.05-.81-.12-1.63-.2-2.44-.01-.14-.22-.14-.22,0h0Z"/>
        <path class="cls-1" d="m6.89,24.11c.21-1.51.28-3.03.28-4.56,0-1.54-.07-3.08-.22-4.62-.04-.43-.09-.85-.14-1.28-.05-.43-.09-.86-.19-1.28-.03-.14-.26-.11-.25.03.03.38.1.76.15,1.14.05.38.09.76.13,1.14.08.76.14,1.53.18,2.29.08,1.51.08,3.03.02,4.54-.03.86-.08,1.71-.13,2.57,0,.1.16.12.17.02h0Z"/>
      </g>
      <path class="cls-1" d="m6.77,7.28c0,.19,0,.38,0,.57,0,.19,0,.38.01.57,0,.06.1.06.1,0,0-.19,0-.38-.02-.57,0-.19-.01-.38-.02-.57,0-.05-.08-.05-.08,0h0Z"/>
      <path class="cls-1" d="m7.16,7.18c-.02.27-.03.54-.03.8,0,.13,0,.26,0,.39,0,.07,0,.14,0,.2,0,.05,0,.09.05.12.01.01.04,0,.05,0,.04-.04.03-.09.03-.15,0-.07,0-.14-.01-.2,0-.13-.01-.25-.02-.38,0-.26-.01-.53-.01-.79,0-.04-.06-.04-.07,0h0Z"/>
      <path class="cls-1" d="m7.57,7.28c-.03.4-.07.8-.09,1.2-.01.2-.03.39-.04.59,0,.1-.01.2-.02.29,0,.09-.02.17.02.25.01.03.05.02.07,0,.05-.07.04-.16.05-.25,0-.09,0-.18.01-.27,0-.2.02-.41.03-.61.02-.4.03-.8.04-1.2,0-.04-.06-.04-.06,0h0Z"/>
      <path class="cls-1" d="m8.01,7.86c-.08.39-.17.78-.26,1.17-.04.19-.09.38-.13.56-.02.1-.05.2-.07.3-.02.08-.05.16-.03.25,0,.03.06.05.08.02.06-.07.06-.15.08-.23.02-.1.04-.2.07-.3.04-.19.08-.38.12-.57.08-.39.15-.79.22-1.18,0-.05-.06-.07-.07-.02h0Z"/>
      <path class="cls-1" d="m8.18,8.53c-.04.22-.09.44-.14.66-.02.11-.05.21-.08.32-.03.1-.07.22-.07.32,0,.05.07.07.1.03.05-.09.06-.2.08-.31.02-.11.04-.22.07-.34.04-.22.08-.44.11-.66,0-.05-.06-.07-.07-.02h0Z"/>
      <path class="cls-1" d="m8.22,9.89c-.12.38-.3.74-.52,1.08-.11.16-.22.32-.35.47-.13.15-.28.28-.39.44-.03.05.03.11.08.08.17-.11.31-.27.43-.42.13-.16.25-.32.36-.49.22-.35.38-.73.5-1.12.02-.07-.09-.1-.11-.03h0Z"/>
      <path class="cls-1" d="m5.45,10.1c.04.38.15.75.32,1.09.08.18.18.35.28.51.05.08.1.15.16.22.06.07.11.17.2.21.04.02.11-.02.09-.07-.03-.08-.09-.14-.15-.2-.06-.07-.11-.15-.17-.23-.11-.16-.2-.32-.29-.49-.17-.34-.29-.7-.38-1.07,0-.04-.08-.03-.07,0h0Z"/>
      <path class="cls-1" d="m6.1,10.63c.06.31.13.61.2.92.04.15.08.3.12.46.02.08.04.15.06.23.02.06.03.12.09.15.02.01.05,0,.06-.02.03-.06.01-.11,0-.17-.02-.08-.04-.15-.07-.23-.04-.15-.09-.3-.13-.45-.08-.3-.16-.61-.23-.91-.02-.07-.12-.04-.1.03h0Z"/>
      <path class="cls-1" d="m6.45,10.7c.02.28.03.55.04.83,0,.13,0,.27.01.4,0,.07,0,.14,0,.22,0,.06,0,.11.04.16.02.02.05.02.07,0,.04-.05.03-.09.03-.16,0-.07,0-.14,0-.22,0-.13-.02-.27-.03-.4-.02-.28-.05-.55-.08-.83,0-.05-.09-.05-.08,0h0Z"/>
      <path class="cls-1" d="m3.92,11.38c.22.24.45.45.71.64.13.09.26.18.39.27.13.08.28.19.44.21.03,0,.06-.03.03-.05-.1-.11-.26-.17-.38-.24-.14-.08-.27-.17-.4-.26-.26-.19-.51-.39-.73-.62-.03-.03-.09.02-.05.05h0Z"/>
      <path class="cls-1" d="m4.37,11.29c.33.4.72.74,1.16,1.01.06.03.11.07.17.1.04.02.11.06.16.04.11-.06-.07-.16-.11-.18-.23-.12-.45-.26-.65-.42-.24-.18-.46-.38-.66-.6-.04-.04-.1.02-.06.06h0Z"/>
      <path class="cls-1" d="m3.89,8.88c.17.31.35.62.52.93.09.15.17.31.26.46.06.1.13.27.27.22.05-.02.05-.09,0-.1-.06-.02-.1-.1-.13-.15-.04-.06-.08-.12-.11-.19-.08-.14-.17-.27-.25-.41-.16-.27-.33-.54-.5-.8-.03-.04-.09,0-.06.04h0Z"/>
      <path class="cls-1" d="m4.23,8.97s.03,0,.03.02c0,0,0,0,0,.01,0,.01.01.03.02.04.01.03.03.05.04.08.03.05.06.11.08.16.06.1.12.2.18.3.06.09.13.18.21.27.04.04.08.08.13.12.04.04.09.08.15.1.04.01.09-.04.06-.08-.04-.06-.11-.09-.16-.14-.05-.04-.1-.09-.14-.14-.09-.1-.18-.22-.25-.34-.08-.12-.15-.23-.23-.35-.02-.03-.06-.1-.11-.1-.04,0-.06.03-.04.07,0,.02.03,0,.03-.01h0Z"/>
      <path class="cls-1" d="m4.58,8.87c.07.12.14.24.21.35.04.06.07.11.11.17.04.05.08.14.15.15.02,0,.04-.02.05-.03.01-.07-.05-.13-.09-.18-.04-.06-.08-.11-.12-.17-.08-.11-.15-.23-.22-.34-.04-.06-.14,0-.1.06h0Z"/>
      <path class="cls-1" d="m3.36,2.98c.08.76.31,1.5.55,2.22.12.37.25.74.38,1.11.06.18.12.36.19.53.05.14.08.35.2.45.02.02.05,0,.06-.02.04-.15-.08-.35-.13-.49-.06-.18-.13-.36-.19-.53-.13-.36-.26-.72-.39-1.08-.25-.72-.5-1.45-.62-2.2,0-.02-.05-.02-.04,0h0Z"/>
      <path class="cls-1" d="m3.26,3.5c.09,1.26.49,2.5,1.16,3.58.03.05.11,0,.08-.05-.67-1.07-1.08-2.28-1.19-3.53,0-.03-.05-.03-.05,0h0Z"/>
      <path class="cls-1" d="m3.01,4.27c.17.49.32.99.48,1.48.08.25.16.49.25.74.04.11.12.31.27.27.04,0,.04-.05.02-.08-.06-.07-.12-.11-.16-.2-.04-.1-.07-.2-.11-.31-.08-.21-.15-.43-.23-.64-.16-.43-.32-.85-.47-1.28,0-.03-.05-.02-.04.01h0Z"/>
      <path class="cls-1" d="m2,6.49c.08.38.19.75.35,1.11.08.18.16.35.25.52.06.11.17.3.32.27.04,0,.05-.05.03-.08-.03-.06-.1-.09-.14-.14-.05-.06-.09-.14-.13-.21-.09-.15-.17-.31-.24-.47-.15-.33-.26-.67-.35-1.02-.01-.06-.1-.03-.09.02h0Z"/>
      <path class="cls-1" d="m2.52,7.06c.04.1.09.21.15.3.03.05.06.09.09.14.02.02.03.05.05.07.02.02.04.04.07.05.03.01.06,0,.05-.04,0-.03-.01-.05-.03-.08-.01-.02-.03-.04-.05-.06-.03-.04-.06-.09-.09-.14-.06-.09-.11-.19-.15-.29-.02-.05-.11-.01-.09.04h0Z"/>
      <path class="cls-1" d="m2.91,7.19s0,.03.01.04c0,0,0,.02.01.03,0,0,0,.01.01.02,0,0,.01.01.02.02,0,0,.02,0,.03,0,0,0,.01,0,.02-.01,0,0,.01-.02.01-.03,0,0,0-.01,0-.02,0,0,0-.01,0-.02,0,0,0,0,0-.01,0-.01,0-.03-.01-.04,0-.01-.01-.02-.02-.03-.01,0-.02,0-.04,0-.01,0-.02.01-.03.02,0,.01,0,.02,0,.04h0Z"/>
      <path class="cls-1" d="m.53,6.07c0,.26.03.53.1.78.06.25.15.51.29.73.03.04.11.02.09-.04-.09-.24-.19-.46-.26-.71-.07-.25-.1-.5-.1-.76,0-.08-.12-.08-.12,0h0Z"/>
      <path class="cls-1" d="m.89,6.73s.02.07.03.1c0,.02,0,.03.01.05,0,.02.02.04.03.06,0,.02.04.03.06.02.02,0,.04-.03.04-.05,0-.02,0-.04,0-.06,0-.02,0-.04-.01-.05,0-.03-.02-.07-.03-.1,0-.03-.04-.05-.08-.04-.03.01-.05.04-.04.08h0Z"/>
      <path class="cls-1" d="m5.27.55c-.17.07-.32.17-.44.32-.11.14-.21.32-.21.5,0,.04.06.06.08.02.07-.15.13-.3.23-.43.11-.13.23-.24.38-.31.05-.03.01-.12-.04-.1h0Z"/>
      <path class="cls-1" d="m5.1,1.1c-.06.05-.11.1-.15.16-.02.03-.05.06-.07.09-.01.01-.02.03-.03.05,0,.01-.01.02-.01.04,0,.01,0,.02,0,.03,0,.02.01.03.03.04.02,0,.03,0,.05,0,0,0,0,0,.02-.01.01,0,.02-.02.03-.03,0,0,0,0,0-.01,0,0,0,.01,0,0,0,0,.01-.02.02-.03.02-.03.04-.06.06-.09,0,0,0,0,0,0,0,0,0,0,0-.01,0,0,.01-.01.02-.02.01-.01.02-.03.03-.04.02-.03.05-.05.08-.08.02-.02.02-.06,0-.08-.02-.02-.06-.02-.08,0h0Z"/>
      <path class="cls-1" d="m4.9,1.72s-.04.05-.05.08c0,.01-.01.03-.01.05,0,.02,0,.03,0,.05,0,.01.02.03.03.02.01,0,.03,0,.03-.02,0-.01,0-.02,0-.03,0,0,0,0,0,.01,0-.01,0-.03.01-.04,0,0,0,0,0,.01,0-.01.01-.02.02-.03,0,0,0,0,0,0,0,0,.01-.02.02-.02,0,0,.01-.02.01-.03,0-.01,0-.02-.01-.03-.02-.02-.05-.02-.06,0h0Z"/>
      <path class="cls-1" d="m6.14,2.67c-.28.38-.49.81-.62,1.27-.06.22-.1.45-.13.67-.02.22-.06.48,0,.7.01.04.09.05.1,0,.04-.21.02-.43.04-.64.02-.24.06-.47.12-.7.12-.45.3-.88.54-1.27.02-.04-.03-.07-.06-.03h0Z"/>
      <path class="cls-1" d="m6.19,4.24c-.48,1.16-.7,2.4-.6,3.66,0,.09.14.09.13,0-.1-1.23.08-2.49.54-3.63.02-.05-.06-.07-.08-.02h0Z"/>
      <path class="cls-1" d="m7.83,5.52c-.03.05-.04.1-.05.16,0,.03,0,.06,0,.09,0,.02,0,.04,0,.05,0,.02.01.03.02.04,0,.02.03.03.05.03.02,0,.04-.02.04-.04,0-.01,0-.02,0-.03,0-.02,0-.03,0-.05,0-.01,0-.02,0-.04,0,0,0-.03,0,0,0,0,0-.01,0-.02,0-.02,0-.05.02-.07,0-.01,0-.02.01-.03,0,0,0,0,0,0,0,0,0,0,0,0,0,0,0-.01,0-.02.02-.03,0-.08-.03-.1-.03-.02-.08,0-.1.03h0Z"/>
      <path class="cls-1" d="m8.86,2.97c-.18.24-.35.5-.5.76-.07.13-.14.26-.21.39-.03.07-.07.14-.1.21-.03.06-.06.12-.05.18,0,.03.04.04.07.03.06-.03.07-.1.1-.16.03-.07.06-.13.09-.2.06-.14.13-.27.2-.4.14-.26.3-.51.47-.76.04-.05-.05-.1-.08-.05h0Z"/>
      <path class="cls-1" d="m8.96,3.43c-.09.16-.19.32-.28.48-.05.08-.09.16-.14.24-.04.08-.1.16-.13.24-.01.04.05.08.08.04.06-.07.1-.16.14-.24.04-.08.09-.16.13-.24.09-.16.18-.32.27-.49.02-.05-.04-.09-.07-.04h0Z"/>
      <path class="cls-1" d="m8.89,4.01c-.05.07-.09.15-.13.23-.04.08-.08.17-.07.26,0,.05.06.06.09.02.03-.04.04-.08.05-.13.01-.04.03-.07.04-.11.03-.08.07-.15.12-.22.02-.03,0-.06-.02-.08-.03-.02-.06,0-.08.02h0Z"/>
      <path class="cls-1" d="m10.35,3.69c-.21.3-.42.6-.64.9-.11.15-.22.3-.33.44-.1.13-.24.27-.3.43,0,.02.02.05.04.03.14-.09.24-.25.33-.38.11-.15.23-.3.34-.45.22-.3.43-.61.63-.92.03-.05-.04-.09-.07-.04h0Z"/>
      <path class="cls-1" d="m10.37,4.23c-.17.3-.4.55-.63.81-.11.12-.22.24-.32.37-.05.06-.1.13-.14.19-.04.06-.1.13-.1.21,0,.02.03.04.05.03.06-.04.09-.12.13-.18.05-.07.09-.14.15-.21.11-.14.22-.27.33-.4.22-.25.43-.5.58-.8.01-.03-.03-.06-.05-.03h0Z"/>
      <path class="cls-1" d="m10.1,5.05c-.16.23-.32.45-.49.68-.08.11-.17.22-.25.33-.04.05-.09.11-.13.16-.04.05-.09.1-.1.17,0,.03.02.05.04.03.06-.03.1-.09.14-.14.04-.05.08-.1.12-.15.09-.11.17-.23.26-.34.16-.23.32-.46.47-.7.03-.04-.04-.08-.07-.04h0Z"/>
      <path class="cls-1" d="m10.14,5.68c-.17.23-.35.46-.52.69-.09.12-.17.23-.26.35-.04.06-.09.12-.13.17-.04.05-.08.1-.1.17,0,.02.02.04.03.02.05-.04.08-.08.12-.13.04-.06.09-.12.13-.18.09-.12.18-.24.26-.36.17-.24.35-.48.52-.71.02-.02-.02-.04-.04-.02h0Z"/>
      <path class="cls-1" d="m11.08,6.13c-.15.13-.31.26-.47.39-.16.12-.33.23-.47.36-.03.02,0,.06.03.05.18-.09.34-.22.5-.35.16-.13.31-.26.46-.4.03-.03-.01-.07-.05-.05h0Z"/>
      <path class="cls-1" d="m11.23,5.72c-.13.07-.25.15-.37.23-.06.04-.12.08-.18.12-.06.04-.13.08-.15.16,0,.02.01.05.04.05.07,0,.13-.05.19-.09.06-.04.12-.08.18-.13.12-.08.24-.16.36-.23.06-.04,0-.14-.06-.1h0Z"/>
      <path class="cls-1" d="m11.49,6.17c-.3.23-.62.45-.95.65-.33.2-.67.37-.99.57-.04.02-.01.09.03.07.36-.14.7-.34,1.02-.55.33-.21.64-.43.95-.67.04-.03-.02-.11-.06-.08h0Z"/>
      <path class="cls-1" d="m9.92,8.29c-.23.15-.45.3-.66.46-.1.08-.21.16-.31.24-.05.04-.1.08-.15.12-.05.04-.1.08-.12.14,0,.03.02.05.04.04.06,0,.11-.06.16-.09.05-.04.09-.08.14-.11.11-.08.21-.17.32-.25.21-.16.42-.31.64-.45.06-.04,0-.13-.05-.09h0Z"/>
      <path class="cls-1" d="m10.07,8.56c-.18.14-.36.28-.54.42-.09.07-.18.13-.27.2-.09.06-.2.12-.26.2-.02.02,0,.06.03.05.1-.03.2-.11.28-.17.1-.07.19-.14.29-.21.19-.14.37-.28.55-.42.05-.04-.02-.12-.07-.07h0Z"/>
      <path class="cls-1" d="m9.79,9.17c-.14.09-.28.18-.42.27-.07.04-.14.09-.21.13-.07.04-.14.09-.2.14-.03.03,0,.09.04.07.04-.02.08-.03.11-.06.03-.02.06-.04.1-.06.07-.05.14-.09.21-.14.14-.09.28-.18.42-.27.06-.04,0-.13-.05-.09h0Z"/>
      <path class="cls-1" d="m9.93,9.44c-.2.11-.39.23-.58.35-.19.12-.4.22-.58.35-.03.02-.01.08.03.07.22-.08.41-.21.61-.32.2-.12.39-.25.57-.4.03-.02,0-.06-.04-.05h0Z"/>
      <path class="cls-1" d="m9.85,9.87c-.17.1-.35.19-.52.29-.09.05-.18.09-.27.13-.09.04-.18.08-.26.14-.03.02-.01.06.02.06.1-.02.19-.06.27-.1.1-.04.19-.08.28-.13.18-.09.36-.19.53-.3.06-.04,0-.13-.06-.09h0Z"/>
      <path class="cls-1" d="m9.81,10.27c-.21.07-.42.15-.62.24-.2.09-.41.18-.59.31-.03.02,0,.07.03.06.1-.04.19-.09.29-.14.1-.05.2-.1.3-.15.2-.1.4-.19.6-.28.02,0,0-.05-.02-.04h0Z"/>
      <path class="cls-1" d="m12.2,7.31c-.12.08-.25.16-.37.24-.06.04-.12.08-.18.12-.06.04-.13.08-.18.14-.02.03,0,.07.04.06.07-.02.13-.07.2-.11.06-.04.12-.08.18-.12.12-.08.24-.17.36-.25.05-.04,0-.12-.05-.09h0Z"/>
      <path class="cls-1" d="m12.53,7.42c-.19.13-.38.26-.57.38-.19.12-.4.22-.56.37-.03.02,0,.07.04.06.21-.08.4-.22.59-.35.19-.13.37-.27.54-.42.02-.02,0-.06-.03-.04h0Z"/>
      <path class="cls-1" d="m12.49,7.88c-.24.15-.48.3-.72.45-.12.07-.24.15-.36.22-.06.04-.12.08-.18.12-.05.03-.1.06-.12.12,0,.03.01.05.04.05.07,0,.12-.04.17-.07.06-.04.12-.08.18-.12.11-.07.23-.15.34-.22.23-.15.47-.31.7-.46.06-.04,0-.12-.05-.09h0Z"/>
      <path class="cls-1" d="m12.18,8.45c-.26.16-.53.32-.8.48-.13.08-.26.15-.39.22-.07.04-.14.08-.21.12-.06.03-.13.06-.17.12-.02.03,0,.08.05.08.07,0,.13-.05.19-.08.07-.04.14-.08.21-.12.13-.07.26-.15.39-.23.27-.16.53-.33.79-.5.06-.04,0-.12-.05-.09h0Z"/>
      <path class="cls-1" d="m11.84,9.03c-.44.28-.91.5-1.38.73-.05.02-.01.1.03.08.5-.17.96-.43,1.4-.71.06-.04,0-.14-.06-.1h0Z"/>
      <path class="cls-1" d="m4.73,22.24c.09.27.19.54.29.81.05.13.11.26.16.38.05.11.09.26.19.33.02.01.04,0,.04-.02,0-.12-.09-.26-.14-.36-.06-.12-.11-.24-.17-.36-.12-.26-.23-.52-.33-.78-.01-.03-.06-.02-.05.01h0Z"/>
      <path class="cls-1" d="m5.26,22.95c.04.1.08.19.11.29.02.05.03.09.05.14.02.05.03.11.06.15.03.03.1,0,.09-.04,0-.05-.04-.1-.06-.14-.02-.05-.05-.09-.07-.14-.05-.09-.09-.18-.14-.28-.01-.02-.05,0-.04.02h0Z"/>
      <path class="cls-1" d="m1.77,20.65c-.26.38-.25.97-.2,1.41.05.47.19.99.48,1.36.04.04.12,0,.1-.06-.09-.21-.19-.42-.27-.63-.07-.21-.13-.44-.16-.66-.03-.23-.04-.45-.02-.68.02-.24.04-.48.16-.69.04-.06-.06-.11-.09-.06h0Z"/>
      <path class="cls-1" d="m2.01,21.97c.02.22.06.43.12.64.06.2.13.43.26.59.03.04.09,0,.08-.04-.02-.1-.07-.19-.11-.28-.04-.1-.07-.2-.11-.3-.06-.2-.11-.4-.14-.61,0-.07-.11-.07-.11,0h0Z"/>
      <path class="cls-1" d="m2.47,22.75s.02.04.03.05c0,0,0,0,0,.01,0,0,0,.01.01.02,0,0,.01.02.02.02,0,0,.01,0,.02.01,0,0,.02,0,.03,0,.02-.01.02-.03.02-.05,0,0,0-.02,0-.03,0-.01-.01-.03-.02-.04,0-.02-.02-.04-.03-.06,0-.01-.02-.02-.03-.02-.01,0-.03,0-.04,0-.01,0-.02.02-.02.03,0,.01,0,.03,0,.04h0Z"/>
      <path class="cls-1" d="m4.12,23.21c.04.09.08.19.11.29.02.05.03.1.05.14.02.05.04.1.06.14.01.03.07.02.06-.02,0-.05-.01-.11-.03-.16-.01-.05-.03-.1-.05-.15-.04-.1-.08-.19-.13-.29-.02-.04-.08,0-.06.04h0Z"/>
      <path class="cls-1" d="m4.34,24.5c.16.59.32,1.18.49,1.77.17.59.32,1.18.5,1.77.03.08.15.05.13-.04-.14-.59-.32-1.18-.49-1.77-.17-.59-.35-1.17-.55-1.75-.02-.05-.1-.03-.09.02h0Z"/>
      <path class="cls-1" d="m3.73,24.98c.1.19.2.39.3.58.05.09.1.19.15.28.05.1.1.2.16.29.03.04.1.02.08-.03-.04-.1-.1-.2-.15-.3-.05-.09-.1-.19-.16-.28-.11-.19-.22-.39-.32-.58-.02-.04-.08,0-.06.04h0Z"/>
      <path class="cls-1" d="m3.45,24.92c.06.17.14.35.23.51.04.08.09.16.14.24.02.04.05.08.08.12.02.04.05.08.1.08.01,0,.03,0,.03-.02.02-.04,0-.07-.02-.1-.03-.04-.05-.08-.08-.12-.05-.08-.1-.15-.14-.23-.09-.16-.17-.33-.23-.5-.02-.05-.11-.03-.09.02h0Z"/>
      <path class="cls-1" d="m3.18,25c.04.13.1.25.16.37.03.06.07.12.1.17.04.06.07.11.13.15.02.02.05-.01.04-.03-.02-.06-.06-.11-.1-.16-.04-.05-.07-.11-.1-.17-.06-.11-.12-.23-.16-.36-.02-.04-.09-.03-.07.02h0Z"/>
      <path class="cls-1" d="m4.33,26.99c.14.25.29.49.44.73.08.12.15.23.24.35.08.11.16.24.27.32.03.02.09,0,.07-.04-.05-.13-.14-.23-.21-.34-.08-.12-.16-.24-.24-.36-.16-.24-.31-.48-.46-.72-.04-.07-.14,0-.1.06h0Z"/>
      <path class="cls-1" d="m3.28,27.56c.29.25.6.48.92.69.16.1.32.2.49.29.09.05.18.09.27.14.08.04.16.09.25.09.04,0,.06-.05.03-.08-.06-.07-.15-.09-.23-.13-.08-.04-.16-.08-.24-.12-.17-.09-.33-.18-.49-.28-.32-.2-.63-.42-.92-.67-.06-.05-.14.03-.08.08h0Z"/>
      <path class="cls-1" d="m1.55,25.08c.07.21.16.42.28.61.06.09.12.18.18.27.06.08.14.19.23.24.03.01.05-.01.04-.04-.02-.05-.06-.08-.09-.12-.04-.04-.07-.08-.1-.13-.07-.09-.13-.17-.19-.27-.11-.18-.2-.38-.27-.59-.02-.05-.09-.03-.08.02h0Z"/>
      <path class="cls-1" d="m1.88,25.08c.09.23.19.47.31.69.06.11.12.22.18.33.06.1.11.23.21.3.03.03.07-.02.07-.05-.01-.06-.05-.11-.09-.16-.03-.05-.07-.11-.1-.16-.06-.1-.13-.21-.18-.32-.12-.22-.23-.44-.33-.66-.01-.03-.07,0-.06.02h0Z"/>
      <path class="cls-1" d="m6.78,25.14c-.11.48-.27.95-.39,1.42-.06.23-.11.45-.14.69-.02.11-.03.23-.03.34,0,.13.03.25.05.38,0,.01.02.01.02,0,0-.13.04-.26.06-.39.02-.12.03-.24.05-.35.04-.23.08-.45.14-.68.11-.46.24-.92.33-1.39,0-.05-.07-.08-.08-.02h0Z"/>
      <path class="cls-1" d="m6.99,25.74c-.14.4-.29.8-.43,1.21-.07.2-.14.4-.21.6-.05.16-.12.37-.07.53.01.03.05.03.06,0,.04-.09.05-.19.07-.29.03-.1.06-.19.09-.29.06-.19.13-.37.19-.56.13-.39.26-.78.39-1.17.02-.07-.08-.09-.1-.03h0Z"/>
      <path class="cls-1" d="m7.24,25.88c-.06.18-.12.35-.18.53-.03.09-.05.17-.08.26-.03.09-.06.18-.06.28,0,.04.05.05.07.02.05-.08.07-.17.09-.27.02-.09.05-.17.07-.26.05-.18.1-.36.15-.54.01-.05-.06-.07-.08-.02h0Z"/>
      <path class="cls-1" d="m7.5,26.05c-.03.12-.07.24-.1.36-.02.06-.03.12-.05.18,0,.03-.02.06-.02.09,0,.03-.02.06-.01.09,0,.02.04.03.05.01.02-.02.02-.05.03-.08,0-.03.02-.06.02-.09.01-.06.03-.12.04-.18.03-.12.05-.25.08-.37,0-.03-.04-.04-.05-.01h0Z"/>
      <path class="cls-1" d="m7.08,27.52c-.19.22-.38.45-.57.69-.09.11-.17.22-.26.34-.04.06-.09.12-.13.18-.04.06-.1.12-.12.19,0,.05.04.09.08.06.06-.03.09-.1.13-.15.04-.06.08-.11.12-.17.09-.12.17-.24.26-.36.18-.24.36-.47.55-.7.04-.05-.03-.12-.07-.07h0Z"/>
      <path class="cls-1" d="m8.72,27.91c-.32.25-.66.48-1.01.68-.17.1-.35.19-.53.28-.09.04-.18.09-.27.13-.09.04-.18.08-.26.14-.04.03-.02.08.03.07.19-.03.38-.14.55-.22.19-.1.37-.2.56-.31.35-.21.68-.45,1-.71.05-.04-.02-.11-.07-.07h0Z"/>
      <path class="cls-1" d="m9.8,24.99c-.23.21-.47.42-.71.62-.12.1-.24.19-.36.29-.06.05-.13.1-.19.15-.05.04-.14.08-.15.15,0,.03.01.06.05.06.07,0,.13-.05.18-.09.06-.05.12-.1.18-.15.13-.1.25-.2.37-.31.24-.21.47-.43.7-.65.05-.05-.02-.11-.07-.07h0Z"/>
      <path class="cls-1" d="m10.09,25.24c-.28.21-.55.43-.82.65-.13.11-.27.22-.4.33-.07.06-.14.12-.21.18-.06.05-.15.1-.18.18-.02.04.01.09.06.08.07-.02.12-.09.18-.14.07-.06.13-.12.2-.18.13-.12.26-.24.4-.35.27-.23.54-.46.81-.69.02-.02,0-.06-.03-.04h0Z"/>
      <path class="cls-1" d="m9.86,25.61c-.3.28-.62.55-.95.8-.16.12-.32.23-.48.35-.09.06-.17.12-.26.18-.08.05-.17.1-.24.17-.03.03,0,.1.05.08.19-.06.36-.21.52-.32.17-.12.33-.24.49-.36.33-.26.65-.53.95-.83.05-.05-.02-.12-.07-.07h0Z"/>
      <path class="cls-1" d="m10.36,21.35c-.16.15-.32.31-.47.47-.07.08-.15.16-.22.25-.05.06-.15.17-.07.25.02.02.07.01.07-.02,0-.04.02-.08.04-.12.03-.04.06-.08.09-.12.06-.08.13-.16.19-.23.13-.15.26-.3.4-.44.03-.03-.02-.07-.04-.04h0Z"/>
      <path class="cls-1" d="m10.58,21.61c-.18.13-.34.27-.5.42-.08.07-.15.15-.22.23-.07.08-.15.17-.21.26-.04.06.05.12.09.07.07-.08.13-.17.2-.25.07-.08.14-.16.21-.24.15-.15.31-.3.47-.43.03-.03-.01-.09-.05-.06h0Z"/>
      <path class="cls-1" d="m10.41,22.08c-.15.15-.3.29-.45.45-.07.08-.14.15-.21.23-.03.04-.07.08-.1.11-.03.04-.08.08-.08.13,0,.02.02.05.04.04.05,0,.08-.05.11-.09.03-.04.06-.08.1-.12.07-.08.14-.16.21-.24.14-.16.28-.31.43-.46.04-.04-.02-.09-.06-.06h0Z"/>
      <path class="cls-1" d="m10.55,22.33c-.19.19-.38.37-.57.56-.09.09-.18.19-.27.28-.05.05-.09.1-.14.14-.05.05-.1.09-.13.15-.02.04.02.08.06.06.05-.04.09-.09.13-.13.04-.05.09-.1.13-.15.09-.1.18-.2.27-.3.18-.2.37-.39.55-.58.03-.03-.01-.07-.04-.04h0Z"/>
      <path class="cls-1" d="m10.71,22.57c-.22.24-.44.47-.66.71l-.32.34c-.11.12-.23.23-.32.36-.03.04.03.08.07.05.12-.1.22-.22.33-.34.11-.12.22-.24.33-.36.21-.24.43-.47.64-.71.04-.04-.03-.11-.07-.07h0Z"/>
      <path class="cls-1" d="m8.04,23.72c-.07.06-.13.14-.18.22-.02.04-.04.08-.06.12-.02.05-.04.09-.04.14,0,.04.05.05.07.02.02-.04.03-.08.05-.12.02-.04.03-.08.05-.12.04-.08.09-.15.16-.21.03-.03-.02-.08-.05-.05h0Z"/>
      <path class="cls-1" d="m8.41,23.77c-.05.07-.1.15-.14.22-.02.04-.05.07-.07.11-.01.02-.02.04-.03.06,0,.02-.02.04-.02.06-.02.04.04.07.07.04.03-.03.06-.07.08-.11.02-.04.05-.07.07-.11.04-.08.09-.15.13-.23.03-.05-.05-.1-.08-.05h0Z"/>
      <path class="cls-1" d="m6.62,32.64c0,.22,0,.43.03.65,0,.1.02.21.03.31,0,.09,0,.22.06.29.02.02.06.01.07,0,.04-.08,0-.2,0-.28-.01-.11-.02-.22-.03-.32-.02-.21-.03-.43-.03-.64,0-.07-.11-.07-.11,0h0Z"/>
      <path class="cls-1" d="m7.03,32.48c-.02.31-.05.61-.07.92-.01.15-.03.3-.04.44,0,.09-.02.25.09.29.01,0,.04,0,.04-.02.02-.05,0-.09,0-.15,0-.07,0-.13,0-.2,0-.14.01-.28.02-.42.01-.29.03-.58.04-.87,0-.06-.09-.06-.09,0h0Z"/>
      <path class="cls-1" d="m7.37,33.01c-.04.21-.07.41-.09.62-.01.1-.02.2-.02.31,0,.06,0,.11,0,.17,0,.05-.01.1.02.14.02.02.05.04.08,0,.03-.04.03-.08.03-.13,0-.05,0-.09,0-.14,0-.11,0-.21.01-.32.01-.21.03-.42.07-.63,0-.06-.08-.09-.09-.03h0Z"/>
      <path class="cls-1" d="m7.56,33.8c-.02.15-.04.29-.04.44,0,.07,0,.15,0,.22,0,.07,0,.15.03.22,0,.02.02.04.04.04.09.02.07-.1.07-.15,0-.08-.02-.17-.02-.25,0-.17,0-.34.02-.5,0-.05-.09-.07-.09-.01h0Z"/>
      <path class="cls-1" d="m9.17,33.03c-.1.18-.2.36-.3.54-.05.09-.1.18-.15.27l-.07.13s-.05.09-.04.14c0,.03.03.04.05.03.05-.02.07-.07.09-.11.02-.04.05-.09.07-.13.05-.09.09-.18.14-.27l.29-.55c.03-.06-.06-.11-.09-.05h0Z"/>
      <path class="cls-1" d="m9.66,33.18c-.13.16-.27.32-.4.48-.07.08-.13.16-.2.24-.07.08-.15.16-.2.25-.04.06.05.13.1.08.07-.07.13-.16.2-.24.06-.08.13-.16.19-.24.13-.16.26-.32.39-.49.04-.05-.03-.13-.07-.07h0Z"/>
      <path class="cls-1" d="m9.75,33.67c-.16.18-.32.35-.48.51-.08.08-.16.16-.25.24-.08.08-.17.16-.24.25-.03.04.02.08.06.06.1-.06.18-.14.26-.22.08-.08.17-.17.25-.25.16-.17.32-.34.48-.52.05-.05-.03-.13-.08-.08h0Z"/>
      <path class="cls-1" d="m10.23,33.55c-.12.17-.26.33-.4.47-.15.15-.31.27-.46.42-.04.04.01.11.06.08.18-.11.34-.27.48-.42.15-.16.28-.32.4-.5.03-.05-.05-.1-.08-.05h0Z"/>
      <path class="cls-1" d="m8.77,29.62c-.09.09-.18.2-.24.31-.03.06-.06.11-.09.17-.02.05-.07.13-.05.19,0,.02.03.03.04.02.05-.04.06-.11.08-.16.02-.06.05-.12.08-.17.06-.11.14-.22.23-.31.03-.04-.02-.09-.05-.05h0Z"/>
      <path class="cls-1" d="m9.13,29.64c-.07.04-.11.12-.16.19-.05.07-.1.14-.14.22-.04.07-.09.15-.12.22-.04.07-.09.16-.09.24,0,.03.04.05.06.03.05-.06.08-.15.11-.22.04-.08.07-.15.12-.23.04-.07.08-.14.13-.21.04-.07.11-.13.14-.21,0-.02-.02-.04-.03-.03h0Z"/>
      <path class="cls-1" d="m9.19,30.02c-.11.22-.22.45-.33.67-.05.11-.11.22-.16.33-.02.05-.03.16.06.15.04,0,.05-.05.02-.07-.02-.02.07-.19.08-.22.04-.09.08-.19.12-.28.08-.19.16-.37.25-.56.01-.03-.03-.06-.05-.03h0Z"/>
      <path class="cls-1" d="m9.3,30.43c-.13.25-.26.5-.38.76-.06.12-.12.25-.18.37-.03.06-.06.12-.09.19-.03.06-.07.13-.08.2,0,.03.04.07.07.04.08-.11.12-.26.17-.38.05-.13.11-.25.16-.38.11-.26.23-.52.36-.77.01-.03-.02-.05-.04-.02h0Z"/>
      <path class="cls-1" d="m5.12,32.36c.11.34.24.68.39,1.01.08.17.17.33.26.49.09.15.17.31.3.44.04.04.09,0,.07-.05-.07-.16-.17-.3-.26-.45-.09-.15-.18-.31-.26-.47-.16-.32-.31-.65-.43-.99-.02-.04-.08-.03-.07.02h0Z"/>
      <path class="cls-1" d="m5.7,32.95c.04.2.1.4.18.59.04.09.08.18.13.27.05.09.09.18.16.25.02.02.08,0,.06-.04-.04-.09-.1-.17-.15-.26-.05-.08-.09-.17-.13-.26-.08-.19-.14-.38-.18-.58,0-.04-.07-.02-.06.02h0Z"/>
      <path class="cls-1" d="m4.41,33.61c.14.24.3.46.5.66.1.1.2.19.3.28.05.04.11.08.16.12.06.04.11.08.18.1.04,0,.06-.04.04-.07-.04-.05-.1-.09-.16-.12-.05-.04-.1-.08-.15-.12-.11-.08-.21-.17-.3-.27-.19-.19-.36-.4-.51-.62-.03-.04-.09,0-.06.04h0Z"/>
      <path class="cls-1" d="m3.42,34.18c.23.26.47.53.75.74.13.1.27.19.42.27.13.06.31.16.46.12.02,0,.03-.03.01-.04-.06-.05-.13-.07-.19-.09-.08-.03-.16-.06-.24-.09-.15-.07-.28-.16-.41-.26-.27-.2-.5-.45-.74-.69-.03-.03-.08.02-.05.05h0Z"/>
      <path class="cls-1" d="m3.1,34.31c.13.2.28.38.45.54.08.08.17.16.27.23.05.03.09.07.14.1.05.03.1.07.15.07.02,0,.03-.02.02-.04-.03-.05-.07-.07-.12-.1-.05-.03-.09-.06-.14-.1-.09-.07-.18-.14-.27-.22-.17-.15-.32-.33-.45-.52-.02-.03-.08,0-.05.03h0Z"/>
      <path class="cls-1" d="m1.23,31.8c.11.23.22.45.33.68.05.11.11.22.16.33.04.07.13.17.2.08.01-.02.02-.05,0-.06-.08-.03-.11-.14-.14-.2-.05-.1-.1-.2-.15-.3-.1-.19-.21-.39-.31-.58-.03-.06-.12,0-.09.05h0Z"/>
      <path class="cls-1" d="m1.77,31.86c.03.12.08.24.14.36.03.06.07.11.1.16.02.02.04.05.06.07.02.02.04.05.07.06.02,0,.03-.01.03-.03,0-.03-.03-.05-.05-.07-.02-.02-.04-.04-.06-.07-.04-.05-.07-.1-.11-.15-.06-.11-.11-.22-.14-.34,0-.04-.06-.02-.06.02h0Z"/>
      <path class="cls-1" d="m2.06,31.83c.03.12.07.24.12.35.02.06.05.11.08.16.03.05.06.12.11.15.02,0,.05,0,.05-.03,0-.06-.05-.1-.08-.15-.03-.05-.06-.1-.09-.16-.06-.11-.1-.22-.14-.34,0-.03-.05-.02-.05.01h0Z"/>
      <path class="cls-1" d="m2.33,32c.03.14.09.27.16.39.04.06.08.12.13.17.05.05.1.11.17.13.04.01.07-.04.05-.07-.03-.06-.09-.1-.13-.15-.04-.05-.08-.1-.12-.15-.07-.11-.13-.23-.17-.35-.02-.06-.11-.04-.09.03h0Z"/>
      <path class="cls-1" d="m3.32,31.42c.06.31.17.6.34.86.03.05.08.16.15.16.03,0,.05-.02.06-.04,0-.04-.02-.07-.04-.1-.09-.13-.18-.25-.25-.39-.08-.16-.15-.32-.2-.5-.01-.04-.07-.02-.07.02h0Z"/>
      <path class="cls-1" d="m3.69,31.75c.05.13.11.26.18.38.03.06.07.12.11.18.02.03.04.06.06.09.02.03.05.05.08.07.03.02.06-.02.05-.05-.01-.03-.03-.06-.05-.09-.02-.03-.04-.06-.06-.08-.04-.05-.08-.11-.11-.17-.07-.11-.13-.23-.19-.36-.01-.03-.07,0-.06.02h0Z"/>
      <path class="cls-1" d="m4.29,30.97c.03.09.07.18.1.27.02.05.03.09.05.14.02.05.04.09.08.13.02.02.06.02.07-.02,0-.03,0-.05,0-.07,0-.02-.01-.05-.02-.07-.02-.05-.04-.09-.06-.13l-.11-.27s-.04-.05-.07-.04c-.03,0-.05.04-.04.07h0Z"/>
      <path class="cls-1" d="m4.76,31.17s.02.01.03.02c0,0,0,0,.01.01,0,0,.01,0,.02,0,0,0,0,0,.01,0,0,0,.01,0,.02,0,0,0,0,0,.01,0,0,0,.01,0,.01,0,0,0,0-.01.01-.02,0,0,0-.01,0-.02,0,0,0-.01,0-.02,0,0,0-.01,0-.02,0,0,0-.01-.01-.02,0-.01-.01-.02-.02-.03,0,0-.01-.02-.02-.02,0,0-.02,0-.03,0,0,0-.01,0-.02,0,0,0-.02,0-.03.01,0,0,0,.01-.01.02,0,0,0,.01,0,.02,0,.01,0,.02,0,.03,0,0,.01.02.02.02h0Z"/>
      <path class="cls-1" d="m4.91,36.12c.2.22.4.44.63.62.21.17.47.35.75.37.04,0,.06-.07.02-.09-.12-.06-.25-.1-.37-.17-.12-.06-.24-.14-.35-.23-.22-.17-.42-.37-.62-.57-.04-.04-.1.02-.06.06h0Z"/>
      <path class="cls-1" d="m5.79,36.28c.17.19.39.34.63.43.24.09.52.13.77.05.06-.02.06-.12-.02-.12-.24.01-.47.02-.71-.05-.24-.07-.45-.18-.63-.35-.03-.03-.07.01-.04.04h0Z"/>
      <path class="cls-1" d="m6.66,36.33c.05.06.12.11.2.14.04.01.08.02.12.02.02,0,.05,0,.07,0,.02,0,.04-.02.06-.03.05-.03.03-.1-.03-.1-.02,0-.03,0-.05,0-.02,0-.03,0-.05,0-.02,0-.03,0-.05,0,.01,0,0,0,0,0,0,0,0,0-.01,0,0,0-.02,0-.02,0s-.02,0-.02,0c0,0,0,0-.01,0,0,0-.02,0,0,0,0,0,0,0,0,0,0,0,0,0-.01,0,0,0-.01,0-.02-.01,0,0-.01,0-.02-.01,0,0,0,0,0,0,0,0,0,0,0,0-.01-.01-.03-.02-.04-.04-.02-.02-.06-.02-.08,0-.02.02-.02.06,0,.08h0Z"/>
      <path class="cls-1" d="m7.02,35.98s.06,0,.09,0c.03,0,.06-.02.08-.04.01-.01.01-.03,0-.05-.01-.01-.03-.02-.05,0,0,0,0,0,0,0,0,0,0,0,0,0,0,0,0,0,0,0,0,0-.01,0-.02,0-.01,0-.02,0-.04,0,0,0,0,0,.01,0-.01,0-.03,0-.04,0,0,0,0,0,.01,0,0,0-.02,0-.03,0-.02,0-.05,0-.05.03,0,.02,0,.05.03.05h0Z"/>
      <path class="cls-1" d="m6.24,34.58c.03-.09.05-.19.1-.28.04-.08.09-.17.16-.21.02-.01.03-.02.05-.03,0,0,.02,0,.03-.01.02,0,0,0,.01,0,.02,0,.04-.01.06-.02,0,0,.03,0,.02,0,0,0,.02,0,.03,0,0,0,.02,0,.03,0,0,0,.03,0,.01,0,.02,0,.04,0,.05.01-.02,0,0,0,.01,0,0,0,.02,0,.03.01.03.02.05.03.09.03.06,0,.09-.06.08-.11,0-.06-.09-.11-.15-.13-.05-.02-.1-.02-.15-.02-.11,0-.21.04-.3.11-.19.15-.24.4-.29.62-.02.08.1.11.12.03h0Z"/>
      <path class="cls-1" d="m8.07,30.52c0,.35,0,.71,0,1.06,0,.35-.02.71.01,1.06,0,.07.1.07.11,0,.04-.35.01-.71,0-1.06,0-.35-.02-.71-.03-1.06,0-.05-.09-.06-.09,0h0Z"/>
      <path class="cls-1" d="m7.86,31.04c-.01.11-.02.22-.02.33,0,.11,0,.22.02.33.01.06.12.05.11-.02,0-.05-.01-.11-.02-.16,0-.05-.01-.11-.01-.16,0-.11,0-.21,0-.32,0-.05-.08-.05-.08,0h0Z"/>
      <path class="cls-1" d="m7.7,31.17s0,.07,0,.11c0,.02.02.04.04.04.02,0,.04-.02.04-.04,0-.04,0-.07,0-.11,0-.02-.02-.04-.04-.04-.02,0-.04.02-.04.04h0Z"/>
      <path class="cls-1" d="m5,58.5c-.09,1.01-.18,2.03-.26,3.04-.04.5-.08,1-.12,1.49-.04.51-.1,1.03-.1,1.55,0,.06.1.08.11.02.08-.5.1-1.01.14-1.51.04-.51.08-1.01.12-1.52.08-1.02.15-2.05.21-3.07,0-.07-.1-.07-.1,0h0Z"/>
      <path class="cls-1" d="m5.07,62.39c-.1.86-.22,1.72-.27,2.59,0,.06.09.07.1.01.14-.86.21-1.74.29-2.61,0-.08-.11-.08-.12,0h0Z"/>
      <path class="cls-1" d="m4.94,65.76c-.05.34-.09.69-.04,1.03.01.07.1.04.11-.02.02-.16.02-.33.03-.49,0-.16.03-.32.05-.49,0-.04-.01-.08-.05-.1-.04-.01-.09.01-.1.05h0Z"/>
      <path class="cls-1" d="m4.63,67.33c0,.07,0,.14,0,.2,0,.03,0,.07,0,.1,0,.04.01.07.03.11.02.04.07.04.09,0,.01-.03.02-.07.03-.11,0-.03,0-.07,0-.1,0-.07,0-.14,0-.2,0-.04-.04-.08-.08-.08-.04,0-.08.03-.08.08h0Z"/>
    </g>
  </g>
</svg>