<?xml version="1.0" encoding="UTF-8"?>
<svg id="Calque_2" data-name="Calque 2" xmlns="http://www.w3.org/2000/svg" viewBox="0 0 16.1 75.79">
  <defs>
    <style>
      .cls-1 {
        fill: #8a7895;
      }
    </style>
  </defs>
  <g id="Calque_1-2" data-name="Calque 1">
    <g>
      <g>
        <path class="cls-1" d="m4.63,22.71c-.11-.53-.21-1.1-.07-1.64.14-.54.55-.91.97-1.25.98-.79,1.96-1.58,2.94-2.38.56-.46,1.13-.91,1.69-1.37-.08-.05-.16-.09-.24-.14-.8,2.11-2.09,4.02-3.73,5.57-.22.21-.45.42-.69.61-.25.21-.5.43-.76.62h.12c-1.33-.81-2.18-2.16-2.95-3.47-.23-.4-.52-.81-.57-1.28-.04.04-.07.07-.11.11.35-.04.65.11.93.31.28.21.54.46.79.71.49.5.93,1.05,1.3,1.64.06.1.25.04.2-.08-.26-.66-.6-1.58.04-2.15-.04-.02-.08-.03-.13-.05.03.66.04,1.31.01,1.97,0,.11.17.11.17,0,.01-.66,0-1.31-.04-1.97,0-.07-.08-.09-.13-.05-.72.58-.43,1.58-.14,2.31.07-.03.13-.06.2-.08-.4-.64-.87-1.23-1.41-1.75-.47-.46-1.08-1.09-1.8-1.01-.05,0-.12.05-.11.11.05.43.25.79.46,1.16.21.35.41.7.63,1.05.43.68.9,1.34,1.46,1.91.32.32.68.61,1.06.85.03.02.09.02.12,0,.47-.34.93-.69,1.36-1.08.42-.38.82-.79,1.19-1.22.76-.87,1.42-1.82,1.96-2.83.31-.58.58-1.18.82-1.79.06-.15-.14-.22-.24-.14-1.04.84-2.08,1.69-3.12,2.53-.51.41-1.02.83-1.52,1.24-.42.35-.82.73-.98,1.27-.17.61-.03,1.25.12,1.84.03.11.2.07.18-.05h0Z"/>
        <path class="cls-1" d="m4.59,20.37c.02-.92.49-1.81,1.23-2.35-.04,0-.07-.02-.11-.03.2.37-.16.82-.34,1.13-.24.39-.48.79-.72,1.18-.06.1.1.19.16.09.27-.45.54-.9.81-1.35.2-.33.45-.75.24-1.13-.02-.04-.08-.06-.11-.03-.78.59-1.26,1.52-1.27,2.5,0,.08.11.08.12,0h0Z"/>
        <path class="cls-1" d="m4.96,20.09c1.14-1.4,1.72-3.42,3.45-4.25-.05-.02-.09-.04-.14-.06.06.2-.05.39-.15.56-.1.16-.21.32-.31.48-.21.33-.43.66-.64.99-.35.54-.68,1.21-1.28,1.5-.12.06-.02.23.1.17.65-.31,1.01-1.03,1.38-1.62.24-.37.47-.74.71-1.11.19-.3.48-.65.37-1.02-.02-.06-.08-.08-.14-.06-1.75.86-2.32,2.88-3.44,4.32-.05.07.04.16.09.09h0Z"/>
        <path class="cls-1" d="m7.2,18.39c.53-1.4,1.42-2.66,2.56-3.64-.05-.01-.09-.03-.14-.04.08.23-.12.45-.24.63-.13.2-.27.4-.4.6-.27.4-.55.79-.79,1.21-.05.09.07.15.13.08.33-.42.61-.89.9-1.34.14-.21.29-.42.43-.64.11-.18.2-.38.13-.59-.02-.06-.09-.08-.14-.04-1.16,1-2.03,2.29-2.53,3.73-.02.06.07.08.09.02h0Z"/>
        <path class="cls-1" d="m8.42,17.09c.26-.69.8-1.25,1.47-1.55-.03-.03-.07-.07-.1-.1-.25.34-.51.66-.79.98-.14.15-.28.3-.42.44-.07.07-.14.14-.21.21-.07.07-.16.13-.19.22-.02.04.03.08.07.07.09-.03.16-.1.23-.17.08-.07.15-.15.23-.22.15-.15.3-.31.45-.47.28-.31.54-.65.79-.99.05-.07-.04-.13-.1-.1-.69.33-1.24.93-1.49,1.65-.02.07.08.09.1.03h0Z"/>
        <path class="cls-1" d="m3.84,19.8c-.34-.54-.59-1.13-.78-1.73-.19-.58-.39-1.26-.12-1.86.1-.23.27-.43.5-.54.14-.07.32-.11.47-.03.12.07.2.2.26.32.27.53.43,1.13.5,1.72.08.68.03,1.37-.15,2.04l.18.05c.12-.86.23-1.73.37-2.59.09-.6.25-1.31.84-1.6h-.09c.39.23.28.87.25,1.24-.05.55-.16,1.09-.3,1.62-.03.12.15.17.19.05.18-.58.27-1.18.31-1.78.02-.4.08-.98-.29-1.25-.08-.06-.13-.05-.22,0-.09.05-.18.12-.25.19-.16.15-.27.34-.36.54-.19.44-.24.91-.31,1.38-.1.72-.21,1.44-.31,2.16-.02.12.15.17.18.05.36-1.28.27-2.76-.36-3.95-.14-.27-.37-.46-.69-.42-.28.03-.52.2-.7.42-.43.53-.39,1.24-.22,1.86.21.78.52,1.54.97,2.21.06.09.2,0,.15-.09h0Z"/>
        <path class="cls-1" d="m3.27,17.27c.04.45.11.9.21,1.34.05.22.11.43.17.65.06.19.1.45.23.61.03.03.08,0,.08-.03,0-.1-.05-.19-.08-.29-.04-.11-.07-.21-.11-.32-.06-.21-.12-.41-.17-.62-.11-.44-.18-.88-.23-1.33,0-.06-.1-.06-.1,0h0Z"/>
        <path class="cls-1" d="m3.77,17.58c.03.23.06.47.11.7.02.12.05.24.08.35.02.1.04.24.11.31.02.02.06.01.06-.02.03-.1-.03-.22-.06-.32-.03-.11-.06-.22-.09-.34-.05-.23-.1-.46-.13-.7,0-.05-.09-.04-.09.01h0Z"/>
        <path class="cls-1" d="m4.19,17.78c-.01.08-.02.17-.01.26,0,.08.02.18.06.26.01.02.05.03.07.02.03-.01.04-.04.03-.07,0-.04-.02-.08-.03-.12,0-.03-.02-.07-.02-.1,0-.08,0-.16,0-.23,0-.05-.09-.07-.1-.01h0Z"/>
        <path class="cls-1" d="m5.42,16.98c-.05.12-.1.24-.14.37-.02.06-.04.12-.05.19-.02.06-.04.13-.04.2,0,.05.07.06.09.01.02-.06.03-.13.04-.19.01-.06.03-.12.04-.17.03-.12.08-.24.13-.35.02-.05-.05-.09-.07-.04h0Z"/>
        <path class="cls-1" d="m6.79,17.56c-.1.14-.2.28-.28.43-.04.07-.08.14-.12.22-.04.07-.09.15-.08.24,0,.02.04.03.06.02.07-.04.09-.13.12-.2.04-.08.08-.15.12-.23.08-.15.17-.29.27-.43.04-.05-.05-.1-.09-.05h0Z"/>
        <path class="cls-1" d="m5.89,20.09c-.13.14-.25.29-.38.43-.06.07-.12.14-.18.21-.06.07-.13.15-.18.23-.03.05.03.08.07.05.07-.06.13-.13.19-.2.06-.07.13-.14.19-.22.12-.14.25-.28.37-.43.05-.06-.04-.15-.09-.09h0Z"/>
        <path class="cls-1" d="m6.08,20.44c-.14.14-.28.28-.42.42-.07.07-.13.14-.2.2-.04.04-.07.07-.11.11-.03.04-.07.07-.09.11-.02.03.02.07.05.05.04-.02.07-.06.1-.09.03-.04.07-.07.1-.11.07-.07.13-.15.2-.22.13-.15.27-.29.4-.44.02-.02-.01-.05-.03-.03h0Z"/>
        <path class="cls-1" d="m6.1,20.84c-.11.13-.22.25-.34.36-.06.05-.12.11-.19.16-.03.03-.07.05-.1.07-.03.02-.07.05-.09.08-.02.04.01.07.05.07.04,0,.08-.04.11-.06.03-.03.07-.05.1-.08.07-.05.13-.11.19-.17.12-.12.24-.24.34-.37.04-.05-.03-.11-.07-.07h0Z"/>
        <path class="cls-1" d="m3.17,20.41c.08.19.17.36.28.53.05.08.11.16.17.24.06.08.12.17.21.21.03.01.07,0,.06-.04-.03-.09-.1-.15-.16-.22-.06-.08-.12-.16-.17-.24-.11-.16-.2-.33-.27-.51-.01-.03-.04-.05-.07-.04-.03,0-.05.04-.04.07h0Z"/>
        <path class="cls-1" d="m3.3,20.21c.07.13.14.26.22.39.04.06.08.12.12.18.02.03.05.06.07.09.03.03.05.07.09.07.03,0,.05-.02.05-.05,0-.04-.03-.07-.05-.09-.02-.03-.05-.06-.07-.08-.05-.05-.09-.11-.13-.17-.09-.12-.17-.24-.24-.36-.02-.04-.08,0-.06.04h0Z"/>
        <path class="cls-1" d="m5.17,22.49c0,1.76-.26,3.5-.52,5.24-.25,1.69-.46,3.38-.6,5.09-.28,3.51-.34,7.03-.45,10.54-.12,3.52-.24,7.04-.36,10.56-.12,3.54-.24,7.09-.37,10.63-.06,1.77-.12,3.54-.18,5.32l-.09,2.63c-.02.44-.03.88-.05,1.32-.01.38,0,.78-.12,1.14-.12.33-.4.6-.77.53-.43-.08-.31-.67-.3-.99.02-.88.07-1.76.13-2.64.11-1.78.22-3.56.32-5.33.2-3.54.39-7.08.58-10.62.19-3.56.38-7.11.57-10.67.09-1.74.17-3.49.34-5.23.17-1.74.45-3.46.61-5.2.3-3.29-.25-6.62.24-9.9.12-.77.3-1.53.56-2.27.07-.19-.23-.27-.29-.08-1.11,3.17-.69,6.56-.71,9.85,0,1.75-.22,3.49-.45,5.22-.23,1.78-.39,3.56-.49,5.34-.21,3.64-.39,7.28-.58,10.92-.19,3.63-.38,7.25-.56,10.88-.09,1.81-.2,3.63-.27,5.44-.04.92-.06,1.83-.12,2.75-.03.46-.05.92-.09,1.37-.03.34-.14.78.01,1.09.22.44.85.43,1.2.16.55-.42.49-1.28.51-1.89.06-1.81.12-3.61.19-5.42.12-3.63.25-7.26.37-10.89.12-3.61.25-7.22.37-10.83.12-3.61.21-7.23.38-10.84.09-1.78.21-3.57.41-5.35.2-1.76.5-3.51.68-5.27.09-.87.14-1.74.13-2.62,0-.14-.21-.14-.21,0h0Z"/>
        <path class="cls-1" d="m6.09,17.17c.12-.59.26-1.17.42-1.75.08-.28.16-.56.25-.84.07-.23.15-.46.29-.66.13-.18.36-.38.6-.32.26.07.19.4.13.59-.17.55-.4,1.1-.61,1.63-.26.64-.54,1.27-.82,1.9-.06.13.13.24.19.11.52-1.09,1.17-2.12,1.85-3.12.35-.51.7-1.02,1.09-1.49.04-.04.08-.1.13-.12.1-.05.14.01.14.11,0,.16-.04.32-.1.47-.12.27-.29.52-.45.77-.19.3-.39.59-.59.88-.1.14-.19.27-.29.41-.09.13-.19.29-.36.32-.12.02-.07.2.05.18.28-.05.45-.39.6-.6.2-.29.4-.58.59-.88.19-.3.4-.6.55-.92.11-.22.25-.58.13-.82-.12-.26-.43-.09-.56.07-.22.26-.42.54-.62.82-.42.57-.81,1.15-1.18,1.74-.42.68-.8,1.38-1.18,2.08.06.04.13.07.19.11.29-.62.55-1.25.81-1.88.13-.32.26-.65.38-.98.11-.29.24-.58.3-.89.04-.22.03-.47-.16-.62-.19-.15-.45-.11-.65,0-.48.27-.62.9-.75,1.39-.21.75-.37,1.52-.5,2.29-.01.08.11.12.13.03h0Z"/>
        <path class="cls-1" d="m3.79,15.57c-.24-.49-.45-1.01-.49-1.56-.02-.26,0-.52.06-.77.03-.12.07-.24.13-.35.05-.11.12-.26.24-.3.23-.08.48.24.59.4.13.19.21.41.28.63.16.51.28,1.03.36,1.56.09.63.1,1.27-.09,1.88.06.02.12.03.18.05.16-1.03.31-2.06.48-3.08.02-.1.02-.22.07-.31.07-.14.23-.11.31.02.12.19.13.51.15.73.03.25.04.5.05.74,0,.25-.02.5-.01.75,0,.07.11.09.13.02.1-.44.06-.93.02-1.37-.02-.22-.05-.44-.09-.65-.03-.16-.08-.33-.23-.42-.12-.08-.27-.09-.38,0-.13.11-.15.3-.17.46-.07.48-.15.95-.22,1.43-.09.55-.18,1.1-.27,1.65-.02.11.14.16.18.05.19-.61.2-1.25.12-1.88-.08-.61-.22-1.24-.42-1.82-.08-.23-.19-.46-.34-.65-.15-.18-.37-.39-.63-.37-.25.02-.39.27-.48.47-.12.26-.17.54-.19.82-.03.7.23,1.36.58,1.95.04.07.14,0,.1-.06h0Z"/>
        <path class="cls-1" d="m3.13,13.85c-.23-.71-.53-1.6-.19-2.32.09-.18.24-.33.45-.22.15.08.29.22.4.35.23.28.36.63.39.99h.17c-.03-.35-.06-.73.14-1.03.09-.13.23-.26.39-.26.2,0,.26.24.3.4.09.35.12.72.16,1.07.05.39.1.78.15,1.16.02.12.21.12.2,0-.06-.49-.13-.97-.19-1.46-.03-.22-.05-.44-.1-.66-.04-.18-.09-.4-.2-.55-.23-.29-.63-.09-.81.14-.26.34-.24.78-.21,1.19,0,.11.18.11.17,0-.03-.42-.19-.81-.46-1.13-.22-.26-.63-.62-.95-.29-.29.3-.32.83-.29,1.22.04.49.2.97.37,1.43.03.07.14.04.11-.03h0Z"/>
        <path class="cls-1" d="m3.29,14.32c-.07-.2-.16-.39-.28-.56-.11-.15-.24-.35-.42-.42-.38-.17-.44.36-.44.6,0,.45.05.91.16,1.35.05.22.12.45.21.66.08.22.17.46.3.65.05.06.17.03.14-.06-.06-.17-.16-.33-.23-.49-.07-.17-.13-.34-.18-.51-.11-.36-.18-.74-.21-1.12-.01-.16-.12-.97.17-.92.16.02.32.27.41.39.11.15.19.31.26.49.03.08.15.04.12-.03h0Z"/>
        <path class="cls-1" d="m5.59,12.14c-.06-.41.08-.83.35-1.14.13-.15.28-.27.46-.36.17-.09.53-.23.63.02.08.21.06.48.07.7,0,.24,0,.48-.02.73-.04.5-.14.99-.28,1.47-.08.27-.18.54-.29.79-.06.13-.12.25-.18.37-.06.12-.15.23-.17.37,0,.04.04.1.09.07.1-.08.16-.19.22-.3.07-.14.14-.27.2-.41.12-.26.22-.52.3-.79.17-.55.28-1.13.31-1.71.02-.29.01-.58,0-.87-.02-.21,0-.52-.2-.66-.18-.13-.45-.05-.63.02-.21.08-.39.21-.55.37-.35.36-.52.87-.42,1.36.02.08.14.05.13-.03h0Z"/>
        <path class="cls-1" d="m5.65,11.78c-.1.13-.19.26-.25.4-.03.07-.06.14-.09.22-.02.06-.07.17-.03.23.01.02.03.02.05.01.06-.03.07-.13.09-.19.02-.07.05-.14.08-.21.06-.14.14-.27.24-.39.04-.05-.05-.11-.08-.07h0Z"/>
        <path class="cls-1" d="m5.87,12.01c-.09.15-.19.3-.28.45-.05.07-.09.15-.14.22-.04.07-.11.15-.09.23,0,.02.03.03.05.03.08-.02.11-.12.15-.19.04-.08.09-.16.13-.24.08-.16.17-.31.25-.47.02-.04-.04-.07-.06-.04h0Z"/>
        <path class="cls-1" d="m5.89,12.54c-.06.15-.13.3-.19.45-.03.07-.06.15-.09.22-.02.04-.03.07-.05.11-.02.04-.03.07-.02.11.01.03.04.04.07.03.04-.02.05-.05.06-.09.01-.04.03-.07.04-.11.03-.08.06-.15.09-.23.06-.15.12-.3.17-.46.02-.05-.06-.08-.08-.03h0Z"/>
        <path class="cls-1" d="m6.06,12.95c-.04.13-.09.27-.13.4-.02.06-.04.13-.06.2-.02.07-.05.13-.06.2-.01.08.09.1.11.03.03-.06.04-.13.06-.2.02-.07.04-.14.06-.21.04-.13.07-.27.11-.4.01-.05-.06-.07-.08-.02h0Z"/>
        <path class="cls-1" d="m6.25,13.52c-.03.07-.06.15-.09.22-.01.04-.03.07-.04.11-.01.04-.03.08-.04.12,0,.03,0,.06.04.07.03.01.06,0,.08-.03.02-.04.03-.08.05-.13.01-.04.03-.07.04-.11.03-.08.05-.15.08-.23.01-.03-.01-.06-.04-.07-.03,0-.06.01-.07.04h0Z"/>
        <path class="cls-1" d="m5.83,13.84c-.13.16-.27.32-.4.48-.03.04-.08.08-.06.13,0,.02.03.03.06.03.03,0,.04-.03.06-.05.07-.08.13-.16.19-.24l.22-.28s.02-.05,0-.07c-.02-.02-.05-.02-.07,0h0Z"/>
        <path class="cls-1" d="m5.91,14.15c-.12.15-.24.3-.36.44-.06.07-.12.15-.18.22-.06.07-.13.15-.17.23-.03.06.04.11.09.07.07-.06.12-.15.17-.23.05-.08.11-.15.16-.23.11-.16.22-.31.33-.47.02-.03-.02-.06-.04-.03h0Z"/>
        <path class="cls-1" d="m5.75,14.76c-.1.15-.2.31-.3.46-.05.08-.1.15-.15.23-.05.08-.1.15-.13.24-.02.05.06.09.09.05.06-.07.11-.15.15-.22.05-.08.1-.16.14-.23.1-.16.19-.31.29-.47.04-.06-.06-.12-.1-.06h0Z"/>
        <path class="cls-1" d="m3.25,16.15c-.12.1-.21.21-.28.35-.07.13-.14.28-.12.43,0,.03.04.04.05,0,.02-.07.04-.13.06-.2.02-.07.05-.13.08-.2.07-.13.16-.24.26-.33.04-.03-.02-.09-.06-.06h0Z"/>
        <path class="cls-1" d="m3.47,16.37c-.14.13-.23.3-.25.49,0,.04-.01.1.01.14.01.02.03.03.05.02.03,0,.04-.04.04-.07,0-.04,0-.09.01-.13,0-.04.02-.09.04-.13.04-.09.09-.17.17-.24.05-.05-.03-.13-.08-.08h0Z"/>
        <path class="cls-1" d="m3.75,16.44s-.06.1-.09.15c-.01.02-.03.05-.04.07-.01.03-.02.05-.03.08,0,.03.03.05.05.03.02-.02.04-.04.06-.07.02-.02.03-.05.05-.07.03-.05.06-.1.09-.15.01-.02,0-.05-.02-.06-.02-.01-.05,0-.06.02h0Z"/>
        <path class="cls-1" d="m2.65,14.71c-.04.06-.07.12-.09.18-.01.03-.02.07-.02.1,0,.02,0,.03,0,.05,0,.02,0,.04.02.06.01.02.05.02.06,0,.03-.05.04-.12.06-.18.01-.03.02-.04.03-.08.01-.03.03-.05.05-.08.02-.02,0-.07-.02-.08-.03-.02-.06,0-.08.02h0Z"/>
        <path class="cls-1" d="m2.94,14.96c-.01.07-.02.14-.03.22,0,.04-.01.07-.02.11,0,.04-.02.09.01.12.01.01.03.01.04,0,.04-.02.04-.07.04-.1,0-.03,0-.07.01-.1,0-.07.02-.14.03-.21,0-.03,0-.05-.03-.06-.02,0-.05,0-.06.03h0Z"/>
        <path class="cls-1" d="m3.64,14.07c-.07.08-.12.17-.15.27-.02.05-.03.1-.03.15,0,.05,0,.1.01.15.01.05.09.04.09-.01,0-.04.01-.09.02-.13,0-.04.02-.08.03-.12.03-.08.07-.15.13-.22.02-.02.02-.06,0-.08-.02-.02-.06-.02-.08,0h0Z"/>
        <path class="cls-1" d="m3.98,14.27c-.04.11-.07.21-.11.32-.02.05-.04.11-.05.16-.02.05-.05.12-.03.17.01.03.04.05.07.03.05-.03.06-.1.08-.15.02-.06.03-.11.05-.17.03-.11.06-.22.09-.33.02-.06-.08-.09-.1-.03h0Z"/>
        <path class="cls-1" d="m4.26,14.82s-.05.1-.06.16c0,.03,0,.06,0,.09,0,.02,0,.03,0,.05,0,.02.01.03.02.05.02.04.09.02.09-.02,0-.01,0-.02,0-.04,0-.01,0-.02,0-.04,0-.01,0-.02,0-.03,0,0,0-.01,0-.02,0,.01,0,0,0,0,0-.02.01-.05.02-.07,0,.01,0,0,0,0,0,0,0-.01,0-.02,0-.01.01-.02.02-.03.02-.03,0-.07-.02-.08-.03-.02-.06,0-.08.02h0Z"/>
        <path class="cls-1" d="m3.67,13.21c-.05.08-.05.19,0,.28.04.09.13.15.23.16.11,0,.21-.06.27-.14.06-.09.06-.21,0-.3-.03-.05-.08-.09-.14-.12-.03-.01-.06-.02-.1-.02-.04,0-.07,0-.1.03-.02.02-.04.04-.03.07,0,.02.02.05.05.06.02,0,.04,0,.07.01.01,0,0,0,0,0,0,0,.01,0,.01,0,0,0,.02,0,.03,0,0,0,0,0,.01,0,.01,0-.02,0,0,0,0,0,.01,0,.02.01,0,0,.02,0,.02.01,0,0,0,0,0,0,0,0,0,0,0,0,0,0,0,0,.01.01,0,0,0,0,0,0,0,0,.01.02,0,0,0-.01,0,0,0,0,0,0,0,0,0,0,0,0,0,0,0,.01,0,0,0,0,0,0,0,0,0,.02,0,.03,0,0,0,.02,0,0,0,0,0,0,0,.01,0,0,0,.02,0,.03,0,.02,0,0,0,0,0,0,0,.01,0,.02,0,0,0,0,0,.01,0,0,0,0,0,.01,0,0,0,0,0,0,0,0,0,.02-.01.02,0,0,0,0,0,0,0,0,0,0,0,0,0,0,0,0,0,0,0,0-.01.01-.02.02,0,0,0,0,0,0,0,0-.02.01,0,0-.01,0-.03.02-.04.03,0,0,.02,0,0,0,0,0,0,0-.01,0,0,0-.02,0-.03,0,0,0,.02,0,0,0,0,0,0,0-.01,0,0,0-.03,0-.01,0,0,0-.02,0-.03,0,0,0,0,0,0,0,.02,0,0,0,0,0,0,0-.01,0-.02-.01-.01,0,.01,0,0,0,0,0,0,0,0,0,0,0-.01-.01-.02-.02,0,0,0-.01,0,0,0,0,0,0,0-.01,0,0-.01-.02-.01-.03,0,0,0-.01,0,0,0,0,0,0,0-.01,0,0,0-.02,0-.03,0,0,0,0,0,0,0,.02,0,0,0,0,0-.01,0-.02,0-.03,0,0,0,0,0,0,0,.02,0,0,0,0,0,0,0-.02,0-.03,0,.01,0,0,0,0,0,0,0-.01,0-.02.02-.03,0-.07-.02-.09-.03-.02-.07,0-.09.02h0Z"/>
        <path class="cls-1" d="m7.36,12.19c.22-.42.54-.79.94-1.05.21-.14,1.13-.67,1.24-.2.03.11,0,.24-.03.35-.03.14-.06.27-.1.4-.08.26-.19.52-.32.77-.25.47-.61.85-.89,1.29-.15.23-.26.48-.35.74-.09.29-.18.58-.32.84-.03.06.05.13.1.08.2-.21.28-.47.37-.74.09-.29.21-.56.38-.82.34-.51.74-.95,1-1.51.12-.27.22-.55.29-.83.05-.23.14-.52.02-.74-.25-.45-.96-.1-1.28.07-.51.29-.93.73-1.19,1.27-.04.08.08.15.12.07h0Z"/>
        <path class="cls-1" d="m8.68,11.21c-.2.12-.33.35-.32.58,0,.04.03.07.06.08.16.06.33,0,.46-.1.06-.05.11-.11.14-.18.04-.08.05-.17.04-.26,0-.03-.04-.06-.07-.07-.04-.01-.08-.02-.12-.03-.05-.01-.09-.01-.14-.02-.03,0-.07.03-.08.06,0,.03,0,.08.04.09.04.02.08.04.13.05.04.01.08.02.12.03-.02-.02-.04-.04-.07-.07,0-.03,0,0,0,0,0,0,0,.01,0,.02,0,0,0,.02,0,.03,0,.02,0-.02,0,0,0,.02,0,.03-.01.04,0,0,0,.01,0,.02,0,0,0,0,0,.01,0-.01,0-.01,0,0-.01.03-.03.05-.04.07.01-.02,0,0,0,0,0,0,0,.01-.01.01-.01.01-.02.02-.03.03,0,0-.01.01,0,0,0,0-.01.01-.02.02-.01,0-.02.02-.04.02,0,0-.01,0-.02.01-.02,0,.01,0,0,0-.01,0-.03.01-.04.01,0,0-.02,0-.03,0,0,0,0,0,0,0-.01,0,0,0,0,0-.01,0-.03,0-.05,0,0,0-.01,0-.02,0,0,0,0,0-.01,0,.01,0,.01,0,0,0-.02,0-.03,0-.05-.01.02.03.04.06.06.08,0-.02,0-.05,0-.07,0,0,0-.01,0-.02,0-.01,0,.02,0,0,0-.01,0-.02,0-.03,0-.02.01-.05.02-.07,0,0,0-.01,0-.02,0,0,0-.01,0,0,0-.01.01-.02.02-.04.01-.02.02-.04.04-.06.02-.02.02-.02.04-.05.02-.02.03-.04.05-.05,0,0,0,0,.01-.01,0,0,.01-.01,0,0,.01,0,.02-.02.03-.02.03-.02.05-.07.03-.1-.02-.03-.07-.05-.1-.03h0Z"/>
        <path class="cls-1" d="m4.17,11.79c-.28-.91-.34-1.89-.15-2.83.04-.2.07-.49.25-.62.22-.16.33.06.36.25.06.47.09.93.18,1.39.1.54.25,1.07.44,1.59.05.13.24.08.21-.06-.17-1.02-.31-2.12,0-3.12.08-.25.19-.49.33-.7.13-.2.36-.47.62-.49.24-.02.33.26.37.45.06.28.06.58.07.87,0,.66-.09,1.31-.27,1.95-.04.13.15.18.2.06.32-.8.81-1.57,1.43-2.18.09-.09.19-.12.28-.01.07.09.09.22.09.33,0,.23-.11.45-.18.65-.17.45-.35.89-.56,1.32-.23.49-.48.97-.75,1.43-.07.12.11.22.18.11.56-.97,1.05-1.99,1.41-3.05.07-.21.14-.45.09-.67-.04-.18-.17-.38-.37-.41-.23-.03-.39.19-.52.33-.17.19-.33.38-.48.59-.34.46-.61.96-.82,1.49.07.02.14.04.2.06.18-.64.25-1.31.25-1.98,0-.31-.02-.62-.07-.93-.04-.2-.12-.43-.3-.54-.22-.14-.49-.03-.68.12-.22.17-.38.41-.51.65-.26.51-.37,1.09-.4,1.66-.03.69.08,1.36.16,2.04.07,0,.14-.02.22-.03-.18-.54-.33-1.08-.44-1.64-.05-.29-.1-.58-.13-.87-.02-.22-.01-.46-.09-.66-.07-.18-.24-.3-.44-.28-.22.03-.37.2-.45.39-.1.24-.14.52-.18.78-.04.26-.06.53-.05.79,0,.62.11,1.24.32,1.82.04.1.2.06.17-.05h0Z"/>
        <path class="cls-1" d="m7.43,11.77c.31-.42.62-.83.94-1.24.27-.35.55-.7.88-1,.29-.27.7-.61,1.11-.62.56-.01.37.73.22,1.04-.11.23-.26.43-.42.62-.08.09-.16.18-.25.26-.09.08-.18.15-.24.26-.03.05.02.14.09.11.21-.09.39-.31.54-.48.16-.18.31-.38.43-.6.17-.34.38-.98.03-1.28-.34-.29-.85,0-1.15.2-.42.28-.77.66-1.07,1.06-.4.52-.76,1.07-1.12,1.63-.02.03.03.05.05.03h0Z"/>
        <path class="cls-1" d="m6.08,7.64c-.1.14-.17.29-.22.46-.03.09-.05.18,0,.26.06.08.15.11.24.09.09-.01.16-.07.22-.12.06-.05.11-.11.15-.17.08-.14.08-.32-.01-.45-.06-.08-.14-.13-.24-.13-.09,0-.19.04-.22.13-.02.05.03.09.08.08.01,0,.02,0,.03,0,0,0,.02,0,0,0,0,0,.01,0,.02,0,.02,0,.05,0,.07,0-.02,0,.01,0,.02,0,0,0,.04.01.02,0,.01,0,.02.01.03.02,0,0-.01-.01,0,0,0,0,.01.01.02.02.01.01,0-.01,0,0,0,0,0,0,0,.01,0,0,.02.04.01.02,0,.01,0,.02.01.04,0,0,0,.01,0,.02,0-.01,0,0,0,0,0,.01,0,.03,0,.04,0,0,0,.02,0,.01,0-.01,0,0,0,.01,0,.01,0,.02,0,.03,0,0,0,.01,0,.02,0-.02,0,.01,0,.01-.03.05-.05.08-.09.12-.02.02-.04.03-.05.04-.01,0-.02.02-.04.02,0,0-.01,0-.02.01,0,0-.02.01-.01,0,0,0-.01,0-.02,0,0,0-.02,0,0,0,0,0-.01,0-.02,0,0,0,.02,0,0,0,0,0-.01,0-.02,0,0,0,.01,0,0,0,0,0-.02-.01,0,0,0,0,0,0,0,0,0,0,0,0,0,0,0,0,0-.01,0,0,0-.04,0,0,0,0,0-.01,0-.02,0-.04,0-.03.02-.07.03-.1.04-.13.11-.26.19-.38.03-.04,0-.1-.03-.13-.05-.03-.1,0-.13.03h0Z"/>
        <path class="cls-1" d="m4.18,8.83s0,.02,0,.03c0,.02,0-.02,0,0,0,.02,0,.03,0,.05,0,.03-.01.06-.02.1,0,.03-.02.06-.03.09-.01.03-.02.07-.02.1,0,.03,0,.06.04.08.03.01.06,0,.08-.03.02-.03.04-.07.06-.11.01-.03.02-.07.03-.1.02-.07.03-.15.04-.22,0-.04-.04-.08-.08-.08-.04,0-.07.03-.08.08h0Z"/>
        <path class="cls-1" d="m4.36,9.07c-.04.06-.07.12-.11.18-.02.03-.04.07-.05.1-.01.03-.02.06-.03.09-.01.04.04.07.07.04.02-.02.05-.05.07-.07.03-.03.05-.06.07-.09.04-.06.07-.12.11-.18.02-.03,0-.08-.03-.1-.03-.02-.07,0-.1.03h0Z"/>
        <path class="cls-1" d="m4.46,10.02c-.03.07-.06.15-.09.22-.01.04-.03.07-.04.11-.01.04-.02.08-.03.12-.01.05.06.09.09.04.02-.04.04-.07.06-.11.02-.04.03-.08.05-.12.03-.08.06-.15.09-.23.01-.03-.01-.07-.05-.08-.04-.01-.07.01-.08.05h0Z"/>
        <path class="cls-1" d="m4.46,10.58s-.04.1-.04.15c0,.03,0,.05.01.08,0,.03.03.05.05.07.01.02.04.02.06.01.02,0,.04-.03.03-.05,0-.01,0-.02,0-.03,0-.01,0-.02,0-.03,0-.02,0-.05,0-.07,0,0,0,.01,0,.02,0-.02,0-.04.02-.06,0,0,0,.01,0,.02,0,0,0-.01,0-.02.02-.03.01-.08-.03-.1-.03-.02-.08-.01-.1.03h0Z"/>
        <path class="cls-1" d="m5.59,9.26c-.07.11-.14.22-.19.34-.03.06-.05.12-.07.19-.02.07-.04.14-.02.2.01.04.06.05.09.02.05-.05.07-.11.09-.18.02-.05.04-.11.06-.16.05-.11.11-.22.18-.33.03-.04,0-.09-.03-.12-.04-.02-.09,0-.12.03h0Z"/>
        <path class="cls-1" d="m5.85,9.48c-.09.12-.17.26-.22.4-.05.14-.1.3-.08.45,0,.05.08.04.09,0,.05-.13.06-.28.11-.41.05-.13.11-.27.18-.39.03-.05-.05-.1-.08-.05h0Z"/>
        <path class="cls-1" d="m6,9.88c-.05.11-.1.23-.14.35-.02.06-.04.12-.05.18,0,.03-.01.06-.02.09,0,.02,0,.04,0,.05,0,.02,0,.03,0,.05.01.05.07.05.1.01.03-.05.04-.11.06-.16.01-.06.03-.12.05-.17.04-.11.08-.22.13-.32.02-.03,0-.08-.03-.1-.03-.02-.08,0-.1.03h0Z"/>
        <path class="cls-1" d="m6.17,10.17s-.02.08-.03.12c0,.02-.01.04-.02.06,0,.02,0,.05,0,.07,0,.02.01.04.03.04.02,0,.04,0,.05-.02.01-.02.03-.04.03-.06,0-.02.01-.04.02-.05.01-.04.03-.07.04-.11,0-.01,0-.04,0-.05,0-.01-.02-.03-.04-.03-.03,0-.07.01-.08.05h0Z"/>
        <path class="cls-1" d="m7.46,9.81s-.02.01-.03.02c0,0,0,0-.01.01-.01.01-.02.02-.03.04,0,0,0,.01,0,.02,0,0,0,0,0,0,0,.01,0,.02,0,.03,0,.01,0,.03,0,.04,0,.01.01.03.03.03,0,0,0,0,.01,0,0,0,.02,0,.02,0,.01,0,.02,0,.03-.02,0,0,0,0,0-.01,0,0,0-.02,0-.03,0,0,0,0,0,0,0,0,0,.01,0,.02,0,0,0-.02,0-.02,0,0,0,0,0,.01,0,0,0,0,0,0,0,0,0-.01.01-.02,0,0,0,.01,0,.02,0,0,0-.02.01-.02,0,0,0,0-.01.01,0,0,.01-.01.02-.02,0,0,0,0-.01.01,0,0,0,0,.01,0,.01,0,.03-.02.03-.04,0,0,0-.02,0-.03,0,0,0-.02,0-.02,0-.01-.02-.03-.04-.03-.02,0-.04,0-.05,0h0Z"/>
        <path class="cls-1" d="m6.43,11.12c-.11,0-.2.09-.22.2-.02.12.05.23.17.28.1.04.23,0,.3-.08.08-.1.09-.22.04-.34-.02-.05-.06-.1-.1-.14-.02-.02-.05-.04-.08-.06-.03-.01-.06-.02-.09-.03-.06-.02-.09.05-.06.1.03.03.04.05.07.09.01.01.03.03.04.04,0,0,.01.01.02.02,0,0,0,0,.01.01,0,0,0,0,0,0,.01.01.02.03.03.05,0,0,0,0,0,.01,0,0,0-.01,0,0,0,0,0,.02,0,.03,0,0,0,0,0,.01,0,0,0,0,0,0,0,0,0,.02,0,.03,0,0,0,0,0,.01,0-.02,0,0,0,0,0,0,0,.02,0,.03,0,0,0,.01,0,0,0,0,0,0,0,0,0,0,0,.01-.01.02,0-.01,0,0,0,0,0,0,0,0,0,0,0,0-.02.01,0,0,0,0-.01,0-.02,0,0,0,0,0-.01,0,0,0,.01,0,0,0,0,0-.02,0-.02,0,0,0,.02,0,0,0,0,0,0,0-.01,0,0,0,0,0-.01,0,0,0,.01,0,0,0,0,0-.02,0-.02,0,0,0-.01,0,0,0,0,0,0,0,0,0,0,0,0,0,0,0,0,0-.02-.01,0,0,0,0,0,0-.01-.01,0,0-.01-.01,0,0,0,0,0,0,0,0,0,0,0-.01-.01-.02,0,.01,0,0,0-.01,0,0,0-.01,0,0,0,0,0,0,0-.01,0,0,0,0,0-.01,0,0,0,0,0,0,0,0,0-.02,0-.03,0,.01,0,0,0-.01,0-.01,0,0,0,0,0,0,0,0,.01-.01,0,0,0,0,0,0,0,0,0,0,0,0,0,0,0,0,0,0,0,0,0,0,0,0,0,0,0,0,0,0,0,0,.02,0,.03,0,.03,0,.05-.05.05-.08,0-.03-.03-.06-.07-.06h0Z"/>
        <path class="cls-1" d="m7.83,9.98c-.1.05-.19.11-.28.18-.09.07-.17.14-.25.23-.03.03,0,.09.05.06.09-.06.19-.11.28-.17.09-.06.19-.12.28-.17.08-.04,0-.17-.07-.12h0Z"/>
        <path class="cls-1" d="m7.73,10.55s-.04.05-.06.08c-.01.01-.02.02-.03.04-.01.01-.02.03-.03.04-.01.02.01.03.03.02.01-.01.02-.02.03-.03.01-.01.02-.03.03-.04.02-.02.04-.05.06-.07,0,0,0-.02,0-.03,0,0-.02,0-.03,0h0Z"/>
        <path class="cls-1" d="m8.07,12.14c.03.1.07.21.14.29.03.05.07.09.11.13.04.04.12.11.18.08.03,0,.05-.03.05-.06,0-.02,0-.04-.02-.06,0,0-.01-.01-.02-.02,0,0-.03-.03-.02-.02,0,0,0,0,0,0,0,0-.01,0-.02-.01,0,0-.02-.01-.03-.02-.04-.03-.07-.07-.1-.1,0,0-.01-.02,0,0,0,0,0,0,0,0,0,0-.01-.02-.02-.03-.01-.02-.03-.04-.04-.06,0-.01-.01-.02-.02-.03,0,0,0-.01,0-.02,0,0,0,0,0,0,0-.02-.02-.05-.03-.07-.01-.04-.05-.07-.09-.05-.04.01-.06.05-.05.09h0Z"/>
        <path class="cls-1" d="m7.95,12.7c.03.05.07.1.12.14.05.04.11.08.17.1.04.01.09.03.13,0,.02-.02.02-.04.02-.06,0-.03-.02-.04-.05-.06-.02-.01-.05-.03-.07-.04-.03-.01-.05-.03-.07-.04,0,0-.01,0-.02-.01,0,0,0,0,0,0,0,0,.01,0,0,0-.01,0-.02-.02-.04-.03-.01-.01-.02-.02-.03-.03,0,0-.01-.01-.02-.02,0,0,0,0,0,0,0,0,0,0,0-.01-.02-.03-.07-.05-.1-.03-.03.02-.05.07-.03.1h0Z"/>
        <path class="cls-1" d="m7.78,13.08s.02.01.02.02c0,0-.01,0-.02-.01.03.03.06.06.09.09,0,0,0-.01-.01-.02.02.03.04.05.06.08,0,0,0-.01-.01-.02.01.01.02.03.03.04.02.03.05.04.08.03.03-.01.05-.05.04-.08,0-.03-.02-.06-.03-.08-.02-.03-.03-.05-.05-.07-.03-.04-.08-.08-.12-.11-.02-.01-.04-.01-.06,0-.02,0-.04.02-.05.04,0,.02-.01.04,0,.06,0,.02.02.03.04.05h0Z"/>
        <path class="cls-1" d="m7.12,14.46s-.02.1,0,.15c0,.02.02.05.03.07,0,.01.02.03.04.04.01,0,.02.01.04.01.03,0,.05-.02.05-.05,0,0,0-.02,0-.02,0,0,0-.02,0-.02,0,0,0,0,0,0,0,0,0-.01,0,0,0,0,0,0,0,0,0,0,0,0,0,0,0,0,0,0,0-.01,0,0,0-.02,0-.03,0,0,0,0,0-.01,0,0,0,0,0,0,0,0,0,.01,0,0,0,0,0-.02,0-.03,0,0,0,0,0-.01,0,0,0,0,0,0,0,0,0,.01,0,0,0,0,0-.02,0-.03,0-.03-.01-.06-.04-.07-.03,0-.06,0-.07.04h0Z"/>
        <path class="cls-1" d="m7.08,14.97s0,.01,0,.02c0,0,0,0,0,.01,0,.02,0,.02,0,.03,0,0,0,0,0,0,0,.01,0,.02.01.03,0,0,0,.01.02.02,0,0,.01,0,.02,0,0,0,.01,0,.02,0,0,0,.01,0,.02-.02,0-.01,0-.02.01-.03,0,0,0,0,0,0,0,0,0,0,0-.01,0,0,0-.01,0-.02,0,0,0,0,0,0,0,0,0-.01,0-.02,0,0,0-.02,0-.02,0,0,0-.01-.01-.02,0,0-.01-.01-.02-.01,0,0-.02,0-.02,0-.02,0-.03,0-.05.02,0,0,0,0-.01.01,0,.01,0,.02,0,.03h0Z"/>
        <path class="cls-1" d="m6.98,15.32s0,.04,0,.07c0,.02,0,.04,0,.07,0,0,0,.02,0,.02,0,.01,0,.03.01.04,0,.02.02.03.03.04,0,0,.01,0,.02,0,.02,0,.03,0,.05,0,.01,0,.03-.02.03-.04,0,0,0-.01,0-.02,0-.02,0-.03,0-.04,0,0,0,0,0-.01,0-.02,0-.03,0-.05,0,0,0,.01,0,.02,0-.02,0-.05,0-.07,0,0,0,.01,0,.02,0,0,0-.01,0-.02,0-.02,0-.04,0-.06,0-.02-.03-.03-.05-.03-.02,0-.04,0-.06,0-.02.01-.03.03-.03.05h0Z"/>
        <path class="cls-1" d="m3.18,11.77c.05-.02.07-.07.04-.12-.03-.05-.1-.05-.14-.01-.05.04-.07.1-.07.16,0,.11.05.23.15.28.13.06.27.01.35-.09.04-.05.07-.12.06-.18,0-.07-.03-.13-.08-.17-.04-.05-.1-.08-.17-.09-.04,0-.08,0-.13.02-.03.01-.05.03-.07.05-.04.04,0,.11.06.09,0,0,0,0,.01,0,.02,0,0,0,0,0,0,0,.02,0,.03,0,0,0,.02,0,0,0,0,0,0,0,0,0,0,0,.02,0,.03,0,.02,0-.01,0,0,0,.02,0,.03,0,.05.01,0,0,.02,0,0,0,0,0,0,0,.01,0,0,0,.02,0,.03.01,0,0,.01,0,.02.01-.02-.01-.01,0,0,0,0,0,0,0,0,0,0,0,0,0,0,0,0,0,.01.01,0,0,0-.01,0,0,0,0,0,0,0,0,0,.02,0,0,0,0,0,.01-.01-.02,0-.01,0,0,0,0,0,.01,0,.02,0,.02,0-.02,0,0,0,0,0,.01,0,.02,0,0,0,.01,0,.02,0,0,0,0,0,0,0,0,0,0,0,0,0,0,0,.02,0,.02,0,.02,0-.02,0,0,0,0,0,0,0,.01,0,0,0,0,0,.01,0,0,0,0,0,0,0,0,0,0,0,0,0,0-.02.02-.02.02,0,0,0,0-.01.01-.01.01.02,0,0,0,0,0-.01,0-.02.01,0,0-.01,0-.01,0,0,0,0,0,0,0,0,0,0,0,0,0,0,0,0,0-.01,0,0,0-.02,0-.02,0,0,0,.02,0,0,0,0,0,0,0-.01,0,0,0-.01,0-.02,0,0,0,0,0,.01,0,0,0,0,0-.01,0,0,0-.02,0-.03,0,.01,0,.01,0,0,0,0,0-.01,0-.02,0,0,0,0,0-.01,0-.01,0,.01.01,0,0,0,0-.01-.01-.02-.02,0,0,0,0,0,0-.01-.01,0,.01,0,0,0,0-.01-.02-.02-.03,0,0,0,0,0-.01,0,.01,0,.01,0,0,0,0,0,0,0,0,0,0,0-.02,0-.03,0,0,0,0,0-.01,0,.01,0,.01,0,0,0,0,0,0,0,0,0,0,0-.02,0-.03,0,0,0-.02,0,0,0,0,0-.01,0-.02,0,0,0-.02,0-.03,0-.01,0,.01,0,0,0,0,0-.01,0-.02,0,0,0,0,0,0,0,0,0,0,0,0-.05.03-.11-.05-.05-.08-.06.03-.02.14.05.12h0Z"/>
        <path class="cls-1" d="m9.55,9.63c-.08.06-.16.1-.25.14,0,0,.02,0,.03-.01-.06.03-.14.04-.18.1-.02.03-.02.06,0,.09.01.03.04.05.07.06.06.02.12-.01.17-.03.03-.02.07-.03.1-.05.07-.04.13-.09.2-.14.02-.02.03-.05.03-.07,0-.02,0-.04-.02-.06-.03-.04-.09-.06-.13-.03h0Z"/>
        <path class="cls-1" d="m9.81,9.87c-.15.06-.3.13-.44.21-.04.02-.09.06-.08.11,0,.05.07.06.11.05.04-.01.08-.04.12-.06.04-.02.07-.04.1-.06.08-.05.16-.1.23-.15.02-.02.03-.04.02-.07,0-.02-.04-.04-.06-.03h0Z"/>
        <path class="cls-1" d="m9.74,10.15s-.02.03-.03.04c-.01.02-.03.04-.04.05-.01.02-.02.04-.03.06,0,0,0,.01,0,.02,0,.01,0,.02,0,.04,0,.02,0,.03.02.04.01,0,.03.01.05,0,.01,0,.02,0,.03-.01,0,0,.01,0,.02-.01.02-.01.04-.02.05-.04.01-.01.02-.03.03-.04.01-.01.02-.03.03-.04,0,0,.01-.02.02-.03,0-.01,0-.02,0-.03,0-.02,0-.05-.03-.06-.02-.02-.04-.03-.06-.03-.02,0-.05,0-.06.03h0Z"/>
        <path class="cls-1" d="m6.96,8.78c.1-.42.2-.85.34-1.26.14-.4.33-.85.64-1.15.14-.14.35-.24.55-.17.22.08.25.32.23.52-.05.47-.29.9-.51,1.31.07.02.13.04.2.05.02-.22.24-.4.39-.54.16-.16.32-.3.49-.44.18-.14.36-.28.55-.4.1-.06.19-.12.29-.18.04-.02.12-.08.17-.05.04.02.07.12.09.17.15.44-.14.87-.4,1.21-.3.41-.61.81-.91,1.22-.17.22-.33.45-.5.67-.18.24-.37.47-.52.72-.05.09.07.18.14.11.21-.22.38-.48.56-.72.18-.24.35-.48.53-.72.35-.47.73-.94,1.05-1.44.24-.37.43-.93.13-1.33-.15-.2-.36-.08-.54.02-.23.13-.45.29-.66.45-.24.18-.46.38-.67.59-.18.19-.4.38-.41.66,0,.11.15.15.2.05.2-.38.41-.78.49-1.21.06-.31.07-.73-.27-.9-.32-.16-.68.01-.9.27-.25.29-.42.66-.55,1.03-.16.46-.26.93-.35,1.41-.02.09.12.13.14.04h0Z"/>
        <path class="cls-1" d="m10.41,7.62c.18-.19.42-.31.68-.34.19-.02.6-.01.59.26,0,.12-.08.24-.15.34-.09.12-.19.23-.29.34-.21.23-.42.45-.65.65-.09.08.04.22.13.13.21-.2.41-.4.6-.61.17-.19.37-.4.47-.64.08-.2.06-.43-.15-.54-.2-.1-.45-.1-.66-.05-.25.06-.47.2-.64.39-.04.04.02.11.07.07h0Z"/>
        <path class="cls-1" d="m6.07,7.2c.07-.69.42-1.33.95-1.78.25-.21.57-.4.89-.48.11-.03.2-.02.26.09.04.09.06.19.09.28.05.22.08.45.08.68,0,.13.18.15.22.03.13-.42.44-.77.84-.96.18-.09.4-.15.6-.15.3,0,.27.31.2.52-.11.34-.41.6-.67.83-.29.25-.58.5-.78.83-.06.1.08.2.16.13.76-.69,1.61-1.27,2.52-1.72.23-.11.46-.22.7-.32.17-.07.36-.14.55-.11.07.01.15.04.18.11.06.13-.07.25-.15.33-.2.19-.42.36-.62.53-.49.42-.99.83-1.48,1.24-.09.07.03.23.12.16,1.08-.78,2.37-1.69,3.78-1.43-.02-.05-.04-.09-.06-.14-.65.88-1.63,1.49-2.71,1.69-.12.02-.07.21.05.19,1.13-.22,2.14-.86,2.82-1.78.03-.05,0-.13-.06-.14-1.47-.26-2.8.62-3.94,1.44.04.05.08.11.12.16.5-.42,1-.84,1.5-1.26.23-.19.5-.38.69-.61.13-.15.2-.38.06-.55-.27-.35-.84-.08-1.15.06-.53.23-1.05.5-1.53.81-.55.35-1.07.75-1.56,1.18.05.04.11.08.16.13.36-.6,1.09-.9,1.4-1.53.13-.27.24-.76-.1-.92-.16-.08-.38-.04-.55,0-.19.04-.37.12-.54.22-.37.23-.66.58-.79.99.07,0,.15.02.22.03,0-.27-.03-.53-.1-.79-.05-.18-.1-.4-.29-.48-.19-.08-.42.02-.6.09-.19.08-.37.18-.53.3-.66.49-1.1,1.25-1.12,2.08,0,.1.15.1.16,0h0Z"/>
        <path class="cls-1" d="m10.19,5.66c.54-.93,1.11-1.95,2.11-2.44.18-.09.59-.3.76-.12.21.2.01.51-.14.67-.38.41-.82.77-1.26,1.1-.24.18-.49.35-.75.51-.27.17-.56.31-.82.49-.08.06-.03.22.07.17.29-.12.57-.3.83-.47.27-.17.53-.36.78-.55.25-.19.48-.39.71-.59.23-.2.47-.41.66-.65.14-.19.23-.43.13-.66-.1-.24-.33-.29-.57-.24-.56.13-1.07.5-1.46.91-.5.53-.85,1.17-1.18,1.81-.04.08.07.14.12.07h0Z"/>
        <path class="cls-1" d="m8.42,5.42c-.03-.87.08-1.8.64-2.5.12-.15.26-.28.41-.39.11-.08.43-.32.56-.2.08.07.01.24-.01.32-.03.11-.06.22-.1.34-.07.21-.14.41-.22.61-.19.48-.43.94-.71,1.37-.06.1.09.19.16.09.6-.86,1.22-1.75,2.1-2.35.2-.14.41-.26.62-.36.11-.05.23-.11.35-.13.26-.05.14.24.05.35-.33.39-.73.71-1.09,1.08-.4.41-.72.87-.94,1.4-.04.1.12.14.16.04.24-.58.61-1.05,1.05-1.48.2-.2.41-.39.61-.59.17-.17.44-.37.48-.62.03-.2-.1-.38-.31-.36-.13.01-.26.08-.38.13-.12.05-.24.11-.36.17-.48.26-.9.62-1.28,1.02-.46.5-.85,1.06-1.24,1.61.05.03.11.06.16.09.28-.44.52-.91.72-1.39.1-.25.19-.5.27-.75.06-.19.18-.46.07-.66-.22-.4-.82.07-1.02.25-.33.3-.57.68-.72,1.1-.21.58-.25,1.2-.21,1.8,0,.1.17.11.16,0h0Z"/>
        <path class="cls-1" d="m10.16,2.61c.5-.76,1.16-1.43,1.93-1.93.19-.12.38-.23.57-.34.05-.03.11-.05.16-.08.08-.04.13-.07.16.04.03.11,0,.22-.03.32-.08.24-.25.45-.38.66-.16.25-.32.49-.48.74.06.04.13.07.19.11.2-.32.47-.58.8-.78.14-.08.3-.18.46-.2.07,0,.18-.01.19.08,0,.09-.1.21-.14.27-.44.63-1.02,1.14-1.68,1.54-.12.07-.01.25.11.19.42-.23.8-.53,1.14-.87.17-.17.32-.35.47-.54.12-.16.31-.36.32-.57,0-.18-.12-.3-.3-.32-.2-.02-.39.08-.56.17-.4.21-.74.53-.99.92-.08.12.11.23.19.11.14-.21.28-.43.42-.64.13-.2.27-.39.38-.61.09-.18.16-.37.12-.57-.03-.17-.13-.34-.32-.3-.19.04-.38.17-.55.27-.18.1-.36.21-.53.33-.34.24-.66.51-.95.81-.32.34-.6.71-.84,1.11-.05.09.08.16.14.08h0Z"/>
        <path class="cls-1" d="m12.64,2.76c.48-.3.98-.56,1.51-.75.42-.15,1.18-.44,1.51.02.18.25-.13.48-.29.63-.21.19-.42.37-.65.54-.43.33-.89.64-1.36.92-.54.33-1.09.64-1.64.95l.11.19c.41-.25.83-.48,1.26-.69.22-.11.45-.21.68-.3.11-.05.22-.09.33-.13.08-.03.19-.08.27-.06.15.03.03.18-.04.24-.08.08-.16.16-.24.24-.17.16-.34.31-.52.45-.37.3-.76.56-1.18.79.04.06.07.12.11.19.33-.2.67-.38,1.02-.56.34-.18.68-.36,1.03-.5.17-.07.34-.12.52-.11.28.02.01.27-.09.35-.3.25-.6.48-.93.7-.11.08,0,.26.11.19.19-.13.38-.27.57-.41.18-.14.38-.28.53-.45.1-.11.2-.28.13-.42-.08-.16-.29-.17-.44-.16-.44.03-.86.29-1.25.49-.44.22-.87.45-1.3.7-.12.07-.01.25.11.19.38-.21.73-.45,1.07-.71.34-.26.69-.55.97-.88.1-.12.17-.28.08-.42-.08-.12-.23-.14-.37-.12-.2.03-.39.13-.57.2-.2.08-.4.17-.59.26-.47.22-.93.47-1.38.75-.12.07-.01.26.11.19,1.09-.61,2.19-1.23,3.17-2.02.24-.19.48-.4.7-.62.16-.17.27-.39.16-.62-.25-.5-.97-.39-1.39-.26-.67.21-1.31.54-1.89.93-.06.04,0,.14.06.1h0Z"/>
        <path class="cls-1" d="m14.97,3.22c.22-.12.51-.21.77-.18.33.04.13.38,0,.53-.36.42-.74.82-1.13,1.21-.09.09.05.23.14.14.25-.24.49-.48.71-.73.12-.13.23-.27.35-.4.09-.11.18-.22.24-.35.05-.11.08-.24.03-.35-.05-.12-.17-.19-.3-.21-.3-.04-.62.08-.87.24-.07.04,0,.14.06.11h0Z"/>
        <path class="cls-1" d="m7.04,5.89c-.17.19-.32.4-.46.61-.07.11-.13.22-.19.33-.03.06-.06.11-.09.17-.03.06-.06.12-.07.18,0,.04.04.09.08.06.02-.01.03-.02.05-.03.03-.02.01-.06-.02-.06-.01,0-.03,0-.04,0,0,.03.02.06.02.09.04-.05.06-.1.09-.16.03-.05.05-.11.08-.16.06-.11.12-.22.19-.33.13-.22.28-.42.44-.62.04-.05-.03-.11-.07-.07h0Z"/>
        <path class="cls-1" d="m7.13,6.24c-.13.22-.26.43-.38.65-.03.05-.06.11-.09.16-.02.04-.06.1-.03.14.04.07.17.02.12-.05-.02-.03-.05-.01-.06.02.01-.02.03-.02.04,0,0,0,0-.02,0-.03,0-.02.02-.03.03-.05l.06-.11c.04-.08.08-.16.12-.24.08-.16.15-.31.23-.47.01-.03-.03-.06-.05-.03h0Z"/>
        <path class="cls-1" d="m7.1,6.73c-.06.1-.1.19-.15.3-.02.05-.04.1-.06.15-.02.05-.04.11-.03.16,0,.02.03.03.05.01.04-.03.05-.09.06-.14.02-.05.03-.1.05-.15.04-.1.09-.2.14-.29.02-.04-.04-.08-.07-.04h0Z"/>
        <path class="cls-1" d="m7.64,7.05c-.08.17-.17.35-.25.52-.04.08-.08.17-.12.25-.02.04-.04.08-.06.12-.02.04-.04.08-.03.12,0,.02.02.03.04.02.04-.01.06-.05.08-.09.02-.04.04-.08.06-.12.04-.09.08-.17.12-.26.08-.17.16-.35.24-.52.02-.05-.05-.09-.07-.04h0Z"/>
        <path class="cls-1" d="m7.83,7.3c-.03.11-.06.21-.1.31-.02.05-.04.1-.06.15-.02.05-.07.1-.05.15,0,.01.03.02.04.02.03,0,.04-.03.05-.06.01-.03.02-.05.03-.08.02-.05.04-.1.05-.15.03-.11.06-.21.08-.32,0-.03-.03-.04-.04-.01h0Z"/>
        <path class="cls-1" d="m7.89,7.59v.07s0,.02,0,.03c0,.01,0,.03,0,.04,0,0,.01.01.02.02,0,0,.03,0,.04,0,0,0,.02-.01.02-.02,0-.01,0-.02,0-.04,0-.01,0-.02,0-.03v-.07s-.02-.05-.05-.05c-.03,0-.05.02-.05.05h0Z"/>
        <path class="cls-1" d="m9.1,7.57c-.05.08-.1.17-.16.24-.03.04-.06.07-.09.11-.03.04-.07.07-.09.12,0,.02.01.03.03.03.05-.01.09-.05.12-.09.04-.04.07-.07.1-.11.06-.08.12-.17.17-.26.03-.05-.05-.09-.08-.04h0Z"/>
        <path class="cls-1" d="m9.34,7.64c-.04.06-.07.12-.11.18-.02.03-.04.06-.05.09-.02.03-.04.07-.04.1,0,.03.03.04.06.03.03-.02.05-.06.07-.09.02-.03.03-.06.05-.09.03-.06.06-.12.09-.19.02-.04-.04-.07-.06-.03h0Z"/>
        <path class="cls-1" d="m9.37,8.06s-.02.03-.03.05c0,0-.01.02-.02.03,0,0,0,.01,0,.02,0,0,0,.01,0,.02,0,0,0,.02.01.02,0,0,.02,0,.02,0,0,0,0,0,.01,0,0,0,0,0,.01,0,0,0,0,0,0,0,0,0,0,0,0-.01,0,0,.01-.02.02-.02.01-.02.02-.03.04-.05,0,0,0-.02,0-.03,0,0,0-.02-.02-.02-.02-.01-.04,0-.05.01h0Z"/>
        <path class="cls-1" d="m10.21,8.1c-.02.05-.04.11-.07.16-.01.03-.02.05-.03.08,0,.01,0,.03-.01.04,0,.02,0,.04,0,.06,0,.03.05.05.08.03.02-.01.03-.02.04-.04,0-.01.01-.03.02-.04.01-.03.02-.06.04-.09.02-.06.04-.11.06-.17.01-.04-.02-.08-.05-.09-.04,0-.07.01-.09.05h0Z"/>
        <path class="cls-1" d="m10.55,8.23s0,.01,0,.02c0,0,0,0,0,0,0,0,0,.01,0,.02,0,0,0,.01,0,.02,0,0,0,.01,0,.02,0,0,0,0,0,0,0,0,0,.01,0,.02,0,0,0,0,.01.01.01,0,.02,0,.03,0,0,0,0,0,0,0,0,0,.01-.01.02-.02,0,0,0-.01.01-.02,0-.01.01-.02.02-.03,0,0,0,0,0-.02,0,0,0-.01,0-.02,0,0-.01-.02-.02-.02,0,0-.02,0-.03,0-.01,0-.02,0-.03.02h0Z"/>
        <path class="cls-1" d="m10.88,6.12c-.08.05-.14.11-.2.17-.03.03-.06.07-.08.11-.03.04-.07.1-.04.15,0,0,0-.02,0-.02,0,0,0,.01,0,.02,0,.04.04.05.07.03,0,0,0,0,0,0,0,0-.02,0-.02,0,.03,0,.06-.02.08-.05.01-.02.02-.04.03-.05.01-.02.02-.03.03-.05,0,0,.01-.01,0,0,0,0,0,0,0,0,0,0,.01-.02.02-.02.03-.03.05-.06.09-.09,0,0,.01-.01.02-.02,0,0,0,0,.01,0,0,0,.01,0,0,0,.02-.01.03-.03.05-.04.03-.02.04-.06.02-.09-.02-.03-.06-.04-.09-.02h0Z"/>
        <path class="cls-1" d="m11.12,6.15c-.06.12-.13.24-.19.37-.03.06-.06.12-.09.18-.03.06-.08.13-.05.2,0,.02.04.03.05.02.06-.02.08-.11.1-.17.02-.06.05-.13.07-.19.05-.13.09-.26.13-.39,0-.02-.03-.04-.04-.02h0Z"/>
        <path class="cls-1" d="m11.49,5.85c-.1.25-.2.5-.31.76-.02.06-.05.12-.07.18-.01.04,0,.1.05.11.09.03.11-.12.02-.1-.04,0-.03.06,0,.07,0,0,0,0,0,0,0,0-.02-.02-.03-.03,0-.01,0-.02.01-.03.01,0,.02,0,.04,0,0,0,0,0,0,0,0,.01,0,.03,0,.04,0-.03.03-.06.04-.09.02-.04.03-.08.05-.13l.1-.25.2-.51c.03-.07-.09-.1-.12-.03h0Z"/>
        <path class="cls-1" d="m11.83,5.69c-.07.16-.14.32-.2.48-.03.09-.06.17-.08.26-.01.06-.07.19.01.22.09.03.1-.12.11-.17.02-.09.04-.17.06-.26.04-.17.1-.34.16-.51.02-.04-.05-.07-.07-.03h0Z"/>
        <path class="cls-1" d="m11.92,6.97c-.03.06-.06.12-.08.18,0,.03-.02.07-.02.1,0,.04,0,.08.03.1.02.01.03.02.05,0,.02,0,.04-.03.04-.05,0-.01,0-.03.01-.04,0-.03.01-.06.02-.09,0-.01,0-.03.01-.04,0,0,0-.01,0-.02,0,0,0,0,0-.01,0,0,0,0,0,0,0,0,0,0,0,0,0,0,0,0,0-.01,0,0,0-.01,0-.02,0-.01.01-.03.02-.04.02-.03,0-.08-.02-.09-.03-.02-.08,0-.09.02h0Z"/>
        <path class="cls-1" d="m12.34,6.8c0,.06-.02.12-.03.18,0,.03,0,.06-.01.09,0,.01,0,.03,0,.04,0,.02,0,.04,0,.06.01.03.05.04.07,0,.01-.02.02-.03.02-.06,0-.01,0-.03,0-.04,0-.03,0-.06,0-.09,0-.06,0-.12.01-.18,0-.04-.06-.05-.07,0h0Z"/>
        <path class="cls-1" d="m12.71,6.8s-.01.04-.02.06c0,.01,0,.03,0,.04,0,0,0,0,0,0,0,0,0,.01,0,.02,0,0,0,.01,0,.02,0,.02.02.03.03.03.02,0,.03,0,.04-.01,0,0,0,0,0-.01,0,0,0,0,0-.01,0,0,0-.01,0-.02h0s0-.03,0-.04c0-.02.01-.04.02-.06,0-.01,0-.03,0-.04,0-.01-.02-.02-.03-.03-.01,0-.03,0-.04,0-.01,0-.02.02-.03.03h0Z"/>
        <path class="cls-1" d="m13.09,6.62s0,.03,0,.04v.02s0,0,0,.01c0,0,0,.02,0,.03,0,0,0,0,0,.01,0,0,0,.01.02.02.01,0,.02.01.04.01.01,0,.02,0,.03,0,.01,0,.02-.02.03-.04,0,0,0-.02,0-.03,0,0,0,0,0,0,0,0,0-.01,0-.02,0-.01,0-.03,0-.04,0-.02,0-.03-.02-.04-.01-.01-.03-.02-.04-.02-.02,0-.03,0-.04.02-.01.01-.02.03-.02.04h0Z"/>
        <path class="cls-1" d="m14.02,5.54s0,.05,0,.08c0,.01,0,.03,0,.04,0,0,0,.02,0,.03,0,.01,0,.03.01.04.02.05.1.05.12,0,0,0,.01-.02.01-.03,0-.01,0-.02,0-.04,0-.01,0-.03,0-.04,0-.03,0-.05,0-.08,0-.02,0-.04-.02-.05s-.04-.02-.05-.02c-.02,0-.04,0-.05.02-.01.02-.02.03-.02.05h0Z"/>
        <path class="cls-1" d="m14.65,4.84c-.02.12-.04.24-.06.36,0,.06-.01.11-.02.17,0,.06-.02.14.01.19.02.03.07.05.1.01.04-.05.04-.12.04-.18,0-.06,0-.12.02-.18.01-.11.03-.23.05-.34,0-.04-.01-.08-.05-.09-.04,0-.08.01-.09.05h0Z"/>
        <path class="cls-1" d="m14.89,3.83c.02.07.03.14.03.21,0,.04,0,.07,0,.11,0,.04,0,.08.03.11,0,.01.03.01.04,0,.04-.02.04-.07.05-.11,0-.04,0-.08,0-.12,0-.08-.02-.16-.03-.24,0-.03-.04-.05-.07-.04-.03,0-.05.04-.04.07h0Z"/>
        <path class="cls-1" d="m15.24,3.49c0,.11-.01.22,0,.32,0,.05,0,.11.02.16,0,.05.02.12.07.14.01,0,.03,0,.04,0,.04-.04.02-.11,0-.15-.01-.05-.02-.1-.03-.15-.02-.1-.03-.21-.04-.31,0-.04-.06-.04-.06,0h0Z"/>
        <path class="cls-1" d="m13.56,3.07c-.01.17-.05.35-.12.51-.03.08-.07.16-.11.23-.04.07-.09.15-.12.23-.01.03.03.07.06.05.07-.05.13-.14.17-.21.05-.08.08-.17.12-.26.07-.18.1-.36.11-.55,0-.07-.11-.07-.12,0h0Z"/>
        <path class="cls-1" d="m13.91,2.94c-.01.21-.05.42-.12.62-.07.2-.18.38-.27.57-.02.04.03.08.06.05.15-.16.23-.37.3-.58.06-.21.09-.43.09-.66,0-.03-.05-.03-.05,0h0Z"/>
        <path class="cls-1" d="m14.35,2.73c-.05.18-.11.36-.18.54-.04.09-.08.17-.12.26-.04.08-.09.16-.11.25-.01.04.04.07.07.04.13-.13.2-.33.26-.5.07-.18.13-.37.17-.56.01-.06-.07-.08-.09-.02h0Z"/>
        <path class="cls-1" d="m14.6,2.71c.01.08.01.16,0,.24,0,.04,0,.08-.02.11,0,.04-.03.08,0,.12,0,.01.03.02.04.01.04-.02.04-.08.04-.12,0-.04,0-.08,0-.12,0-.08-.01-.17-.03-.25,0-.03-.04-.01-.04.01h0Z"/>
        <path class="cls-1" d="m11.29,4.64c-.05.08-.09.17-.14.25-.05.08-.09.17-.13.25-.02.03.03.06.05.03.05-.08.1-.16.15-.24.05-.08.09-.16.14-.25.03-.05-.05-.09-.07-.04h0Z"/>
        <path class="cls-1" d="m11.69,4.29c-.03.08-.06.15-.09.23-.01.04-.03.07-.04.11-.01.04-.04.08-.04.12,0,.03.02.05.05.06.03,0,.06,0,.07-.03,0-.01,0-.02.01-.03,0-.01.02-.02.02-.03.03-.03,0-.08-.04-.06-.01,0-.02.01-.03.02-.01,0-.02,0-.03,0,.02.03.04.07.06.1.03-.03.04-.08.06-.12.01-.04.03-.08.04-.12.03-.08.05-.15.08-.23.01-.03-.01-.07-.04-.08-.04,0-.07.01-.08.04h0Z"/>
        <path class="cls-1" d="m12.05,3.98c0,.1-.03.19-.05.28-.01.05-.03.09-.04.14-.02.05-.05.1-.02.15,0,.01.03.02.04.02.06-.02.07-.08.08-.14.01-.05.02-.1.03-.15.02-.1.02-.2.01-.3,0-.04-.06-.04-.06,0h0Z"/>
        <path class="cls-1" d="m12.5,3.7s-.05.08-.08.12c-.03.04-.05.08-.07.12,0,.01,0,.03,0,.04.01,0,.03,0,.04,0,.03-.04.07-.07.09-.11.03-.04.06-.08.08-.12.01-.02,0-.05-.02-.06-.02-.01-.04,0-.06.02h0Z"/>
        <path class="cls-1" d="m10.23,4.06c-.02.1-.04.2-.04.31,0,.05,0,.1,0,.15,0,.05.02.1.04.15.01.03.07.03.07,0,0-.05,0-.09-.01-.14,0-.05,0-.1,0-.15,0-.1.01-.19.03-.29.02-.06-.08-.09-.1-.03h0Z"/>
        <path class="cls-1" d="m10.63,4.01s0,.04,0,.07c0,.02,0,.04,0,.06,0,.02,0,.04,0,.06,0,.01,0,.02,0,.03,0,0,0,0,.01.01,0,0,0,.02.01.03,0,.01.02.02.03.01.01,0,.02-.02.02-.03,0,0,0-.01,0-.02,0-.01,0-.02,0-.04,0-.02-.01-.04-.02-.05,0-.02,0-.03,0-.05,0-.02,0-.04,0-.06,0-.01,0-.02-.02-.03-.01,0-.03,0-.03.02h0Z"/>
        <path class="cls-1" d="m10.96,3.56s-.03.06-.04.1c0,.05-.01.13.05.14,0,0-.01,0-.02-.01,0,0,.01.01.02.02,0,0,.02.01.03,0,.01,0,.02-.02.02-.03,0,0,0-.02,0-.03,0,0,0,.02-.01.03.01-.01.02-.03.02-.05,0,0,0-.02,0-.03,0,0,0,0,0,.01,0-.02,0-.03,0-.05,0,0,0,0,0,.01,0-.02,0-.03.01-.04,0,0,0,0,0,0,0,0,0,0,0,0,0,0,0,0,0,0,0,0,0-.01.01-.02,0-.01,0-.03,0-.04,0-.01-.01-.03-.03-.03-.03-.01-.06,0-.08.02h0Z"/>
        <path class="cls-1" d="m9,4.01c-.01.11-.01.23,0,.34.02.12.04.23.11.33.02.03.07.01.06-.03,0-.06-.02-.11-.03-.16-.01-.05-.02-.1-.03-.16-.01-.11-.01-.22,0-.33,0-.03-.03-.05-.05-.05-.03,0-.05.02-.05.05h0Z"/>
        <path class="cls-1" d="m9.15,3.49c-.01.1,0,.21.02.3.01.05.03.1.05.15.01.02.02.04.03.06.02.03.04.04.07.05.02.02.06-.01.05-.04,0-.01,0-.02,0-.03v.02s0-.05-.02-.08c-.01-.02-.02-.04-.03-.05-.02-.04-.04-.08-.05-.12-.03-.09-.05-.17-.05-.27,0-.04-.06-.04-.07,0h0Z"/>
        <path class="cls-1" d="m9.39,3.16c0,.06,0,.13,0,.19,0,.03.02.06.03.09,0,.02.01.03.02.05,0,0,.01.02.02.02,0,0,.02,0,.03.01.01,0,.04,0,.04-.02,0,0,0-.02,0-.02,0,0,0-.02,0-.03,0-.01,0-.02-.01-.04-.01-.03-.02-.05-.03-.08,0-.03,0-.05-.01-.08,0-.03,0-.06,0-.09,0-.03-.02-.05-.05-.05-.03,0-.05.02-.05.05h0Z"/>
        <path class="cls-1" d="m9.61,2.94s.02.07.03.1c0,.01.02.02.03.02.01,0,.02-.02.02-.03-.01-.03-.02-.07-.03-.1,0-.01-.02-.02-.03-.02-.01,0-.02.02-.02.03h0Z"/>
        <path class="cls-1" d="m10.72,2.33c-.02.07-.02.14,0,.2,0,.03.02.06.03.09,0,.02.02.03.03.04.01.01.02.03.04.03.02.01.06,0,.06-.03,0-.02,0-.03,0-.04,0-.01,0-.03-.01-.04,0-.03-.01-.05-.02-.08,0,0,0-.01,0-.02,0,.01,0,0,0-.01,0-.01,0-.03,0-.04,0-.01,0-.03,0-.04,0,.02,0,0,0,0,0,0,0-.01,0-.02,0-.03,0-.07-.04-.08-.03,0-.07,0-.08.04h0Z"/>
        <path class="cls-1" d="m11.13,1.97c-.03.06-.05.13-.06.21,0,.04,0,.07,0,.11,0,.04.02.09.07.1.02,0,.03,0,.04-.02.02-.03,0-.07,0-.11,0-.03-.01-.05-.01-.08,0-.06,0-.12.02-.18.01-.04-.05-.07-.07-.03h0Z"/>
        <path class="cls-1" d="m11.42,1.9s0,.01,0,.02c0,0,0,0,0,0,0,0,0,.01,0,.02,0,.01,0,.02,0,.04,0,0,0,0,0,0,0,0,0,0,0,.01,0,0,0,.01.01.02.01,0,.03,0,.04,0,0,0,.02-.02.02-.03.01-.01.02-.03.03-.04,0-.01,0-.02,0-.04,0,0,0-.01,0-.02,0,0,0,0-.01-.01-.01,0-.02,0-.04,0,0,0,0,0-.01,0,0,0-.01,0-.02.02h0Z"/>
        <path class="cls-1" d="m11.85,1.69s-.02.09-.03.13c0,.01,0,.03.02.03.01,0,.03,0,.03-.02.01-.04.03-.09.04-.13,0-.02,0-.03-.02-.04-.02,0-.03,0-.04.02h0Z"/>
        <path class="cls-1" d="m3.56,53.87c.4-1.83.8-3.67,1.23-5.49.44-1.84.89-3.67,1.41-5.49.51-1.8,1.08-3.59,1.72-5.34.64-1.75,1.36-3.47,2.18-5.14.82-1.68,1.73-3.31,2.76-4.87.13-.19.25-.38.38-.57-.11-.01-.21-.03-.32-.04.3,1.9-.34,3.78-1.06,5.5-.75,1.8-1.56,3.58-2.31,5.39-.76,1.82-1.5,3.64-2.22,5.47-.72,1.84-1.42,3.69-2.1,5.55-.33.92-.66,1.84-.99,2.77-.32.93-.65,1.87-.9,2.82-.06.24-.14.47-.22.71-.01.03.04.04.05.01.16-.47.37-.92.55-1.39.18-.47.36-.94.53-1.42.34-.93.68-1.86,1.02-2.79.69-1.86,1.4-3.72,2.13-5.57.73-1.85,1.47-3.69,2.23-5.53.76-1.83,1.56-3.64,2.34-5.46.74-1.72,1.45-3.56,1.34-5.47-.01-.23-.04-.46-.08-.69-.03-.16-.24-.15-.32-.04-1.05,1.55-2,3.16-2.84,4.83-.84,1.67-1.58,3.38-2.24,5.13-.67,1.76-1.25,3.54-1.78,5.35-.53,1.81-1,3.64-1.43,5.48-.43,1.85-.82,3.7-1.18,5.56-.04.23-.09.45-.13.68-.03.14.18.2.21.06h0Z"/>
        <path class="cls-1" d="m11.2,31.03c-.55,1.46-1.14,2.9-1.74,4.34-.6,1.44-1.23,2.87-1.88,4.29-.36.79-.75,1.56-1.06,2.37-.03.08.09.12.13.06.4-.67.73-1.39,1.06-2.1.33-.71.64-1.42.95-2.13.62-1.43,1.21-2.87,1.75-4.33.3-.82.6-1.64.89-2.47.02-.07-.08-.09-.11-.03h0Z"/>
        <path class="cls-1" d="m11.06,33.06c-.37.46-.75.91-1.1,1.39-.03.03.03.08.06.05.39-.44.75-.9,1.12-1.35.04-.05-.03-.13-.08-.08h0Z"/>
        <path class="cls-1" d="m10.98,33.77c-.23.24-.45.48-.66.73-.11.12-.21.24-.32.37-.05.06-.11.12-.16.18-.05.06-.1.11-.13.18-.01.03.03.06.05.04.07-.04.11-.1.16-.15.05-.06.11-.12.16-.18.11-.12.21-.25.32-.37.21-.25.42-.5.62-.75.02-.03-.01-.07-.04-.04h0Z"/>
        <path class="cls-1" d="m10.61,34.54c-.18.26-.39.51-.62.74-.11.11-.22.21-.34.31-.12.1-.26.19-.37.31-.03.03,0,.07.04.06.14-.06.27-.17.39-.28.13-.11.25-.22.36-.34.23-.23.43-.49.61-.76.03-.05-.04-.09-.08-.04h0Z"/>
        <path class="cls-1" d="m10.19,35.46c-.18.34-.4.65-.65.93-.24.28-.53.53-.81.77-.03.02,0,.07.04.05.63-.41,1.12-1.06,1.45-1.74.01-.02-.02-.04-.03-.02h0Z"/>
        <path class="cls-1" d="m9.46,37.23c-.23.31-.48.6-.74.89-.26.28-.55.53-.81.81-.03.03,0,.08.04.06.31-.22.59-.52.85-.8.26-.29.51-.59.75-.9.04-.05-.05-.11-.09-.05h0Z"/>
        <path class="cls-1" d="m8.57,39.04c-.15.21-.31.42-.46.63-.08.1-.15.21-.22.31-.07.1-.15.2-.2.32-.02.04.04.06.07.04.1-.08.17-.19.24-.3.08-.1.15-.21.22-.31.15-.21.3-.42.45-.64.04-.06-.06-.12-.1-.06h0Z"/>
        <path class="cls-1" d="m8.28,40.19l-.41.45c-.07.07-.14.15-.2.22-.07.07-.14.15-.19.23-.02.03.02.06.05.04.08-.06.14-.14.21-.21.07-.07.13-.15.2-.23.13-.15.26-.3.39-.45.03-.03-.02-.07-.04-.04h0Z"/>
        <path class="cls-1" d="m8.11,41.04c-.33.39-.67.77-.97,1.18-.03.04.03.08.06.05.35-.36.67-.76.99-1.14.05-.06-.03-.14-.08-.08h0Z"/>
        <path class="cls-1" d="m7.59,42.22c-.64.93-1.32,1.85-1.91,2.82-.02.04.03.07.06.03.67-.91,1.27-1.88,1.89-2.83.02-.03-.03-.06-.05-.03h0Z"/>
        <path class="cls-1" d="m6.98,44.1c-.21.29-.42.57-.63.86-.1.14-.21.28-.31.42-.05.07-.11.15-.16.22-.05.06-.1.13-.12.22,0,.03.02.05.05.04.07-.03.11-.1.16-.16.05-.07.11-.15.16-.22.1-.15.21-.29.31-.44.21-.29.42-.59.63-.88.04-.06-.06-.12-.1-.06h0Z"/>
        <path class="cls-1" d="m6.19,45.67c-.3.45-.6.9-.87,1.37-.03.05.05.1.08.05.32-.44.62-.89.92-1.34.05-.08-.07-.15-.12-.07h0Z"/>
        <path class="cls-1" d="m2.42,52.02c.1-3.31-.44-6.58-1-9.83-.55-3.22-1.13-6.46-1.14-9.73,0-1.81.18-3.62.63-5.38-.07.03-.14.06-.22.09.94.73,1.2,1.98,1.31,3.1.07.7.08,1.41.12,2.12.04.8.07,1.59.1,2.39.14,3.22.24,6.44.22,9.66,0,1.81-.06,3.62-.1,5.43,0,.09.13.09.14,0,.16-1.64.2-3.29.23-4.94.03-1.63,0-3.26-.03-4.88-.04-1.63-.09-3.26-.16-4.88-.03-.82-.07-1.65-.11-2.47-.03-.74-.05-1.48-.11-2.22-.1-1.28-.36-2.71-1.44-3.54-.08-.06-.22-.05-.25.07-.81,3.15-.74,6.44-.35,9.65.4,3.29,1.11,6.52,1.55,9.8.25,1.84.42,3.71.42,5.57,0,.11.17.11.17,0h0Z"/>
        <path class="cls-1" d="m1.1,31.4c-.26,2.24-.12,4.5.15,6.73.27,2.24.65,4.48.81,6.73.09,1.26.08,2.53.05,3.8,0,.08.13.1.15.02.17-1.11.16-2.23.1-3.35-.06-1.13-.19-2.26-.34-3.38-.3-2.25-.68-4.49-.85-6.76-.09-1.26-.11-2.53.02-3.79,0-.06-.08-.05-.09,0h0Z"/>
        <path class="cls-1" d="m1.73,31.74c-.15.4-.27.81-.36,1.23-.04.21-.08.42-.11.63-.03.2-.06.41-.03.61,0,.04.07.06.08.01.05-.2.06-.41.08-.6.03-.21.06-.43.11-.64.09-.41.2-.82.35-1.21.03-.07-.09-.11-.12-.03h0Z"/>
        <path class="cls-1" d="m2.07,33.09c-.11.42-.22.83-.33,1.25-.1.4-.23.81-.28,1.23,0,.05.07.05.08.01.15-.4.22-.82.32-1.23.1-.41.19-.83.28-1.24,0-.04-.05-.06-.06-.02h0Z"/>
        <path class="cls-1" d="m2.17,34.55c-.08.34-.15.69-.2,1.04-.02.16-.04.32-.06.49-.02.17-.06.36,0,.52,0,.03.06.05.08,0,.06-.14.06-.3.07-.45.01-.18.03-.35.06-.53.05-.35.11-.7.18-1.04.02-.08-.11-.12-.13-.03h0Z"/>
        <path class="cls-1" d="m2.07,36.7c-.04.19-.08.38-.13.57-.04.18-.1.37-.11.56,0,.04.05.04.07,0,.07-.18.09-.38.12-.56.03-.19.07-.38.1-.57,0-.03-.04-.04-.05-.01h0Z"/>
        <path class="cls-1" d="m2.14,37.92c-.07.19-.16.37-.2.57,0,.04.05.07.07.03.1-.18.17-.38.25-.57.01-.03-.01-.07-.04-.07-.03,0-.06.01-.07.04h0Z"/>
      </g>
      <path class="cls-1" d="m8.72,7.8c-.05.07-.1.14-.15.21-.02.03-.04.07-.06.11-.01.02-.02.04-.03.06,0,.02-.01.04-.02.06,0,.04.04.08.07.04.03-.03.05-.06.08-.1.02-.03.04-.07.07-.1.04-.07.09-.13.14-.2.02-.03,0-.07-.02-.08-.02-.02-.06-.02-.08,0h0Z"/>
      <path class="cls-1" d="m8.84,8.08c-.05.07-.11.14-.16.2-.03.04-.06.07-.08.11-.03.04-.07.08-.07.12,0,.03.03.05.06.05.04-.01.07-.06.1-.09.03-.04.06-.07.08-.11.05-.07.1-.14.15-.21.03-.05-.04-.11-.08-.06h0Z"/>
      <path class="cls-1" d="m8.89,8.33l-.17.19s-.06.06-.08.1c-.03.03-.07.07-.08.11,0,.02,0,.03.02.04.01.01.03.01.05,0,.04-.02.07-.06.09-.09.03-.03.06-.06.08-.1.06-.06.11-.13.17-.19.02-.02.02-.05,0-.07-.02-.02-.05-.02-.07,0h0Z"/>
      <path class="cls-1" d="m8.98,8.6c-.05.08-.11.15-.18.21-.03.03-.07.06-.1.09-.02.01-.04.03-.05.04-.02.02-.03.03-.05.05-.03.03,0,.07.04.05.02-.01.04-.02.06-.03.02-.01.04-.03.06-.05.04-.03.07-.07.1-.1.06-.07.12-.16.16-.24.02-.03-.03-.06-.05-.03h0Z"/>
      <path class="cls-1" d="m9.03,8.9c-.08.07-.17.14-.25.21-.04.03-.08.07-.12.1-.02.02-.04.03-.06.05-.02.02-.04.04-.06.07-.03.04.03.08.06.06.03-.01.05-.03.07-.04.02-.02.04-.03.06-.05.04-.04.08-.07.12-.11.08-.07.16-.14.24-.22.02-.02.02-.05,0-.07-.02-.02-.05-.02-.07,0h0Z"/>
      <path class="cls-1" d="m8.21,8.51s0,.04-.02.05c0,0,0,0,0-.01,0,.01-.01.02-.02.04,0,0-.01.02-.01.03,0,0,0,.01,0,.02,0,0,0,0,0-.01,0,.01,0,.02-.01.03,0,.03.02.05.05.05.02,0,.03-.01.04-.02,0,0,0,0,0,0,.01,0,.01-.01.02-.02,0,0,.01-.01.02-.02.02-.03.03-.06.04-.09,0-.02,0-.03,0-.05,0-.01-.02-.02-.04-.03-.02,0-.03,0-.05,0-.01,0-.02.02-.03.04h0Z"/>
      <path class="cls-1" d="m8.41,8.61s0,.02,0,.03c0,0,0,.01,0,.02,0,0,0,0,0,0,0,0,0,0,0,.01,0,0,0,0,0,0,0,0,0,0,.01.01,0,0,0,0,0,0,0,0,.01,0,.02,0,0,0,.01,0,.02,0,0,0,0,0,.01-.01,0,0,0,0,0-.01,0,0,0,0,0-.01,0,0,0,0,0,0,0,0,0-.01,0-.02,0,0,0-.02,0-.03,0,0,0-.01,0-.02,0,0,0-.01-.01-.02,0,0-.01,0-.02-.01,0,0-.01,0-.02,0,0,0,0,0-.01,0,0,0-.02,0-.02.01,0,0-.02.02-.02.04h0Z"/>
      <path class="cls-1" d="m7.17,8.32c-.03.17-.05.34-.07.51-.02.17-.04.34-.04.52,0,.07.11.09.12.02.02-.17.03-.33.04-.5.02-.17.04-.34.06-.51.01-.08-.1-.11-.12-.03h0Z"/>
      <path class="cls-1" d="m7.38,8.3c-.02.14-.04.29-.06.43,0,.07-.02.14-.02.22,0,.07-.03.15.01.21.02.02.05.02.07,0,.05-.05.04-.15.04-.21,0-.07,0-.14,0-.21,0-.14,0-.29,0-.43,0-.03-.05-.04-.06,0h0Z"/>
      <path class="cls-1" d="m7.59,8.15c0,.1-.01.21-.02.31,0,.05,0,.1-.01.15,0,.05-.01.11,0,.16.02.06.1.05.12,0,.01-.03,0-.06.01-.08,0-.03,0-.05,0-.08,0-.05,0-.1,0-.15,0-.1,0-.21.01-.31,0-.08-.11-.08-.12,0h0Z"/>
      <path class="cls-1" d="m7.86,8.16s-.03.09-.02.14c0,.03,0,.05,0,.08,0,.01,0,.02,0,.03,0,.01,0,.03.02.04,0,0,.02.01.03.02.02,0,.05,0,.06-.03.02-.03,0-.06,0-.09,0-.02-.01-.04-.01-.06,0-.01,0-.02,0-.03,0,0,0-.02,0,0,0,0,0-.01,0-.02,0-.02,0-.04,0-.06,0-.02-.02-.04-.03-.04-.02,0-.04,0-.04.03h0Z"/>
      <path class="cls-1" d="m8.8,5.8c-.09.05-.17.13-.22.22-.01.02-.03.07-.02.09,0,.01.02.02.03.02.02,0,.03-.02.05-.04.01-.02.02-.04.04-.06,0,0,.01-.02.02-.03,0,0,0,0,0,0,0,0,0,0,0,0,0,0,0-.01.01-.02.02-.02.04-.04.06-.06,0,0,0,0,0,0,0,0,0,0,0,0,0,0,0,0,0,0,0,0,.01,0,.02-.01.01,0,.02-.02.04-.02.02-.01.03-.04.02-.06-.01-.02-.04-.03-.06-.02h0Z"/>
      <path class="cls-1" d="m8.95,5.81c-.04.06-.08.11-.12.16-.02.03-.05.05-.07.07-.01.01-.03.02-.04.04-.01.01-.03.03-.04.05,0,.02,0,.04,0,.05.01.01.03.02.05.02.02,0,.04-.02.06-.04.01-.01.03-.02.04-.04.03-.03.05-.06.07-.09.05-.06.09-.12.12-.19.02-.04-.04-.08-.07-.04h0Z"/>
      <path class="cls-1" d="m9.06,5.94l-.17.21s-.06.07-.09.1c-.01.02-.03.03-.04.05-.02.02-.03.04-.04.06,0,.02,0,.04,0,.06.01.01.04.02.06,0,.04-.03.06-.07.09-.11.03-.04.06-.08.08-.11.05-.07.11-.15.16-.22.03-.04-.03-.08-.06-.05h0Z"/>
      <path class="cls-1" d="m9.28,6.02c-.09.09-.17.18-.24.27-.04.05-.07.1-.11.15-.03.05-.08.1-.1.16-.02.05.05.09.08.05.04-.04.06-.1.1-.15.03-.05.06-.1.1-.15.07-.1.14-.19.22-.28.03-.03-.02-.08-.05-.05h0Z"/>
      <path class="cls-1" d="m9.46,5.99c-.12.15-.23.3-.33.45-.05.08-.11.15-.16.23-.03.04-.05.08-.08.12-.02.04-.06.08-.07.13,0,.02,0,.04.01.06,0,0,.02.01.02.01.02,0,.04,0,.06-.01.03-.03.05-.08.08-.11.02-.04.05-.08.07-.12.05-.08.1-.16.15-.24.1-.16.21-.31.32-.46.03-.04-.04-.1-.08-.06h0Z"/>
      <path class="cls-1" d="m7.57,5.18s0,0,0,0c0,0,0,0,0,0,0,0-.01.01-.02.02-.01.01-.02.02-.03.04-.02.02-.05.05-.07.07,0,0-.01.01-.02.02,0,0,0,0,0,0,0,0,0,0-.01,0,0,0-.02.01-.03.02,0,0,0,0,0,0,0,0,0,0,0,0-.02.01-.03.02-.05.03-.01.01-.02.02-.03.04-.03.03,0,.07.04.07.02,0,.03,0,.05-.01.02,0,.04-.02.05-.03.03-.02.06-.04.09-.07.05-.05.1-.1.14-.16.01-.02,0-.06-.02-.07-.03-.01-.05,0-.07.02h0Z"/>
      <path class="cls-1" d="m5.36,10.49c0,.52.01,1.03.02,1.55,0,.08.13.08.13,0-.02-.52-.03-1.03-.05-1.55,0-.06-.1-.06-.1,0h0Z"/>
      <path class="cls-1" d="m5.23,11.41c.03.24.05.48.08.71.01.08.15.06.15-.02-.03-.24-.07-.47-.11-.71-.01-.07-.13-.05-.12.02h0Z"/>
      <path class="cls-1" d="m5.51,10.76c0,.1,0,.21,0,.31,0,.05,0,.1,0,.15,0,.05,0,.11,0,.16,0,.05.08.05.09,0,0-.05,0-.11,0-.16,0-.05,0-.1,0-.15,0-.1,0-.21,0-.31,0-.06-.09-.06-.09,0h0Z"/>
      <path class="cls-1" d="m5.65,10.72c-.01.08-.02.16-.02.24,0,.08,0,.17.02.24.02.07.13.05.12-.02,0-.08-.02-.15-.03-.23,0-.08,0-.15,0-.23,0-.05-.07-.06-.08-.01h0Z"/>
      <path class="cls-1" d="m5.85,10.78s.02-.04,0-.04-.02.04,0,.04h0Z"/>
      <path class="cls-1" d="m5.68,12.59c-.04.1-.09.2-.14.3-.03.05-.06.1-.09.14-.03.05-.08.1-.08.15,0,.03.03.05.06.04.06-.02.09-.08.12-.13.03-.05.06-.1.09-.15.06-.1.1-.21.15-.32.01-.03-.01-.06-.04-.07-.03,0-.06.01-.07.04h0Z"/>
      <path class="cls-1" d="m4.97,11.89c.17.35.27.74.32,1.13.03.2.04.39.05.59,0,.18-.02.4.04.57.02.05.09.06.11,0,.06-.18.01-.42,0-.61-.01-.2-.03-.4-.06-.59-.06-.4-.18-.78-.39-1.13-.03-.05-.11,0-.08.05h0Z"/>
      <path class="cls-1" d="m5.09,13.22c.04.25.08.5.1.75.01.12.02.25.02.37,0,.06,0,.11,0,.17,0,.06,0,.13.02.18.02.04.07.04.09,0,.02-.06.01-.12,0-.18,0-.07,0-.13-.01-.2,0-.12-.02-.25-.04-.37-.03-.25-.07-.5-.12-.74,0-.05-.08-.03-.07.02h0Z"/>
      <path class="cls-1" d="m4.89,13.42l.11.95c.02.16.04.31.06.47.02.14.02.3.08.44.02.04.08.03.09-.01.02-.14-.01-.29-.03-.42-.02-.16-.04-.32-.07-.48-.05-.32-.09-.63-.14-.95,0-.06-.11-.04-.1.01h0Z"/>
      <path class="cls-1" d="m5.86,12.91c-.06.11-.11.23-.16.34-.02.06-.04.11-.06.17-.02.05-.06.13-.03.18.01.02.03.02.05.01.05-.03.06-.11.07-.16.02-.06.04-.12.06-.17.04-.11.09-.23.15-.34.02-.05-.05-.09-.07-.04h0Z"/>
      <path class="cls-1" d="m6.16,13.26c-.05.09-.09.17-.14.26-.02.04-.04.08-.06.12-.02.04-.08.11-.02.14.06.03.09-.05.11-.09.02-.04.04-.08.06-.12.04-.09.09-.18.13-.26.03-.05-.05-.1-.08-.05h0Z"/>
      <path class="cls-1" d="m5.69,13.61c-.08.13-.16.26-.22.39-.04.08.07.15.12.07.08-.14.18-.27.3-.36-.03-.02-.06-.05-.09-.07-.04.11-.11.21-.2.29-.05.05.02.15.08.1.1-.07.17-.17.2-.29.02-.07-.08-.11-.12-.05-.01.02-.03.03-.05.05.03,0,.05.01.08.02,0,0,0,0,0-.01,0,0,0,.02,0,.03,0,0,0-.01,0-.01-.02-.03-.04-.05-.06-.08-.06.1-.13.2-.19.3-.06.1-.13.2-.19.3.04.02.07.03.11.05.01-.04.03-.09.04-.13.02-.04.04-.08.07-.11.05-.05-.03-.13-.08-.08-.03.03-.06.07-.09.11-.02.03,0,.07.02.09.03.02.07,0,.09-.02.06-.07.11-.15.17-.22.05-.07.12-.14.15-.22.03-.07,0-.16-.07-.2-.06-.03-.15-.03-.19.04-.02.05,0,.09.04.11.02,0,.04.01.07.02,0-.05-.01-.09-.02-.14-.06.03-.09.1-.09.16,0,.04.03.07.08.08.06,0,.11,0,.17-.03.07-.04.04-.14-.04-.14-.12,0-.18.12-.16.23.02.12.14.17.24.21.03.01.08,0,.09-.04.04-.09,0-.21-.09-.26-.09-.05-.25,0-.25.12,0,.1.12.17.21.14.1-.03.14-.15.14-.25-.01.03-.03.05-.04.08.05-.03.1-.04.15-.05.04,0,.08-.03.08-.07,0-.04-.02-.08-.06-.09-.09-.02-.17,0-.25.05-.02.01-.04.03-.06.06,0,.02,0,.04,0,.07,0,0,0,.02,0,0,0,0,0,.01,0,.02,0,0,0,.02,0,.02,0,0,0,.01,0,0,0,0,0,0,0,0,0,.02-.01,0,0,0,0,0,0,0,0,0,0,0-.01,0,0,0,0,0,0,0,0,0,0,0,0,0,0,0,0,0,0,0,0,0,0,.01,0,.02,0,.03,0,0,0,0,0,0-.01,0,0,0,0,0,0,0,.01,0,.02.01,0,0,0,0,0,0,0,.01,0-.01,0,0,0,0,0,.01,0,0,0,0,0,.01,0,0,.03-.01.06-.02.09-.04-.05-.02-.11-.04-.13-.08,0,0,0,.01,0,0,0,0,0,0,0,0,0,0,0-.02,0-.01,0,0,0-.01,0-.01,0,0,0,0,0,0,0,0,0,.01,0,0,0,0,0,0,0,0,0,0-.02,0,0,0-.01-.05-.03-.1-.04-.14-.03.02-.06.02-.09.02.03.03.05.05.08.08,0-.02,0-.03.01-.03.06-.03.04-.12-.02-.14l-.07-.02s.03.07.04.11c0-.01,0,0-.01,0,0,0,0,0,0,0,0,0,0,0,0,0,0,0,0,0,0,0,0,0,0,0,0,0,0,0,0,0,0,0,0,0,0,0,0,0,0,.05-.04.09-.06.12-.08.11-.15.21-.23.32.04.02.08.04.11.07.02-.03.04-.07.06-.11-.03-.02-.06-.04-.09-.05-.01.02-.02.05-.03.07-.01.02-.03.04-.04.06-.03.04-.05.09-.07.13-.03.07.06.12.11.06.07-.1.13-.2.19-.3.06-.1.12-.21.18-.31.02-.04-.02-.1-.06-.08-.07.03-.09.09-.08.15,0,.02.03.05.06.04.06,0,.1-.03.13-.09-.04-.02-.08-.03-.12-.05-.02.08-.07.16-.14.21.03.03.05.07.08.1.1-.1.17-.22.22-.35,0-.02,0-.06-.03-.07-.03-.01-.05,0-.07,0-.14.11-.26.24-.35.39.04.02.08.05.12.07.06-.14.14-.27.22-.39.05-.07-.07-.14-.12-.07h0Z"/>
      <path class="cls-1" d="m6.52,13.66c-.08.1-.16.21-.23.33-.03.05-.06.11-.09.17-.03.06-.08.13-.07.19,0,.04.05.06.08.04.05-.04.06-.11.09-.16.03-.06.06-.11.09-.17.06-.11.13-.21.21-.31.02-.02.02-.06,0-.08-.02-.02-.06-.02-.08,0h0Z"/>
      <path class="cls-1" d="m6.61,13.87c-.1.14-.2.29-.28.44-.09.15-.17.31-.23.47-.03.07.09.12.12.05.07-.16.13-.32.21-.47.07-.15.16-.31.25-.45.02-.04-.03-.07-.06-.03h0Z"/>
      <path class="cls-1" d="m5.64,14.2c.11-.12.25-.19.41-.21.03,0,.05-.05.05-.08,0-.03-.03-.06-.07-.06-.06,0-.12.01-.18.04-.05.02-.1.06-.14.1-.04.04-.08.09-.1.14-.03.06-.05.13-.04.2,0,.05.04.1.09.11.03,0,.07,0,.11,0,.06-.02.12-.06.17-.11.05-.04.09-.1.1-.16.01-.06,0-.13-.03-.18-.04-.06-.11-.1-.19-.09-.07,0-.13.05-.19.08-.06.04-.12.09-.14.16-.02.06-.02.14.01.19.04.08.13.11.22.09.07-.01.14-.06.2-.11.06-.05.1-.12.09-.19,0-.1-.08-.18-.18-.18-.08,0-.16.04-.22.09-.06.05-.1.15-.07.22.03.09.11.13.2.14.08,0,.15-.03.21-.08.02-.02.04-.04.06-.07.04-.05.05-.12,0-.17-.02-.03-.06-.05-.09-.06-.05-.01-.09,0-.13.02-.05.03-.07.09-.05.14,0,.02.03.04.05.05.03.02.06.02.09.01-.02,0-.02,0-.02,0,0,0,0,0-.02,0,0,0,.01,0,.02,0,.01,0-.03-.01,0,0,.02.01-.02-.02,0,0v-.17s-.03.04-.05.05c0,0-.01.01-.02.02-.02.02.02-.01,0,0,0,0-.01,0-.02.01,0,0,0,0-.01,0,.02-.01.02,0,0,0,0,0-.01,0-.01,0,0,0,.03,0,.01,0,0,0,0,0-.01,0-.01,0,.03,0,.01,0,0,0,0,0-.01,0-.02,0,0,0,0,0,0,0,0,0-.01,0-.01,0,.02.02,0,0-.02-.02.01.02,0,0,0-.01,0,.03,0,.01,0,.03,0,.02,0,.01,0-.02,0,.02,0,.01,0-.03-.01.02,0,0,0,0,0,0,0-.01,0,.02-.01.02,0,0,0,0,.02-.01.02-.02-.02.02-.01.01,0,0,0,0,.01,0,.02-.01,0,0,.02-.01.03-.02.02-.01-.02,0,0,0,0,0,.02,0,.02,0,0,0-.03,0,0,0,.02,0,0,0-.01,0-.02,0,0,0,0,0,0,0-.02-.02-.01,0-.02-.02-.01-.02,0,0,0,0,0-.03,0,0,0,.01,0,0,0,0,0,0,0,0,0,.01,0,.02,0-.02,0,0,0,0,0,0,0,.01,0,.02,0,0,0,0,0,0,0,.01,0,.01,0,.01.02-.02,0,0,0,0,0,0-.01.01,0,0,0,0-.01,0-.02.02.02-.01,0,0,0,0-.02.01-.02.02-.01,0-.02.01-.03.02,0,0,0,0-.01,0,0,0-.03.01-.02,0,.02,0,0,0,0,0-.01,0,0,0,0,0,0,0,0,0,0,0,0,0-.01,0,0,0,0,0,0,0,0,0,0,0,0,0,0,0,0,0,.03.01.01,0-.02,0,.01.02,0,0,0,0,0,0,0,0,0,0,0,0,0,.01,0,0,0,0,0,0,0-.01,0,0,0,.01,0,0,0-.02-.01-.02,0,.02,0,.02,0,.01,0,0,0,0,0-.01,0-.01,0,0,0,.01,0,0,0-.02,0-.03,0-.02,0,0,0,.01,0,0,0-.01,0-.02,0-.02,0,0,0,0,0,0,0-.01,0-.01,0,0,0,0,0-.01.01-.02-.01.01,0,0,0,0,.01-.01.02-.02,0,0,0,0,.02-.01,0,0,0,0,0,0,0,0,0,0,.01,0,.02-.01.03-.02.05-.03.01,0,.02-.01.03-.02,0,0,0,0,.01,0-.02,0,0,0,0,0,0,0,.01,0,.02,0,.01,0-.02,0,0,0,.02,0,0,0,0,0,0,0,.01,0,.01,0,.01,0-.02-.01,0,0,0,0,0,0,0,0-.01,0-.01-.01,0,0,.01.01,0-.02,0,0,0,0,0,.01,0,.02-.01,0,0-.02,0,0,0,0,0,0,0,.01,0,0,0,0,0,.01,0-.01,0-.02,0,0,0,0,0,.02,0,.03,0-.02,0-.02,0,0,0,0,0,0,0,.01,0,.01,0,0,0,0,0,0,0,.01,0,.01,0,0,0,0,0,.01,0,0,0,.01,0,0,0,0-.02.02-.03.03,0,0-.01.01-.02.02.02-.01,0,0,0,0,0,0,0,0-.01,0-.02.01-.04.02-.06.04,0,0-.02.02-.03.01,0,0,.02,0,0,0,0,0,0,0-.01,0-.02,0,.02,0,0,0,0,0,.02,0,.02,0,0,0,.01,0,.02.02,0,0,0,.01,0,.02,0,0,0,0,0-.01,0,0,0-.01,0-.02,0,0,0,0,0,.01,0,0,0,0,0-.01,0-.01,0-.02,0-.03,0-.01,0-.02.01-.04,0,0,0,0,0-.01,0-.02,0,.01,0,0,.01-.02.02-.04.03-.06,0,0,0,0,0-.01,0,0,0,0,0,0,0,0,0,0,0,0,0,0,.01-.02.02-.03,0,0,.02-.02.02-.02,0,0,0,0,.01-.01,0,0,.02-.01,0,0,.02-.01.04-.03.06-.04,0,0,.02,0,.03-.01,0,0,0,0,.01,0,.02,0,0,0,0,0,0,0,.02,0,.03,0,0,0,0,0,.01,0,0,0,.02,0,0,0,0-.05-.01-.09-.02-.14-.17.04-.33.14-.45.27-.02.02-.02.05,0,.07.02.02.05.02.07,0h0Z"/>
      <path class="cls-1" d="m3.85,13.24s-.08,0-.12.02c-.03.02-.06.06-.07.1-.02.08.03.16.11.19.03.01.07.01.1,0,.05-.02.08-.05.1-.09.04-.06.08-.13.07-.21,0-.04-.02-.08-.05-.1-.03-.03-.06-.04-.1-.04-.07,0-.14.03-.17.09-.04.07-.02.16.04.22.06.06.15.07.22.03.08-.04.11-.14.1-.22,0-.04-.04-.09-.08-.11-.05-.03-.12-.03-.16.02-.03.04-.04.09,0,.13.08.08.24.04.26-.07-.06,0-.13-.02-.19-.03,0,0,0,0,0,0,0,0,0-.02,0-.03,0,0,0,.01,0,.02,0,0,0-.02,0-.02,0,0,0,.01-.01.02,0,0,.01-.01.02-.02,0,0-.01.01-.02.02-.01.02-.02.03-.03.05-.01.03,0,.08.04.1.03.01.05.02.08.01.03,0,.05-.03.07-.05.02-.03.04-.07.04-.11,0-.05-.04-.09-.08-.1-.04,0-.1.02-.11.07,0,0,0,0,0,.01,0,0,0-.02,0-.02,0,0,0,0,0,.01,0,0,.01-.01.02-.02,0,0,0,0-.01.01,0,0,.01-.01.02-.02,0,0,0,0-.01,0,0,0,.02,0,.02,0,0,0-.01,0-.02,0,0,0,.02,0,.03,0,0,0-.01,0-.02,0,0,0,.02,0,.02,0,0,0,0,0-.01,0,0,0,.01,0,.02,0,0,0-.02-.01,0,0,0,.04,0,.07.01.11-.01.01-.01.02,0,.01,0,0,0,0-.01,0,0,0-.02,0,0,0,0,0-.02,0-.02,0,0,0,0,0,.01,0,0,0-.02,0-.02,0,0,0,.01,0,.01,0,0,0-.02-.01-.01,0,0,0,0,0,0,0,0,0-.02-.02,0,0,0,0-.01-.02,0,0,0,0,0,.01,0,0,0-.01,0,0,0,0,0,0,0,0,0,.01,0,0,0-.02,0-.02,0,.01,0,.02,0,.03,0,0,0-.02,0-.02,0,0,0,.02,0,.02,0,0,0,0,0,0,0,0,0-.01,0-.01,0,0,0,.01,0,.01,0,0-.01.01,0,0,0-.01,0,0,0,0,0,0,0,0,0,0,0,0,.01,0,0,0,0,0,0,0,0,0,0,0,0,0,0,0-.01,0,.02,0,0,0,0,0-.01,0-.01,0,0,0,.02,0,.01,0,0,0,0,0,0,0,0,0,0,0,0,0,0,0,.02,0,.01,0,0,0,0,0-.01,0-.01,0,.02,0,0,0,0,0,0,0-.01,0,0,0,.01,0,0,0,0,0,0,0,0,0,0,0,0,0,0,0,0,0,0,0,0,0,0,0,.01.02,0,0,0,0,0,0,0-.01,0,0,0,0,0,0,0,0,0,.01,0,.01,0,0,0,0,0-.01,0,0,0,0,0,0,0,0,0,.01,0,.01,0,0,0-.01,0-.01,0,0,0,.01,0,.01,0,0,0,0,0,0,0,0,0-.02,0,0,0,.01,0,0,0,0,0-.01-.01.01,0,0,0,0,0,0,0,0,0,0-.02.01,0,0,0,0,0,0,0,0,0,0,0,0,0,0,0,0-.02,0,0,0,0,0,.01,0,.02,0,0,0-.01,0-.01,0,0,0,0,0,0,0,0,0,0,0,.01,0,0,0,0,0,0,0,0,0-.01,0-.01,0,0,0,0,0,0,0,0,0,0,0,0,0,0,0-.02,0-.01,0,0,0,0,0,0,0,.01,0-.01-.01,0,0,0,0,0,0,0,0,0,0-.01-.01,0,0,0,0,0,0,0,0,0,0,0,0,0,0,0,0,0-.01,0,0,0,0,0,0,0,.01,0,0,0,0,0,0,0,0,0,0,0,0,0,0,0,0,0,.01,0,0,0,0,0,0,0,0,0,0,0,0,0,0,0,.02,0,.03,0,0,0,0,0,0,0,0,0,0,0,0,0,0,0,.01,0,.02,0,.02-.02.04-.03.05,0,.01,0,0,0,0,0,0,0,0,0,.01,0,0,0,0,0,0,0,0,0,0,0,0,0,0-.01,0-.01,0,0,0,0,0,0,0,0,0,0,0,0,0,0,0,0,0,0,0,0,0,.02,0,0,0,0,0,0,0-.01,0,0,0,0,0,0,0,0,0,.02,0,0,0,0,0,0,0-.01,0,0,0,0,0,0,0,0,0,0,0,0,0,0,0-.02-.01,0,0,.01,0,0,0,0,0,0,0,0,0,0,0,0,0,0,0,0,0,0,0,0,0,0,0,0,0,0,.01,0,0,0,0,0,0,0,0,0,0,0,0,0,0,0,0,0-.02,0,0,0,.01,0,0,0,0,0-.01,0,.01,0,0,0,0,0,0,0,0,0,0,0,0,0,0,0,0,0,0,.01-.01,0,0,0,0,0,0,0,0,0,0,0,0,0,0,0,0,0,0,0,0-.01,0,0,0,0,0,0,0,0,0,0,0,0,0,0,0,0,0,.02,0,0,0,.02,0,.03,0,.05,0,.01,0,.03-.02.03-.04,0-.03,0-.08-.05-.08h0Z"/>
      <path class="cls-1" d="m3.1,11.67s-.02.05-.02.08c0,.03,0,.06.02.08.02.05.06.08.11.09.05.02.11,0,.15-.03.05-.04.08-.09.09-.16,0-.03-.02-.06-.04-.07-.07-.04-.16-.01-.2.05-.04.07,0,.17.06.2.03.02.07.02.11,0,.01,0,.03-.02.04-.03.02-.02.04-.05.05-.08.02-.04.02-.1,0-.14-.02-.06-.06-.11-.11-.13-.02-.01-.05-.02-.08-.01-.02,0-.05.02-.06.05-.02.04-.03.07-.03.11,0,.04,0,.08,0,.12,0,.03.02.06.03.1.02.04.05.08.1.1,0,0-.01,0-.02,0,.02,0,.03.01.05.02.05.01.1-.03.09-.09,0-.01,0-.02,0-.03,0,0,0,.02,0,.02,0-.03,0-.04-.02-.07,0,0,0-.02-.01-.03,0,0,0,.02.01.02-.01-.03-.02-.06-.02-.09,0,0,0,.02,0,.03,0-.02,0-.05,0-.07v.03s0-.04.01-.06l-.12.07s0,0,0,0c0,0-.02,0-.02-.01,0,0,.02,0,.02.01l-.02-.02s.01.01.02.02c0,0-.01-.01-.02-.02,0,0,.01.02.02.03,0,0,0-.02-.01-.02,0,.01,0,.03.01.04,0,0,0-.02,0-.03,0,.01,0,.02,0,.04,0,0,0-.02,0-.03,0,.01,0,.02,0,.04,0,0,0-.02,0-.02,0,0,0,.02-.01.03,0,0,0-.01.01-.02,0,0-.01.01-.02.02.03,0,.06-.02.09-.02,0,0,0,0-.01,0,0,0,.01,0,.02,0,0,0,0,0,0,0,0,0,.02.02,0,0,0,0,0,.02,0,0,0,0,0,0,0,0,0,0,0,.01,0,.02,0,0,0,0,0-.01,0,0,0,.02,0,.02,0,0,0,0,0-.01,0,0,0,.02,0,.02,0-.01,0-.02,0,0,0-.01-.02.02,0,0,0,0-.02.02,0,0-.02,0-.02,0-.01,0,0,0,0,0,0,0h-.02s0,0,.01,0c0,0-.02,0-.02,0,0,0,.02,0,0,0-.01-.02-.03-.05-.04-.07,0,0,0,.01,0,.02,0,0,0-.02,0-.02,0,0,0,.02,0,.02,0,0,0-.02,0,0,0,0,0,0,0,0,0,0-.01,0,0,0,0,0,0,0,0,0,0,0,0,0,0,0,0,0,.02-.01,0,0,0,0-.02.01,0,0,.01,0,0,0,0,0,0,0-.02,0,0,0,.02,0,0,0,0,0,0,0,.02,0,0,0,0,0,0,0,0,0,0,0,.02,0,0,0,0,0,0,0,0,0,0,0,0,0,0,0,0,0,0,0,0,0,0,0,0,0,0,0,0,0,.01.02,0,0,0,0,0-.01,0-.01,0,0,0,.02,0,0,0,0,0,0,0,0,0,0,0,0,0,0,0,0,0,.02,0,0,0,0,0,0,0,0,0,0,0,0,0,0,0,0,0-.01,0-.02,0-.02,0-.05,0-.06,0-.01-.02-.03-.04-.03-.03-.01-.08,0-.1.03h0Z"/>
      <path class="cls-1" d="m6.21,7.64s-.06.06-.1.08c-.02.01-.03.03-.05.04-.02.02-.04.03-.06.06,0,.02-.01.04,0,.06,0,.02.02.04.03.04.02,0,.04.02.06.01,0,0,.02,0,.02,0,0,0-.02,0-.03,0,.04,0,.07,0,.1-.03,0,0,.01-.03,0-.04,0-.01-.02-.02-.03-.01,0,0,0,0,0,0,0,0,0,0,0,0-.01,0,0,0,0,0,0,0,0,0,0,0,0,0,0,0,0,0,0,0,0,0,0,0,0,0,0,0,0,0,0,0,0,0,0,0,0,0,0,0,0,0,0,0,0,0,0,0,0,0,0,.02.01.02,0,0,0,0,0,0v.02s0-.02,0-.03c0,0,0,0,0-.01,0,.03-.02.07-.03.1.01,0,.03-.02.04-.03,0,0,.02-.01.02-.02l.05-.04s.06-.06.1-.09c.03-.02.03-.08,0-.1-.01-.01-.03-.02-.05-.02-.02,0-.04,0-.05.02h0Z"/>
      <path class="cls-1" d="m6.41,7.76c-.09.03-.17.07-.24.12-.04.03-.07.06-.11.09-.04.04-.07.08-.07.14,0,.03.03.06.06.05.03,0,.05-.02.06-.04,0,0,.02-.02.02-.03.01-.02,0,0,0,0,0,0,0,0,.01-.01.03-.03.06-.06.09-.09,0,0,.02-.01.02-.02,0,0,0,0,.01,0,0,0,0,0,0,0,.02-.01.03-.02.05-.04.02-.01.03-.02.05-.03.02-.01.04-.02.05-.02.03-.01.05-.04.04-.07,0-.03-.04-.05-.07-.04h0Z"/>
      <path class="cls-1" d="m6.27,7.91c-.09.02-.19.09-.22.18-.01.03.02.08.06.08.05,0,.09-.01.14-.03.02,0,.04-.02.06-.02.01,0,.02-.01.03-.02,0,0,.02,0,.03,0,.05-.02.03-.09-.02-.08-.08.01-.15.07-.21.12-.03.03-.06.06-.08.09-.01.02-.02.03-.03.05,0,.02-.02.04,0,.06,0,0,0,.02.01.03,0,.01.02.03.04.02.03,0,.05-.01.07-.04,0-.01.02-.03.03-.05,0-.02.02-.03.03-.04,0,0,0,0,0-.01,0,0,0,0,0,0,0,0,.01-.01.02-.02.02-.03.05-.05.07-.07,0,0,0,0,0,0,0,0,0,0,0,0,0,0,0,0,.01,0,0,0,.01,0,.02-.01.02-.01.03-.02.05-.03-.02-.02-.04-.05-.05-.07,0,0-.01.01-.02.02,0,0-.02,0-.02,0-.02,0-.04.01-.06.01-.02,0-.03,0-.05,0-.02,0-.03,0-.05,0,.01.03.02.06.04.09.01-.02.02-.03.03-.05,0,0,0,0,0,0,0,0,0,0,0-.01,0,0,.01-.01.02-.02,0,0,0,0,0,0,.01-.01,0,0,0,0,0,0,.01,0,.02-.01,0,0,.02,0,.02-.01,0,0,0,0,0,0,0,0,.01,0,.02,0,.03,0,.05-.04.04-.07,0-.03-.04-.04-.07-.04h0Z"/>
      <path class="cls-1" d="m6.55,11.18c-.02-.06-.07-.1-.13-.12-.06-.02-.12-.01-.18.02-.06.03-.1.1-.1.17,0,.07.04.14.09.18.03.03.07.05.11.05.03,0,.05,0,.08,0,.02,0,.03-.01.05-.02,0,0,.01-.02.02-.03.02-.03,0-.08-.04-.09-.01,0-.03,0-.04,0,0,0-.02,0-.03,0,0,0,.01,0,.02,0-.02,0-.03,0-.05-.01.02,0,.01,0,0,0,0,0,0,0-.01,0,0,0,0,0-.01,0-.01,0,.02.01,0,0,0,0-.01-.01-.02-.02-.01-.01,0,.01,0,0,0,0,0,0,0-.01,0,0,0,0,0-.01,0-.01,0,.02,0,0,0,0,0-.02,0-.03,0,0,0,.01,0,.02,0-.01,0-.02,0-.03,0,0,0,.01,0,.02,0,0,0-.02,0-.02,0-.01,0,.02,0,0,0,0,0,0,0-.01,0,0,0,0,0,0,0-.01-.01.02,0,0,0,0,0,0,.01-.01,0,0,.01-.01,0,0-.01,0,0,0,0,0,0,0,.01,0,.02,0,.02,0-.02,0,0,0,0,0,0,0,0,0,0,0,.01,0,.02,0,0,0,.01,0,.02,0,.01,0-.02,0,0,0,0,0,0,0,.01,0,0,0,.01,0,.02,0,.01,0,0,0,0,0,0,0,0,0,.01,0,0,0,0,0,0,0,.01,0-.01,0,0,0,0,0,.01,0,.02,0,.01,0,0,0,0,0,0,0,0,0,0,0,0,0,0,0,0,0,0,0,0,0,0,0,0,0,0,0,0,0,.01.02.04.03.06.02.02,0,.04-.04.03-.06h0Z"/>
      <path class="cls-1" d="m6.41,11.3s.02.09.05.11c.03.03.08.05.13.04.04,0,.08-.04.1-.07.01-.02.02-.04.02-.07,0-.02,0-.05-.01-.07-.02-.04-.07-.05-.11-.03-.04.03-.06.09-.02.13.02.02.05.03.08.01.03-.01.04-.04.04-.06,0,0,0,0,0,0,0,0,0,.01,0,.02,0,0,0,0,0,0,0,0,0,.01,0,.02,0,0,0-.02.01-.03,0,0,0,.01,0,.02,0,0,0,0,0-.01,0,0,0,0-.01.01,0,0,0,0,0,0,.03-.02.03-.07,0-.09-.02-.03-.06-.03-.09-.02-.02,0-.03.03-.04.04-.01.02-.02.05,0,.08.03-.03.07-.05.1-.08,0,0,0,0,0,0,0,0,0,0,.01.01,0,0,0,0,0,0,0,0,0,0,.01.01,0,0,0,0,0,0,0,0,0,.01,0,.02,0,0,0,0,0,0,0,0,0,.01,0,.02,0,0,0,0,0,0,0,0,0,.01,0,.02,0,0,0,0,0,0,0,0,0,.01,0,.02,0,0,0,0,0,0,0,0,0,0-.01.01,0,0,0,0,0,0,0,0,0,0-.01.01,0,0,0,0,0,0,0,0-.01,0-.02,0,0,0,0,0,0,0,0,0-.01,0-.02,0,0,0,0,0,0,0,0,0-.01,0-.02,0,0,0,0,0,0,0,0,0-.01,0-.02,0,0,0,0,0,0,0,0,0,0,0-.01,0,0,0,0,0,0,0,0,0,0,0,0-.01,0,0,0,0,0,.01,0,0,0,0,0-.01,0,0,0,0,0,0v-.02s0,.01,0,.02c0,0,0-.01,0-.02,0,0,0,.02,0,.02,0,0,0,0,0-.01,0,0,0,.01,0,.02,0,0,0,0,0,0,0,0,0,0,0,0,0,0,0,0,0,0,0,0,0,0,0,0,0,0,.01,0,0,0,0,0-.01,0-.02,0,0,0,0,0,.01,0,0,0-.01,0-.02,0,0,0,0,0,.01,0,0,0-.01,0-.02,0,0,0,0,0,.01,0,0,0,0,0-.01,0,0,0,0,0,0,0,.01,0,0,0,0,0,0,0,0,0,0,0,0,0,0,0,0,0,0,0,0,0,0,0,0,0,0,0,0,0,0,0,0,0,0,0,0,0,0,0,0,0,0,0,0-.01,0-.01,0,0,0,.01,0,0,0,0,0,0,0,0,0,0,0-.01,0-.02,0,0,0,0,0,.01,0,0,0-.01,0-.02,0-.03-.03-.05-.05-.05-.03,0-.05.02-.05.05h0Z"/>
      <path class="cls-1" d="m8.57,11.47s-.03.05-.04.08c0,.02-.01.03-.01.05,0,.02,0,.03.01.05.02.03.05.05.09.05.02,0,.05,0,.07-.01.01,0,.03-.01.04-.02.01,0,.03-.02.04-.03,0,0,.01-.01.02-.02,0-.01.02-.02.03-.04,0-.01.01-.03.02-.04,0,0,0-.02,0-.02,0-.02,0-.04,0-.05,0-.02-.01-.03-.03-.04-.01-.01-.03-.02-.04-.03-.02,0-.04,0-.05,0,0,0-.02,0-.03.01,0,0,.02,0,.02-.01-.02,0-.04.01-.06.03-.02.01-.04.03-.05.04-.01.02-.03.03-.04.05,0,0,0,0,0,0,0,.02-.01.03-.01.05,0,0,0,0,0,0,0,.01,0,.03,0,.04,0,.02.01.03.02.04.01.01.02.02.04.02.02,0,.03,0,.05,0,.02,0,.03-.01.04-.02,0,0,0,0,.01,0l-.02.02s0,0,0,0c0,0,0,0,.01,0,.01,0,.02-.02.03-.03,0,0,0,0,0,0,0,0,0-.01.01-.02,0,0-.01.01-.02.02.01-.02.03-.03.04-.04,0,0-.01.01-.02.02.01,0,.02-.02.04-.03,0,0-.01.01-.02.02,0,0,.01-.01.02-.01-.05-.04-.1-.08-.15-.12,0,.01,0,.02,0,.03,0,0,0-.02.01-.02,0,.01-.01.02-.02.03,0,0,.01-.01.02-.02,0,0-.02.02-.02.02,0,0,.01-.01.02-.02,0,0-.02.01-.03.02,0,0,.02,0,.02-.01-.01,0-.02,0-.03,0,0,0,.02,0,.03,0,0,0,0,0,0,0,.03.05.06.1.09.15.01-.03.03-.06.04-.08,0-.01.01-.02.01-.04,0-.01,0-.03,0-.04,0-.01,0-.02-.02-.03,0-.01-.02-.02-.03-.03-.02-.01-.05-.02-.08-.01-.02,0-.05.02-.06.05h0Z"/>
      <path class="cls-1" d="m5.69,17.21c0,.15-.01.29-.02.44,0,.07,0,.14,0,.21,0,.07-.02.16.02.22.02.02.06.04.08.01.05-.06.03-.15.03-.22,0-.07,0-.14,0-.21,0-.15,0-.3,0-.45,0-.07-.11-.07-.11,0h0Z"/>
      <path class="cls-1" d="m5.53,17.62c-.01.2-.03.39-.04.59,0,.05.08.05.08,0,.01-.2.02-.39.04-.59,0-.05-.07-.05-.08,0h0Z"/>
      <path class="cls-1" d="m5.29,17.93c-.02.08-.04.17-.05.25,0,.04,0,.08,0,.12,0,.04,0,.1.02.13.01.01.04.02.06,0,.02-.02.02-.04.02-.06,0-.02,0-.04,0-.06,0-.04,0-.08,0-.12,0-.08.02-.16.04-.24.01-.05-.07-.08-.08-.02h0Z"/>
      <path class="cls-1" d="m5.1,18.08c0,.08-.02.16-.02.24,0,.08-.02.16-.02.24,0,.05.08.07.09.01.02-.08.02-.17.02-.25,0-.08,0-.17.01-.25,0-.06-.08-.05-.09,0h0Z"/>
      <path class="cls-1" d="m6.12,18.35c-.13.19-.25.39-.36.6-.05.1-.1.2-.15.31-.04.09-.11.21-.09.31,0,.02.03.03.05.02.08-.06.12-.18.16-.27.05-.1.1-.21.15-.31.1-.2.22-.4.34-.59.04-.06-.06-.12-.1-.06h0Z"/>
      <path class="cls-1" d="m6.2,18.61c-.06.12-.13.25-.18.38-.03.06-.05.13-.08.19-.01.03-.02.06-.04.09-.01.03-.03.07-.02.1,0,.02.04.04.06.02.03-.02.04-.05.05-.08.01-.03.02-.07.04-.1.02-.06.05-.12.07-.18.05-.13.1-.26.16-.38.02-.04-.04-.08-.06-.04h0Z"/>
      <path class="cls-1" d="m6.59,18.41c-.04.08-.08.17-.13.25-.04.08-.09.17-.12.26,0,.02,0,.05.02.06.02.01.05,0,.06,0,.01-.02.03-.04.04-.06.01-.02.02-.04.03-.06.02-.04.04-.08.06-.13.04-.08.08-.17.12-.25.01-.03,0-.06-.02-.08-.03-.01-.06,0-.08.02h0Z"/>
      <path class="cls-1" d="m5,19.28c-.08.18-.16.36-.24.54-.04.09-.08.17-.11.26-.02.04-.04.09-.06.13-.02.04-.04.08-.03.13,0,.02.04.04.06.02.04-.03.05-.06.07-.1l.06-.14.11-.26.23-.54s-.06-.08-.08-.03h0Z"/>
      <path class="cls-1" d="m4.2,19.58c.01.19.04.39.08.58.02.09.04.18.06.28.02.08.04.21.11.26.03.02.06,0,.07-.03.02-.04,0-.09-.01-.13-.01-.05-.03-.09-.04-.14-.03-.09-.05-.18-.07-.26-.04-.18-.07-.37-.09-.55,0-.07-.12-.07-.12,0h0Z"/>
      <path class="cls-1" d="m3.97,20.78c.06.07.11.13.17.2.03.03.05.06.08.1.03.03.06.08.1.09.02,0,.04,0,.04-.03,0-.03,0-.04-.02-.06-.01-.02-.03-.03-.04-.05-.03-.03-.06-.07-.09-.1-.06-.07-.11-.13-.17-.2-.02-.02-.05-.02-.06,0-.02.02-.02.04,0,.06h0Z"/>
      <path class="cls-1" d="m3.99,21.04c.05.09.11.17.16.26.03.04.05.08.08.12.01.02.03.04.04.07.02.02.03.04.06.05.02.02.05-.01.04-.03,0-.03-.01-.05-.03-.07-.01-.02-.03-.04-.04-.06-.03-.04-.06-.08-.09-.13-.06-.08-.11-.16-.17-.25-.03-.04-.09,0-.06.04h0Z"/>
      <path class="cls-1" d="m4.07,21.57s.05.05.07.07c.02.02.04.05.06.08.02.03.04.06.05.08,0,.01.02.03.02.04,0,0,0,.01.01.02,0,.01.02.02.03.02.02.01.05,0,.06-.02,0-.01,0-.03,0-.04,0,0,0-.02-.01-.03,0-.02-.02-.03-.03-.05-.02-.03-.04-.06-.06-.09-.04-.06-.09-.11-.14-.16-.02-.02-.05-.02-.07,0-.02.02-.02.05,0,.07h0Z"/>
      <path class="cls-1" d="m4.01,21.94s.07.09.11.14c.02.02.03.05.05.07,0,.01.02.02.03.03.01.01.03.02.05.03.02.01.04,0,.06,0,.02-.01.03-.04.02-.06,0-.02-.01-.04-.02-.05,0-.01-.02-.02-.02-.03-.02-.03-.04-.05-.07-.08l-.12-.14s-.07-.02-.09,0c-.03.03-.02.06,0,.09h0Z"/>
      <path class="cls-1" d="m4.77,21.32c-.13.17-.28.33-.42.49-.01.01-.01.03,0,.05,0,.01.03.02.05,0,.09-.07.17-.15.25-.23.07-.09.14-.18.21-.27.01-.02,0-.05-.02-.06-.02-.01-.05,0-.06.02h0Z"/>
      <path class="cls-1" d="m4.86,21.55c-.1.08-.19.17-.28.26-.04.05-.08.09-.12.14-.02.03-.04.05-.06.08-.02.03-.04.06-.04.1,0,.04.04.06.07.04.03-.02.05-.04.07-.07.02-.02.03-.05.05-.07.04-.05.07-.1.11-.14.08-.1.17-.18.26-.27.02-.02.02-.05,0-.06-.02-.02-.04-.01-.06,0h0Z"/>
      <path class="cls-1" d="m4.99,21.79c-.09.1-.19.2-.28.3-.05.05-.09.1-.14.15-.02.03-.05.05-.07.08-.02.03-.05.05-.06.09-.01.04.04.08.07.06.03-.02.05-.05.07-.07.02-.02.04-.05.06-.07.04-.05.09-.11.13-.16.09-.11.17-.21.26-.32.03-.03-.02-.08-.05-.05h0Z"/>
      <path class="cls-1" d="m4.94,22.21c-.08.09-.16.18-.25.27-.04.04-.08.09-.12.13-.02.02-.04.04-.06.06-.03.03-.04.05-.04.09,0,.02.02.04.03.03.04,0,.06-.01.08-.04.02-.02.04-.04.06-.06.04-.05.08-.09.12-.14.08-.09.16-.18.24-.27.05-.05-.03-.13-.08-.08h0Z"/>
      <path class="cls-1" d="m5.2,22.3c-.06.06-.11.12-.16.19-.03.03-.05.06-.08.1-.03.03-.07.07-.07.11,0,.04.03.06.06.05.04-.02.06-.06.09-.1.02-.03.05-.07.07-.1.05-.07.09-.14.13-.21.02-.03-.02-.06-.05-.04h0Z"/>
      <path class="cls-1" d="m7.84,18.19c-.21.2-.43.4-.65.6-.11.1-.22.19-.33.28-.06.05-.11.09-.17.14-.05.04-.12.08-.13.15,0,.03.01.05.04.05.06,0,.11-.05.16-.09.06-.05.12-.1.18-.15.11-.1.23-.19.34-.29.22-.2.44-.41.65-.62.05-.05-.03-.13-.08-.08h0Z"/>
      <path class="cls-1" d="m7.55,18.83c-.1.1-.2.19-.3.29-.05.05-.1.1-.15.14-.05.05-.12.1-.13.17,0,.03.03.05.05.05.07,0,.12-.08.17-.12.05-.05.1-.1.15-.15.1-.1.2-.19.3-.29.06-.06-.03-.15-.09-.09h0Z"/>
      <path class="cls-1" d="m7.48,19.28c-.07.04-.13.09-.18.14-.03.03-.05.06-.08.09-.03.04-.07.09-.04.14,0,.01.03.03.05.03.02,0,.04,0,.05-.02,0,0,.01-.02.02-.03,0-.02.02-.03.03-.04,0-.01.02-.03.03-.04,0-.01,0,0,0,0,0,0,0,0,0-.01,0,0,.01-.01.02-.02.02-.03.05-.05.07-.07,0,0,.01-.01.02-.02,0,0,0,0,0,0,0,0,0,0,0,0,.01-.01.03-.02.05-.03.03-.02.04-.05.02-.08-.02-.03-.05-.04-.08-.02h0Z"/>
      <path class="cls-1" d="m7.55,19.59s-.07.08-.11.12c-.02.02-.04.04-.05.06-.02.02-.04.05-.06.07,0,.02-.01.04,0,.06,0,0,.01.01.02.02.02.01.04.01.06,0,.03-.02.05-.04.06-.06.02-.02.03-.04.05-.06.03-.04.07-.08.1-.12.02-.02.02-.05,0-.08-.02-.02-.05-.02-.08,0h0Z"/>
      <path class="cls-1" d="m8.91,14.17c-.24.3-.49.6-.73.9-.12.15-.24.3-.36.44-.06.07-.12.15-.18.22-.06.07-.13.14-.17.22-.03.05.04.1.08.06.07-.06.12-.15.18-.22.06-.08.12-.15.18-.23l.35-.45c.23-.3.47-.6.7-.9.03-.03-.02-.08-.05-.05h0Z"/>
      <path class="cls-1" d="m8.51,15c-.21.17-.4.36-.59.56-.09.1-.18.2-.26.3-.04.05-.09.11-.13.16-.04.05-.09.1-.1.17,0,.04.03.07.07.05.06-.03.09-.08.13-.13.04-.05.08-.11.13-.16.09-.1.17-.21.27-.31.18-.2.37-.38.58-.56.06-.05-.02-.13-.08-.08h0Z"/>
      <path class="cls-1" d="m8.4,15.35c-.1.1-.19.2-.29.29-.05.05-.1.1-.14.14-.02.02-.05.05-.07.07-.01.01-.02.03-.03.04-.01.02-.01.03-.01.05,0,.02.02.04.04.04.02,0,.03,0,.05-.01.01,0,.03-.02.04-.03.02-.02.05-.05.07-.07.05-.05.1-.1.14-.15.09-.1.19-.2.28-.3.05-.05-.03-.12-.08-.08h0Z"/>
      <path class="cls-1" d="m8.61,16.32c-.22.27-.44.55-.64.83-.1.14-.2.28-.29.43-.09.15-.2.3-.26.46-.02.05.06.1.1.06.11-.12.19-.28.27-.42.09-.15.19-.29.28-.43.2-.29.41-.57.63-.84.05-.06-.04-.15-.09-.09h0Z"/>
      <path class="cls-1" d="m4.34,15.49c0,.12,0,.23,0,.35,0,.06,0,.12,0,.17,0,.05,0,.12.01.17,0,.03.05.03.06,0,.02-.05.01-.11.01-.17,0-.06,0-.12,0-.17v-.35s-.08-.05-.08,0h0Z"/>
      <path class="cls-1" d="m4.51,15.79c0,.18-.01.35-.01.53,0,.09,0,.18,0,.26,0,.08,0,.17.04.25,0,.02.05.03.06,0,.02-.08,0-.17,0-.25,0-.09-.01-.18-.02-.26,0-.18,0-.35,0-.53,0-.05-.07-.05-.07,0h0Z"/>
      <path class="cls-1" d="m4.74,15.85c-.02.26-.03.52-.05.78,0,.13-.01.25-.02.38,0,.06,0,.13,0,.19,0,.06-.01.11.02.16.02.02.04.02.06,0,.04-.05.03-.11.03-.16,0-.06,0-.12,0-.18,0-.13.01-.26.01-.4,0-.26,0-.52.01-.78,0-.04-.06-.04-.06,0h0Z"/>
      <path class="cls-1" d="m4.94,16.31c-.03.22-.06.43-.08.65-.01.11-.03.22-.04.33,0,.05-.01.1-.02.15,0,.05-.02.11,0,.16.01.04.06.04.08.01.05-.08.04-.21.05-.3.01-.11.02-.23.03-.34.02-.22.04-.44.06-.66,0-.05-.08-.05-.08,0h0Z"/>
      <path class="cls-1" d="m3.84,18.52c.05.26.08.52.11.78.01.13.03.26.04.38,0,.12,0,.25.04.36,0,.03.07.04.07,0,.02-.13,0-.26-.01-.39-.01-.13-.03-.26-.04-.38-.03-.26-.08-.52-.13-.77,0-.05-.08-.03-.07.02h0Z"/>
      <path class="cls-1" d="m3.34,18.55c.1.31.22.63.35.93.07.15.13.3.21.45.04.07.07.15.11.22.03.06.06.14.12.18.02.01.05,0,.05-.03,0-.07-.05-.14-.08-.2-.04-.07-.07-.14-.1-.21-.07-.14-.14-.29-.2-.44-.13-.31-.26-.62-.37-.93-.02-.05-.11-.03-.09.02h0Z"/>
      <path class="cls-1" d="m3.75,18.77c.04.21.07.42.11.63l.06.3c.02.09.02.21.08.29.02.02.05,0,.06-.01.03-.09-.02-.21-.04-.3-.02-.1-.04-.2-.07-.3-.05-.21-.1-.41-.15-.62,0-.04-.06-.02-.06.02h0Z"/>
      <path class="cls-1" d="m4.59,18.19c0,.12-.03.25-.04.37,0,.13-.02.26-.02.39,0,.12,0,.25,0,.37,0,.06,0,.12,0,.19,0,.06,0,.11.03.17.02.03.07.03.08,0,.05-.1.02-.23.02-.34,0-.13,0-.26,0-.39,0-.12,0-.25,0-.37,0-.13-.01-.26,0-.39,0-.04-.06-.04-.06,0h0Z"/>
      <path class="cls-1" d="m2.62,15.7c.02.08.05.16.08.24.02.04.03.08.05.11.02.04.04.09.08.11.03.01.05-.02.06-.04,0-.03-.01-.05-.02-.07,0-.02-.02-.03-.03-.05-.02-.03-.03-.07-.05-.1-.03-.07-.06-.15-.08-.23-.02-.07-.12-.04-.1.03h0Z"/>
      <path class="cls-1" d="m2.82,15.62c-.01.06,0,.12.01.18.01.03.02.06.04.08.03.03.08.09.12.06,0,0-.01,0-.02,0,0,0,.01,0,.02,0,.02,0,.03-.03.02-.04,0,0,0,0,0,0v.02s-.03-.07-.05-.1c0,0-.01-.01-.01-.01,0,0,0,0,0,0,0,0,0,0,0,0,0-.01-.01-.02-.02-.03,0,0,0-.01,0-.02,0,0,0,0,0,0,0,0,0,0,0,0,0-.01,0-.02-.01-.04,0,0,0-.01,0-.02,0,0,0,0,0,0,0,0,0,0,0,0,0-.01,0-.03,0-.04,0-.02-.02-.04-.04-.04-.02,0-.04,0-.04.03h0Z"/>
      <path class="cls-1" d="m3,15.53s.03.08.04.11c0,.02.01.04.02.06,0,.03.02.06.04.07.01,0,.03,0,.05,0,.02,0,.02-.02.03-.03.01-.03,0-.05-.01-.08l-.02-.05s-.03-.07-.04-.11c0-.01-.01-.02-.02-.03-.01,0-.03,0-.04,0-.02,0-.04.04-.04.06h0Z"/>
      <path class="cls-1" d="m3.2,15.39s0,.1.02.14c0,.02.01.04.02.07.01.03.02.07.06.08.02,0,.05,0,.06-.03,0-.02,0-.04-.01-.06,0,0-.01-.02-.01-.03,0-.01-.01-.02-.01-.03,0,0,0,0,0,0,0,0,0-.01,0-.02,0-.02-.01-.04-.02-.06,0,0,0-.02,0-.03,0,0,0-.01,0-.02,0,0,0,0,0,0,0,0,0,0,0,0,0-.02-.02-.04-.04-.04-.02,0-.04.02-.04.04h0Z"/>
      <path class="cls-1" d="m3.35,15.47s.04.05.05.07c0,0,0,.01.01.02,0,0,.01,0,.02.01,0,0,.02,0,.02,0,0,0,.01,0,.02,0,.01,0,.02-.02.03-.03,0-.01,0-.03,0-.04l-.05-.08s-.02-.02-.04-.03c0,0-.02,0-.02,0,0,0-.02,0-.02,0-.01,0-.02.02-.03.04,0,.01,0,.03,0,.05h0Z"/>
      <path class="cls-1" d="m3.04,12.91c0,.11,0,.22.01.32.01.11.04.22.08.32.02.04.09.01.08-.03-.03-.1-.06-.2-.08-.3-.02-.1-.02-.21-.02-.31,0-.04-.06-.04-.07,0h0Z"/>
      <path class="cls-1" d="m3.16,12.5c0,.1,0,.2.03.3,0,.05.02.1.03.14.01.05.02.11.07.13.02,0,.04,0,.04-.02.02-.05,0-.09-.02-.14-.01-.05-.03-.09-.04-.14-.02-.09-.04-.19-.05-.28,0-.04-.06-.04-.06,0h0Z"/>
      <path class="cls-1" d="m3.29,12.34c0,.07.01.14.03.2,0,.03.02.06.03.1.01.03.02.07.04.1.01.02.03.03.05.02,0,0,0,0,.01,0,.02-.01.03-.03.02-.05,0-.03-.02-.06-.03-.09-.01-.03-.02-.06-.03-.09-.02-.06-.03-.12-.04-.18,0-.02-.02-.04-.04-.04-.02,0-.04.02-.04.04h0Z"/>
      <path class="cls-1" d="m3.46,12.38s0,.02.01.02c0,0,0,.02,0,.02,0,.02.01.03.02.05,0,.02.01.03.02.05,0,.02.01.04.03.06.01.01.04.02.05,0,.02-.01.02-.03.02-.05,0-.02-.02-.04-.03-.05-.01-.01-.02-.03-.03-.04-.01-.01-.02-.03-.03-.04-.01-.01-.02-.03-.03-.05,0-.01-.02-.01-.03,0-.01,0-.01.02,0,.03h0Z"/>
      <path class="cls-1" d="m3.66,12.33s0,.08,0,.12c0,.02.02.04.03.05,0,0,.01.02.02.03.02.02.05.03.07.01-.01,0-.02,0-.03,0,0,0,.02,0,.02,0,.01,0,.02,0,.03-.02,0-.01,0-.02,0-.04,0,0,0,0,0,0,0,0,0,0,0,0v.02s0-.04-.02-.06c0,0,0,0,0,0,0,0,0,0,0,0,0,0,0,0,0,0,0,0,0,0,0,0,0,0,0,0,0,0,0,0,0-.01-.01-.02,0,0,0,0,0,.01,0-.01-.01-.03-.01-.05,0,0,0,0,0,.01,0-.01,0-.03,0-.04h0s0,.01,0,.01c0-.01,0-.03,0-.04,0-.01-.02-.02-.03-.02-.02,0-.06,0-.06.03h0Z"/>
      <path class="cls-1" d="m3.82,12.39s0,.04,0,.06c0,.01,0,.03,0,.04,0,.02.01.03.02.04,0,0,0,0,0,0,.01,0,.02,0,.03,0,0,0,0,0,0,0,.01,0,.02-.02.02-.04,0-.01,0-.03,0-.04,0-.02,0-.04,0-.06,0-.01,0-.02-.01-.03,0,0-.02-.01-.03-.01-.01,0-.02,0-.03.01,0,0-.01.02-.01.03h0Z"/>
      <path class="cls-1" d="m4.36,12.3s.03.09.05.13c0,.02.02.04.03.06.02.02.03.04.06.05.01,0,.03,0,.04,0,.01,0,.02-.02.01-.04,0-.02,0-.05-.02-.07,0-.02-.02-.04-.03-.05,0,0,0,0,0,0,0,0,0,0,0,0,0,0,0,0,0-.01,0,0,0-.02,0-.03,0-.02-.01-.04-.02-.06,0-.03-.04-.05-.07-.04-.03,0-.05.04-.04.07h0Z"/>
      <path class="cls-1" d="m4.54,12.24s0,.05.01.07c0,.01,0,.02,0,.04,0,0,0,.02,0,.03.01.02.04.03.06.03.02,0,.04-.03.04-.05,0,0,0-.02,0-.03,0-.01,0-.02,0-.04,0-.02-.01-.05-.02-.07,0-.03-.04-.04-.06-.04-.01,0-.02.01-.03.02,0,.01,0,.03,0,.04h0Z"/>
      <path class="cls-1" d="m4.01,11.22c0,.13,0,.27.03.4.01.07.03.13.05.19.02.06.03.14.09.18.02.02.06,0,.06-.03,0-.06-.03-.12-.04-.18-.02-.06-.03-.12-.05-.19-.02-.13-.03-.25-.03-.38,0-.06-.1-.06-.1,0h0Z"/>
      <path class="cls-1" d="m4.16,11.11c0,.11,0,.22.03.33,0,.05.02.11.04.16.01.05.03.11.08.14.01,0,.03,0,.04-.01.01-.03.02-.04,0-.07,0-.03-.01-.05-.02-.08-.02-.05-.03-.1-.04-.16-.02-.1-.03-.21-.03-.31,0-.07-.1-.07-.1,0h0Z"/>
      <path class="cls-1" d="m4.29,11.11c0,.07.01.15.03.22,0,.03.01.07.03.1.01.04.02.08.07.09.01,0,.02,0,.03-.01.03-.03,0-.07,0-.11-.01-.03-.02-.06-.03-.1-.02-.07-.04-.14-.05-.2,0-.04-.07-.03-.06,0h0Z"/>
      <path class="cls-1" d="m4.4,11.21s.02.08.03.11c.02.05.04.09.07.13,0,.01.02.02.03.03.01,0,.03.02.05.02.03,0,.05-.02.06-.05,0-.02,0-.04,0-.05,0-.02-.02-.04-.04-.06-.01-.02-.02-.03-.03-.05,0,0,0-.01,0-.02,0,0,0-.01,0,0,0,0,0,0,0,0,0-.01,0-.02-.01-.03,0-.02-.01-.04-.02-.07,0-.04-.05-.06-.09-.05-.04.01-.06.05-.05.09h0Z"/>
      <path class="cls-1" d="m4.68,11.17s0,.02,0,.02c0,0,0,.01,0,.02,0,0,0,0,0,.01,0,0,0,.01.01.02,0,0,0,.01.01.02,0,0,0,0,0,0,0,0,.01,0,.02.01,0,0,0,0,.01,0,0,0,0,0,.01,0,0,0,.01,0,.01,0,0,0,.01-.01.02-.02,0-.02,0-.04-.01-.05v-.02s-.02-.01-.03-.02c0,0-.01,0-.02-.01,0,0-.01,0-.02-.01,0,0,0,0,0,0,0,0,0,0,0,0,0,0-.01,0-.02,0-.01,0-.01.02-.01.04h0Z"/>
      <path class="cls-1" d="m7.78,5.58s-.03.04-.04.06c0,0-.01.02-.02.03,0,0,0,.02-.01.03,0,0,0,.01,0,.02,0,0,0,0,0,.01,0,0,0,0,0,.01,0,.01.01.02.02.03,0,0,.02,0,.03.01.01,0,.03,0,.04,0,0,0,0,0,.01,0,0,0,.02-.01.02-.02,0,0,.01-.02.02-.03.01-.02.03-.04.04-.05,0,0,.01-.02.02-.03,0,0,0-.01,0-.02,0-.01,0-.02,0-.03,0,0-.01-.01-.02-.02,0,0-.01-.01-.02-.01,0,0-.02,0-.03,0,0,0-.02,0-.03,0-.01,0-.02.01-.02.02h0Z"/>
      <path class="cls-1" d="m9.55,5.34l.06-.03s.02,0,.03-.01c.01,0,.02-.01.03-.03,0,0,0,0,0-.01,0-.01,0-.03,0-.04,0-.01-.02-.02-.03-.03,0,0,0,0-.01,0-.01,0-.02,0-.03,0,0,0-.01,0-.02,0,0,0-.02,0-.03.01-.02,0-.04.02-.06.03-.01,0-.02.02-.03.03,0,.01,0,.03,0,.04,0,.01.02.02.03.03.02,0,.03,0,.04,0h0Z"/>
      <path class="cls-1" d="m9.81,4.29c-.07.07-.13.15-.19.23-.03.04-.05.08-.07.12-.01.02-.02.04-.04.06-.01.02-.03.05-.03.08,0,.03,0,.05.03.07.02.01.05,0,.07,0,.03-.03.05-.08.08-.12.02-.04.05-.08.07-.12.05-.07.11-.14.17-.21.02-.03.03-.07,0-.09-.02-.02-.07-.03-.09,0h0Z"/>
      <path class="cls-1" d="m10.1,4.31c-.06.07-.12.15-.17.22-.03.04-.05.08-.08.11-.03.04-.06.08-.08.12-.01.05.05.08.08.05.03-.03.05-.08.08-.12.02-.04.05-.08.07-.12.05-.08.1-.15.15-.23.02-.03-.03-.07-.05-.04h0Z"/>
      <path class="cls-1" d="m10.19,4.51s-.07.09-.1.14c-.01.02-.03.05-.04.07,0,.01-.01.02-.02.04,0,0,0,.01,0,.02,0,0,0,.02,0,.03,0,0,0,.02,0,.03,0,.03.06.05.08.03.01-.01.02-.02.03-.04,0,0,0,0,0,0,0,0,0,0,0,0,0-.01.01-.02.02-.04.01-.02.02-.05.04-.07.01-.02.03-.04.04-.07,0-.01.02-.02.02-.03,0,0,0,0,0,0,0,0,0,0,0,0,0,0,0-.01.01-.02.02-.02.02-.06,0-.08-.02-.02-.06-.03-.08,0h0Z"/>
      <path class="cls-1" d="m10.79,4.89c-.06.05-.12.11-.18.16-.03.03-.06.05-.09.08-.03.03-.07.06-.09.09-.02.02-.01.06.01.08.02.02.05.02.08.01.04-.02.07-.06.1-.09.03-.03.06-.05.09-.08.06-.05.12-.11.18-.16.02-.02.02-.07,0-.09-.03-.02-.06-.02-.09,0h0Z"/>
      <path class="cls-1" d="m10.83,5.12c-.13.12-.26.23-.38.35-.06.06-.12.12-.18.18-.03.03-.06.06-.1.09-.04.03-.07.07-.07.12,0,.03.03.06.06.06.05,0,.08-.03.11-.07.03-.03.06-.06.09-.1.06-.06.12-.12.18-.19.12-.13.24-.25.36-.38.04-.05-.02-.11-.07-.07h0Z"/>
      <path class="cls-1" d="m10.62,6.06c-.06.05-.12.1-.18.15-.03.03-.06.05-.09.08-.03.03-.07.05-.09.09-.01.02-.01.05,0,.07.01.02.04.03.06.02.02,0,.04-.02.07-.03.02-.01.03-.03.05-.04.03-.03.06-.05.09-.08.06-.05.12-.1.18-.16.03-.02.03-.08,0-.1-.03-.03-.07-.03-.1,0h0Z"/>
      <path class="cls-1" d="m10.76,6.58s-.08.09-.13.13l-.06.07s-.02.02-.03.03c-.02.02-.03.04-.03.06-.01.04.03.09.07.07.01,0,.02,0,.03-.02,0,0,.01-.01.02-.02.01,0,.02-.02.03-.03.02-.02.04-.04.06-.07.04-.04.08-.09.13-.13.02-.03.03-.07,0-.1-.03-.02-.07-.03-.1,0h0Z"/>
      <path class="cls-1" d="m10.89,6.91c-.06.03-.11.07-.16.11-.05.04-.11.08-.15.13-.03.03-.07.07-.05.11,0,.02.03.04.05.04.03,0,.05-.02.06-.04.04-.05.09-.1.13-.14.05-.05.11-.09.17-.13.02-.01.03-.04.02-.06-.01-.02-.04-.03-.06-.02h0Z"/>
      <path class="cls-1" d="m9.85,8.47c-.09.12-.17.24-.25.37-.04.06-.08.12-.11.19-.04.07-.09.14-.09.21,0,.04.04.06.07.04.06-.04.1-.11.13-.18.04-.06.08-.13.12-.19.08-.13.17-.25.25-.37.02-.03,0-.08-.03-.1-.04-.02-.08,0-.1.03h0Z"/>
      <path class="cls-1" d="m13.12,4.64c-.06.05-.11.11-.17.16-.03.03-.05.05-.08.08-.01.01-.03.03-.04.04-.01.02-.03.03-.04.05-.01.03.01.05.04.04.02,0,.03-.02.05-.03.02-.01.03-.03.04-.04.03-.03.06-.06.09-.08.06-.05.11-.11.17-.16.04-.04-.02-.1-.06-.06h0Z"/>
      <path class="cls-1" d="m13.3,4.79c-.06.06-.12.11-.18.17-.03.03-.06.05-.09.08-.02.01-.03.03-.04.05-.01.02-.02.04-.03.05-.02.03.02.07.05.05.02-.01.04-.02.05-.03.02-.01.03-.03.05-.04.03-.03.06-.06.09-.09.06-.06.11-.12.17-.17.04-.04-.02-.09-.06-.06h0Z"/>
      <path class="cls-1" d="m4.55,23.49c-.06.07-.12.14-.17.22-.03.04-.05.07-.07.11-.03.04-.04.08-.06.13-.02.05.06.1.1.06.03-.03.06-.07.09-.1.02-.04.05-.07.07-.11.01-.02.02-.03.04-.05,0,0,.01-.02.02-.02,0,0,0,0,0,0,0,0,0,0,0,0,0,0,0,0,0-.01.03-.03.05-.07.08-.1.03-.03.03-.08,0-.11-.03-.03-.08-.03-.11,0h0Z"/>
      <path class="cls-1" d="m4.64,23.94c-.07.08-.14.17-.21.25-.04.04-.07.08-.11.12-.04.04-.07.09-.1.14-.03.05.03.09.07.05.04-.04.08-.07.11-.11.03-.04.07-.08.1-.12.07-.08.14-.16.21-.25.02-.02.02-.06,0-.08-.02-.02-.06-.02-.08,0h0Z"/>
      <path class="cls-1" d="m4.62,24.49c-.12.12-.23.23-.35.35-.06.06-.11.11-.17.17-.06.06-.13.11-.17.19-.02.04.02.08.06.06.07-.04.13-.11.18-.16.06-.06.12-.12.17-.18.12-.12.23-.24.35-.35.04-.04-.02-.11-.07-.07h0Z"/>
      <path class="cls-1" d="m4.61,24.93c-.14.14-.29.29-.43.44-.07.07-.14.14-.2.22-.04.04-.07.08-.11.12-.04.04-.07.07-.07.13,0,.03.04.06.06.05.05-.01.08-.05.11-.09.03-.04.07-.07.1-.11.07-.08.13-.15.2-.23.13-.15.27-.3.41-.44.05-.05-.03-.12-.08-.08h0Z"/>
      <path class="cls-1" d="m4.43,25.62c-.13.15-.26.29-.39.44-.06.07-.13.14-.19.21-.06.07-.15.15-.18.24-.02.05.04.09.09.07.08-.04.14-.13.2-.2.06-.08.12-.15.19-.23.12-.15.25-.3.37-.45.05-.06-.03-.15-.09-.09h0Z"/>
      <path class="cls-1" d="m4.3,26.22c-.1.12-.21.23-.31.35-.05.06-.1.12-.15.17-.05.06-.12.12-.15.19-.02.05.05.1.1.07.03-.02.06-.05.08-.08.03-.03.05-.06.08-.09.05-.06.1-.12.14-.18.1-.12.19-.25.29-.37.04-.05-.03-.12-.07-.07h0Z"/>
      <path class="cls-1" d="m4.27,26.66c-.1.12-.2.25-.3.37-.05.06-.09.12-.14.19-.05.06-.1.14-.13.21-.02.07.07.11.12.07.03-.03.05-.06.07-.1.02-.03.04-.06.06-.1.04-.07.09-.13.13-.2.09-.13.18-.26.27-.38.04-.05-.05-.12-.09-.07h0Z"/>
      <path class="cls-1" d="m4.14,27.3c-.09.1-.18.2-.26.3-.04.05-.08.1-.12.15-.02.03-.05.06-.07.09-.02.03-.05.06-.04.1,0,.04.04.07.08.06.04,0,.06-.04.08-.07.02-.03.04-.06.06-.08.04-.05.08-.11.12-.16.08-.1.16-.2.24-.3.02-.03.03-.07,0-.1-.03-.03-.07-.03-.1,0h0Z"/>
      <path class="cls-1" d="m4,27.95c-.05.08-.11.15-.17.23-.05.08-.12.15-.15.24-.01.03-.01.06.02.08.02.02.06.02.08,0,.07-.07.12-.16.17-.24.05-.08.1-.16.16-.24.02-.03,0-.07-.02-.09-.03-.02-.07,0-.09.02h0Z"/>
    </g>
  </g>
</svg>