<?xml version="1.0" encoding="UTF-8"?>
<svg id="Calque_2" data-name="Calque 2" xmlns="http://www.w3.org/2000/svg" viewBox="0 0 27.28 65.89">
  <defs>
    <style>
      .cls-1 {
        fill: #8a7895;
        fill-rule: evenodd;
      }
    </style>
  </defs>
  <g id="Calque_1-2" data-name="Calque 1">
    <path class="cls-1" d="m2.31.02c-.06-.03-.08-.02-.15,0-.07.04-.11.11-.15.28-.06.27-.03.54.1,1.1.04.16.07.29.06.3,0,0-.27-.45-.39-.7-.11-.22-.22-.34-.34-.4-.15-.07-.27-.02-.32.12-.06.15,0,.44.12.62.09.13.38.44.57.6l.15.13h-.12c-.18.03-.33.12-.37.22-.03.07.01.18.09.23.07.04.09.05.35.05h.28v1.14c0,.63,0,1.25.02,1.39,0,.13.01.24,0,.24,0,0-.02-.03-.04-.07-.07-.13-.21-.32-.29-.37-.1-.07-.2-.08-.29-.04-.13.06-.16.21-.09.42.04.11.12.24.25.39l.07.08-.1-.04c-.25-.1-.44-.09-.51,0-.05.07-.02.17.1.32.21.26.48.42.86.49l.18.03v.11c.07.49.14,1.12.2,1.65.04.35.08.64.08.65s-.05-.09-.12-.23c-.13-.26-.17-.31-.28-.3-.08,0-.13.08-.16.23-.03.16.01.38.11.57l.07.13-.09-.05c-.5-.25-.88-.2-.85.12.01.12.06.22.18.35.21.22.51.36,1,.46.15.03.28.06.29.07s.04.25.07.54c.11,1,.25,2,.35,2.57.03.16.05.29.04.3,0,.01-.06-.06-.13-.15-.15-.21-.42-.48-.54-.55-.16-.09-.31-.07-.4.07-.05.07-.04.28.01.42.1.27.34.54.67.76.1.07.17.12.15.11-.51-.16-1.04-.21-1.21-.11-.27.14-.16.46.21.64.13.06.14.06.39.06.14,0,.41-.01.6-.03.19-.02.37-.03.41-.03h.07s.11.55.11.55c.13.64.23,1.09.37,1.67.06.23.1.41.09.42,0,0-.06-.07-.2-.3-.16-.26-.37-.42-.55-.42-.08,0-.1,0-.16.07-.07.07-.07.07-.06.21,0,.16.06.29.21.51l.08.12-.07-.03c-.26-.11-.3-.13-.41-.13-.13,0-.21.04-.29.14-.06.09-.07.33-.01.45.19.36.71.63,1.5.74.34.05.37.06.37.1,0,.01.17.62.37,1.34.21.73.37,1.32.37,1.32,0,0-.06-.06-.14-.15-.15-.18-.29-.3-.71-.62-.5-.38-.62-.44-.77-.38-.08.03-.13.1-.15.2-.03.18.22.49.6.72.56.36.72.47.45.34-.07-.03-.2-.09-.3-.12-.16-.06-.21-.06-.45-.07-.23,0-.29,0-.43.03-.26.07-.4.17-.43.31-.03.14.1.28.35.37.17.06.61.16,1.01.22.19.03.48.09.65.13.17.05.37.09.45.09.07,0,.14.02.16.03.04.03.78,2.78,1.16,4.29.15.61.5,2.12.56,2.4,0,.03-.13-.22-.29-.54-.48-.95-.67-1.23-1.18-1.81-.62-.7-1.14-1.17-1.96-1.77-.85-.62-1.14-.77-2.21-1.12-.87-.29-1.08-.32-1.29-.22-.26.13-.35.41-.19.62.12.15.81.63,1.5,1.05.81.49,1.15.72,2,1.35.46.34,1.33,1.04,1.64,1.32.35.32.77.8,1.36,1.59.4.53.6.82.79,1.16.07.12.16.26.2.31.07.08.07.09.25.89.61,2.79.95,4.61,1.23,6.47.12.8.31,2.23.3,2.25-.01.04-.28-.88-.44-1.5-.12-.48-.22-.78-.39-1.18-.32-.75-.52-1.06-.7-1.06-.09,0-.13.02-.16.08-.05.09-.04.26.05.66.04.21.1.53.13.72.08.57.21,1.01.42,1.49.31.72.64,1.35,1.23,2.35l.07.12.07.62c.31,2.91.42,5.06.38,7.24-.03,1.51-.09,2.98-.13,3.09-.03.08-.85,1.48-.88,1.48-.02,0-.11-.4-.14-.58-.01-.08-.08-.39-.15-.69-.08-.36-.13-.59-.13-.67,0-.36.13-1.51.25-2.22.13-.77.13-.68.15-2.89.02-2.17.02-2.28-.07-2.56-.03-.09-.06-.15-.12-.21-.07-.07-.08-.07-.16-.07-.1.01-.16.05-.24.17-.22.3-.29.76-.34,2.32-.02.51-.05,1.14-.07,1.43-.04.42-.04.67-.04,1.25,0,.77.02,1.01.13,1.6.02.12.04.22.03.22s-.09-.2-.18-.45c-.54-1.41-.56-1.45-.99-2.38-.62-1.33-.73-1.58-1.08-2.51-.15-.39-.18-.5-.2-.64,0-.09-.04-.28-.08-.41q-.06-.24-.03-.4c.14-.75.71-2.56,1.16-3.69.13-.34.35-.91.49-1.28.23-.63.24-.68.25-.85,0-.11,0-.21-.01-.25-.06-.19-.22-.21-.48-.08-.32.16-.85.6-1.06.89-.33.46-.44.85-.53,1.96-.02.26-.07.78-.11,1.15-.05.46-.07.83-.08,1.13v.45s-.06-.16-.06-.16c-.23-.77-.42-1.79-.51-2.66-.05-.5-.13-1.57-.15-2.06-.02-.39-.01-.48,0-.57.02-.06.03-.18.04-.26.03-.3,0-.25.43-.69.21-.22.53-.54.7-.71.18-.19.49-.46.73-.66.77-.63,1.06-.98,1.16-1.37.08-.31,0-.6-.18-.63-.16-.03-.5.12-.91.39-.6.4-.93.76-1.48,1.63-.14.22-.26.39-.26.38,0-.01.03-.22.07-.46.25-1.35.29-1.73.27-2.95-.02-1.29-.05-1.69-.18-2.06-.1-.31-.21-.44-.37-.44-.13,0-.24.13-.35.43-.25.67-.38,1.84-.34,2.97.02.64.04.84.17,1.86.05.4.09.76.1.82,0,.05,0,.09,0,.09,0,0-.08-.18-.16-.38-.31-.76-.47-1.01-.91-1.43-.24-.23-.41-.35-.63-.47-.16-.08-.19-.09-.34-.1-.2,0-.44.04-.62.12-.26.12-.55.38-.75.69-.12.18-.29.54-.33.71-.06.22-.02.48.09.53.06.03.15.03.22,0,.03-.02.15-.11.25-.21.22-.2.31-.26.52-.3.2-.04.77-.1.83-.08.03,0,.16.13.32.3.15.16.42.45.61.64.44.45.58.62.74.88.07.12.16.26.2.32l.07.11.02.71c.03,1.17.15,2.52.28,3.31.11.68.21,1.12.39,1.75.15.53.15.51.07.39-.25-.39-.48-.97-.73-1.86-.17-.61-.14-.53-1-2.39-.4-.87-.48-1.01-.62-1.09-.16-.1-.33-.02-.44.2-.18.36-.1.93.26,1.87.2.54.41.97.63,1.3.06.08.22.3.36.49s.33.45.42.58c.42.6.67.92.98,1.23.28.28.32.33.42.52.07.13.2.44.35.84.38,1.03.45,1.18,1.06,2.48.46.99.52,1.12.9,2.12.28.73.35.95.26.77-.02-.03-.11-.18-.2-.33-.29-.46-.47-.86-.75-1.64-.31-.88-.46-1.17-1.02-2.02-.62-.93-1-1.34-1.44-1.56-.15-.08-.18-.08-.32-.08-.16,0-.16,0-.22.07-.18.19-.08.5.46,1.46.25.44.68,1.29.94,1.85.27.58.54,1.02.81,1.35.23.27.65.73,1.11,1.2.24.25.51.53.6.63.08.1.25.27.36.39.11.11.21.24.23.28.04.1.19.63.32,1.14l.11.44-.24.43c-.29.51-.51.9-.78,1.42-.11.21-.21.39-.21.39,0,0-.02-.06-.03-.13-.02-.15-.35-1.27-.48-1.68-.05-.14-.19-.52-.32-.84-.13-.33-.35-.95-.5-1.38-.4-1.18-.58-1.66-.95-2.46-.19-.41-.26-.54-.4-.68-.27-.29-.53-.28-.68.03-.04.09-.05.12-.04.46,0,.42.02.58.16,1.13.09.38.28.96.67,2.06.46,1.29.6,1.62,1.13,2.67.42.83.51,1.04.62,1.37.03.1.1.29.15.4l.09.21-.14.31c-.32.71-.65,1.56-.92,2.38-.33.99-.87,2.87-.97,3.39-.04.21-.06.44-.03.45,0,0,.04.05.06.1.03.07.08.12.16.18.33.25.58.27.67.07.02-.05.1-.33.18-.62.18-.71.25-.93.44-1.52.3-.89.71-2,1.05-2.84.02-.04.04-.07.05-.07s.06-.06.11-.13c.11-.17.31-.41.47-.58.12-.13.82-.75.88-.79.03-.02.03,0,.02.2,0,.12-.03.67-.05,1.22-.02.55-.05,1.16-.06,1.35-.01.19-.03.46-.03.6,0,.15-.04.42-.08.64-.14.78-.17.95-.23,1.44-.07.53-.09.88-.05.92.01.01.04.02.07.02.03,0,.05,0,.06.02.03.04.48.15.57.13.04,0,.07-.04.1-.1.08-.18.18-.5.22-.73.02-.13.05-.28.07-.33.01-.06.06-.26.09-.45.06-.36.28-1.55.4-2.22.15-.81.32-2.11.39-3.1.01-.2.03-.38.04-.39,0-.02.29-.11,1.06-.35.34-.11.46-.16,1.1-.46.62-.29.84-.39,1.3-.55.22-.08.57-.21.77-.28.21-.08.53-.21.73-.28.61-.22.86-.36,1.41-.78.81-.61.89-.69.89-.88,0-.17-.19-.31-.43-.33-.19-.02-.54.03-.91.12-.57.15-.65.18-1.3.51-.73.37-2.42,1.15-3.13,1.45-.93.39-1.1.47-1.26.54-.08.04-.16.07-.16.07,0,0,0-.14,0-.31l.02-.3.27-.27c.63-.63,1.41-1.3,2.19-1.86.29-.21,1.09-.74,2.19-1.46.85-.55,1.5-1.01,2.04-1.45.22-.18.47-.3.9-.44.19-.06.44-.15.54-.19.18-.07.73-.25,1.21-.4.5-.15,1.04-.37,1.82-.75.69-.34.86-.41,1.46-.62.62-.22.9-.37,1.06-.57.18-.22.17-.46-.01-.56-.1-.05-.38-.04-.67.02-1.18.27-1.85.54-2.99,1.22-.44.26-.64.36-1.18.6l-.42.18.32-.32c.37-.39.57-.61,1.08-1.25.61-.76.9-1.15,1.22-1.67.07-.12.15-.22.16-.23.01,0,.11-.12.21-.25.1-.13.24-.28.3-.33.28-.26.61-.45.87-.52.3-.07.96-.14,1.84-.19.8-.04,1.12-.08,1.47-.22.3-.11.61-.32.71-.46.13-.19-.02-.41-.35-.51-.34-.1-1.04-.16-1.51-.12-.45.04-.91.16-1.24.33-.4.2-1.13.65-1.43.89-.09.07-.16.12-.16.12,0,0,.04-.1.09-.2.07-.15.16-.29.4-.61.41-.54.57-.73.97-1.14.35-.36.93-1.02,1.2-1.37.55-.7.9-1.45.9-1.96,0-.16,0-.21-.04-.27-.06-.11-.12-.15-.24-.17-.17-.02-.32.07-.58.33-.36.35-.83,1.04-1.6,2.32-.61,1-.7,1.18-1.03,2.11-.03.08-.06.15-.06.15,0,0,.01-.08.03-.18.09-.4.19-1.21.21-1.73.01-.41,0-.7-.07-.88-.15-.43-.51-.58-.7-.29-.07.1-.14.37-.17.62-.02.16-.02.28,0,.57.04.66.06,1.25.07,1.86,0,.6,0,.61-.08,1.17l-.08.57-.25.41c-.34.55-.62.93-1.16,1.6-.72.9-1.01,1.22-1.64,1.81-.21.2-.4.37-.41.37,0,0,.08-.21.21-.46.12-.26.33-.71.46-1,.13-.29.3-.67.38-.84.26-.57.35-.94.35-1.44,0-.3-.02-.39-.09-.48-.07-.09-.17-.11-.27-.07-.1.04-.3.23-.42.42-.34.5-.81,1.81-1.02,2.83-.05.24-.12.55-.15.68-.06.24-.3,1.05-.34,1.12-.02.04-.46.39-.9.72-.26.19-1.84,1.26-1.97,1.33-.02,0,.09-.11.24-.26.23-.23.54-.57,1.03-1.13.58-.65.87-1.19,1.18-2.22.07-.22.19-.6.27-.86.17-.52.21-.71.21-.99,0-.34-.06-.49-.2-.49s-.23.11-.42.46c-.1.2-.31.51-.68,1.03-.35.48-.57.84-.9,1.48-.34.63-.42.78-.74,1.22-.42.58-.73,1.05-1,1.55-.17.32-.35.58-.61.9-.25.31-.45.57-.61.81-.09.13-.16.21-.28.32-.29.24-.63.54-1,.89l-.35.33v-.52c.02-.29.03-.67.04-.85v-.33s.36-.62.36-.62c.19-.34.41-.75.5-.91.23-.42.93-1.83,1.13-2.26.09-.21.28-.61.41-.9s.34-.75.46-1.03c.12-.28.25-.56.28-.62.07-.14.58-.67,1.2-1.25.29-.27.48-.47.73-.77.19-.22.43-.51.54-.64.11-.13.35-.45.52-.71.49-.73,1.14-1.6,1.78-2.41.31-.39.88-1.14,1.07-1.43.25-.38.34-.69.23-.82-.07-.08-.21-.08-.39,0-.16.07-.24.13-.61.42-.15.12-.42.32-.6.45-.48.34-.65.49-.97.81-.7.71-1.13,1.31-1.76,2.44-.2.36-.34.64-.57,1.15-.19.41-.37.77-.38.76,0,0,.04-.16.1-.34.21-.64.36-1.21.62-2.32.08-.33.19-.77.24-.98.1-.41.23-1.08.29-1.56.06-.48.14-.98.19-1.26.03-.14.08-.5.13-.81.11-.73.22-1.41.31-1.89l.08-.39.17-.25c.24-.36.57-.8.72-.96.07-.07.29-.27.48-.45.74-.66,1.01-.93,1.59-1.6.3-.34.4-.47.49-.66.11-.21.28-.79.28-.92,0-.16-.13-.21-.3-.13-.04.02-.24.17-.44.34s-.49.39-.64.5c-.5.36-.82.74-1.21,1.44-.2.35-.93,1.53-.94,1.51-.02-.05.04-.3.12-.49.04-.11.28-.6.51-1.08.41-.83.45-.9.7-1.6.15-.4.34-.88.41-1.05.15-.34.2-.5.2-.66,0-.18-.09-.3-.23-.32-.16-.02-.46.17-.66.43-.23.29-.34.52-.5,1.13-.05.19-.1.34-.1.33,0-.02.05-.5.15-1.39.04-.35.1-.81.12-1.04.02-.22.06-.53.08-.69.02-.16.05-.43.07-.59.02-.17.03-.3.04-.3,0,0,.06-.01.14-.03.16-.03.43-.12.79-.27.48-.2.84-.41,1.03-.61.11-.12.14-.18.14-.29,0-.15-.1-.25-.28-.28-.11-.02-.5.07-.74.18-.02,0,0-.03.06-.1.17-.19.3-.49.3-.66,0-.16-.12-.26-.29-.26-.37,0-.8.42-1.01,1l-.05.13v-.12c.03-.2.08-.66.11-.89.06-.46.23-1.56.24-1.6,0-.03.06-.06.16-.11.28-.12.76-.42.92-.57.1-.09.25-.31.29-.43.02-.05.03-.14.03-.2,0-.1,0-.12-.07-.19-.12-.13-.3-.13-.55,0,0,0,0-.06.04-.13.07-.2.08-.37.04-.48-.02-.05-.05-.1-.07-.11-.16-.08-.4.11-.57.48-.06.12-.07.14-.07.09,0-.04.02-.19.04-.34.1-.95.22-1.78.28-1.97,0-.02.06-.05.12-.07.15-.06.55-.3.79-.46.36-.24.6-.56.6-.79,0-.08,0-.11-.06-.16-.06-.06-.07-.06-.18-.05-.08,0-.17.04-.3.1-.1.05-.18.09-.18.09s.02-.05.04-.11c.05-.13.07-.34.04-.45-.03-.11-.11-.19-.2-.19-.1,0-.19.07-.27.21-.04.07-.06.1-.06.07,0-.03.03-.15.05-.28.02-.12.09-.5.16-.83s.14-.72.16-.86c.02-.14.05-.26.05-.27,0,0,.15-.04.31-.08.63-.13.93-.27,1.19-.52.17-.17.3-.38.3-.49,0-.16-.12-.26-.27-.24-.16.02-.76.27-.95.39-.04.03-.06.03-.05.02,0-.02.09-.14.18-.27.18-.27.24-.41.26-.58.02-.2-.07-.33-.2-.33-.09,0-.25.08-.37.2-.06.06-.11.09-.11.08,0,0,.04-.18.09-.37.05-.19.12-.54.16-.76.15-.87.21-1.22.31-1.7.05-.27.11-.57.12-.65l.02-.16h.23c.26,0,.57-.05.75-.13.12-.06.18-.14.16-.25-.02-.09-.08-.14-.22-.17-.19-.04-.31-.02-.64.13-.04.02-.07.03-.07.02,0,0,.09-.12.21-.25.25-.29.37-.46.58-.85.22-.41.27-.54.25-.67-.02-.16-.14-.22-.29-.13-.17.11-.46.46-.64.8-.04.07-.07.12-.07.09,0-.03.02-.14.03-.26.06-.55,0-.92-.15-.96-.11-.03-.2.07-.24.28-.02.09-.1.73-.14,1.04l-.02.15-.03-.11c-.02-.06-.07-.25-.11-.41-.1-.37-.18-.58-.26-.68-.05-.06-.07-.07-.13-.07s-.08.01-.11.05c-.07.11-.09.2-.09.46,0,.31.02.39.3,1.21l.22.63v.26c-.02.18-.04.37-.09.62-.04.2-.09.51-.13.71-.07.46-.27,1.34-.41,1.83,0,.03-.03.02-.08-.04-.07-.07-.09-.08-.16-.08-.28,0-.32.3-.15,1.19.02.09.03.16.02.16s-.06-.09-.12-.2c-.22-.41-.5-.78-.62-.8-.17-.03-.28.18-.22.44.05.23.19.47.53.89.12.14.26.33.33.42l.11.15-.18.73c-.1.4-.2.84-.23.98l-.06.25-.03-.16c-.06-.27-.15-.4-.29-.4s-.22.17-.19.46v.12s-.08-.09-.08-.09c-.12-.11-.27-.18-.43-.2-.1,0-.14,0-.18.02-.08.05-.11.16-.1.29.02.22.12.44.44.96.42.68.5.84.5.9,0,.03-.04.29-.08.58-.05.29-.12.82-.18,1.18-.05.36-.1.66-.1.67,0,0-.01-.04-.02-.11-.05-.43-.3-.85-.5-.85-.07,0-.16.06-.19.12-.07.13-.03.44.08.69l.05.11-.17-.16c-.34-.32-.57-.36-.74-.15-.04.06-.06.1-.06.21,0,.12,0,.15.05.26.09.18.22.33.79.92l.51.53-.07.52c-.04.29-.09.79-.13,1.12-.04.33-.07.59-.08.58,0,0-.03-.08-.05-.16-.08-.34-.23-.71-.36-.88-.14-.18-.34-.22-.47-.09-.06.06-.06.07-.06.2,0,.09.03.21.07.38.04.14.1.35.14.48.06.2.11.35.2.58,0,.02-.04-.03-.1-.1-.11-.13-.44-.43-.74-.68-.37-.31-.69-.43-.91-.33-.14.06-.22.21-.19.36.05.24.4.66.84.98.22.16.99.63,1.25.76.09.05.18.1.19.11.02.05-.39,3.42-.57,4.67-.11.8-.25,1.72-.26,1.73,0,0-.02-.05-.04-.13-.05-.18-.14-.41-.34-.84-.09-.2-.26-.56-.36-.8-.24-.55-.35-.75-.62-1.19-.35-.58-.51-.8-.65-.96-.38-.41-.82-.55-.82-.26,0,.14.58,1.45,1.02,2.31.2.38.47.9.6,1.17.14.27.28.54.32.61.13.22.44.89.56,1.2l.11.3-.11.69c-.43,2.75-.56,3.57-.75,4.49-.35,1.77-.84,3.44-1.49,5.08l-.07.17-.02-.29c-.04-.68.02-1.84.14-3.01.04-.39.11-1.07.16-1.51.09-.93.09-.92.21-1.69l.09-.58v-.74c0-.83-.02-1-.14-1.47-.08-.31-.27-.84-.35-1-.15-.29-.36-.21-.48.17-.12.36-.17.79-.23,1.93-.04.67-.05.82-.13,1.39-.15,1.1-.2,1.62-.22,2.75-.04,2.09-.03,2.25.21,3.52.1.5.18,1.08.21,1.44l.02.29-.22.49c-.49,1.07-.77,1.65-1.64,3.29-.35.66-.43.8-.43.78,0,0,0-.49-.02-1.07-.02-.99-.07-2.34-.09-2.52,0-.04-.02-.63-.03-1.3-.02-1.26-.03-1.43-.11-2.33-.03-.29-.07-.78-.1-1.08-.03-.3-.07-.75-.1-1l-.05-.45.09-.35c.05-.2.18-.62.29-.94.19-.58.69-2.29.79-2.68.07-.28.21-1.09.29-1.59.17-1.23.23-2.02.18-2.33-.08-.48-.34-.7-.61-.52-.28.18-.47.75-.68,2.06-.12.77-.25,1.5-.36,2.16-.12.7-.21,1.31-.25,1.64-.01.14-.03.24-.04.23,0-.02-.1-.55-.2-1.18-.28-1.69-.55-3.18-.79-4.23-.24-1.08-.34-1.56-.51-2.57-.05-.29-.12-.65-.15-.8-.03-.15-.06-.3-.06-.34,0-.04.05-.16.12-.3.11-.22.22-.38.54-.83.29-.41.5-.79.73-1.33.07-.17.28-.62.47-1,.19-.38.4-.8.46-.94.39-.86.81-2.16.96-3.02.13-.73.07-1.47-.13-1.64-.07-.06-.18-.07-.27-.02-.2.1-.49.6-.81,1.4-.08.2-.22.53-.32.75-.48,1.06-.56,1.29-.96,2.45-.49,1.43-.74,2.19-.81,2.47-.08.32-.17.76-.17.83,0,.03,0,.07-.02.08-.02.03-.02.03-.02,0,0-.02-.08-.38-.19-.81-.1-.43-.2-.83-.21-.9s-.04-.16-.05-.21c-.02-.04-.07-.27-.12-.51-.11-.55-.36-1.61-.46-1.98-.11-.42-.43-1.45-.63-2.04-.09-.28-.17-.51-.16-.52,0,0,.12-.03.26-.06.29-.06.9-.27,1.18-.42.2-.1.4-.26.53-.43.13-.17.18-.27.18-.41,0-.1,0-.12-.05-.17-.12-.12-.34-.08-.81.16-.18.09-.32.15-.31.13.01-.02.08-.1.15-.18.07-.08.16-.21.2-.29.07-.13.07-.15.06-.3,0-.18-.06-.29-.15-.35-.13-.09-.4-.04-.6.11-.05.04-.14.13-.21.22-.07.08-.13.15-.13.15,0,0,0-.07.02-.15.03-.17.01-.37-.03-.48-.12-.29-.3-.37-.51-.25-.19.11-.29.29-.32.58,0,.09-.02.17-.03.18,0,0-.04-.12-.08-.28-.2-.77-.37-1.42-.4-1.5-.02-.05-.03-.1-.03-.12,0-.02.1-.08.35-.2.79-.37.94-.46,1.14-.66.18-.18.29-.45.29-.71,0-.26-.2-.39-.46-.29-.1.04-.38.2-.51.31-.06.04-.1.08-.11.08s.01-.03.04-.07c.08-.12.11-.25.11-.42,0-.14,0-.16-.07-.25-.12-.19-.26-.23-.4-.13-.14.09-.2.2-.43.68l-.04.09v-.08c0-.12-.07-.45-.12-.59-.07-.17-.23-.33-.41-.39-.07-.02-.07-.03-.12-.18-.07-.24-.21-.83-.25-1.01-.02-.09-.04-.19-.04-.21,0-.04,0-.05.12-.07.57-.14,1.62-.83,1.75-1.15.04-.09.02-.22-.03-.29-.12-.16-.46-.09-.86.17-.08.05-.14.09-.14.08s.02-.05.05-.09c.07-.12.13-.36.13-.5,0-.1,0-.12-.06-.17-.11-.11-.24-.06-.48.2-.16.18-.26.32-.38.52l-.05.09v-.15c-.02-.08-.04-.21-.06-.28-.04-.13-.19-.4-.3-.54-.06-.07-.06-.09-.12-.56-.03-.27-.1-.78-.16-1.14-.06-.36-.1-.65-.09-.65,0,0,.09-.04.19-.09.24-.12.69-.4.9-.55.24-.18.47-.42.54-.57.06-.12.06-.14.04-.2-.01-.04-.04-.08-.06-.09-.05-.03-.22,0-.36.04-.21.08-.58.35-.91.68-.07.07-.11.1-.1.08,0-.02.04-.12.07-.23.04-.16.05-.21.04-.41-.01-.27-.06-.44-.14-.5q-.05-.04-.11,0c-.07.05-.17.26-.22.44l-.04.15-.02-.21c-.01-.12-.07-.65-.12-1.18-.05-.53-.1-1-.11-1.04v-.07s.16-.07.16-.07c.25-.09.73-.34.85-.44.24-.2.38-.45.33-.58-.02-.05-.11-.09-.2-.09-.07,0-.44.17-.57.26-.05.04-.05.03.04-.14.09-.18.09-.19.09-.35,0-.21-.03-.25-.15-.25-.2,0-.39.18-.6.56l-.07.12v-.09c0-.22-.04-.9-.06-1.08-.01-.11-.03-.38-.04-.6-.02-.36-.07-.91-.11-1.15v-.08s.12.05.12.05c.16.05.22.06.33.02.11-.03.29-.21.29-.28,0-.08-.02-.11-.1-.16-.07-.04-.11-.04-.27-.03-.11,0-.2,0-.2,0,0,0,.05-.06.1-.12.13-.14.35-.48.44-.66.14-.28.17-.52.07-.7-.07-.13-.14-.19-.24-.19-.07,0-.09.01-.17.1-.09.09-.27.44-.37.71l-.05.12v-.22c0-.49-.06-.84-.17-1.02-.05-.09-.13-.18-.18-.2h0Zm-.04.22s.04.06.07.14c.11.23.13.39.14.96.01.55,0,.64-.05.21-.04-.37-.12-1.02-.15-1.17-.01-.07-.02-.13-.02-.14Zm-.06.24c.04.29.12,1,.12,1.01,0,0-.13-.48-.15-.63-.01-.07-.02-.19-.02-.28,0-.25.03-.29.05-.1Zm.95.3l.08-.08-.05.14c-.12.34-.28.75-.41,1.01-.08.15-.14.28-.15.27,0,0,.1-.45.16-.63.03-.09.1-.26.17-.39.07-.13.15-.27.2-.32Zm-1.6.18c.04.07.12.21.16.31.05.11.12.25.15.32l.07.13-.08-.09s-.13-.18-.2-.3c-.07-.11-.17-.29-.24-.38-.06-.09-.11-.18-.11-.19,0-.07.16.06.25.2Zm1.74-.15s.01-.02.03,0c.05.06.02.26-.07.46-.07.15-.37.62-.39.62,0,0,.02-.06.06-.14.04-.08.14-.32.21-.53.08-.21.15-.4.15-.41Zm-2.07.06s.2.28.31.47c.05.08.11.19.15.24.04.05.06.1.06.1,0,0-.09-.08-.2-.19-.21-.22-.3-.37-.32-.53,0-.06,0-.1,0-.1Zm.84,1.44c.15.07.16.07.12.1-.03.02-.36,0-.51-.01-.09-.01-.08-.06.02-.11.12-.06.22-.05.37.02Zm.64.06s.13,0,.26,0h.25s-.09.07-.09.07c-.05.04-.1.07-.11.07-.04,0-.23-.07-.28-.1-.02-.02-.04-.03-.03-.04Zm-.31.16s.03,0,.05.02c.04.02.04.04.06.22,0,.11.03.35.05.54.04.35.08,1.03.12,1.88.01.28.03.58.04.68.02.16.01.19-.03.32l-.05.14-.08-.23c-.06-.15-.09-.3-.11-.43-.02-.11-.04-.25-.06-.3-.03-.09-.03-.26-.02-1.47,0-.75.02-1.36.03-1.36Zm1.17,2.48s.06.08.04.17c-.07.26-.24.54-.65,1.02-.05.05.08-.16.21-.36.18-.27.27-.45.33-.65.03-.09.06-.17.07-.17Zm-1.87,0s.22.17.33.33c.1.15.35.63.33.65,0,0-.05-.05-.11-.12-.14-.19-.58-.83-.58-.84,0,0,.01-.01.03-.01Zm1.68.24c-.08.2-.11.26-.23.46-.06.09-.13.21-.17.26-.04.06-.07.1-.07.1,0,0,.04-.12.09-.25.11-.29.2-.48.31-.61.13-.15.14-.15.07.04Zm-1.74-.12s.05.07.1.14c.15.22.4.61.39.61-.01,0-.32-.39-.38-.48-.03-.05-.07-.12-.09-.18-.02-.05-.03-.09-.03-.09Zm2.41.48l.06-.03-.04.04c-.07.08-.55.39-.8.51l-.08.04.04-.04c.07-.08.29-.23.53-.37.13-.07.26-.15.3-.16Zm-.3.35c.13-.09.28-.19.33-.23l.09-.07-.04.07c-.09.16-.28.29-.66.48-.2.1-.4.19-.44.21q-.07.02-.02-.01s.15-.09.27-.16c.12-.07.33-.2.47-.28h0Zm-2.29-.13s.12.03.17.06c.15.06.7.39.65.39-.04,0-.38-.13-.5-.19-.14-.07-.43-.26-.43-.27,0-.01,0,0,.1.01Zm.1.26s.06.03.12.07c.15.09.35.17.58.22.2.05.31.1.2.1s-.44-.1-.6-.18c-.09-.04-.19-.11-.24-.15-.04-.04-.07-.07-.07-.07Zm1,.57h.12q.12,0,.13.06c0,.07.08.7.18,1.66.03.27.09.77.13,1.11.09.71.09.73-.06.59l-.08-.08-.05-.42c-.03-.23-.1-.8-.16-1.25-.06-.46-.13-.98-.15-1.16-.02-.19-.04-.37-.05-.42v-.08Zm17.88,1.87s.06.19.06.37c0,.24-.04.47-.15.98-.06.24-.1.45-.11.47,0,.02,0-.05-.01-.16,0-.31.11-1.36.18-1.59.01-.04.03-.07.04-.07Zm-18.02.43c.04.1.11.28.14.38s.08.25.11.31c.03.07.04.09.01.06-.02-.03-.09-.12-.16-.22-.25-.34-.34-.54-.31-.74.02-.2.05-.17.21.2Zm1.13-.3c.06-.06.07.64.01.8-.03.09-.19.39-.2.38,0,0,0-.05.01-.1s.03-.2.04-.33c.02-.27.05-.46.09-.62.02-.07.04-.13.05-.14Zm16.01,0s.22.42.3.65c.13.39.18.73.14.88,0,.04-.02.02-.06-.11-.02-.09-.1-.32-.17-.52-.07-.2-.14-.41-.15-.47,0-.06-.03-.18-.04-.27-.01-.09-.02-.16-.01-.16Zm1.6.33l.09-.1-.14.24c-.08.14-.18.33-.23.42-.11.23-.33.61-.33.6-.01,0,.18-.49.25-.63.04-.07.11-.2.17-.28.06-.09.15-.2.2-.26Zm-1.68-.05s.02.11.04.18c.01.07.08.28.15.47.18.49.27.84.29,1.08q.01.13-.02.05c-.18-.52-.43-1.34-.46-1.48-.03-.17-.04-.42,0-.31Zm1.82.05c.05-.06-.23.59-.3.7-.07.11-.23.33-.25.33,0,0,.02-.05.05-.1.03-.06.1-.19.16-.3.05-.11.14-.29.21-.4s.12-.21.14-.23Zm-16.34,0s0,.02,0,.04c0,.13-.19.31-.57.54-.16.1-.39.24-.52.33-.35.24-.36.23-.05-.02.11-.09.33-.24.47-.34.17-.11.34-.25.46-.36.1-.1.19-.18.19-.18Zm-.19,0c.09-.02-.25.28-.49.44-.13.08-.28.19-.35.24l-.12.09.13-.12c.29-.27.53-.47.65-.55.07-.05.15-.09.18-.1Zm-3.22.43h.09c.19,0,.64.18.84.33.07.05.24.26.21.26,0,0-.1-.04-.2-.1-.1-.05-.25-.12-.33-.15-.2-.08-.46-.22-.54-.28l-.07-.06Zm0,.1c.06.08.29.22.47.31.23.1.51.23.65.31.15.09.13.08-.26-.02-.45-.12-.78-.33-.89-.55-.05-.11-.04-.13.02-.05Zm1.68.87s.04.28.09.6c.05.32.11.79.14,1.05.06.59.13,1.05.22,1.55.04.21.09.52.11.69l.04.31-.05.05c-.06.06-.11.06-.14,0-.04-.09-.29-1.55-.38-2.24-.09-.69-.23-1.8-.23-1.89,0-.03.02-.04.07-.05.04,0,.07-.03.08-.05.01-.04.05-.06.05-.02Zm18.04.14c.07.02.06.02-.11.04-.1,0-.23.03-.29.04-.07.01-.12.02-.12.02,0,0,.06-.03.13-.06.15-.06.27-.07.39-.03Zm0,.11c.07,0-.05.05-.23.09-.11.03-.21.04-.31.04h-.13s.14-.04.14-.04c.07-.02.22-.05.32-.07.1-.01.2-.03.22-.03Zm-1.13.32q.08-.04.03.15c-.05.19-.31,1.58-.44,2.36-.06.34-.17.86-.24,1.14-.03.1-.05.24-.05.31,0,.21-.03.21-.04,0,0-.11-.02-.24-.03-.29-.02-.07,0-.12.05-.34.24-.9.43-1.79.48-2.37.03-.27.14-.95.16-.94,0,0,.05,0,.08-.02Zm-15.18,1.98s.04.21,0,.33c-.06.16-.22.37-.44.6l-.21.22.06-.12c.04-.07.12-.19.18-.28.22-.31.44-.67.43-.71,0-.03,0-.05,0-.05Zm-.07.02l.05-.03-.04.06s-.11.17-.21.31c-.09.14-.22.32-.28.4-.06.08-.15.22-.2.32-.1.2-.1.15.03-.15.15-.36.25-.53.49-.77.06-.06.13-.13.16-.14Zm-1.09.02s.12.23.15.33c.04.12.04.62,0,.58,0,0-.05-.22-.09-.46-.04-.24-.07-.45-.07-.45Zm-1.36.22c.17.09.43.36.64.65.09.13.18.25.2.28.02.03.05.08.05.12.01.07,0,.06-.21-.14-.22-.21-.36-.35-.6-.65-.07-.09-.16-.18-.19-.21-.04-.04-.05-.05-.03-.07.03-.03.07-.03.14,0Zm-.18.13s.09.09.18.21c.17.21.57.62.78.8.06.05.09.09.08.08-.07-.04-.33-.22-.51-.36-.3-.24-.43-.39-.5-.61-.02-.06-.03-.11-.03-.12Zm3.57.11s-.11.08-.24.14c-.28.14-.49.28-.73.48-.2.16-.39.29-.6.41-.08.05-.17.11-.21.14-.07.06-.07.05.02-.07.05-.07.14-.18.21-.25.21-.2,1.1-.82,1.23-.86.14-.04.3-.04.3,0Zm-.12.18l.12-.07-.04.06c-.07.1-.17.2-.29.31-.13.11-.53.37-.75.48-.14.07-.43.19-.45.19,0,0,.07-.05.17-.11.1-.06.25-.17.34-.24.37-.28.5-.38.64-.46.08-.05.2-.12.27-.15Zm13.36.7c.14.18.18.52.13,1.06-.03.31-.14-.02-.22-.67-.03-.22-.03-.29,0-.4.01-.05.04-.04.08.02Zm-15.03,0s0,0,0,.02c0,0,0,.02-.02.02,0,0-.01,0,0-.02,0-.01.02-.02.02-.02Zm-1.33.18c.18.04.69.2.74.23.03.02-.52,0-.76-.02-.1-.01-.28-.05-.4-.08-.12-.03-.28-.07-.35-.08-.11-.02-.13-.03-.13-.06,0-.02.04-.04.07-.06.13-.05.49-.02.83.05Zm17.46,0s0,.15-.08.31c-.1.21-.61.95-.61.89,0,0,.01-.04.03-.06.02-.02.12-.2.23-.4.11-.2.25-.45.31-.55.06-.1.12-.18.13-.18Zm-.16.06s-.04.07-.07.11c-.03.05-.14.22-.23.39s-.18.3-.17.28c.04-.11.18-.45.2-.5.02-.04.06-.09.08-.12.06-.07.22-.21.19-.17Zm-17.86.16c.13.03.32.07.41.08l.18.02-.15.02c-.31.03-.53-.01-.69-.14-.06-.05-.05-.05.25.02Zm15.98.02s.02-.05.1.06c.19.25.64,1.06.61,1.09-.01.01-.41-.47-.51-.6-.08-.12-.2-.36-.21-.44,0-.03,0-.08,0-.11Zm-14.28.11s.05.03.07.18c.05.24.18.77.25,1.02.03.11.18.68.33,1.26.15.58.28,1.11.3,1.18.03.11.03.13,0,.21-.02.05-.04.09-.05.09,0,0-.05-.03-.09-.06-.08-.07-.07-.03-.34-1.09-.23-.91-.34-1.37-.5-2.18-.1-.51-.11-.56-.08-.59.03-.02.04-.03.12,0Zm17.09.42c-.32.27-.69.49-1.24.72l-.26.11.07-.07c.09-.09.51-.38.71-.49.09-.05.28-.13.43-.19.27-.1.32-.11.28-.08Zm-.12.29c-.16.2-.54.42-.91.51-.11.03-.21.05-.21.04s.11-.06.25-.12c.28-.12.6-.3.79-.45.2-.15.21-.15.07.01Zm-1.69.88s.05-.04.06-.03c.01.02-.06.4-.28,1.5-.07.37-.2.99-.27,1.37-.07.38-.14.7-.15.72,0,.01-.02-.04-.03-.13,0-.09-.02-.19-.03-.23-.02-.08.02-.36.23-1.37.21-1.03.38-1.77.41-1.78.01,0,.05-.03.07-.06Zm-14.4.21c.1.19.13.41.11.93v.25s-.17-.66-.17-.66c-.09-.36-.17-.67-.17-.68,0-.06.17.07.22.16Zm.93.04s0,0,0,.02c-.01,0-.06.1-.11.2-.05.1-.13.27-.18.36-.06.1-.15.3-.21.45-.06.15-.12.27-.12.26,0-.05.07-.37.11-.51.1-.32.28-.65.42-.74.04-.03.08-.05.09-.05Zm.18.21c.03.14-.04.29-.25.56-.25.33-.42.53-.42.53-.01-.01.2-.5.32-.71.13-.24.23-.46.23-.51,0-.09.11.03.13.13Zm-2.49.17s.06.04.13.08c.14.09.22.18.35.38.05.08.15.23.21.34.11.18.21.37.18.4,0,0-.24-.34-.36-.54-.11-.18-.15-.24-.35-.46-.1-.1-.17-.19-.17-.19Zm-.12.07c0-.05.02-.04.18.14.19.21.29.35.41.57.04.07.11.2.16.26l.09.13-.08-.06c-.12-.09-.47-.47-.57-.6-.05-.07-.12-.18-.15-.25-.03-.07-.06-.15-.05-.19Zm3.39.09h.06l-.04.06c-.1.14-.31.31-.79.63-.47.32-.64.48-.8.74-.04.07-.08.13-.08.12-.02-.02.14-.36.23-.48.21-.3.87-.83,1.25-1.01.07-.03.14-.06.17-.06Zm.15.08s0,.05,0,.11c-.02.15-.09.3-.22.44-.2.21-.4.35-.9.59-.25.12-.47.22-.48.22-.05-.02.42-.44.66-.62.14-.1.33-.23.42-.3.09-.07.24-.19.34-.28.09-.09.17-.16.18-.16Zm-3.51.63c.21.1.36.21.66.43.21.16.39.3.4.31,0,.01-.11-.04-.28-.12-.16-.08-.38-.18-.48-.22-.1-.04-.27-.14-.38-.21-.11-.07-.25-.16-.3-.19-.13-.07-.12-.07-.08-.1.08-.06.18-.03.46.11Zm14.85.04l.02-.07.03.05c.08.12.11.34.12.75,0,.21,0,.39,0,.39,0,0-.02-.06-.05-.12-.02-.07-.07-.3-.09-.52-.04-.28-.05-.42-.03-.47Zm-15.37.02v-.05s.15.11.15.11c.21.16.43.29.64.37.23.09.71.32.7.33,0,0-.11,0-.24-.03-.26-.04-.64-.17-.84-.27-.15-.08-.33-.24-.38-.34-.02-.04-.03-.09-.03-.12Zm14.73.23c.06,0,.24.11.3.18.08.1.22.39.35.72.09.23.09.25.08.37,0,.07-.02.14-.03.15-.01.02-.11-.18-.23-.47-.13-.31-.32-.7-.41-.83-.05-.07-.08-.13-.07-.13Zm-.15.03s.04,0,.12.14c.09.16.37.72.43.88.01.04.08.17.14.3.07.13.11.24.11.24-.01.01-.68-1.12-.73-1.24-.03-.06-.06-.15-.07-.2-.01-.06-.02-.1,0-.12Zm2.01.27s.02.07.02.12c0,.21-.24.67-.43.84-.07.06-.12.09-.12.07,0-.01.02-.12.05-.25.04-.21.05-.23.21-.47.2-.3.24-.35.27-.32Zm-14.42.47s.05-.02.06.02c0,.02.1.39.21.81.21.81.27,1.04.53,1.97.17.59.19.68.17.68,0,0-.04-.02-.08-.05-.04-.02-.09-.06-.13-.07-.05-.03-.06-.06-.12-.27-.06-.22-.84-2.98-.86-3.05,0-.03,0-.04.08-.03.05,0,.11,0,.14-.02Zm15.05.09s-.15.13-.33.26c-.17.13-.45.35-.62.48-.27.22-.35.26-.3.17.04-.06.45-.47.6-.59.09-.07.24-.17.34-.22.18-.09.33-.14.3-.09Zm-.13.23c.15-.12.17-.12.08.02-.09.14-.23.25-.62.49-.26.16-.31.19-.31.18,0,0,.16-.13.35-.28.19-.15.42-.33.5-.4Zm-13.65.86c.08,0,.17.16.19.35.02.16-.05.49-.17.85-.06.16-.11.36-.13.46-.04.2-.07.29-.06.16,0-.05.02-.2.03-.33.01-.13.03-.34.05-.46.04-.29.07-.9.06-.98,0-.05,0-.06.03-.06Zm-.12.08c0,.16-.08,1.1-.13,1.46v.09s-.06-.16-.06-.16c-.06-.19-.05-.13-.03-.66.02-.46.03-.52.12-.66.05-.08.1-.12.1-.07Zm12.35.18s-.05.29-.1.6c-.14.87-.24,1.7-.29,2.45-.03.33-.03.37-.08.45l-.05.09-.03-.07c-.06-.15-.07-.09.11-1.42.09-.66.27-1.94.29-2.03,0-.04.02-.05.05-.05.02,0,.04-.01.05-.03.02-.05.07-.04.06.01Zm-11.17.17c.06-.02.05,0-.07.17-.15.23-.18.27-.49.63-.13.16-.28.35-.33.42-.05.07-.1.15-.11.16-.02.02.06-.24.12-.38.17-.41.47-.79.74-.94.05-.03.12-.06.15-.07Zm.16.02s.1.1.1.16c0,.03-.03.11-.07.18-.07.14-.64.87-.74.95-.09.07-.42.28-.43.27-.02-.01.24-.36.53-.72.31-.38.47-.6.54-.75.02-.05.05-.08.06-.08Zm-3.58.18c.2.12.78.56.93.7.13.12.41.47.41.5,0,0-.05-.02-.11-.05-.1-.06-.17-.11-.6-.44-.1-.08-.26-.2-.35-.26-.27-.2-.49-.44-.45-.49.02-.03.06-.02.17.05Zm4.32.63s.04,0,0,.03c-.03.02-.13.09-.22.16s-.22.17-.3.22c-.17.11-.59.31-.86.41-.11.04-.27.1-.35.13-.08.03-.14.05-.14.05s.09-.06.19-.12c.11-.06.3-.18.42-.25.3-.19.95-.53,1.1-.58.07-.02.14-.04.16-.04Zm-.06.21s0,.02-.05.07c-.12.15-.32.3-.49.39-.17.08-.84.32-.96.34h-.07s.06,0,.06,0c.58-.21,1.04-.44,1.29-.63.1-.08.2-.15.22-.17Zm-4.05.21c.14.04.18.05.92.38.57.25.65.29.64.3-.01.01-.39-.06-.52-.09-.07-.02-.23-.08-.35-.14-.42-.19-.96-.33-1.37-.35h-.25s.1-.06.1-.06c.06-.02.15-.05.21-.06.16-.03.47-.02.62.02Zm13.16.04c.07,0,.22.27.3.55.06.21.11.54.11.64,0,.07-.02.06-.16-.27-.21-.45-.25-.59-.26-.77,0-.13,0-.15.02-.15Zm-5.88.1s.01-.02.04.06c.07.24.08.33.08.58,0,.6-.22,1.55-.6,2.66-.18.52-.37.95-.94,2.08-.15.3-.34.71-.43.92-.23.57-.41.88-.87,1.53-.1.14-.19.27-.2.29-.04.07.04-.12.14-.33.06-.11.19-.44.3-.72.11-.28.27-.69.35-.9.18-.42.27-.66.49-1.28.16-.45.39-1.03.62-1.53.2-.44.28-.64.42-1.07.21-.62.46-1.56.55-2.03.02-.11.04-.23.05-.26Zm-.12-.02c.06,0-.3,1.39-.56,2.19-.14.42-.23.67-.45,1.14-.32.7-.47,1.09-.76,1.92-.06.17-.2.54-.32.82-.11.28-.29.72-.39,1-.1.27-.24.61-.31.75-.12.24-.21.48-.24.65,0,.04-.02.07-.02.07-.01-.01.07-.65.11-.89.1-.53.27-1.08.95-3.1.44-1.28.57-1.62.95-2.46.11-.24.27-.61.36-.82.26-.61.44-.97.6-1.18.04-.05.07-.09.08-.09Zm-7.79.09c.45.06,1.03.21,1.24.33.06.03.09.06.08.05-.07-.02-.34-.07-.62-.12-.41-.07-.79-.17-.91-.23-.12-.06-.1-.06.21-.02Zm13.17.33c.11.06.55.49.68.69.16.22.32.56.32.64,0,.04,0,.07-.02.07-.02,0-.23-.3-.35-.51-.12-.22-.32-.47-.46-.59-.07-.06-.16-.15-.22-.22-.11-.12-.1-.14.04-.07Zm2.23,0s.04-.03.03.07c-.02.15-.09.35-.18.51-.08.14-.4.61-.41.59,0,0,0-.07.01-.16.02-.14.04-.19.19-.48.09-.18.2-.36.25-.42.05-.05.1-.11.12-.12Zm-2.4.07s.14.17.28.3c.26.27.33.35.49.63.06.1.17.27.24.37.07.1.13.19.12.21,0,.03-.71-.68-.92-.92-.21-.25-.29-.38-.29-.5,0-.13.03-.16.08-.08Zm-10.51.36s.05.02.07.01c.06,0,.08.07.37.98.27.86.39,1.25.49,1.63.09.33.11.43.4,1.7.11.48.22.99.25,1.13.11.49.34,1.53.41,1.85.07.3.07.35.08.75,0,.23.02.45.02.48.02.06.07.09.07.05,0-.04.09-.02.11.02,0,.02.04.22.08.45.17.98.29,1.59.51,2.59.15.68.22,1.02.33,1.59.05.24.12.63.17.88.08.39.49,2.84.6,3.56.05.34.15,1.14.18,1.47.02.21.02.33,0,.56-.01.16-.03.34-.03.39,0,.06,0,.12.02.15.02.03.04.08.06.11.02.04.05.07.06.08.03.02.04.12.1.74.16,1.76.19,2.17.19,3.35,0,.37.01.94.03,1.26.1,1.96.1,3.58.03,5.49-.03.69-.06,1.44-.07,1.65-.01.43-.12,2.49-.15,2.95-.04.6-.18,1.8-.28,2.47-.02.15-.08.5-.14.78-.14.73-.33,1.76-.38,2.12-.03.17-.07.37-.09.45-.02.08-.05.23-.07.33-.02.1-.05.24-.07.31-.02.07-.05.17-.06.23-.03.12,0,.11-.25.06-.08-.02-.15-.05-.17-.06-.02-.02-.02-.07,0-.19.02-.09.06-.34.08-.56s.11-.72.18-1.11c.12-.67.52-3.42.63-4.31.2-1.65.48-4.97.54-6.61.09-2.26.08-4.32-.04-6.03-.14-2.01-.37-4.23-.71-6.7-.39-2.86-.71-4.54-1.87-9.74-.59-2.64-.81-3.55-1.56-6.29-.14-.51-.25-.95-.25-.96,0-.03.09-.07.12-.05Zm13.49.19s.03.05.02.1c-.05.26-.33.51-.93.82-.14.07-.25.12-.25.12s.12-.1.26-.21c.54-.42.9-.77.85-.84-.02-.03,0-.03.04.01Zm-.12-.03h.05l-.08.09c-.19.21-1.04.91-1.04.86,0-.03.21-.28.37-.46.18-.19.38-.36.53-.43.07-.03.14-.06.17-.06Zm-18.03,1.39c1.3.4,1.61.55,2.5,1.23.52.39.87.69,1.16.97.28.27.83.89,1.02,1.13.26.34.64.98,1.08,1.85.29.57.47,1,.31.72-.03-.05-.1-.16-.17-.25-.07-.09-.25-.35-.4-.57-.56-.83-1.1-1.5-1.56-1.96-.3-.3-1.13-1.08-1.34-1.26-.35-.3-.98-.72-1.37-.92-.33-.17-1.13-.55-1.38-.65-.12-.05-.37-.15-.54-.2-.17-.06-.32-.11-.31-.12,0,0,.03-.04.07-.07.14-.11.26-.09.93.11Zm16.72.04s.02.11-.08.68c-.12.67-.18,1.07-.24,1.79-.03.35-.07.65-.07.67,0,.04-.19.18-.19.15,0-.02.23-2.05.32-2.81.02-.19.05-.37.05-.4v-.05s.05.05.05.05c.05.07.12.06.13-.02,0-.03.02-.06.03-.07Zm-17.77.02s.59.2.79.29c.23.1.99.46,1.35.64.54.27,1.14.69,1.62,1.13.49.45,1.26,1.19,1.45,1.41.44.5.84,1.02,1.35,1.77.12.18.28.41.35.52.16.23.42.68.41.69,0,0-.09-.11-.19-.26-.1-.15-.35-.5-.56-.78-.85-1.14-1.15-1.46-1.94-2.09-1.01-.81-2.02-1.52-3.2-2.24-.45-.27-1.18-.76-1.32-.89-.04-.03-.08-.08-.1-.12-.02-.03-.03-.06-.02-.07Zm16.42.99c.02-.05.19.17.27.35.15.33.3.99.3,1.3v.12s-.08-.23-.08-.23c-.04-.12-.12-.38-.18-.56-.05-.19-.15-.48-.21-.65-.06-.17-.11-.32-.1-.33Zm-.1.06s.08.2.17.48c.09.28.23.73.32.99.14.41.16.49.14.56-.02.11-.03.08-.11-.2-.03-.12-.1-.35-.15-.49-.08-.24-.25-.81-.35-1.17-.02-.08-.04-.15-.03-.17Zm-1.34.52c.14.03.32.11.48.22.25.18.71.56.82.67.15.16.34.42.42.57l.06.12-.29-.29c-.16-.16-.4-.37-.53-.48-.13-.1-.31-.25-.4-.33-.09-.07-.26-.21-.39-.3-.15-.11-.22-.17-.21-.18.01,0,.03-.01.03-.01Zm3.82.07c.02.05-.04.24-.11.36-.08.14-.29.35-.54.55-.1.08-.26.22-.35.3-.09.08-.17.15-.18.15,0,0,.03-.09.08-.2.06-.11.13-.27.17-.36.03-.09.1-.21.14-.29.1-.18.36-.43.5-.5.13-.06.27-.07.29-.02Zm-3.98.04s.06,0,.3.18c.16.12.38.29.49.39.11.1.27.23.35.3s.25.22.38.35c.13.13.28.28.34.32l.1.09-.08-.04c-.24-.12-.98-.59-1.2-.76-.24-.19-.58-.55-.65-.68-.04-.08-.05-.12-.04-.14Zm4.57.8s.03.03-.07.06c-.06.02-.23.09-.38.17-.59.29-1.29.6-1.35.59-.02,0,.09-.09.24-.19.55-.36.89-.54,1.13-.6.23-.06.38-.07.43-.03Zm-.05.14s.05,0-.02.06c-.22.23-1.18.73-1.62.83-.16.04-.16.04-.15-.02,0-.04.03-.06.2-.12.23-.09,1.01-.45,1.32-.61.12-.06.24-.12.27-.13Zm-2.17,1.08s.06,0,.09.01h.06s-.01.18-.01.18c0,.09-.04.42-.08.71-.04.3-.08.66-.09.8-.01.14-.06.55-.1.91-.04.36-.08.72-.09.8-.04.46-.23,1.99-.31,2.43-.02.12-.06.38-.08.57-.02.19-.09.65-.16,1.04-.07.38-.13.74-.14.81-.01.07-.04.18-.06.24-.02.07-.04.16-.04.21s-.03.21-.06.37c-.09.44-.25,1.37-.31,1.84-.03.23-.08.53-.11.67-.03.14-.06.36-.08.48-.03.19-.19,1.18-.28,1.69-.02.09-.08.37-.14.63-.07.26-.17.71-.24,1-.41,1.75-.6,2.37-1.16,3.78-.09.22-.74,1.7-.93,2.12-.07.15-.26.57-.43.93-.39.84-1.1,2.26-1.49,2.96-.17.3-.32.57-.34.6-.03.05-.03.02-.02-.35,0-.22.02-.53.03-.68v-.28s.16-.27.16-.27c.18-.33.76-1.42,1.14-2.15.3-.58.48-.94.8-1.64.11-.24.21-.45.22-.46.03-.03.04.19.02.26-.03.12.04.21.13.16.05-.03.11-.16.15-.31.04-.14.12-.68.15-.98.02-.21.03-.24.21-.66.68-1.61,1.25-3.51,1.62-5.36.2-1.01.28-1.47.62-3.66.09-.59.17-1.11.18-1.14q.01-.06.03-.02s.03.05.05.05c.03,0,.04-.03,0-.05-.01,0,0-.04.03-.07.04-.06.04-.08.06-.59,0-.47.02-.57.07-.89.23-1.39.56-3.8.8-6.02.06-.56.08-.66.1-.66Zm-3.34,2.48c.15.15.32.37.64.87.4.62.5.79.67,1.17.08.18.24.52.36.76.35.69.37.74.42.9.09.31.1.43.06.69-.02.13-.04.25-.05.27,0,.02-.03-.06-.06-.16-.06-.2-.34-.9-.57-1.4-.08-.17-.2-.45-.27-.62-.21-.51-.61-1.35-.82-1.7-.08-.15-.6-.88-.68-.97-.11-.12.13.04.29.19Zm4.43-.1s-.04.08-.11.19c-.16.24-.42.76-.58,1.17-.07.17-.19.48-.27.68-.08.2-.15.4-.17.44-.07.19-.03,0,.12-.56.24-.94.34-1.21.52-1.46.1-.15.27-.31.39-.39.05-.03.09-.06.1-.06Zm.07.08s0,.03,0,.07c0,.09-.05.23-.19.55-.12.29-.15.36-.45,1.19-.18.51-.24.65-.5,1.16-.16.32-.29.57-.29.57,0,0,.17-.64.25-.87.04-.13.16-.44.25-.69.1-.25.22-.57.28-.71.12-.31.4-.88.54-1.11.06-.09.1-.16.11-.16Zm-4.7.12s.4.55.48.68c.18.3.61,1.19.83,1.72.07.18.2.48.29.67.13.29.29.66.32.77,0,.02-.01-.02-.04-.07-.03-.06-.12-.22-.21-.37-.08-.15-.28-.53-.44-.84-.16-.31-.38-.73-.49-.93-.22-.43-.27-.51-.54-1.15-.11-.26-.2-.47-.2-.48Zm-9.27,1.25v-.14s.07.1.07.1c.14.26.2.64.23,1.38.06,1.39,0,2.17-.25,3.58l-.07.41v-.27c-.02-.15-.04-.51-.06-.82-.03-.62-.02-1.01.05-2.04.04-.48.04-.68.03-1.32,0-.42,0-.82,0-.9Zm-.16.13l.05-.14v.78c0,.63,0,.88-.03,1.29-.08,1.06-.1,1.66-.06,2.3,0,.18.03.64.05,1.03.03.7.03.7-.01.78-.04.08-.08.11-.08.06,0-.09-.09-1.13-.14-1.63-.09-.95-.1-1.04-.11-1.76,0-.55,0-.76.02-1.07.04-.51.11-.97.19-1.26.03-.13.08-.3.12-.38Zm15.29.38c-.18.27-.36.54-.42.61-.23.3-.75.87-1.4,1.53-.28.29-.56.58-.61.64-.05.07-.1.13-.12.14-.05.05.22-.37.44-.71.09-.14.25-.4.35-.57.45-.76.71-1.09,1.16-1.42.14-.1.36-.27.49-.38.46-.37.45-.38.09.16Zm.38-.39s-.12.44-.2.59c-.22.39-.99,1.23-1.73,1.89-.2.17-.37.33-.39.34-.02.01.17-.19.43-.44.87-.89,1.17-1.24,1.63-1.97.14-.22.27-.41.27-.41Zm-2.8.12s.01,0,0,.03c0,.02,0,.03-.01.01,0-.01,0-.03,0-.04Zm-5.73,1.8c-.03.11-.09.35-.13.52-.05.24-.32,1.75-.39,2.27-.03.21-.09.57-.14.8-.17.88-.23,1.3-.33,2.25-.08.75-.1.82-.21,1.31-.04.17-.07.33-.07.35,0,.04,0,.04-.02.02,0-.02-.03-.21-.04-.44-.05-.77.01-1.3.37-3.3.07-.41.17-.96.21-1.22.13-.88.17-1.12.25-1.48.11-.51.2-.78.33-.97.07-.1.19-.18.17-.11Zm.09.03s.11.16.15.35c.03.14.03.23.02.51-.03.79-.31,2.82-.51,3.62-.04.16-.35,1.22-.58,1.97-.12.41-.32,1-.32.97,0,0,.03-.16.07-.34.1-.41.13-.58.18-1.06.1-.92.2-1.59.35-2.44.04-.22.09-.51.11-.63s.08-.52.14-.88c.06-.36.14-.85.18-1.08.04-.24.1-.55.13-.7.03-.15.07-.28.07-.29Zm-4.25,1.24s0,.02-.01.03c-.02,0-.05.06-.08.12-.12.26-.28.44-.68.79-.43.38-.72.67-1.08,1.07-.35.39-.59.7-.77.99-.07.11-.12.18-.12.16,0-.02,0-.12.02-.21.02-.2.03-.21.45-.87.46-.71.64-.96.93-1.25.27-.27.76-.62,1.09-.78.13-.07.23-.08.25-.05Zm-.02.23l.05-.12v.12c-.03.35-.38.79-1.08,1.37-.44.37-.77.66-1.08.98-.45.47-.15.06.44-.59.32-.36.48-.51.99-.96.29-.25.47-.44.56-.59.04-.06.09-.16.12-.22Zm-5.35.07c.13,0,.16,0,.3.08.09.04.21.12.27.17.13.09.41.35.39.36,0,0-.1-.02-.21-.06-.3-.1-.47-.13-.72-.13-.28,0-.43.04-.7.17-.34.18-.45.29-.72.8l-.08.15.02-.1c.03-.21.26-.68.43-.9.12-.15.32-.32.46-.4.06-.03.17-.07.25-.09.08-.02.22-.04.29-.04Zm0,.52c.22-.03.92.14,1.13.28.07.05.13.11.2.22.08.13.27.5.27.53,0,0-.04-.03-.1-.09-.05-.06-.11-.1-.12-.1-.01,0-.08-.04-.16-.09-.27-.18-.57-.28-.8-.29-.09,0-.1,0-.1-.04s0-.04-.04,0c-.03.02-.1.04-.26.05-.3.03-.61.07-.76.12-.16.05-.28.13-.48.32-.09.09-.17.16-.17.15s.04-.07.08-.13c.04-.06.13-.2.19-.3.13-.22.22-.32.45-.44.2-.11.35-.16.5-.18.06,0,.13-.01.15-.02Zm11.55.09v-.09s.11.26.11.26c.14.33.2.52.26.79.1.42.12.64.12,1.28v.59l-.1.69c-.06.38-.15,1.12-.2,1.65-.06.53-.13,1.19-.16,1.49-.13,1.21-.17,1.84-.16,2.93,0,.52,0,.94-.01.99-.01.05-.04.13-.07.18l-.05.1v-.27c-.02-.15-.04-.38-.05-.52-.01-.14-.03-.54-.04-.88-.01-.34-.03-.78-.04-.98-.04-.8-.02-1.32.09-2.19.04-.3.08-.68.1-.85.02-.17.07-.58.12-.91s.1-.72.11-.87c.03-.4.02-1.96-.01-2.68-.02-.34-.03-.66-.02-.71Zm-.1.13s.02.29.03.59c.05.89.06,1.53.03,2.15-.02.61-.04.73-.15,1.48-.04.25-.09.63-.11.84-.02.21-.07.62-.11.91-.11.85-.12,1.34-.05,2.73.01.23.02.52.02.65v.24s-.07-.36-.07-.36c-.17-.93-.2-1.24-.18-2.08.05-2.2.08-2.75.24-4.02.07-.55.08-.71.12-1.32.04-.69.08-1.16.13-1.44.05-.25.09-.44.1-.36Zm-10.76.51c.08,0,.29.12.58.31.17.12.19.13.32.34.16.26.36.62.42.76l.04.09-.06-.07c-.12-.16-.35-.4-.63-.69-.16-.17-.39-.41-.5-.53-.11-.12-.19-.22-.18-.22Zm5.33.91s.11.18.22.42c.18.39.3.77.56,1.69.13.48.26.87.51,1.47.18.46.25.71.1.37-.05-.11-.19-.41-.33-.68-.13-.27-.27-.57-.31-.67-.04-.1-.12-.42-.19-.71-.15-.66-.21-.86-.41-1.43-.09-.25-.15-.46-.15-.46Zm-.07.14s.32.93.37,1.14c.02.08.09.38.16.66.07.28.14.58.17.66.07.19.23.55.46,1,.1.2.18.36.18.37-.03.02-.39-.66-.63-1.19-.37-.81-.49-1.18-.59-1.91-.02-.17-.06-.4-.08-.51-.02-.11-.04-.21-.03-.21Zm-.67,1.67c0,.06-.02.17-.06.27-.1.3-.5,1.38-.7,1.86-.23.58-.33.85-.53,1.54-.2.68-.24.84-.3,1.09l-.05.2v-.16c.02-.09.06-.33.1-.53.09-.45.28-1.38.38-1.88.18-.92.52-1.71,1-2.32.15-.19.16-.19.16-.07Zm-.19-.08s-.03.05-.08.11c-.28.35-.62.98-.78,1.46-.13.38-.19.66-.31,1.29-.06.3-.14.71-.18.91-.04.2-.1.46-.13.58-.06.28-.1.6-.12.92,0,.14-.02.26-.03.26-.03.02-.04-.37-.03-.7,0-.18.04-.59.07-.92.03-.33.08-.83.1-1.11.05-.59.07-.78.11-1.01.07-.34.22-.71.38-.93.19-.25.51-.54.82-.75.09-.06.17-.11.17-.11Zm18.72.32s-.47.8-.7,1.19c-.25.4-.57.87-.98,1.4-.11.15-.3.41-.42.58-.2.29-.57.82-.64.93-.03.04-.03.03,0-.06.15-.39.26-.61.81-1.51.82-1.36,1.41-2.18,1.74-2.42.08-.06.2-.12.2-.1Zm-.06.27c.12-.22.14-.24.15-.19.07.26-.21,1-.56,1.53-.26.39-.88,1.13-1.49,1.76-.19.19-.41.44-.5.55-.23.28-.24.29-.07.04.08-.12.27-.39.41-.6.14-.21.39-.56.56-.78.58-.77.91-1.26,1.29-1.92.05-.08.15-.26.22-.39Zm-23.18.06c.08.09.17.26.5.97.8,1.68.82,1.73,1.02,2.37.07.23.17.54.22.7.06.16.09.27.08.27-.05-.05-.28-.48-.41-.75-.2-.41-.88-1.88-.99-2.13-.16-.38-.26-.64-.35-.98-.06-.19-.11-.38-.13-.43-.04-.1-.02-.11.06-.02Zm-.18.1s.03-.06.03-.06c0,0,.05.18.1.37.17.61.32.98.88,2.18.59,1.26.76,1.59,1.09,2.06.19.26.2.29.19.29-.01,0-.41-.53-.71-.96-.14-.2-.33-.46-.42-.58-.36-.49-.59-.9-.82-1.49-.28-.71-.4-1.19-.38-1.54,0-.14.02-.23.04-.28Zm17.35.13s0-.03.01,0c0,.07-.12.33-.24.51-.14.22-.85,1.16-1.08,1.44-.27.33-.5.62-.91,1.18-.51.69-.58.78-.9,1.28-.3.45-.41.6-.64.86-.14.16-.61.71-.66.78-.01.02-.15.15-.3.28-.15.13-.34.31-.42.39l-.16.15.27-.36c.15-.2.4-.51.55-.69.49-.58.61-.76,1-1.43.31-.53.41-.7.7-1.13.4-.6.6-.84,1.35-1.64.68-.71,1.16-1.23,1.29-1.41.07-.09.13-.18.13-.2Zm-.18.06l.1-.06-.07.08c-.28.31-.4.44-1.14,1.22-.72.77-.97,1.04-1.2,1.34-.24.3-.72,1.04-1.06,1.64-.43.74-.54.9-.95,1.38-.35.42-.52.64-.78,1.03-.25.37-.32.48-.24.34.6-1.01.74-1.26.96-1.74.59-1.28,1.21-2.33,1.8-3.03.51-.61.82-.9,1.44-1.35.18-.13.48-.36.67-.51.19-.16.4-.31.46-.34Zm2.87,1.13c.06.06.09.13.13.23.04.13.04.18.04.57,0,.42-.02.66-.1,1.21-.04.28-.13.75-.14.74,0,0,0-.2.02-.42.02-.23.03-.63.03-.89,0-.67-.03-.99-.11-1.49-.02-.08.04-.07.13.04Zm-.2.05s0,.08.02.15c.09.66.08,2.07-.03,2.72-.02.15-.02.14-.04-.31-.02-.73-.05-1.32-.07-1.63-.03-.32-.01-.52.04-.77.04-.15.08-.24.08-.17Zm4.1,2.62c.27.03.66.14.7.19,0,0-.24.03-.55.05-.94.06-1.25.1-1.71.21-.59.15-.83.22-1.25.39-.39.16-.46.19-.46.17,0-.01.41-.27.74-.47.61-.36.88-.46,1.43-.54.23-.03.83-.04,1.1,0Zm-4,.12s.01,0,0,.03c0,.02,0,.03-.01.01,0-.01,0-.03,0-.04Zm4.51.19h.13s-.05.04-.05.04c-.11.09-.32.2-.51.26-.38.12-.59.15-1.42.19-.28.01-.64.04-.82.05s-.36.03-.42.04h-.11s.09-.03.09-.03c.24-.11,1.05-.35,1.46-.42.09-.02.36-.04.59-.06s.54-.04.68-.05c.14-.01.31-.02.38-.02Zm-18.18.96s-.02.07-.04.14c-.04.11-.09.49-.13.83,0,.07-.02.92-.02,1.87,0,1.82,0,1.79-.1,2.53-.04.27-.05.46-.05.76,0,.38,0,.39-.03.27-.02-.07-.05-.28-.07-.46-.04-.3-.05-.41-.05-1.05,0-.52.01-.83.04-1.12.02-.25.04-.77.05-1.33.02-.93.03-1.18.09-1.61.04-.31.08-.46.16-.62.06-.12.15-.24.15-.2Zm.06.17s.03.04.05.16c.04.22.05.67,0,1.68-.01.35-.02,1.01-.02,1.48,0,.9-.02,1.21-.08,1.65-.07.46-.18,1.28-.21,1.62l-.04.33v-.53c.02-.69.03-.8.08-1.24.1-.75.12-1.29.1-2.77-.02-1.21,0-1.6.05-2.03.02-.17.05-.32.06-.33Zm10.64.94c.12-.37.14-.36.14.07,0,.5-.06.7-.41,1.45-.11.23-.26.56-.33.73-.38.87-.87,1.86-.9,1.83,0,0,.08-.23.23-.53.06-.12.22-.57.36-1.01.15-.44.39-1.12.53-1.51.15-.4.32-.86.37-1.03Zm-.03-.21s-.21.61-.42,1.15c-.21.55-.54,1.49-.71,2.03-.07.21-.18.5-.2.49,0,0,.01-.07.03-.15.02-.08.07-.32.12-.53.09-.42.24-.94.44-1.53.22-.63.4-1.04.61-1.31.1-.14.13-.17.13-.15Zm-14.83.63c.15.09.46.39.63.61.33.41.9,1.28,1.12,1.7.14.26.23.48.48,1.14.33.88.42,1.07.77,1.65q.36.59,0,.11c-.35-.46-.47-.62-.6-.83-.16-.23-.56-1.06-.72-1.46-.24-.6-.61-1.29-.95-1.77-.25-.35-.78-.95-1.04-1.19-.06-.06-.11-.11-.1-.11.04-.04.24.03.43.15Zm-.43.02s.47.49.71.78c.51.62.96,1.39,1.29,2.23.17.43.56,1.22.75,1.49.08.12.31.43.5.68.19.25.37.49.4.53.09.12-.47-.44-.83-.83-.9-.97-1.01-1.13-1.78-2.74-.16-.33-.39-.79-.53-1.04-.35-.62-.48-.89-.52-1.05,0-.03,0-.05,0-.05Zm13.1.5s0,.07-.04.27c-.06.27-.32.86-.57,1.29-.09.15-.32.58-.53.94-.68,1.22-.98,1.67-1.7,2.54-.33.4-.64.77-.81.99-.08.1-.23.25-.33.34-.22.19-.25.2-.16.09.4-.5.45-.58.73-1.06.3-.52.54-.89.99-1.51.28-.38.37-.54.68-1.11.42-.78.58-1.05,1.04-1.74.17-.24.38-.57.48-.74.1-.16.19-.3.2-.3Zm.08.18c.01-.08.03-.14.04-.13.02.03.01.35-.02.49-.02.07-.11.39-.21.69-.1.31-.23.7-.29.89-.13.4-.24.67-.4,1-.27.54-.37.67-1.36,1.76-.26.28-.69.69-.93.88-.21.16-.39.29-.37.25.02-.04.3-.38.7-.87.73-.88,1.03-1.33,1.62-2.41.17-.3.39-.71.51-.92.12-.21.25-.44.29-.53.1-.2.3-.66.35-.83.02-.07.05-.2.07-.28Zm6.99.52s-.08.04-.17.07c-.31.09-1.25.42-1.45.5-.28.11-.88.37-1.18.51-.25.12-.39.18-1.34.63-.25.12-.71.33-1.02.47-.43.2-.55.24-.49.19.19-.16.46-.3,1.15-.6.35-.15.61-.28.84-.42.09-.05.32-.19.51-.3.52-.31.96-.52,1.41-.68.28-.1.93-.28,1.27-.35.28-.06.47-.06.47,0Zm-.09.15s-.01.04-.07.1c-.15.15-.37.25-.88.42-.58.2-.71.25-1.4.59-.89.43-1.47.67-2.1.86-.19.05-.39.12-.45.14-.07.02-.12.04-.12.03,0,0,.09-.05.21-.1.12-.05.63-.29,1.14-.53,1.68-.78,2.08-.95,2.99-1.27.36-.12.67-.23.69-.24Zm-19.62,2.18s.02.02.16.6c.41,1.65.62,2.27,1.27,3.67.35.77.58,1.37.76,2,.05.18.14.47.19.65.09.3.22.89.21.93,0,0-.04-.07-.07-.19-.14-.42-.21-.6-.59-1.36-.51-1.02-.72-1.49-.96-2.16-.05-.15-.22-.61-.36-1.01-.36-1-.53-1.56-.63-2.12-.06-.33-.07-.87,0-.97.02-.03.04-.06.04-.06Zm.14.03s.19.19.26.32c.09.16.41.86.58,1.3.16.4.33.87.6,1.68.12.37.32.92.44,1.22.12.3.25.66.3.79.12.35.46,1.58.49,1.74.03.17.04.76,0,1.07l-.02.22-.02-.12c-.09-.61-.17-.96-.39-1.71-.3-1.01-.48-1.49-.93-2.5-.58-1.26-.77-1.84-1.2-3.49-.07-.29-.13-.53-.13-.54Zm5.18,3.69s.02,0,.02.05c0,.09-.1,1.32-.11,1.37-.02.07-.48.89-.49.86,0-.02-.02-.12-.03-.23-.01-.11-.05-.34-.08-.5l-.06-.29.37-.61c.2-.34.37-.62.38-.63Zm7.58.46s-.18.13-.64.35c-.21.1-.6.3-.85.44-.93.52-1.23.66-1.88.9-.55.21-.8.31-1.46.59-.5.21-2.02.83-2.02.82,0,0,0-.09,0-.19v-.18s.31-.14.31-.14c.17-.08.44-.2.61-.27,1.07-.43,2.34-1.01,3.56-1.62.44-.22.83-.4.94-.44.29-.1.78-.22.98-.24.22-.03.44-.03.45,0Zm.15.07s.02.04,0,.08c-.03.05-.05.07-.35.29-.1.08-.29.22-.42.32-.55.42-.8.56-1.37.77-.19.07-.5.19-.69.27-.19.08-.53.2-.75.28-.5.18-.72.27-1.35.56-.64.3-.93.42-1.36.55-.2.06-.43.14-.53.17l-.17.06v-.1s.01-.1.01-.1l.18-.07c.1-.04.42-.17.72-.29s.85-.35,1.22-.5c.37-.16.95-.4,1.29-.53.79-.3,1.16-.48,2.15-1.04.19-.1.49-.26.67-.35.33-.15.56-.28.66-.35.06-.04.07-.04.1,0Zm-8.65,1.07c.04.13.13.87.13,1.04,0,.05-.13.33-.49,1.04-.84,1.68-1.32,2.76-1.86,4.24-.47,1.28-.65,1.86-.91,2.85-.08.31-.15.56-.16.57-.04.04-.35-.16-.45-.29l-.07-.1.12-.38c.07-.21.21-.69.31-1.06.43-1.55.77-2.57,1.23-3.72.14-.36.35-.84.38-.86,0,0,.03.04.05.11.03.11.03.14.01.23-.02.09-.02.11,0,.15.03.05.05.06.11.03.12-.07.23-.57.27-1.21l.02-.3.12-.24c.17-.34.59-1.12.82-1.53.33-.59.35-.62.36-.57Zm.78.47s-.02.24-.05.51l-.05.49-.1.11c-.05.06-.11.13-.14.16l-.04.05v-.15c-.02-.08-.03-.22-.03-.31v-.16l.16-.3c.19-.35.23-.42.23-.4Zm-.63,1.16s.02.07.02.21v.23l-.12.16c-.14.18-.41.58-.59.87-.07.11-.13.2-.13.2-.02,0,.07-.18.43-.9.21-.41.38-.76.39-.77Zm.49.32c0,.07-.01.09-.12.19l-.12.12v-.06s.03-.09.1-.18c.13-.15.14-.16.14-.07Zm-.05.48s-.01.06-.01.08c0,.02-.03.06-.07.09q-.1.07-.1,0s.03-.08.08-.14c.09-.09.12-.11.11-.04Zm-.42.03s-.04.06-.07.08l-.05.04.05-.06c.05-.07.1-.11.07-.05Zm.39.27s-.03.05-.07.06c-.09.04-.1.03-.03-.02.09-.07.1-.07.1-.04Zm-.41.06s.02,0,.02.03c0,.02-.05.08-.13.14-.07.06-.22.19-.34.29-.13.12-.18.16-.14.11.04-.05.18-.19.32-.33.14-.13.27-.25.28-.25Zm.32.28l.06-.03v.14c-.03.15-.2,1.4-.21,1.45,0,.02,0-.03,0-.1,0-.17.07-1.38.09-1.4,0-.01.04-.03.07-.05Zm-.17,1.61s.01,0,0,.03c0,.02,0,.03-.01.01,0-.01,0-.03,0-.04Z"/>
  </g>
</svg>