<svg xmlns="http://www.w3.org/2000/svg" xmlns:xlink="http://www.w3.org/1999/xlink" version="1.1" width="256" height="256" viewBox="0 0 256 256" xml:space="preserve">

<defs>
</defs>
<g style="stroke: none; stroke-width: 0; stroke-dasharray: none; stroke-linecap: butt; stroke-linejoin: miter; stroke-miterlimit: 10; fill: none; fill-rule: nonzero; opacity: 1;" transform="translate(1.4065934065934016 1.4065934065934016) scale(2.81 2.81)" >
	<path d="M 30.342 53.579 c -1.657 0 -3 -1.343 -3 -3 V 21.645 c 0 -7.15 5.817 -12.967 12.967 -12.967 c 1.657 0 3 1.343 3 3 s -1.343 3 -3 3 c -3.841 0 -6.967 3.125 -6.967 6.967 v 28.935 C 33.342 52.236 31.999 53.579 30.342 53.579 z" style="stroke: none; stroke-width: 1; stroke-dasharray: none; stroke-linecap: butt; stroke-linejoin: miter; stroke-miterlimit: 10; fill: rgb(0,0,0); fill-rule: nonzero; opacity: 1;" transform=" matrix(1 0 0 1 0 0) " stroke-linecap="round" />
	<path d="M 59.933 53.579 c -1.657 0 -3 -1.343 -3 -3 V 21.645 c 0 -7.15 5.816 -12.967 12.967 -12.967 c 1.657 0 3 1.343 3 3 s -1.343 3 -3 3 c -3.842 0 -6.967 3.125 -6.967 6.967 v 28.935 C 62.933 52.236 61.59 53.579 59.933 53.579 z" style="stroke: none; stroke-width: 1; stroke-dasharray: none; stroke-linecap: butt; stroke-linejoin: miter; stroke-miterlimit: 10; fill: rgb(0,0,0); fill-rule: nonzero; opacity: 1;" transform=" matrix(1 0 0 1 0 0) " stroke-linecap="round" />
	<path d="M 59.933 46.434 h -29.59 c -1.657 0 -3 -1.343 -3 -3 s 1.343 -3 3 -3 h 29.59 c 1.657 0 3 1.343 3 3 S 61.59 46.434 59.933 46.434 z" style="stroke: none; stroke-width: 1; stroke-dasharray: none; stroke-linecap: butt; stroke-linejoin: miter; stroke-miterlimit: 10; fill: rgb(0,0,0); fill-rule: nonzero; opacity: 1;" transform=" matrix(1 0 0 1 0 0) " stroke-linecap="round" />
	<path d="M 59.933 31.162 h -29.59 c -1.657 0 -3 -1.343 -3 -3 s 1.343 -3 3 -3 h 29.59 c 1.657 0 3 1.343 3 3 S 61.59 31.162 59.933 31.162 z" style="stroke: none; stroke-width: 1; stroke-dasharray: none; stroke-linecap: butt; stroke-linejoin: miter; stroke-miterlimit: 10; fill: rgb(0,0,0); fill-rule: nonzero; opacity: 1;" transform=" matrix(1 0 0 1 0 0) " stroke-linecap="round" />
	<path d="M 28.2 81.315 c -3.545 0 -7.089 -1.598 -10.464 -4.795 c -4.44 -4.207 -8.231 -4.207 -12.673 0 c -1.202 1.141 -3.101 1.089 -4.241 -0.114 c -1.139 -1.203 -1.088 -3.102 0.115 -4.241 c 6.748 -6.393 14.18 -6.391 20.926 0 c 4.442 4.206 8.232 4.21 12.674 0 c 6.748 -6.391 14.179 -6.393 20.927 0 c 4.442 4.208 8.232 4.206 12.673 0 c 6.747 -6.392 14.178 -6.394 20.927 0 c 1.202 1.14 1.254 3.038 0.114 4.241 c -1.139 1.2 -3.038 1.254 -4.241 0.114 c -4.439 -4.205 -8.229 -4.207 -12.673 0 c -6.747 6.394 -14.178 6.394 -20.927 0 c -4.442 -4.208 -8.232 -4.206 -12.674 0 C 35.29 79.717 31.745 81.314 28.2 81.315 z" style="stroke: none; stroke-width: 1; stroke-dasharray: none; stroke-linecap: butt; stroke-linejoin: miter; stroke-miterlimit: 10; fill: rgb(0,0,0); fill-rule: nonzero; opacity: 1;" transform=" matrix(1 0 0 1 0 0) " stroke-linecap="round" />
	<path d="M 28.2 67.77 c -3.544 0 -7.089 -1.598 -10.463 -4.794 c -4.441 -4.207 -8.231 -4.209 -12.673 0 c -1.203 1.14 -3.101 1.088 -4.241 -0.114 c -1.14 -1.203 -1.088 -3.102 0.114 -4.241 c 6.749 -6.395 14.18 -6.393 20.927 0 c 4.441 4.208 8.232 4.206 12.674 0 c 6.747 -6.394 14.178 -6.392 20.927 0 c 4.44 4.208 8.232 4.206 12.673 0 c 6.75 -6.395 14.181 -6.393 20.927 0 c 1.202 1.14 1.254 3.038 0.114 4.241 c -1.139 1.201 -3.038 1.255 -4.241 0.114 c -4.442 -4.21 -8.232 -4.208 -12.673 0 c -6.748 6.391 -14.179 6.393 -20.927 0 c -4.442 -4.207 -8.232 -4.207 -12.673 0 C 35.29 66.172 31.745 67.77 28.2 67.77 z" style="stroke: none; stroke-width: 1; stroke-dasharray: none; stroke-linecap: butt; stroke-linejoin: miter; stroke-miterlimit: 10; fill: rgb(0,0,0); fill-rule: nonzero; opacity: 1;" transform=" matrix(1 0 0 1 0 0) " stroke-linecap="round" />
</g>
</svg>